<svg width="69" height="69" viewBox="0 0 69 69" fill="none" xmlns="http://www.w3.org/2000/svg">
<rect width="69" height="69" rx="34.5" fill="#FF6D67"/>
<path fill-rule="evenodd" clip-rule="evenodd" d="M32.8777 19.9871C33.5231 19.6152 34.2548 19.4194 34.9997 19.4194C35.7446 19.4194 36.4764 19.6152 37.1217 19.9871L37.1247 19.9888L47.0413 25.6555C47.566 25.9584 48.0184 26.3691 48.3697 26.8588C48.4546 26.944 48.53 27.0415 48.593 27.1505C48.6472 27.2442 48.6895 27.3416 48.7204 27.4408C49.0125 28.0272 49.1657 28.6743 49.1663 29.3317V40.668C49.1656 41.4133 48.9688 42.1453 48.5959 42.7905C48.2229 43.4358 47.6868 43.9716 47.0413 44.3442L47.0359 44.3474L37.1247 50.0109L37.1221 50.0124C36.6728 50.2713 36.1817 50.445 35.6733 50.5266C35.473 50.6351 35.2435 50.6967 34.9997 50.6967C34.7558 50.6967 34.5264 50.6351 34.326 50.5266C33.8177 50.445 33.3266 50.2714 32.8773 50.0124L32.8747 50.0109L22.9635 44.3474L22.958 44.3442C22.3126 43.9716 21.7765 43.4358 21.4035 42.7905C21.0305 42.1453 20.8338 41.4133 20.833 40.668V29.3317C20.8337 28.676 20.9861 28.0305 21.2767 27.4454C21.3077 27.3446 21.3504 27.2457 21.4055 27.1505C21.4693 27.0402 21.5457 26.9417 21.6318 26.8558C21.9828 26.3674 22.4344 25.9578 22.958 25.6555L22.9635 25.6523L32.8777 19.9871ZM36.4163 47.1524L45.6247 41.8905L45.6269 41.8892C45.8411 41.765 46.019 41.5869 46.1429 41.3726C46.2672 41.1575 46.3328 40.9135 46.333 40.6651V30.0944L36.4163 35.8309V47.1524ZM33.583 35.8314V47.1524L24.3747 41.8905L24.3724 41.8892C24.1583 41.765 23.9804 41.5869 23.8565 41.3726C23.7323 41.1577 23.6667 40.9139 23.6663 40.6657V30.0949L33.583 35.8314ZM35.708 22.4426L44.8609 27.6728L34.9992 33.3774L25.138 27.673L34.2859 22.4457L34.2913 22.4426C34.5067 22.3182 34.751 22.2528 34.9997 22.2528C35.2484 22.2528 35.4926 22.3182 35.708 22.4426Z" fill="white"/>
</svg>
