<svg width="69" height="69" viewBox="0 0 69 69" fill="none" xmlns="http://www.w3.org/2000/svg">
<rect width="69" height="69" rx="34.5" fill="#FF6D67"/>
<path fill-rule="evenodd" clip-rule="evenodd" d="M21.3333 21.6665C20.597 21.6665 20 22.2635 20 22.9998V40.3332C20 41.0696 20.597 41.6665 21.3333 41.6665H23.1158C22.8278 42.2727 22.6667 42.9508 22.6667 43.6665C22.6667 46.2438 24.756 48.3332 27.3333 48.3332C29.9107 48.3332 32 46.2438 32 43.6665C32 42.9508 31.8389 42.2727 31.5509 41.6665H40.4491C40.1611 42.2727 40 42.9508 40 43.6665C40 46.2438 42.0893 48.3332 44.6667 48.3332C47.244 48.3332 49.3333 46.2438 49.3333 43.6665C49.3333 42.9508 49.1722 42.2727 48.8842 41.6665H50.6667C51.403 41.6665 52 41.0695 52 40.3332V33.6665C52 33.3129 51.8595 32.9737 51.6095 32.7237L47.6095 28.7237C47.3594 28.4736 47.0203 28.3332 46.6667 28.3332H42.6667V22.9998C42.6667 22.2635 42.0697 21.6665 41.3333 21.6665H21.3333ZM42.6667 30.9998V38.9998L44.6667 38.9998L49.3333 38.9998V34.2188L46.1144 30.9998H42.6667ZM40 29.6665L40 24.3332H22.6667V38.9998H27.3333H40L40 29.6665ZM27.3333 41.6665C26.2288 41.6665 25.3333 42.5619 25.3333 43.6665C25.3333 44.7711 26.2288 45.6665 27.3333 45.6665C28.4379 45.6665 29.3333 44.7711 29.3333 43.6665C29.3333 42.5619 28.4379 41.6665 27.3333 41.6665ZM42.6667 43.6665C42.6667 42.5619 43.5621 41.6665 44.6667 41.6665C45.7712 41.6665 46.6667 42.5619 46.6667 43.6665C46.6667 44.7711 45.7712 45.6665 44.6667 45.6665C43.5621 45.6665 42.6667 44.7711 42.6667 43.6665Z" fill="white"/>
</svg>
