<svg width="69" height="69" viewBox="0 0 69 69" fill="none" xmlns="http://www.w3.org/2000/svg">
<rect width="69" height="69" rx="34.5" fill="#FF6D67"/>
<path d="M34.85 54C34.648 54 34.4431 53.958 34.256 53.874C33.6739 53.619 20 47.4419 20 34.8206V24.2124C20 23.5764 20.401 23.0064 20.995 22.7964L34.3599 18.0833C34.6777 17.9722 35.0223 17.9722 35.3401 18.0833L48.7051 22.7964C49.2991 23.0064 49.7 23.5764 49.7 24.2124V34.8206C49.7 47.4449 36.0261 53.619 35.444 53.874C35.2569 53.958 35.052 54 34.85 54ZM22.97 25.2774V34.8206C22.97 44.1358 32.3641 49.5629 34.847 50.8349C37.33 49.5599 46.73 44.1088 46.73 34.8206V25.2774L34.85 21.0893L22.97 25.2774Z" fill="white"/>
<path d="M33.8328 40.5001C33.812 40.5001 33.7889 40.5001 33.7704 40.4976C33.4333 40.4776 33.1261 40.3026 32.9206 40.0152L28.3411 35.5501C27.9508 35.0027 28.0432 34.2179 28.5489 33.7955C29.05 33.3731 29.7775 33.4706 30.1677 34.018L33.9297 37.3434L39.6152 30.9799C40.0563 30.485 40.7883 30.4725 41.2478 30.9499C41.7051 31.4298 41.7189 32.2196 41.2756 32.717L34.6641 40.1177C34.4424 40.3626 34.1445 40.5001 33.8328 40.5001Z" fill="white"/>
</svg>
