<svg width="69" height="69" viewBox="0 0 69 69" fill="none" xmlns="http://www.w3.org/2000/svg">
<rect width="69" height="69" rx="34.5" fill="#FF6D67"/>
<path d="M41.0091 42.9814C40.9666 42.4235 40.5232 41.9801 39.9652 41.9375C39.3411 41.9851 38.8738 42.5295 38.9213 43.1535C38.9638 43.7114 39.4072 44.1548 39.9652 44.1974C40.5893 44.1499 41.0565 43.6054 41.0091 42.9814Z" fill="white" stroke="white"/>
<path d="M45.0754 41.4028C45.033 40.8448 44.5896 40.4015 44.0316 40.3589C43.4075 40.4065 42.9402 40.9509 42.9877 41.5749C43.0302 42.1328 43.4736 42.5762 44.0316 42.6188C44.6557 42.5713 45.1229 42.0268 45.0754 41.4028Z" fill="white" stroke="white"/>
<path d="M50.7691 27.3794V27.327C50.7548 27.2906 50.7372 27.2556 50.7167 27.2222L50.6774 27.1698L50.5988 27.0847L50.5529 27.0454L50.4678 27.0061H50.435L36.2077 21.1894C36.0502 21.1257 35.874 21.1257 35.7164 21.1894L21.5219 26.9078H21.4891L21.404 26.9471L21.3581 26.9864L21.2795 27.0716L21.2402 27.124C21.2196 27.1573 21.2021 27.1923 21.1878 27.2288V27.2812C21.1809 27.3356 21.1809 27.3906 21.1878 27.4449V32.6852H13.6746C13.3128 32.6852 13.0195 32.9785 13.0195 33.3402C13.0195 33.702 13.3128 33.9953 13.6746 33.9953V34.0804H21.1092V36.3206H18.5611C18.1994 36.3206 17.9061 36.6139 17.9061 36.9757C17.9061 37.3374 18.1994 37.6307 18.5611 37.6307H21.1092V39.8709H15.0698C14.708 39.8709 14.4148 40.1642 14.4148 40.526C14.4148 40.8877 14.708 41.181 15.0698 41.181H21.1092V43.919C21.1105 44.1835 21.2707 44.4212 21.5153 44.5217L35.7164 50.417C35.7874 50.4451 35.8628 50.4606 35.9391 50.4628C36.0155 50.4606 36.0909 50.4451 36.1619 50.417L50.363 44.5217C50.6075 44.4212 50.7678 44.1835 50.7691 43.919V27.5432C50.776 27.4888 50.776 27.4338 50.7691 27.3794ZM35.9588 22.5191L41.3432 24.6742L29.094 29.8555L23.4935 27.5235L35.9588 22.5191ZM35.2841 48.8383L22.4193 43.4802V41.1744H25.1376C25.4994 41.1744 25.7927 40.8811 25.7927 40.5194C25.7927 40.1577 25.4994 39.8644 25.1376 39.8644H22.4193V37.6242H28.6421C29.0038 37.6242 29.2971 37.3309 29.2971 36.9691C29.2971 36.6074 29.0038 36.3141 28.6421 36.3141H22.4193V34.0804H23.7293C24.0911 34.0804 24.3844 33.7871 24.3844 33.4254C24.3844 33.0637 24.0911 32.7704 23.7293 32.7704H22.4193V28.4995L27.4237 30.5695L35.2841 33.8446V48.8383ZM35.9653 32.7376L30.7906 30.5695L43.0528 25.3685L48.4175 27.5301L40.603 30.8053L35.9653 32.7376ZM36.6138 48.8383V33.8446L40.3017 32.3118L49.4721 28.4864L49.5049 43.4802L36.6138 48.8383Z" fill="white" stroke="white"/>
</svg>
