<svg width="69" height="69" viewBox="0 0 69 69" fill="none" xmlns="http://www.w3.org/2000/svg">
<rect width="69" height="69" rx="34.5" fill="#FF6D67"/>
<path d="M55.1668 29.0866C55.2816 28.6156 55.2162 28.1186 54.9835 27.6933C54.3893 26.6623 53.5974 25.7588 52.6532 25.0346C51.709 24.3104 50.6311 23.7798 49.4813 23.4732C48.3316 23.1666 47.1326 23.09 45.9531 23.2479C44.7737 23.4058 43.6371 23.7951 42.6085 24.3933L38.6668 26.6666L29.5001 22.3583C29.2395 22.2233 28.9503 22.1528 28.6568 22.1528C28.3633 22.1528 28.0741 22.2233 27.8135 22.3583L22.3135 25.53C22.0416 25.6868 21.8146 25.9107 21.6541 26.1803C21.4936 26.45 21.405 26.7563 21.3968 27.07C21.3879 27.386 21.4609 27.6989 21.6087 27.9784C21.7564 28.2579 21.974 28.4944 22.2401 28.665L28.2901 32.4783L25.1001 34.3116L16.3368 35.375C15.9845 35.4186 15.6524 35.5635 15.3809 35.7921C15.1094 36.0208 14.9101 36.3233 14.8072 36.663C14.7043 37.0028 14.7023 37.3651 14.8013 37.7059C14.9003 38.0468 15.0962 38.3516 15.3651 38.5833L21.8551 44.1933C22.7095 45.0088 23.8038 45.5275 24.9759 45.6728C26.148 45.8181 27.3358 45.5822 28.3635 45L54.2501 30.205C54.4707 30.0905 54.6658 29.9323 54.8234 29.74C54.981 29.5478 55.0978 29.3255 55.1668 29.0866ZM26.6951 41.92C26.343 42.1138 25.9369 42.1864 25.5393 42.1268C25.1418 42.0672 24.7749 41.8786 24.4951 41.59L21.0118 38.6016L26.0168 37.9966C26.2627 37.9651 26.4997 37.8841 26.7135 37.7583L32.8735 34.22C33.1479 34.0616 33.3766 33.8348 33.5372 33.5617C33.6979 33.2886 33.785 32.9785 33.7901 32.6616C33.7939 32.347 33.7166 32.0367 33.5657 31.7605C33.4148 31.4844 33.1953 31.2517 32.9285 31.085L26.8785 27.2533L28.8951 26.0983L38.0618 30.3516C38.3224 30.4867 38.6116 30.5571 38.9051 30.5571C39.1986 30.5571 39.4878 30.4867 39.7485 30.3516L44.4418 27.6383C45.4036 27.0993 46.5051 26.8618 47.6036 26.9566C48.702 27.0514 49.7466 27.4742 50.6018 28.17L26.6951 41.92Z" fill="white"/>
</svg>
