<svg width="69" height="69" viewBox="0 0 69 69" fill="none" xmlns="http://www.w3.org/2000/svg">
<rect width="69" height="69" rx="34.5" fill="#FF6D67"/>
<path d="M42.963 49.4724C39.3735 49.4724 36.4531 46.5521 36.4531 42.9625C36.4531 39.373 39.3735 36.4526 42.963 36.4526C46.5526 36.4526 49.4729 39.373 49.4729 42.9625C49.4729 46.5521 46.5526 49.4724 42.963 49.4724ZM42.963 37.7546C40.0909 37.7546 37.7551 40.0904 37.7551 42.9625C37.7551 45.8347 40.0909 48.1705 42.963 48.1705C45.8352 48.1705 48.1709 45.8347 48.1709 42.9625C48.1709 40.0904 45.8352 37.7546 42.963 37.7546Z" fill="white" stroke="white" stroke-width="1.5"/>
<path d="M51.4264 52.076C51.2597 52.076 51.0931 52.0123 50.9655 51.886L46.6455 47.566C46.3916 47.3121 46.3916 46.8994 46.6455 46.6455C46.8994 46.3916 47.3121 46.3916 47.566 46.6455L51.886 50.9655C52.1399 51.2193 52.1399 51.6321 51.886 51.886C51.7597 52.0123 51.593 52.076 51.4264 52.076Z" fill="white" stroke="white" stroke-width="1.5"/>
<path d="M33.299 48.1716H22.783C21.7063 48.1716 20.8301 47.2954 20.8301 46.2187V22.783C20.8301 21.7063 21.7063 20.8301 22.783 20.8301H46.2187C47.2954 20.8301 48.1716 21.7063 48.1716 22.783V33.299C48.1716 33.6584 47.88 33.95 47.5207 33.95C47.1613 33.95 46.8697 33.6584 46.8697 33.299V22.783C46.8697 22.4237 46.5767 22.1321 46.2187 22.1321H22.783C22.425 22.1321 22.1321 22.4237 22.1321 22.783V46.2187C22.1321 46.578 22.425 46.8697 22.783 46.8697H33.299C33.6584 46.8697 33.95 47.1613 33.95 47.5207C33.95 47.88 33.6584 48.1716 33.299 48.1716Z" fill="white" stroke="white" stroke-width="1.5"/>
<path d="M39.7084 32.5464C39.5704 32.5464 39.4324 32.5022 39.3178 32.4162L34.5005 28.8032L29.6832 32.4162C29.4853 32.5647 29.2197 32.5881 29.0009 32.4774C28.7809 32.3668 28.6416 32.1415 28.6416 31.8954V21.4796C28.6416 21.1203 28.9332 20.8286 29.2926 20.8286H39.7084C40.0678 20.8286 40.3594 21.1203 40.3594 21.4796V31.8954C40.3594 32.1415 40.2201 32.3668 40.0001 32.4774C39.9076 32.523 39.8074 32.5464 39.7084 32.5464ZM34.5005 27.3385C34.6372 27.3385 34.7752 27.3815 34.8911 27.4687L39.0574 30.5935V22.1306H29.9436V30.5935L34.1099 27.4687C34.2258 27.3815 34.3638 27.3385 34.5005 27.3385Z" fill="white" stroke="white" stroke-width="1.5"/>
</svg>
