<?xml version="1.0" encoding="utf-8"?>
<!-- Generator: Adobe Illustrator 24.0.2, SVG Export Plug-In . SVG Version: 6.00 Build 0)  -->
<svg version="1.1" xmlns="http://www.w3.org/2000/svg" xmlns:xlink="http://www.w3.org/1999/xlink" x="0px" y="0px"
	 viewBox="0 0 1000 700" style="enable-background:new 0 0 1000 700;" xml:space="preserve">
<style type="text/css">
	.st0{fill:#F3EFF9;}
	.st1{fill:#E1D9F0;}
	.st2{fill:#D3CAE7;}
	.st3{fill:#C6B9E5;}
	.st4{fill:#C8B9E5;}
	.st5{fill:#F2A7A7;}
	.st6{fill:#FFFFFF;}
	.st7{opacity:0.4;}
	.st8{opacity:0.5;}
	.st9{opacity:0.3;}
	.st10{clip-path:url(#SVGID_32_);}
	.st11{fill:#FFBAA6;}
	.st12{fill:#F2A391;}
	.st13{fill:#FFCDBB;}
	.st14{fill:#DDC2BC;}
	.st15{fill:#7AD1E5;}
	.st16{fill:#92E0F7;}
	.st17{fill:#D8735B;}
	.st18{fill:#F4A998;}
	.st19{fill:#F9AB98;}
	.st20{fill:#E05A5A;}
	.st21{fill:#F4AB9A;}
	.st22{fill:#8F8BC6;}
	.st23{fill:#524D93;}
	.st24{fill:#254860;}
	.st25{fill:#325572;}
	.st26{opacity:0.14;fill:#FFFFFF;}
	.st27{clip-path:url(#SVGID_34_);}
	.st28{opacity:0.26;}
	.st29{fill:#D9E1E5;}
	.st30{fill:#B6B5EA;}
	.st31{fill:#665DA4;}
	.st32{opacity:0.5;fill:#FFFFFF;}
	.st33{opacity:0.2;}
	.st34{opacity:0.3;fill:#FFFFFF;}
	.st35{fill:#595959;}
	.st36{fill:#EAC89B;}
	.st37{opacity:0.05;fill:#FFFFFF;}
	.st38{opacity:0.1;}
	.st39{opacity:0.2;fill:#FFFFFF;}
	.st40{fill:#C2905A;}
	.st41{fill:#3F2E1D;}
	.st42{opacity:0.2;fill:#3F2E1D;}
	.st43{opacity:0.3;fill:#3F2E1D;}
	.st44{opacity:0.15;}
	.st45{fill:#675EA6;}
	.st46{fill:#ED6C66;}
	.st47{fill:#E8B476;}
	.st48{fill:#656565;}
	.st49{fill:#BD9F81;}
	.st50{opacity:0.4;fill:#FFFFFF;}
	.st51{fill:#CDB494;}
	.st52{fill:none;}
	.st53{fill:#A3BACC;}
	.st54{fill:#555F63;}
	.st55{fill:#DBE3E6;}
	.st56{fill:#5F6A6D;}
	.st57{fill:#333B3D;}
	.st58{opacity:0.8;fill:#FFFFFF;}
	.st59{fill:#738C99;}
	.st60{opacity:0.6;fill:#FFFFFF;}
	.st61{fill:#9DB4C6;}
	.st62{fill:#747F82;}
	.st63{fill:#D1E3E8;}
	.st64{fill:#C1272D;}
	.st65{fill:#4AD0FF;}
	.st66{fill:#F7931E;}
	.st67{fill:#00FFFF;}
	.st68{fill:#D8AC6C;}
	.st69{fill:#E6BF7F;}
	.st70{opacity:0.12;}
	.st71{fill:#EC6B66;}
	.st72{opacity:0.49;}
	.st73{opacity:0.19;}
	.st74{opacity:0.35;fill:#99BFE6;}
	.st75{opacity:0.5;fill:#936354;}
	.st76{fill:#B78B64;}
	.st77{fill:#603A17;}
	.st78{fill:none;stroke:#603A17;stroke-width:0.9199;stroke-miterlimit:10;}
	.st79{fill:url(#SVGID_35_);}
	.st80{fill:#E6CCBB;}
	.st81{fill:#964F30;}
	.st82{fill:url(#SVGID_36_);}
	.st83{opacity:0.8;}
	.st84{opacity:0.2;fill:#936354;}
	.st85{opacity:0.6;fill:#936354;}
	.st86{fill:url(#SVGID_37_);}
	.st87{fill:#B25B3D;}
	.st88{fill:#FFD692;}
	.st89{fill:url(#SVGID_38_);}
	.st90{fill:#C99771;}
	.st91{fill:url(#SVGID_39_);}
	.st92{fill:url(#SVGID_40_);}
	.st93{fill:url(#SVGID_41_);}
	.st94{fill:#D3794C;}
	.st95{fill:none;stroke:#603A17;stroke-width:0.9199;stroke-linejoin:round;stroke-miterlimit:10;}
	.st96{fill:#DD9C68;}
	.st97{fill:url(#SVGID_42_);}
	.st98{clip-path:url(#SVGID_44_);fill:#E79F5F;}
	.st99{clip-path:url(#SVGID_44_);fill:#E69E5E;}
	.st100{clip-path:url(#SVGID_44_);fill:#E59D5D;}
	.st101{clip-path:url(#SVGID_44_);fill:#E59D5C;}
	.st102{clip-path:url(#SVGID_44_);fill:#E49C5B;}
	.st103{clip-path:url(#SVGID_44_);fill:#E39B5A;}
	.st104{clip-path:url(#SVGID_44_);fill:#E29A59;}
	.st105{clip-path:url(#SVGID_44_);fill:#E29958;}
	.st106{clip-path:url(#SVGID_44_);fill:#E19857;}
	.st107{clip-path:url(#SVGID_44_);fill:#E09755;}
	.st108{clip-path:url(#SVGID_44_);fill:#DF9654;}
	.st109{clip-path:url(#SVGID_44_);fill:#DD9553;}
	.st110{clip-path:url(#SVGID_44_);fill:#DC9451;}
	.st111{clip-path:url(#SVGID_44_);fill:#DB9250;}
	.st112{clip-path:url(#SVGID_44_);fill:#DA914E;}
	.st113{clip-path:url(#SVGID_46_);fill:#FFDE9B;}
	.st114{clip-path:url(#SVGID_46_);fill:#FFDD9A;}
	.st115{clip-path:url(#SVGID_46_);fill:#FFDC99;}
	.st116{clip-path:url(#SVGID_46_);fill:#FFDC98;}
	.st117{clip-path:url(#SVGID_46_);fill:#FFDB97;}
	.st118{clip-path:url(#SVGID_46_);fill:#FFDA96;}
	.st119{clip-path:url(#SVGID_46_);fill:#FFD995;}
	.st120{clip-path:url(#SVGID_46_);fill:#FFD894;}
	.st121{clip-path:url(#SVGID_46_);fill:#FFD793;}
	.st122{clip-path:url(#SVGID_46_);fill:#FFD691;}
	.st123{clip-path:url(#SVGID_46_);fill:#FFD590;}
	.st124{clip-path:url(#SVGID_46_);fill:#FFD48F;}
	.st125{clip-path:url(#SVGID_46_);fill:#FFD38D;}
	.st126{clip-path:url(#SVGID_46_);fill:#FFD18C;}
	.st127{clip-path:url(#SVGID_46_);fill:#FFD08A;}
	.st128{fill:url(#SVGID_47_);}
	.st129{fill:#6F757F;}
	.st130{fill:#A37452;}
	.st131{fill:#3E60B5;}
	.st132{fill:#FEBC7B;}
	.st133{fill:#936354;}
	.st134{fill:none;stroke:#FFD692;stroke-width:1.3799;stroke-miterlimit:10;}
	.st135{fill:#4D4893;}
	.st136{fill:#F0F0F0;}
	.st137{fill:#8580BC;}
	.st138{opacity:0.11;}
	.st139{fill:#4C4C4C;}
	.st140{fill:#BCBEC0;}
	.st141{fill:url(#SVGID_48_);}
	.st142{fill:url(#SVGID_49_);}
	.st143{fill:url(#SVGID_50_);}
	.st144{fill:url(#SVGID_51_);}
	.st145{fill:url(#SVGID_52_);}
	.st146{fill:url(#SVGID_53_);}
	.st147{fill:url(#SVGID_54_);}
	.st148{fill:url(#SVGID_55_);}
	.st149{fill:url(#SVGID_56_);}
	.st150{fill:url(#SVGID_57_);}
	.st151{fill:url(#SVGID_58_);}
	.st152{opacity:0.3;fill:#A37452;}
	.st153{fill:#F1F2F2;}
	.st154{fill:#A7A9AC;}
	.st155{opacity:0.11;fill:#FFFFFF;}
	.st156{fill:none;stroke:#EC6B66;stroke-width:2.3895;stroke-miterlimit:10;}
	.st157{fill:#514D8E;}
	.st158{fill:#8883C4;}
	.st159{fill:#455586;}
	.st160{fill:#F6F6F5;}
	.st161{fill:#919191;}
	.st162{fill:#585858;}
	.st163{fill:#EBCB98;}
	.st164{fill:#D7B879;}
	.st165{fill:#CDAC78;}
	.st166{fill:#CA9E55;}
	.st167{fill:#A09DA0;}
	.st168{fill:#AFAEAF;}
	.st169{fill:#F1F1F1;}
	.st170{fill:#676866;}
	.st171{fill:#D6AA69;}
	.st172{fill:#CCAF83;}
	.st173{fill:#C6A166;}
	.st174{fill:#C8A283;}
	.st175{fill:#C7976A;}
</style>
<g id="Layer_2">
	<g>
		<g>
			<rect x="562.02" y="212.52" class="st1" width="57.69" height="378.58"/>
			<rect x="197.32" y="413.98" class="st0" width="49.37" height="177.11"/>
			<rect x="197.32" y="424.05" class="st6" width="49.37" height="8.34"/>
			<rect x="197.32" y="439.97" class="st6" width="49.37" height="8.34"/>
			<rect x="197.32" y="455.89" class="st6" width="49.37" height="8.34"/>
			<rect x="197.32" y="471.82" class="st6" width="49.37" height="8.34"/>
			<rect x="197.32" y="487.74" class="st6" width="49.37" height="8.34"/>
			<rect x="197.32" y="503.66" class="st6" width="49.37" height="8.34"/>
			<rect x="197.32" y="519.58" class="st6" width="49.37" height="8.34"/>
			<rect x="197.32" y="535.5" class="st6" width="49.37" height="8.34"/>
			<rect x="197.32" y="551.42" class="st6" width="49.37" height="8.34"/>
			<rect x="197.32" y="567.35" class="st6" width="49.37" height="8.34"/>
			<rect x="246.69" y="413.98" class="st1" width="42.39" height="177.11"/>
			<rect x="131.71" y="407.41" class="st0" width="46.89" height="183.69"/>
			<rect x="178.6" y="407.41" class="st1" width="39.65" height="183.69"/>
			<rect x="289.08" y="331.27" class="st0" width="87.54" height="259.83"/>
			<rect x="296.44" y="341.94" class="st6" width="13.32" height="238.47"/>
			<rect x="316.38" y="341.94" class="st6" width="13.32" height="238.47"/>
			<rect x="336.33" y="341.94" class="st6" width="13.32" height="238.47"/>
			<rect x="356.27" y="341.94" class="st6" width="13.32" height="238.47"/>
			<rect x="376.61" y="331.27" class="st1" width="43.43" height="259.83"/>
			<rect x="420.04" y="212.52" class="st0" width="141.98" height="378.58"/>
			<rect x="322.21" y="306.91" class="st0" width="38.71" height="24.36"/>
			<rect x="436.9" y="199.2" class="st0" width="38.71" height="13.31"/>
			<rect x="455.05" y="154.48" class="st0" width="2.4" height="44.72"/>
			<rect x="475.61" y="199.2" class="st1" width="15.42" height="13.31"/>
			<rect x="360.92" y="306.91" class="st1" width="25.94" height="24.36"/>
			<rect x="135.48" y="415.91" class="st6" width="39.36" height="6.35"/>
			<rect x="135.48" y="432.21" class="st6" width="39.36" height="6.35"/>
			<rect x="135.48" y="448.5" class="st6" width="39.36" height="6.35"/>
			<rect x="135.48" y="464.79" class="st6" width="39.36" height="6.35"/>
			<rect x="135.48" y="481.09" class="st6" width="39.36" height="6.35"/>
			<rect x="135.48" y="497.38" class="st6" width="39.36" height="6.35"/>
			<rect x="135.48" y="513.68" class="st6" width="39.36" height="6.35"/>
			<rect x="135.48" y="529.97" class="st6" width="39.36" height="6.35"/>
			<rect x="135.48" y="546.26" class="st6" width="39.36" height="6.35"/>
			<rect x="135.48" y="562.56" class="st6" width="39.36" height="6.35"/>
			<rect x="434.65" y="227.21" class="st6" width="26.41" height="34.47"/>
			<rect x="474.01" y="227.21" class="st6" width="26.41" height="34.47"/>
			<rect x="513.37" y="227.21" class="st6" width="26.41" height="34.47"/>
			<rect x="580.75" y="227.21" class="st6" width="26.41" height="34.47"/>
			<rect x="580.75" y="281.53" class="st6" width="26.41" height="34.47"/>
			<rect x="580.75" y="335.85" class="st6" width="26.41" height="34.47"/>
			<rect x="580.75" y="390.17" class="st6" width="26.41" height="34.47"/>
			<rect x="580.75" y="444.49" class="st6" width="26.41" height="34.47"/>
			<rect x="580.75" y="498.81" class="st6" width="26.41" height="34.47"/>
			<rect x="434.65" y="281.53" class="st6" width="26.41" height="34.47"/>
			<rect x="474.01" y="281.53" class="st6" width="26.41" height="34.47"/>
			<rect x="513.37" y="281.53" class="st6" width="26.41" height="34.47"/>
			<rect x="434.65" y="335.85" class="st6" width="26.41" height="34.47"/>
			<rect x="474.01" y="335.85" class="st6" width="26.41" height="34.47"/>
			<rect x="513.37" y="335.85" class="st6" width="26.41" height="34.47"/>
			<rect x="434.65" y="390.17" class="st6" width="26.41" height="34.47"/>
			<rect x="474.01" y="390.17" class="st6" width="26.41" height="34.47"/>
			<rect x="513.37" y="390.17" class="st6" width="26.41" height="34.47"/>
			<rect x="434.65" y="444.49" class="st6" width="26.41" height="34.47"/>
			<rect x="474.01" y="444.49" class="st6" width="26.41" height="34.47"/>
			<rect x="513.37" y="444.49" class="st6" width="26.41" height="34.47"/>
			<rect x="434.65" y="498.81" class="st6" width="26.41" height="34.47"/>
			<rect x="474.01" y="498.81" class="st6" width="26.41" height="34.47"/>
			<rect x="513.37" y="498.81" class="st6" width="26.41" height="34.47"/>
			<rect x="592.05" y="136.97" class="st0" width="200.78" height="454.12"/>
			<rect x="592.05" y="164.02" class="st6" width="200.78" height="11.73"/>
			<rect x="592.05" y="192.61" class="st6" width="200.78" height="11.73"/>
			<rect x="592.05" y="221.19" class="st6" width="200.78" height="11.73"/>
			<rect x="592.05" y="249.78" class="st6" width="200.78" height="11.73"/>
			<rect x="592.05" y="278.37" class="st6" width="200.78" height="11.73"/>
			<rect x="592.05" y="306.95" class="st6" width="200.78" height="11.73"/>
			<rect x="592.05" y="335.54" class="st6" width="200.78" height="11.73"/>
			<rect x="592.05" y="364.12" class="st6" width="200.78" height="11.73"/>
			<rect x="592.05" y="392.71" class="st6" width="200.78" height="11.73"/>
			<rect x="592.05" y="421.29" class="st6" width="200.78" height="11.73"/>
			<rect x="592.05" y="449.88" class="st6" width="200.78" height="11.73"/>
			<rect x="592.05" y="478.47" class="st6" width="200.78" height="11.73"/>
			<rect x="792.82" y="136.97" class="st1" width="75.47" height="454.12"/>
			<rect x="792.82" y="164.02" class="st6" width="75.47" height="11.73"/>
			<rect x="792.82" y="192.61" class="st6" width="75.47" height="11.73"/>
			<rect x="792.82" y="221.2" class="st6" width="75.47" height="11.73"/>
			<rect x="792.82" y="249.78" class="st6" width="75.47" height="11.73"/>
			<rect x="792.82" y="278.37" class="st6" width="75.47" height="11.73"/>
			<rect x="792.82" y="306.95" class="st6" width="75.47" height="11.73"/>
			<rect x="792.82" y="335.54" class="st6" width="75.47" height="11.73"/>
			<rect x="792.82" y="364.12" class="st6" width="75.47" height="11.73"/>
			<rect x="792.82" y="392.71" class="st6" width="75.47" height="11.73"/>
			<rect x="792.82" y="421.29" class="st6" width="75.47" height="11.73"/>
			<rect x="792.82" y="449.88" class="st6" width="75.47" height="11.73"/>
			<rect x="792.82" y="478.47" class="st6" width="75.47" height="11.73"/>
			<rect x="592.05" y="507.05" class="st6" width="200.78" height="11.73"/>
			<rect x="792.82" y="507.05" class="st6" width="75.47" height="11.73"/>
			<rect x="592.05" y="535.64" class="st6" width="200.78" height="11.73"/>
			<rect x="792.82" y="535.64" class="st6" width="75.47" height="11.73"/>
		</g>
		<g>
			<path class="st5" d="M171.27,345.31c-8.26,0-14.95,6.69-14.95,14.95c0,8.26,14.95,26.03,14.95,26.03s14.94-17.77,14.94-26.03
				C186.22,352,179.52,345.31,171.27,345.31z M171.27,368.47c-4.22,0-7.64-3.42-7.64-7.63c0-4.22,3.42-7.64,7.64-7.64
				c4.22,0,7.63,3.42,7.63,7.64C178.9,365.05,175.49,368.47,171.27,368.47z"/>
		</g>
		<g>
			<path class="st5" d="M354.13,242.71c-10.47,0-18.96,8.49-18.96,18.96c0,10.47,18.96,33.01,18.96,33.01s18.96-22.54,18.96-33.01
				C373.09,251.2,364.6,242.71,354.13,242.71z M354.13,272.09c-5.35,0-9.68-4.34-9.68-9.68c0-5.35,4.34-9.68,9.68-9.68
				c5.35,0,9.68,4.34,9.68,9.68C363.82,267.75,359.48,272.09,354.13,272.09z"/>
		</g>
		<g>
			<path class="st5" d="M734.13,68.83c-11.65,0-21.1,9.45-21.1,21.1s21.1,36.73,21.1,36.73s21.1-25.08,21.1-36.73
				S745.78,68.83,734.13,68.83z M734.13,101.52c-5.95,0-10.78-4.82-10.78-10.78s4.82-10.78,10.78-10.78
				c5.95,0,10.78,4.82,10.78,10.78S740.08,101.52,734.13,101.52z"/>
		</g>
		<g>
			<g>
				<g>
					<rect x="296.48" y="558.44" class="st45" width="463" height="15.03"/>
					<rect x="714.7" y="336.79" class="st53" width="15.03" height="221.65"/>
					<rect x="711.69" y="327.77" class="st54" width="21.05" height="9.02"/>
					<rect x="711.69" y="327.77" class="st9" width="21.05" height="1.5"/>
					<rect x="720.71" y="327.77" class="st9" width="9.02" height="9.02"/>
					<rect x="708.68" y="315.74" class="st55" width="27.06" height="12.03"/>
					<rect x="719.21" y="315.74" class="st33" width="12.03" height="12.03"/>
					<rect x="708.68" y="315.74" class="st33" width="27.06" height="1.5"/>
					<rect x="651.75" y="221.19" class="st56" width="140.92" height="94.54"/>
					<rect x="651.75" y="314.24" class="st33" width="140.92" height="1.5"/>
					<rect x="721.73" y="271.98" class="st57" width="64.93" height="34.19"/>
					<polygon class="st7" points="721.73,271.98 721.73,306.18 723.24,306.18 723.24,274.99 785.16,274.99 785.16,306.18 
						786.66,306.18 786.66,271.98 					"/>
					<rect x="723.72" y="336.79" class="st9" width="4.51" height="221.65"/>
					<rect x="716.2" y="336.79" class="st58" width="3.01" height="221.65"/>
					<rect x="296.48" y="579.48" class="st45" width="463" height="39.66"/>
					<rect x="311.51" y="619.15" class="st59" width="15.03" height="6.01"/>
					<rect x="311.51" y="619.15" class="st9" width="15.03" height="1.5"/>
					<rect x="305.5" y="625.16" class="st54" width="27.06" height="6.01"/>
					<rect x="317.53" y="625.16" class="st9" width="12.03" height="6.01"/>
					<rect x="729.41" y="619.15" class="st59" width="15.03" height="6.01"/>
					<rect x="729.41" y="619.15" class="st9" width="15.03" height="1.5"/>
					<rect x="723.4" y="625.16" class="st54" width="27.06" height="6.01"/>
					<rect x="735.42" y="625.16" class="st9" width="12.03" height="6.01"/>
					<rect x="296.48" y="617.64" class="st33" width="463" height="1.5"/>
					<rect x="296.48" y="579.48" class="st60" width="463" height="1.5"/>
					<rect x="326.55" y="573.47" class="st59" width="402.87" height="6.01"/>
					<rect x="326.55" y="573.47" class="st9" width="402.87" height="1.5"/>
					<rect x="296.48" y="558.44" class="st61" width="7.52" height="15.03"/>
					<rect x="751.96" y="558.44" class="st61" width="7.52" height="15.03"/>
					<rect x="296.48" y="571.97" class="st33" width="463" height="1.5"/>
					<rect x="296.48" y="558.44" class="st60" width="463" height="1.5"/>
					<rect x="714.7" y="336.79" class="st9" width="15.03" height="3.01"/>
					<rect x="714.7" y="555.43" class="st9" width="15.03" height="3.01"/>
					<rect x="721.73" y="228.81" class="st57" width="64.93" height="34.19"/>
					<rect x="659.36" y="228.81" class="st62" width="55.34" height="77.37"/>
					<polygon class="st7" points="721.73,228.81 721.73,263 723.24,263 723.24,231.81 785.16,231.81 785.16,263 786.66,263 
						786.66,228.81 					"/>
					<rect x="689.46" y="284.81" class="st63" width="20.95" height="7.52"/>
					<rect x="689.46" y="292.33" class="st33" width="20.95" height="1.5"/>
					<rect x="663.87" y="284.81" class="st63" width="20.95" height="7.52"/>
					<rect x="663.87" y="292.33" class="st33" width="20.95" height="1.5"/>
					<rect x="702.89" y="270.99" class="st64" width="7.52" height="7.52"/>
					<rect x="663.87" y="270.99" class="st63" width="7.52" height="7.52"/>
					<rect x="663.87" y="278.51" class="st33" width="7.52" height="1.5"/>
					<rect x="676.67" y="270.99" class="st63" width="7.52" height="7.52"/>
					<rect x="676.67" y="278.51" class="st33" width="7.52" height="1.5"/>
					<rect x="689.46" y="270.99" class="st63" width="7.52" height="7.52"/>
					<rect x="689.46" y="278.51" class="st33" width="7.52" height="1.5"/>
					<rect x="702.89" y="278.51" class="st33" width="7.52" height="1.5"/>
					<rect x="702.89" y="255" class="st65" width="7.52" height="7.52"/>
					<rect x="663.87" y="255" class="st63" width="7.52" height="7.52"/>
					<rect x="663.87" y="262.52" class="st33" width="7.52" height="1.5"/>
					<rect x="676.67" y="255" class="st63" width="7.52" height="7.52"/>
					<rect x="676.67" y="262.52" class="st33" width="7.52" height="1.5"/>
					<rect x="689.46" y="255" class="st63" width="7.52" height="7.52"/>
					<rect x="689.46" y="262.52" class="st33" width="7.52" height="1.5"/>
					<rect x="702.89" y="262.52" class="st33" width="7.52" height="1.5"/>
					<rect x="702.89" y="239.01" class="st66" width="7.52" height="7.52"/>
					<rect x="663.87" y="239.01" class="st63" width="7.52" height="7.52"/>
					<rect x="663.87" y="246.53" class="st33" width="7.52" height="1.5"/>
					<rect x="676.67" y="239.01" class="st63" width="7.52" height="7.52"/>
					<rect x="676.67" y="246.53" class="st33" width="7.52" height="1.5"/>
					<rect x="689.46" y="239.01" class="st63" width="7.52" height="7.52"/>
					<rect x="689.46" y="246.53" class="st33" width="7.52" height="1.5"/>
					<rect x="702.89" y="246.53" class="st33" width="7.52" height="1.5"/>
				</g>
				<g>
					<path class="st67" d="M746.29,249.68v1.82h-5.07v-1.82h1.66v-5.19h-1.63v-1.8h1.63v-1.46h2.19v8.45H746.29z"/>
					<path class="st67" d="M755.37,251.5l-2.79-3.53v3.53h-2.19v-10.8h2.19v6.09l2.69-3.07h2.44l-3.1,3.61l3.15,4.18H755.37z"/>
					<path class="st67" d="M765.69,243.71v6.6c0,2.38-1.57,4.02-4.27,4.02c-2.17,0-3.4-0.93-3.92-2.29l1.86-0.72
						c0.32,0.81,1.09,1.18,2.07,1.18c1.4,0,2.23-0.78,2.23-1.98v-0.33c-0.56,0.65-1.37,1.03-2.41,1.03c-2.25,0-3.86-1.7-3.86-3.83
						s1.63-3.87,3.86-3.87c1.03,0,1.85,0.38,2.41,1.03v-0.86H765.69z M763.53,247.51c0-1.18-0.81-2.05-1.98-2.05
						c-1.14,0-1.98,0.9-1.98,2.05c0,1.15,0.84,2.05,1.97,2.05C762.72,249.56,763.53,248.68,763.53,247.51z"/>
				</g>
				<g>
					<g>
						<path class="st67" d="M742.4,292.54c0,1.86-1.61,3.27-3.89,3.27c-2.02,0-3.56-0.96-3.99-2.39l2.01-0.8
							c0.24,0.8,0.95,1.32,1.92,1.32c1.02,0,1.68-0.65,1.68-1.54c0-0.93-0.72-1.49-1.64-1.49h-1.68v-1.45l2.59-2.39h-4.34v-1.71
							h6.81v1.71l-2.48,2.41C741.16,289.57,742.4,290.84,742.4,292.54z"/>
						<path class="st67" d="M743.44,294.55c0-0.72,0.53-1.26,1.23-1.26c0.69,0,1.23,0.53,1.23,1.26c0,0.68-0.53,1.21-1.23,1.21
							C743.97,295.76,743.44,295.23,743.44,294.55z"/>
						<path class="st67" d="M754.11,288.76c0,1.17-0.53,2.02-0.97,2.62l-3.16,4.24h-2.54l2.56-3.37c-2.2-0.06-3.77-1.37-3.77-3.47
							c0-2.19,1.71-3.62,3.93-3.62C752.37,285.15,754.11,286.6,754.11,288.76z M751.88,288.76c0-0.99-0.75-1.73-1.73-1.73
							c-0.97,0-1.7,0.72-1.7,1.73c0,1,0.72,1.73,1.7,1.73C751.13,290.49,751.88,289.76,751.88,288.76z"/>
						<path class="st67" d="M755.18,290.46c0-3.37,1.8-5.29,4.59-5.29c2.81,0,4.61,1.92,4.61,5.29c0,3.31-1.83,5.33-4.61,5.33
							C756.98,295.79,755.18,293.77,755.18,290.46z M762.16,290.49c0-2.1-0.96-3.24-2.38-3.24c-1.42,0-2.36,1.14-2.36,3.24
							s0.95,3.24,2.36,3.24C761.2,293.72,762.16,292.57,762.16,290.49z"/>
					</g>
					<g>
						<path class="st67" d="M771.49,295.1v1.39h-1.76v-1.34c-1.32-0.21-2.32-1.03-2.7-2.33l1.89-0.72c0.22,0.9,0.86,1.4,1.73,1.4
							c0.77,0,1.2-0.38,1.2-0.98c0-1.86-4.42-0.92-4.42-4.24c0-1.34,0.83-2.36,2.32-2.64v-1.36h1.76v1.39
							c1.15,0.25,1.95,1,2.22,2.04l-1.88,0.72c-0.21-0.8-0.69-1.17-1.34-1.17c-0.71,0-1.08,0.37-1.08,0.87
							c0,1.77,4.45,0.83,4.45,4.34C773.87,293.8,772.98,294.79,771.49,295.1z"/>
					</g>
				</g>
			</g>
			<g>
				<g>
					<rect x="315.97" y="329.54" class="st68" width="77.79" height="228.86"/>
					<g>
						<path class="st69" d="M600.96,558.4H381.25c-2.53,0-4.58-2.05-4.58-4.58V334.12c0-2.53,2.05-4.58,4.58-4.58h219.71
							c2.53,0,4.58,2.05,4.58,4.58v219.71C605.53,556.35,603.48,558.4,600.96,558.4z"/>
						<path class="st33" d="M600.96,555.84H381.25c-2.53,0-4.58-2.05-4.58-4.58v2.57c0,2.53,2.05,4.58,4.58,4.58h219.71
							c2.53,0,4.58-2.05,4.58-4.58v-2.57C605.53,553.79,603.48,555.84,600.96,555.84z"/>
						<path class="st50" d="M600.96,329.54H381.25c-2.53,0-4.58,2.05-4.58,4.58v2.57c0-2.53,2.05-4.58,4.58-4.58h219.71
							c2.53,0,4.58,2.05,4.58,4.58v-2.57C605.53,331.59,603.48,329.54,600.96,329.54z"/>
						<rect x="488.92" y="329.54" class="st33" width="2.57" height="228.86"/>
						<rect x="568.97" y="507.66" class="st33" width="23.1" height="30.8"/>
						<rect x="538.16" y="507.66" class="st33" width="23.1" height="30.8"/>
						<rect x="507.36" y="507.66" class="st33" width="23.1" height="30.8"/>
						<polygon class="st32" points="502.44,414.96 498.31,412.29 493.54,418.77 491.1,414.29 486.39,417.72 483.34,414.2 
							478.76,415.63 478.76,329.54 502.44,329.54 						"/>
						<polygon class="st70" points="493.54,418.77 491.1,414.29 486.39,417.72 483.34,414.2 478.76,415.63 478.76,418.19 
							483.34,416.76 486.39,420.29 491.1,416.86 493.54,421.34 498.31,414.86 502.44,417.53 502.44,414.96 498.31,412.29 						"/>
					</g>
				</g>
				<g>
					<path class="st31" d="M409.51,359.37h-3.48c-1.47,0-2.75,1-3.1,2.43l-7.3,29.86c-0.49,2.01,1.03,3.95,3.1,3.95h3.48
						c1.47,0,2.75-1,3.1-2.43l7.3-29.86C413.1,361.31,411.58,359.37,409.51,359.37z"/>
					<path class="st71" d="M443.57,402.3c-8.06-5.14-21.43-15.08-21.99-24.8c-0.81-13.96,30.88-24.44,30.88-24.44
						s-39.5,8.88-42.46,24.44c-2.21,11.64,21.07,21.75,32.92,26.1C443.74,403.9,444.3,402.77,443.57,402.3z"/>
					<path class="st71" d="M453.37,363.15c0.81-1.89,4.18-10.24,4.18-10.24l5.01-1.88c0.53-0.2,0.95-0.56,1.22-1.01
						c0.44-0.72,0.09-1.64-0.71-1.89c-0.5-0.16-1.05-0.15-1.58,0.04l-5.01,1.88c0,0-8.03-4.07-9.89-4.96
						c-1.85-0.89-4.16-0.1-4.16-0.1l10.42,8.45l-2.54,12.52C450.31,365.96,452.57,365.04,453.37,363.15z"/>
				</g>
				<g>
					<g>
						<rect x="571.61" y="421.34" class="st68" width="46.59" height="137.06"/>
						<g>
							<path class="st69" d="M742.28,558.4H610.7c-1.51,0-2.74-1.23-2.74-2.74V424.08c0-1.51,1.23-2.74,2.74-2.74h131.58
								c1.51,0,2.74,1.23,2.74,2.74v131.58C745.02,557.18,743.8,558.4,742.28,558.4z"/>
							<path class="st33" d="M742.28,556.87H610.7c-1.51,0-2.74-1.23-2.74-2.74v1.54c0,1.51,1.23,2.74,2.74,2.74h131.58
								c1.51,0,2.74-1.23,2.74-2.74v-1.54C745.02,555.64,743.8,556.87,742.28,556.87z"/>
							<path class="st50" d="M742.28,421.34H610.7c-1.51,0-2.74,1.23-2.74,2.74v1.54c0-1.51,1.23-2.74,2.74-2.74h131.58
								c1.51,0,2.74,1.23,2.74,2.74v-1.54C745.02,422.57,743.8,421.34,742.28,421.34z"/>
							<rect x="675.19" y="421.34" class="st33" width="1.54" height="137.06"/>
							<rect x="723.12" y="528.01" class="st33" width="13.84" height="18.45"/>
							<rect x="704.68" y="528.01" class="st33" width="13.84" height="18.45"/>
							<rect x="686.23" y="528.01" class="st33" width="13.84" height="18.45"/>
							<polygon class="st32" points="683.28,472.49 680.81,470.9 677.95,474.78 676.49,472.1 673.67,474.15 671.84,472.04 
								669.1,472.89 669.1,421.34 683.28,421.34 							"/>
							<polygon class="st70" points="677.95,474.78 676.49,472.1 673.67,474.15 671.84,472.04 669.1,472.89 669.1,474.43 
								671.84,473.58 673.67,475.69 676.49,473.63 677.95,476.32 680.81,472.43 683.28,474.03 683.28,472.49 680.81,470.9 							
								"/>
						</g>
					</g>
					<g>
						<path class="st31" d="M627.63,439.21h-2.09c-0.88,0-1.65,0.6-1.86,1.46l-4.37,17.89c-0.29,1.2,0.62,2.36,1.86,2.36h2.09
							c0.88,0,1.65-0.6,1.86-1.46l4.37-17.89C629.78,440.37,628.87,439.21,627.63,439.21z"/>
						<path class="st71" d="M648.02,464.91c-4.83-3.08-12.83-9.03-13.17-14.85c-0.49-8.36,18.5-14.64,18.5-14.64
							s-23.66,5.32-25.43,14.64c-1.32,6.97,12.62,13.03,19.71,15.63C648.13,465.87,648.46,465.2,648.02,464.91z"/>
						<path class="st71" d="M653.9,441.47c0.48-1.13,2.5-6.14,2.5-6.14l3-1.13c0.32-0.12,0.57-0.34,0.73-0.6
							c0.26-0.43,0.05-0.98-0.42-1.13c-0.3-0.09-0.63-0.09-0.95,0.03l-3,1.13c0,0-4.81-2.44-5.92-2.97
							c-1.11-0.54-2.49-0.06-2.49-0.06l6.24,5.06l-1.52,7.5C652.06,443.15,653.41,442.6,653.9,441.47z"/>
					</g>
				</g>
			</g>
			<g>
				<rect x="549.28" y="346.53" class="st64" width="43.4" height="25.69"/>
				<path class="st6" d="M570.31,364.85c-3.02,0-5.47-2.45-5.47-5.47s2.45-5.47,5.47-5.47c1.62,0,3.07,0.7,4.07,1.81
					c-1.21-1.91-3.35-3.18-5.78-3.18c-3.78,0-6.84,3.06-6.84,6.84s3.06,6.84,6.84,6.84c2.43,0,4.57-1.27,5.78-3.18
					C573.38,364.15,571.93,364.85,570.31,364.85z M580.21,357.36l-2.36,0.77l-1.46-2.01v2.49l-2.36,0.77l2.36,0.77v2.49l1.46-2.01
					l2.36,0.77l-1.46-2.01L580.21,357.36z"/>
			</g>
			<g>
				<rect x="700.06" y="432.75" class="st64" width="38.38" height="22.72"/>
				<path class="st6" d="M718.66,448.96c-2.67,0-4.84-2.17-4.84-4.84c0-2.67,2.17-4.84,4.84-4.84c1.43,0,2.71,0.62,3.6,1.6
					c-1.07-1.69-2.96-2.81-5.11-2.81c-3.34,0-6.05,2.71-6.05,6.05s2.71,6.05,6.05,6.05c2.15,0,4.04-1.12,5.11-2.81
					C721.37,448.34,720.09,448.96,718.66,448.96z M727.41,442.34l-2.09,0.68l-1.29-1.78v2.2l-2.09,0.68l2.09,0.68v2.2l1.29-1.78
					l2.09,0.68l-1.29-1.78L727.41,442.34z"/>
			</g>
		</g>
	</g>
</g>
<g id="Layer_4">
</g>
</svg>
