<svg xmlns="http://www.w3.org/2000/svg" xmlns:xlink="http://www.w3.org/1999/xlink" viewBox="0 0 1000 700"><defs><style>.cls-1,.cls-12,.cls-30,.cls-31,.cls-75{fill:none;}.cls-2{isolation:isolate;}.cls-3{opacity:0.49;}.cls-4{fill:#e1d9f0;}.cls-5{fill:#fff;}.cls-6{fill:#f2a7a7;}.cls-17,.cls-18,.cls-19,.cls-7,.cls-74{fill:#936354;}.cls-19,.cls-24,.cls-7,.cls-73{opacity:0.5;}.cls-8{fill:#e6bf7f;}.cls-9{fill:#d8ac6c;}.cls-10{fill:#b78b64;}.cls-11{fill:#603a17;}.cls-12,.cls-30,.cls-31{stroke:#603a17;}.cls-12,.cls-75{stroke-miterlimit:10;}.cls-12,.cls-31{stroke-width:0.92px;}.Graphic-Style-90{fill:url(#linear-gradient);}.cls-13{fill:#e6ccbb;}.cls-14{fill:#964f30;}.cls-15{fill:url(#linear-gradient-2);}.cls-16{opacity:0.8;}.cls-17{opacity:0.2;}.cls-17,.cls-18,.cls-19,.cls-33,.cls-73{mix-blend-mode:multiply;}.cls-18{opacity:0.6;}.cls-20{fill:url(#linear-gradient-3);}.cls-21{fill:#b25b3d;}.cls-22{fill:#ffd692;}.cls-23{fill:url(#linear-gradient-4);}.cls-25{fill:#c99771;}.cls-26{fill:url(#linear-gradient-5);}.cls-27{fill:url(#linear-gradient-6);}.cls-28{fill:url(#linear-gradient-7);}.cls-29{fill:#d3794c;}.cls-30,.cls-31{stroke-linejoin:round;}.cls-30{stroke-width:0.72px;}.cls-32{fill:#dd9c68;}.cls-34{fill:url(#radial-gradient);}.cls-35{clip-path:url(#clip-path);}.cls-36{fill:#e79f5f;}.cls-37{fill:#e69e5e;}.cls-38{fill:#e59d5d;}.cls-39{fill:#e59d5c;}.cls-40{fill:#e49c5b;}.cls-41{fill:#e39b5a;}.cls-42{fill:#e29a59;}.cls-43{fill:#e29958;}.cls-44{fill:#e19857;}.cls-45{fill:#e09755;}.cls-46{fill:#df9654;}.cls-47{fill:#dd9553;}.cls-48{fill:#dc9451;}.cls-49{fill:#db9250;}.cls-50{fill:#da914e;}.cls-51{clip-path:url(#clip-path-2);}.cls-52{fill:#ffde9b;}.cls-53{fill:#ffdd9a;}.cls-54{fill:#ffdc99;}.cls-55{fill:#ffdc98;}.cls-56{fill:#ffdb97;}.cls-57{fill:#ffda96;}.cls-58{fill:#ffd995;}.cls-59{fill:#ffd894;}.cls-60{fill:#ffd793;}.cls-61{fill:#ffd691;}.cls-62{fill:#ffd590;}.cls-63{fill:#ffd48f;}.cls-64{fill:#ffd38d;}.cls-65{fill:#ffd18c;}.cls-66{fill:#ffd08a;}.cls-67{fill:url(#linear-gradient-8);}.cls-68{fill:#6f757f;}.cls-69{opacity:0.3;}.cls-70{fill:#a37452;}.cls-71{fill:#3e60b5;}.cls-72{fill:#febc7b;}.cls-75{stroke:#ffd692;stroke-width:1.38px;}.cls-76{fill:#d62b2b;fill-rule:evenodd;}.cls-77{fill:#231f20;}.cls-78{fill:#ff671b;}.cls-79{fill:#1d1d1b;}.cls-80{fill:#4d4893;}.cls-81{fill:#675ea6;}.cls-82{fill:#f0f0f0;}.cls-83{fill:#8580bc;}.cls-84{opacity:0.11;mix-blend-mode:hard-light;}.cls-85{fill:#4c4c4c;}.cls-86{fill:#ec6b66;}.cls-87{fill:#bcbec0;}</style><linearGradient id="linear-gradient" x1="-3420.08" y1="507.79" x2="-3451.41" y2="361.1" gradientTransform="matrix(-1, 0, 0, 1, -2920, 0)" gradientUnits="userSpaceOnUse"><stop offset="0" stop-color="#a75532"/><stop offset="0.2" stop-color="#ae5f39"/><stop offset="0.66" stop-color="#ba7145"/><stop offset="1" stop-color="#be774a"/></linearGradient><linearGradient id="linear-gradient-2" x1="-3377.52" y1="380.47" x2="-3397.43" y2="287.24" gradientTransform="matrix(-1, 0, 0, 1, -2920, 0)" gradientUnits="userSpaceOnUse"><stop offset="0" stop-color="#bb694e"/><stop offset="0.32" stop-color="#c87c5b"/><stop offset="0.65" stop-color="#cf8763"/><stop offset="1" stop-color="#d28b66"/></linearGradient><linearGradient id="linear-gradient-3" x1="-3323.1" y1="402.83" x2="-3323.1" y2="477.38" gradientTransform="matrix(-1, 0, 0, 1, -2920, 0)" gradientUnits="userSpaceOnUse"><stop offset="0" stop-color="#e79f5f"/><stop offset="0.54" stop-color="#e29958"/><stop offset="1" stop-color="#da914e"/></linearGradient><linearGradient id="linear-gradient-4" x1="264.55" y1="423.25" x2="434.27" y2="423.25" gradientTransform="translate(-60.51)" gradientUnits="userSpaceOnUse"><stop offset="0" stop-color="#ffde9b"/><stop offset="0.54" stop-color="#ffd894"/><stop offset="1" stop-color="#ffd08a"/></linearGradient><linearGradient id="linear-gradient-5" x1="-3452.16" y1="549.88" x2="-3477.28" y2="432.26" xlink:href="#linear-gradient"/><linearGradient id="linear-gradient-6" x1="446" y1="436.77" x2="624.92" y2="436.77" xlink:href="#linear-gradient-4"/><linearGradient id="linear-gradient-7" x1="366.12" y1="472.86" x2="501.08" y2="472.86" xlink:href="#linear-gradient-4"/><radialGradient id="radial-gradient" cx="-3681.97" cy="743.16" r="171.39" gradientTransform="matrix(-0.95, 0, 0, 0.95, -2843.92, -337.42)" gradientUnits="userSpaceOnUse"><stop offset="0" stop-color="#d97726"/><stop offset="0.18" stop-color="#e2995c"/><stop offset="0.39" stop-color="#ecbd95"/><stop offset="0.58" stop-color="#f4d9c3"/><stop offset="0.76" stop-color="#faeee4"/><stop offset="0.9" stop-color="#fefaf8"/><stop offset="1" stop-color="#fff"/></radialGradient><clipPath id="clip-path"><rect class="cls-1" x="461.03" y="424.91" width="134.96" height="100.74"/></clipPath><clipPath id="clip-path-2"><polygon class="cls-1" points="461.03 424.91 595.99 424.91 561.23 421.59 426.27 421.59 461.03 424.91"/></clipPath><linearGradient id="linear-gradient-8" x1="668.23" y1="436.77" x2="847.15" y2="436.77" xlink:href="#linear-gradient-4"/></defs><title>1-04</title><g class="cls-2"><g id="Layer_2" data-name="Layer 2"><g id="leafs"><g id="leafs-2" data-name="leafs"><g class="cls-3"><path class="cls-4" d="M263.06,539.52c-4.35,1-110.95,35.23-215.57-67.53,26.36-17.9,104.92-43.17,197.21,2C279.89,512.1,263.06,539.52,263.06,539.52Z"/><path class="cls-5" d="M173.13,490.64a171.41,171.41,0,0,1-35.82,40.66c-.65-.24-1.29-.49-1.94-.75a168.89,168.89,0,0,0,35.88-40.33c-2.74-.59-5.47-1.16-8.21-1.71a.89.89,0,0,1-1-.14l-.09-.07q-6.69-1.33-13.42-2.51c-7.13,15.61-21.51,25.78-36,34.33-.63-.32-1.25-.65-1.88-1,14.37-8.4,28.78-18.33,36-33.66q-15.42-2.66-31-4.63c-4.13,11.51-14,20-24.55,26.68l-1.82-1.21c2.76-1.8,5.47-3.69,8.09-5.68,7-5.28,13.39-11.66,16.44-20l-1.68-.22-15.47-1.91a.82.82,0,0,1-.73-.09l-18.18-2.23A68.4,68.4,0,0,1,66.29,489c-.46-.39-.93-.77-1.39-1.17a65.55,65.55,0,0,0,10.91-11.94l-14.08-1.73c-1.16-.15-.76-1.93.39-1.79,11.05,1.36,22.12,2.62,33.2,3.93-2.19-8.08-7-14.43-13-19.75l2-.59c6.07,5.55,10.88,12.18,12.94,20.58,17.86,2.13,35.69,4.44,53.37,7.61q4.13.74,8.24,1.55a562.94,562.94,0,0,0-47.92-35.23l2.76-.36a566.47,566.47,0,0,1,48.94,36.34c3.27.66,6.53,1.37,9.79,2.09a1,1,0,0,1,1.29.3q10.09,2.26,20.09,4.91a332.78,332.78,0,0,0-44.95-45l3,.15a336,336,0,0,1,45,45.62q17.42,4.74,34.48,10.62,18.09,6.24,35.69,13.75c0,.69.07,1.36.08,2-2.52-1.08-5-2.14-7.58-3.17-3.64,8.26-6.15,16.52-11.46,24-.32.45-.66.89-1,1.33l-2.58.42c.52-.68,1.05-1.37,1.55-2.07A60.93,60.93,0,0,0,253.14,529c1.66-3.95,3-8,4.67-11.94q-15.66-6.36-31.69-11.73c-2.65,15.12-10,28.6-19.62,40.26l-2.3-.09c10-11.73,17.51-25.36,20.18-40.76q-11-3.64-22.23-6.83c-5.13,17.92-18.66,31.62-33,42.91l-2.28-.51c14.47-11.19,28.4-24.92,33.51-42.9-1.72-.48-3.45-1-5.17-1.42C187.89,494.05,180.53,492.28,173.13,490.64Z"/><path class="cls-4" d="M270,451.41c-3.69-2.53-100.88-58.07-95.71-204.63,31,7.37,102.68,48.26,131.67,146.84C301.54,445.31,270,451.41,270,451.41Z"/><path class="cls-5" d="M245.3,352.07a171.33,171.33,0,0,1-54.18,1l-.75-1.94a169.12,169.12,0,0,0,54-.76c-1.41-2.41-2.83-4.82-4.28-7.21a.88.88,0,0,1-.54-.8.45.45,0,0,1,0-.11q-3.54-5.85-7.21-11.6c-16.33,5.28-33.54,1.54-49.62-3.36l-.54-2.06c15.9,4.94,33,8.86,49.14,3.83q-8.44-13.15-17.49-26c-11.28,4.73-24.22,3.13-36.25-.1-.12-.72-.23-1.44-.34-2.16,3.19.82,6.41,1.54,9.65,2.13,8.6,1.58,17.64,2,25.87-1.39l-1-1.38-9-12.7a.85.85,0,0,1-.43-.6L191.66,272a67.64,67.64,0,0,1-17.29.16c0-.6-.05-1.2-.08-1.81a65.38,65.38,0,0,0,16.18,0l-8.22-11.55c-.69-1,.9-1.87,1.57-.92,6.46,9.07,13,18.09,19.51,27.14,4.49-7.07,5.91-14.93,5.76-23l1.82,1.11c0,8.22-1.65,16.25-6.44,23.44,10.48,14.61,20.82,29.33,30.41,44.51q2.24,3.54,4.42,7.13a563.66,563.66,0,0,0-6.36-59.14q1.06.89,2.13,1.8a567.86,567.86,0,0,1,6.23,60.63q2.56,4.29,5.06,8.64a1,1,0,0,1,.66,1.15c3.42,6,6.75,12,9.94,18.14a332.57,332.57,0,0,0,2.82-63.53c.64.76,1.28,1.53,1.91,2.31a335.85,335.85,0,0,1-3.29,64q8.27,16,15.44,32.6,7.61,17.56,14,35.62c-.48.49-1,1-1.43,1.42Q285,438,283.58,434.1c-8.56,2.9-16.35,6.62-25.44,7.74l-1.64.17c-.66-.52-1.35-1.05-2.05-1.62.86-.07,1.72-.15,2.57-.25A61.3,61.3,0,0,0,271,437c4-1.44,7.91-3.23,12-4.62q-5.88-15.84-12.74-31.29c-12.95,8.25-27.83,12-42.95,12.71l-1.48-1.76c15.38-.58,30.53-4.2,43.69-12.63q-4.75-10.6-10-21c-16.69,8.31-35.92,7.58-53.92,4.63-.39-.67-.78-1.34-1.16-2,18,3.13,37.56,4.13,54.27-4.24-.81-1.59-1.62-3.19-2.44-4.78Q251,361.89,245.3,352.07Z"/><path class="cls-6" d="M260.89,547.81C256.81,546,151.37,508.37,130.7,363.19c31.81,1.8,109.56,29.46,155.42,121.41C290.91,536.25,260.89,547.81,260.89,547.81Z"/><path class="cls-5" d="M219.16,454.35A171.37,171.37,0,0,1,166,464.87c-.36-.58-.72-1.18-1.08-1.77a168.89,168.89,0,0,0,53-10.24c-1.81-2.13-3.64-4.24-5.48-6.35a.88.88,0,0,1-.68-.68.5.5,0,0,1,0-.12q-4.52-5.13-9.14-10.14c-15.14,8.07-32.75,7.4-49.44,5.4-.3-.64-.59-1.28-.89-1.93,16.52,2.07,34,2.93,49-4.86q-10.63-11.48-21.79-22.49c-10.27,6.63-23.28,7.33-35.7,6.27-.24-.69-.48-1.37-.71-2.07,3.28.25,6.58.39,9.87.41,8.75,0,17.72-1.13,25.22-5.92l-1.2-1.19-11.13-10.91a.85.85,0,0,1-.52-.51l-13.08-12.83a68.14,68.14,0,0,1-17,3.2c-.13-.59-.27-1.18-.4-1.77a65.85,65.85,0,0,0,15.93-2.86l-10.13-9.93c-.84-.82.56-2,1.39-1.18,7.95,7.79,16,15.52,24,23.29,3.18-7.75,3.19-15.74,1.64-23.61.66.25,1.32.5,2,.77,1.45,8.09,1.24,16.28-2.22,24.2,12.89,12.54,25.65,25.22,37.76,38.47,1.89,2.07,3.75,4.15,5.61,6.24a566,566,0,0,0-16.66-57.1l2.41,1.4a566.64,566.64,0,0,1,16.79,58.59q3.28,3.78,6.5,7.62a1,1,0,0,1,.85,1q6.64,7.94,13,16.11a332.92,332.92,0,0,0-8.39-63c.77.63,1.53,1.28,2.29,1.94a336.19,336.19,0,0,1,8,63.56q10.95,14.34,20.93,29.39,10.58,15.93,20,32.6c-.38.57-.77,1.12-1.16,1.65q-2-3.57-4.09-7.13c-7.91,4.36-14.93,9.39-23.68,12.09l-1.59.46-2.3-1.23,2.49-.7a61.2,61.2,0,0,0,13.2-5.54c3.71-2.12,7.22-4.57,11-6.65q-8.58-14.55-18-28.56c-11.3,10.39-25.29,16.66-40.05,20-.59-.48-1.18-1-1.76-1.47,15-3.27,29.31-9.5,40.78-20.11q-6.54-9.6-13.5-18.93c-15,11.11-34,13.77-52.27,14L184,490c18.29-.09,37.7-2.54,52.68-13.71q-1.6-2.15-3.24-4.27Q226.5,463,219.16,454.35Z"/></g></g><g id="leafs-3" data-name="leafs"><g id="leafs-4" data-name="leafs"><g class="cls-3"><path class="cls-4" d="M736.94,539.52c4.35,1,110.95,35.23,215.57-67.53-26.36-17.9-104.92-43.17-197.21,2C720.11,512.1,736.94,539.52,736.94,539.52Z"/><path class="cls-5" d="M826.87,490.64a171.41,171.41,0,0,0,35.82,40.66c.65-.24,1.29-.49,1.94-.75a168.89,168.89,0,0,1-35.88-40.33c2.74-.59,5.47-1.16,8.21-1.71a.89.89,0,0,0,1-.14l.09-.07q6.69-1.33,13.42-2.51c7.13,15.61,21.51,25.78,36,34.33.63-.32,1.25-.65,1.88-1-14.37-8.4-28.78-18.33-36-33.66q15.42-2.66,31-4.63c4.13,11.51,14,20,24.55,26.68l1.82-1.21c-2.76-1.8-5.47-3.69-8.09-5.68-7-5.28-13.39-11.66-16.44-20l1.68-.22,15.47-1.91a.82.82,0,0,0,.73-.09l18.18-2.23A68.4,68.4,0,0,0,933.71,489c.46-.39.93-.77,1.39-1.17a65.55,65.55,0,0,1-10.91-11.94l14.08-1.73c1.16-.15.76-1.93-.39-1.79-11,1.36-22.12,2.62-33.2,3.93,2.19-8.08,7-14.43,13.05-19.75l-2-.59c-6.07,5.55-10.88,12.18-12.94,20.58-17.86,2.13-35.69,4.44-53.37,7.61q-4.12.74-8.24,1.55a562.94,562.94,0,0,1,47.92-35.23l-2.76-.36a566.47,566.47,0,0,0-48.94,36.34c-3.27.66-6.53,1.37-9.79,2.09a1,1,0,0,0-1.29.3q-10.1,2.26-20.09,4.91a332.78,332.78,0,0,1,44.95-45l-3,.15a336,336,0,0,0-45,45.62q-17.41,4.74-34.48,10.62-18.09,6.24-35.69,13.75c0,.69-.07,1.36-.08,2,2.52-1.08,5-2.14,7.58-3.17,3.64,8.26,6.15,16.52,11.46,24,.32.45.66.89,1,1.33l2.58.42c-.52-.68-1-1.37-1.55-2.07A60.93,60.93,0,0,1,746.86,529c-1.66-3.95-3-8-4.67-11.94q15.66-6.36,31.69-11.73c2.65,15.12,10,28.6,19.62,40.26l2.3-.09c-10-11.73-17.51-25.36-20.18-40.76q11-3.64,22.23-6.83c5.13,17.92,18.66,31.62,33,42.91l2.28-.51c-14.47-11.19-28.4-24.92-33.51-42.9,1.72-.48,3.45-1,5.17-1.42C812.11,494.05,819.47,492.28,826.87,490.64Z"/><path class="cls-4" d="M730.05,451.41c3.69-2.53,100.88-58.07,95.71-204.63-31,7.37-102.68,48.26-131.67,146.84C698.46,445.31,730.05,451.41,730.05,451.41Z"/><path class="cls-5" d="M754.7,352.07a171.33,171.33,0,0,0,54.18,1l.75-1.94a169.12,169.12,0,0,1-54-.76c1.41-2.41,2.83-4.82,4.28-7.21a.88.88,0,0,0,.54-.8.45.45,0,0,0,0-.11q3.54-5.85,7.21-11.6c16.33,5.28,33.54,1.54,49.62-3.36l.54-2.06c-15.9,4.94-33,8.86-49.14,3.83q8.44-13.15,17.49-26c11.28,4.73,24.22,3.13,36.25-.1.12-.72.23-1.44.34-2.16-3.19.82-6.41,1.54-9.65,2.13-8.6,1.58-17.64,2-25.87-1.39l1-1.38,9-12.7a.85.85,0,0,0,.43-.6L808.34,272a67.64,67.64,0,0,0,17.29.16c0-.6,0-1.2.08-1.81a65.38,65.38,0,0,1-16.18,0l8.22-11.55c.69-1-.9-1.87-1.57-.92-6.46,9.07-13,18.09-19.51,27.14-4.49-7.07-5.91-14.93-5.76-23l-1.82,1.11c0,8.22,1.65,16.25,6.44,23.44-10.48,14.61-20.82,29.33-30.41,44.51q-2.24,3.54-4.42,7.13a563.66,563.66,0,0,1,6.36-59.14l-2.13,1.8a567.86,567.86,0,0,0-6.23,60.63q-2.57,4.29-5.06,8.64a1,1,0,0,0-.66,1.15c-3.42,6-6.75,12-9.94,18.14a332.57,332.57,0,0,1-2.82-63.53c-.64.76-1.28,1.53-1.91,2.31a335.85,335.85,0,0,0,3.29,64q-8.26,16-15.44,32.6-7.6,17.56-13.95,35.62c.48.49,1,1,1.43,1.42q1.36-3.88,2.78-7.74c8.56,2.9,16.35,6.62,25.44,7.74l1.64.17c.66-.52,1.35-1.05,2-1.62-.86-.07-1.72-.15-2.57-.25A61.3,61.3,0,0,1,729,437c-4-1.44-7.91-3.23-12-4.62q5.88-15.84,12.74-31.29c13,8.25,27.83,12,43,12.71l1.48-1.76c-15.38-.58-30.53-4.2-43.69-12.63q4.76-10.6,10-21c16.69,8.31,35.92,7.58,53.92,4.63.39-.67.78-1.34,1.16-2-18,3.13-37.56,4.13-54.27-4.24.81-1.59,1.62-3.19,2.44-4.78Q749,361.89,754.7,352.07Z"/><path class="cls-6" d="M739.11,547.81c4.08-1.84,109.52-39.44,130.19-184.62C837.49,365,759.74,392.65,713.88,484.6,709.09,536.25,739.11,547.81,739.11,547.81Z"/><path class="cls-5" d="M780.84,454.35A171.37,171.37,0,0,0,834,464.87l1.08-1.77a168.89,168.89,0,0,1-53-10.24c1.81-2.13,3.64-4.24,5.48-6.35a.88.88,0,0,0,.68-.68.5.5,0,0,0,0-.12q4.51-5.13,9.14-10.14c15.14,8.07,32.75,7.4,49.44,5.4.3-.64.59-1.28.89-1.93-16.52,2.07-34,2.93-49.05-4.86q10.64-11.48,21.79-22.49c10.27,6.63,23.28,7.33,35.7,6.27.24-.69.48-1.37.71-2.07-3.28.25-6.58.39-9.87.41-8.75,0-17.72-1.13-25.22-5.92l1.2-1.19,11.13-10.91a.85.85,0,0,0,.52-.51l13.08-12.83a68.14,68.14,0,0,0,17,3.2c.13-.59.27-1.18.4-1.77a65.85,65.85,0,0,1-15.93-2.86l10.13-9.93c.84-.82-.56-2-1.39-1.18-7.95,7.79-16,15.52-24,23.29-3.18-7.75-3.19-15.74-1.64-23.61-.66.25-1.32.5-2,.77-1.45,8.09-1.24,16.28,2.22,24.2-12.89,12.54-25.65,25.22-37.76,38.47-1.89,2.07-3.75,4.15-5.61,6.24a566,566,0,0,1,16.66-57.1l-2.41,1.4a566.64,566.64,0,0,0-16.79,58.59q-3.28,3.78-6.5,7.62a1,1,0,0,0-.85,1q-6.64,7.94-13,16.11a332.92,332.92,0,0,1,8.39-63c-.77.63-1.53,1.28-2.29,1.94a336.19,336.19,0,0,0-8,63.56q-10.95,14.34-20.93,29.39-10.58,15.93-20,32.6c.38.57.77,1.12,1.16,1.65q2-3.57,4.09-7.13c7.91,4.36,14.93,9.39,23.68,12.09l1.59.46,2.3-1.23-2.49-.7a61.2,61.2,0,0,1-13.2-5.54c-3.71-2.12-7.22-4.57-11-6.65q8.58-14.55,18-28.56c11.3,10.39,25.29,16.66,40,20,.59-.48,1.18-1,1.76-1.47-15-3.27-29.31-9.5-40.78-20.11q6.54-9.6,13.5-18.93c15,11.11,34,13.77,52.27,14L816,490c-18.29-.09-37.7-2.54-52.68-13.71q1.6-2.15,3.24-4.27Q773.51,463,780.84,454.35Z"/></g></g></g></g><polygon class="cls-7" points="476.23 530.01 426.74 552.37 417.08 524.08 476.23 530.01"/><polygon class="cls-7" points="482.11 544.9 451.02 562.66 436.76 544.9 482.11 544.9"/><polygon class="cls-7" points="592.24 519.53 530.23 530.29 523.79 519.53 592.24 519.53"/><polygon class="cls-8" points="282.02 346.19 316.86 346.19 316.42 267.5 282.02 274.37 282.02 346.19"/><rect class="cls-9" x="316.41" y="267.49" width="82.85" height="78.93"/><polygon class="cls-10" points="296.36 288.16 302.52 287.24 302.52 270.27 296.36 271.5 296.36 288.16"/><path class="cls-11" d="M359.14,328.92v3.81a1.25,1.25,0,0,1-1.25,1.24h-.8a1.25,1.25,0,0,1-1.25-1.24v-3.81Z"/><path class="cls-11" d="M355.84,338.27v-.1c0-.27.56-.49,1.25-.49h.8c.69,0,1.25.22,1.25.49v.1Z"/><rect class="cls-11" x="357.32" y="333.3" width="0.34" height="4.8"/><rect class="cls-12" x="351.26" y="327.36" width="12.46" height="12.46"/><path class="cls-11" d="M340,333.45a2.79,2.79,0,0,1,2.78-2.15v-.5h.42v.5a2.77,2.77,0,0,1,2.73,2.15h-2.73v3.93a.58.58,0,0,0,1.16,0v-.12h.41v.12a1,1,0,1,1-2,0v-3.93Z"/><path class="cls-11" d="M340.91,330.5a.22.22,0,1,0,.37-.23c-.08-.14-.4-.23-.4-.23S340.82,330.37,340.91,330.5Z"/><path class="cls-11" d="M339.87,331.16a.23.23,0,0,0,.32.09.24.24,0,0,0,.05-.33c-.08-.13-.4-.22-.4-.22A1,1,0,0,0,339.87,331.16Z"/><path class="cls-11" d="M341.94,329.84a.23.23,0,0,0,.32.09.22.22,0,0,0,.06-.32c-.09-.14-.41-.23-.41-.23A1,1,0,0,0,341.94,329.84Z"/><path class="cls-11" d="M339.78,329.93a.22.22,0,1,0,.37-.24,1,1,0,0,0-.41-.23A.92.92,0,0,0,339.78,329.93Z"/><path class="cls-11" d="M340.81,329.27a.22.22,0,0,0,.32.08.23.23,0,0,0,.06-.32.26.26,0,1,0-.38.24Z"/><rect class="cls-12" x="336.59" y="327.36" width="12.46" height="12.46"/><rect class="cls-11" x="325.28" y="337.6" width="5.41" height="0.63"/><polygon class="cls-11" points="328.36 331.11 329.22 328.95 330.16 331.11 329.57 331.11 329.57 336.97 328.94 336.97 328.94 331.11 328.36 331.11"/><polygon class="cls-11" points="325.8 331.11 326.66 328.95 327.6 331.11 327.01 331.11 327.01 336.97 326.38 336.97 326.38 331.11 325.8 331.11"/><rect class="cls-12" x="321.75" y="327.36" width="12.46" height="12.46"/><path d="M348,307.65a2.37,2.37,0,1,1,2.37,2.37,2.36,2.36,0,0,1-2.37-2.37m9.65,0A2.37,2.37,0,1,1,360,310a2.37,2.37,0,0,1-2.37-2.37m-22.38,0a2.38,2.38,0,1,1,2.38,2.37,2.37,2.37,0,0,1-2.38-2.37m-9.65,0A2.38,2.38,0,1,1,328,310a2.37,2.37,0,0,1-2.37-2.37m19.52-4.2H343v8.31h2.07Zm-14.79,8.31h2.06v-8.31h-2.06v.67a4.3,4.3,0,1,0,0,7.05Zm32,0h2.06v-8.31h-2.06v.67a4.3,4.3,0,1,0,0,7.05Zm2.83-2.7c.06,1.67,1.49,2.86,3.88,2.86,1.95,0,3.56-.84,3.56-2.71,0-1.3-.73-2.07-2.42-2.39l-1.32-.26c-.84-.16-1.43-.33-1.43-.83s.57-.8,1.28-.8c1,0,1.47.52,1.5,1.14h2.08c-.11-1.62-1.41-2.71-3.51-2.71s-3.45,1.18-3.45,2.73c0,1.88,1.53,2.19,2.85,2.43l1.09.2c.78.15,1.12.37,1.12.83s-.39.81-1.32.81c-1.35,0-1.79-.7-1.8-1.3ZM340,300.63v3.49a4.24,4.24,0,0,0-2.45-.76,4.29,4.29,0,1,0,2.45,7.81v.59H342V300.63Zm12.73,0v3.49a4.3,4.3,0,1,0,0,7.05v.59h2.06V300.63Zm-23.76-2.46,1.4,2.46H340l-3.82-6.6Zm16.17,4.52v-2.06h7.59l-8.1-14-7.23,4.14,5.67,9.87v2.06Zm10.66-2.06h9.65L352.94,279l-7.22,4.16Z"/><rect class="Graphic-Style-90" x="498.12" y="361.06" width="34.84" height="148.72"/><rect class="cls-8" x="363.23" y="361.06" width="134.96" height="148.72"/><rect class="cls-13" x="424.11" y="361.06" width="13.2" height="18.8"/><rect class="cls-14" x="512.46" y="361.06" width="6.15" height="18.8"/><polygon class="cls-15" points="487.27 361.06 452.43 361.06 452.88 282.37 487.27 288.92 487.27 361.06"/><polygon class="cls-8" points="452.88 361.06 376.49 361.06 376.49 283.14 452.88 282.37 452.88 361.06"/><polygon class="cls-5" points="421.78 293.63 408.58 293.36 408.58 282.82 421.78 282.68 421.78 293.63"/><polygon class="cls-13" points="472.93 295.21 466.77 294.29 466.77 285.01 472.93 286.15 472.93 295.21"/><g class="cls-16"><path class="cls-11" d="M433.2,341.65v4.49a1.46,1.46,0,0,1-1.46,1.47h-.95a1.47,1.47,0,0,1-1.47-1.47v-4.49Z"/><path class="cls-11" d="M429.32,352.67v-.1c0-.33.66-.59,1.47-.59h.95c.81,0,1.46.26,1.46.59v.1Z"/><rect class="cls-11" x="431.06" y="346.82" width="0.4" height="5.66"/><rect class="cls-12" x="423.92" y="339.82" width="14.69" height="14.69"/><path class="cls-11" d="M410.61,347a3.29,3.29,0,0,1,3.27-2.53v-.59h.49v.59A3.28,3.28,0,0,1,417.6,347h-3.23v4.65a.69.69,0,0,0,1.37,0v-.15h.49v.15a1.18,1.18,0,0,1-2.35,0V347Z"/><path class="cls-11" d="M411.71,343.52a.26.26,0,1,0,.44-.28c-.1-.16-.48-.26-.48-.26A1.07,1.07,0,0,0,411.71,343.52Z"/><path class="cls-11" d="M410.49,344.3a.27.27,0,0,0,.37.1.27.27,0,0,0,.07-.38c-.1-.16-.48-.27-.48-.27A1.11,1.11,0,0,0,410.49,344.3Z"/><path class="cls-11" d="M412.93,342.75a.27.27,0,0,0,.38.09.26.26,0,0,0,.07-.37,1.13,1.13,0,0,0-.48-.27A1.07,1.07,0,0,0,412.93,342.75Z"/><path class="cls-11" d="M410.38,342.85a.26.26,0,0,0,.37.09.26.26,0,0,0,.07-.37c-.1-.16-.48-.27-.48-.27A1,1,0,0,0,410.38,342.85Z"/><path class="cls-11" d="M411.6,342.07a.27.27,0,0,0,.37.1.27.27,0,0,0,.07-.38c-.1-.16-.48-.27-.48-.27A1.11,1.11,0,0,0,411.6,342.07Z"/><rect class="cls-12" x="406.61" y="339.82" width="14.69" height="14.69"/><rect class="cls-11" x="393.28" y="351.89" width="6.38" height="0.74"/><polygon class="cls-11" points="396.92 344.24 397.94 341.69 399.04 344.24 398.35 344.24 398.35 351.15 397.61 351.15 397.61 344.24 396.92 344.24"/><polygon class="cls-11" points="393.9 344.24 394.92 341.69 396.02 344.24 395.33 344.24 395.33 351.15 394.59 351.15 394.59 344.24 393.9 344.24"/><rect class="cls-12" x="389.12" y="339.82" width="14.69" height="14.69"/></g><polygon class="cls-17" points="382.27 353.26 399.66 353.26 404.12 361.08 382.96 361.08 382.27 353.26"/><polygon class="cls-18" points="458.62 361.1 461.15 367.06 409.3 367.06 464.87 490.81 323.88 490.96 325.42 416.24 376.06 416.24 375.98 361.1 458.62 361.1"/><polygon class="cls-8" points="300.86 476.88 354.1 479.11 354.1 401.37 300.86 401.37 300.86 476.88"/><polygon class="cls-19" points="381.04 493.44 503.43 493.44 463.26 408.97 381.04 408.97 381.04 493.44"/><rect class="cls-20" x="354.02" y="401.37" width="98.16" height="77.74"/><rect class="cls-21" x="393.43" y="401.37" width="11.67" height="18.95"/><rect class="cls-13" x="323.94" y="401.37" width="6.15" height="14.2"/><rect class="cls-22" x="354.02" y="401.33" width="98.16" height="1.89"/><polygon class="cls-19" points="398.75 401.37 454.79 526.28 315.75 526.63 317.29 456.51 349.53 456.51 349.45 401.37 398.75 401.37"/><polygon class="cls-8" points="204.04 547.18 238.88 556.95 238.88 425.91 204.04 421.59 204.04 547.18"/><rect class="cls-9" x="238.8" y="425.91" width="134.96" height="131.03"/><polygon class="cls-23" points="238.8 424.91 373.76 424.91 339 421.59 204.04 421.59 238.8 424.91"/><g class="cls-24"><rect class="cls-5" x="299.68" y="424.91" width="13.2" height="18.8"/></g><polygon class="cls-25" points="299.68 424.98 312.88 424.98 285.9 421.59 272.7 421.59 299.68 424.98"/><polygon class="cls-10" points="218.38 441.75 224.54 442.29 224.54 423.55 218.38 422.96 218.38 441.75"/><polygon class="cls-25" points="218.38 422.96 224.54 423.55 359.37 423.55 353.08 422.96 218.38 422.96"/><path class="cls-11" d="M292.34,505.31v4.88a1.6,1.6,0,0,1-1.6,1.6h-1a1.6,1.6,0,0,1-1.6-1.6v-4.88Z"/><path class="cls-11" d="M288.11,517.3v-.12c0-.35.72-.64,1.6-.64h1c.88,0,1.6.29,1.6.64v.12Z"/><rect class="cls-11" x="290.01" y="510.92" width="0.43" height="6.15"/><rect class="cls-12" x="282.24" y="503.31" width="15.98" height="15.98"/><path class="cls-11" d="M267.77,511.12a3.57,3.57,0,0,1,3.56-2.76v-.64h.53v.64a3.57,3.57,0,0,1,3.51,2.76h-3.51v5a.74.74,0,0,0,.74.75.75.75,0,0,0,.75-.75V516h.53v.15a1.28,1.28,0,1,1-2.55,0v-5Z"/><path class="cls-11" d="M269,507.34a.29.29,0,0,0,.41.11.29.29,0,0,0,.07-.41c-.11-.18-.52-.29-.52-.29A1.15,1.15,0,0,0,269,507.34Z"/><path class="cls-11" d="M267.63,508.19a.3.3,0,0,0,.41.1.28.28,0,0,0,.07-.41c-.11-.17-.52-.29-.52-.29A1.32,1.32,0,0,0,267.63,508.19Z"/><path class="cls-11" d="M270.29,506.5a.3.3,0,0,0,.41.1.29.29,0,0,0,.07-.41c-.11-.17-.52-.29-.52-.29A1.19,1.19,0,0,0,270.29,506.5Z"/><path class="cls-11" d="M267.51,506.61a.29.29,0,0,0,.41.1.29.29,0,0,0,.07-.41c-.11-.17-.52-.29-.52-.29A1.19,1.19,0,0,0,267.51,506.61Z"/><path class="cls-11" d="M268.84,505.76a.3.3,0,0,0,.41.11.29.29,0,0,0,.07-.41c-.11-.18-.52-.29-.52-.29A1.15,1.15,0,0,0,268.84,505.76Z"/><rect class="cls-12" x="263.42" y="503.31" width="15.98" height="15.98"/><rect class="cls-11" x="248.92" y="516.45" width="6.93" height="0.81"/><polygon class="cls-11" points="252.87 508.13 253.98 505.35 255.19 508.13 254.44 508.13 254.44 515.64 253.63 515.64 253.63 508.13 252.87 508.13"/><polygon class="cls-11" points="249.59 508.13 250.7 505.35 251.9 508.13 251.15 508.13 251.15 515.64 250.34 515.64 250.34 508.13 249.59 508.13"/><rect class="cls-12" x="244.4" y="503.31" width="15.98" height="15.98"/><polygon class="cls-26" points="564.41 522.46 529.58 529.97 529.58 438.43 564.41 435.1 564.41 522.46"/><rect class="cls-8" x="385.49" y="438.43" width="144.16" height="91.54"/><polygon class="cls-27" points="529.65 438.43 385.49 438.43 424.85 435.1 564.41 435.1 529.65 438.43"/><polygon class="cls-13" points="550.07 455.27 543.92 455.8 543.92 437.06 550.07 436.47 550.07 455.27"/><polygon class="cls-5" points="550.07 436.47 543.92 437.06 399.89 437.06 406.18 436.47 550.07 436.47"/><g class="cls-16"><path class="cls-11" d="M517.19,511.2v4.17a1.36,1.36,0,0,1-1.36,1.36H515a1.37,1.37,0,0,1-1.37-1.36V511.2Z"/><path class="cls-11" d="M513.58,521.44v-.1c0-.3.62-.55,1.37-.55h.88c.75,0,1.36.25,1.36.55v.1Z"/><rect class="cls-11" x="515.2" y="516" width="0.37" height="5.26"/><rect class="cls-12" x="508.56" y="509.49" width="13.65" height="13.65"/><path class="cls-11" d="M496.2,516.16a3,3,0,0,1,3-2.35v-.56h.45v.56a3.06,3.06,0,0,1,3,2.35h-3v4.31a.64.64,0,0,0,1.28,0v-.13h.45v.13a1.09,1.09,0,1,1-2.18,0v-4.31Z"/><path class="cls-11" d="M497.22,512.94a.25.25,0,1,0,.41-.27c-.09-.14-.45-.24-.45-.24A1.08,1.08,0,0,0,497.22,512.94Z"/><path class="cls-11" d="M496.09,513.66a.24.24,0,1,0,.4-.26c-.09-.15-.44-.25-.44-.25A1,1,0,0,0,496.09,513.66Z"/><path class="cls-11" d="M498.36,512.21a.23.23,0,0,0,.34.09.24.24,0,0,0,.07-.35,1,1,0,0,0-.45-.25S498.26,512.07,498.36,512.21Z"/><path class="cls-11" d="M496,512.31a.24.24,0,1,0,.41-.26c-.09-.15-.45-.25-.45-.25A1.08,1.08,0,0,0,496,512.31Z"/><path class="cls-11" d="M497.12,511.58a.24.24,0,0,0,.34.1.26.26,0,0,0,.07-.36,1.09,1.09,0,0,0-.45-.24S497,511.44,497.12,511.58Z"/><rect class="cls-12" x="492.48" y="509.49" width="13.65" height="13.65"/><rect class="cls-11" x="480.1" y="520.71" width="5.93" height="0.69"/><polygon class="cls-11" points="483.47 513.6 484.42 511.23 485.45 513.6 484.81 513.6 484.81 520.02 484.11 520.02 484.11 513.6 483.47 513.6"/><polygon class="cls-11" points="480.67 513.6 481.62 511.23 482.64 513.6 482 513.6 482 520.02 481.31 520.02 481.31 513.6 480.67 513.6"/><rect class="cls-12" x="476.23" y="509.49" width="13.65" height="13.65"/></g><polygon class="cls-19" points="440.52 475.59 476.23 530.01 424.32 530.01 440.52 475.59"/><rect class="cls-9" x="305.56" y="475.59" width="134.96" height="86.97"/><polygon class="cls-28" points="440.57 475.56 305.61 475.56 311.05 470.15 435.32 470.15 440.57 475.56"/><rect class="cls-21" x="366.44" y="475.59" width="13.2" height="18.8"/><polygon class="cls-29" points="379.64 475.57 366.44 475.57 367.53 470.15 378.23 470.15 379.64 475.57"/><path class="cls-11" d="M344.65,547.31v3.26a1.07,1.07,0,0,1-1.07,1.07h-.69a1.07,1.07,0,0,1-1.06-1.07v-3.26Z"/><path class="cls-11" d="M341.83,555.31v-.08c0-.23.48-.42,1.06-.42h.69c.59,0,1.07.19,1.07.42v.08Z"/><rect class="cls-11" x="343.09" y="551.06" width="0.29" height="4.11"/><rect class="cls-30" x="337.9" y="545.98" width="10.67" height="10.67"/><path class="cls-11" d="M328.24,551.19a2.39,2.39,0,0,1,2.38-1.84v-.43H331v.43a2.37,2.37,0,0,1,2.35,1.84H331v3.37a.5.5,0,0,0,1,0v-.11h.35v.11a.85.85,0,1,1-1.7,0v-3.37Z"/><path class="cls-11" d="M329,548.67a.2.2,0,0,0,.27.07.19.19,0,0,0,.05-.28c-.07-.11-.35-.19-.35-.19A.85.85,0,0,0,329,548.67Z"/><path class="cls-11" d="M328.15,549.23a.19.19,0,0,0,.27.07.18.18,0,0,0,.05-.27c-.07-.12-.34-.2-.34-.2A.81.81,0,0,0,328.15,549.23Z"/><path class="cls-11" d="M329.93,548.1a.19.19,0,0,0,.27.07.19.19,0,0,0,.05-.27c-.07-.12-.35-.2-.35-.2A.84.84,0,0,0,329.93,548.1Z"/><path class="cls-11" d="M328.07,548.17a.2.2,0,0,0,.27.08.19.19,0,0,0,.05-.28c-.07-.11-.35-.19-.35-.19A.8.8,0,0,0,328.07,548.17Z"/><path class="cls-11" d="M329,547.61a.19.19,0,0,0,.27.07.2.2,0,0,0,0-.27c-.07-.12-.35-.2-.35-.2A.85.85,0,0,0,329,547.61Z"/><rect class="cls-30" x="325.34" y="545.98" width="10.67" height="10.67"/><rect class="cls-11" x="315.66" y="554.74" width="4.63" height="0.54"/><polygon class="cls-11" points="318.3 549.19 319.04 547.34 319.84 549.19 319.34 549.19 319.34 554.2 318.8 554.2 318.8 549.19 318.3 549.19"/><polygon class="cls-11" points="316.11 549.19 316.85 547.34 317.65 549.19 317.15 549.19 317.15 554.2 316.61 554.2 316.61 549.19 316.11 549.19"/><rect class="cls-30" x="312.64" y="545.98" width="10.67" height="10.67"/><polygon class="cls-8" points="232.1 421.68 285.34 423.92 285.34 346.18 232.1 346.18 232.1 421.68"/><rect class="cls-9" x="285.26" y="346.18" width="98.16" height="77.74"/><rect class="cls-5" x="251.5" y="346.18" width="11.22" height="6.84"/><rect class="cls-5" x="251.5" y="415.39" width="11.22" height="6.84"/><path class="cls-11" d="M442.36,548.05v3.31a1.08,1.08,0,0,1-1.08,1.08h-.7a1.08,1.08,0,0,1-1.08-1.08v-3.31Z"/><path class="cls-11" d="M439.5,556.18v-.08c0-.24.48-.44,1.08-.44h.7c.59,0,1.08.2,1.08.44v.08Z"/><rect class="cls-11" x="440.78" y="551.86" width="0.29" height="4.17"/><rect class="cls-31" x="435.51" y="546.7" width="10.83" height="10.83"/><path class="cls-11" d="M425.71,552a2.41,2.41,0,0,1,2.41-1.87v-.44h.36v.44a2.43,2.43,0,0,1,2.38,1.87h-2.38v3.42a.5.5,0,0,0,.5.5.5.5,0,0,0,.51-.5v-.11h.36v.11a.87.87,0,0,1-1.73,0V552Z"/><path class="cls-11" d="M426.52,549.43a.19.19,0,0,0,.27.07.19.19,0,0,0,0-.28c-.07-.12-.35-.19-.35-.19A.73.73,0,0,0,426.52,549.43Z"/><path class="cls-11" d="M425.62,550a.19.19,0,1,0,.32-.21c-.07-.11-.35-.19-.35-.19A.73.73,0,0,0,425.62,550Z"/><path class="cls-11" d="M427.42,548.86a.2.2,0,0,0,.27.07.19.19,0,0,0,.05-.28c-.07-.12-.35-.2-.35-.2A.77.77,0,0,0,427.42,548.86Z"/><path class="cls-11" d="M425.53,548.93a.2.2,0,0,0,.28.07.21.21,0,0,0,.05-.28.89.89,0,0,0-.36-.19A.85.85,0,0,0,425.53,548.93Z"/><path class="cls-11" d="M426.43,548.36a.2.2,0,1,0,.33-.21.82.82,0,0,0-.36-.2A.89.89,0,0,0,426.43,548.36Z"/><rect class="cls-31" x="422.76" y="546.7" width="10.83" height="10.83"/><rect class="cls-11" x="412.93" y="555.6" width="4.7" height="0.55"/><polygon class="cls-11" points="415.61 549.96 416.36 548.08 417.18 549.96 416.67 549.96 416.67 555.05 416.12 555.05 416.12 549.96 415.61 549.96"/><polygon class="cls-11" points="413.38 549.96 414.14 548.08 414.95 549.96 414.44 549.96 414.44 555.05 413.89 555.05 413.89 549.96 413.38 549.96"/><rect class="cls-31" x="409.87" y="546.7" width="10.83" height="10.83"/><polygon class="cls-8" points="504.25 346.19 539.09 346.19 538.64 267.5 504.25 274.37 504.25 346.19"/><polygon class="cls-32" points="538.64 346.19 615.03 346.19 615.03 270.34 538.64 267.5 538.64 346.19"/><g class="cls-33"><polygon class="cls-34" points="538.64 346.19 615.03 346.19 615.03 270.34 538.64 267.5 538.64 346.19"/></g><polygon class="cls-10" points="518.59 288.16 524.75 287.24 524.75 270.27 518.59 271.5 518.59 288.16"/><path class="cls-11" d="M581.37,328.92v3.81a1.25,1.25,0,0,1-1.25,1.24h-.8a1.25,1.25,0,0,1-1.25-1.24v-3.81Z"/><path class="cls-11" d="M578.07,338.27v-.1c0-.27.56-.49,1.25-.49h.8c.69,0,1.25.22,1.25.49v.1Z"/><rect class="cls-11" x="579.55" y="333.3" width="0.34" height="4.8"/><path class="cls-11" d="M586.41,340.28H573V326.9h13.38ZM574,339.36h11.54V327.82H574Z"/><path class="cls-11" d="M562.2,333.45A2.79,2.79,0,0,1,565,331.3v-.5h.41v.5a2.77,2.77,0,0,1,2.74,2.15h-2.74v3.93a.58.58,0,0,0,1.16,0v-.12H567v.12a1,1,0,1,1-2,0v-3.93Z"/><path class="cls-11" d="M563.14,330.5a.22.22,0,1,0,.37-.23c-.09-.14-.41-.23-.41-.23A.88.88,0,0,0,563.14,330.5Z"/><path class="cls-11" d="M562.1,331.16a.23.23,0,0,0,.32.09.24.24,0,0,0,.05-.33c-.08-.13-.4-.22-.4-.22S562,331,562.1,331.16Z"/><path class="cls-11" d="M564.17,329.84a.23.23,0,0,0,.32.09.23.23,0,0,0,.06-.32c-.09-.14-.41-.23-.41-.23A1,1,0,0,0,564.17,329.84Z"/><path class="cls-11" d="M562,329.93a.23.23,0,0,0,.32.08.22.22,0,0,0,.06-.32,1,1,0,0,0-.41-.23A1,1,0,0,0,562,329.93Z"/><path class="cls-11" d="M563,329.27a.22.22,0,1,0,.37-.24c-.08-.13-.4-.22-.4-.22S563,329.14,563,329.27Z"/><path class="cls-11" d="M571.73,340.28H558.35V326.9h13.38Zm-12.46-.92h11.54V327.82H559.27Z"/><rect class="cls-11" x="547.5" y="337.6" width="5.41" height="0.63"/><polygon class="cls-11" points="550.59 331.11 551.45 328.95 552.39 331.11 551.8 331.11 551.8 336.97 551.17 336.97 551.17 331.11 550.59 331.11"/><polygon class="cls-11" points="548.03 331.11 548.89 328.95 549.83 331.11 549.24 331.11 549.24 336.97 548.61 336.97 548.61 331.11 548.03 331.11"/><path class="cls-11" d="M556.9,340.28H543.52V326.9H556.9Zm-12.46-.92H556V327.82H544.44Z"/><rect class="cls-9" x="720.34" y="361.06" width="34.84" height="148.72"/><rect class="cls-8" x="585.46" y="361.06" width="134.96" height="148.72"/><rect class="cls-13" x="646.34" y="361.06" width="13.2" height="18.8"/><rect class="cls-14" x="734.68" y="361.06" width="6.15" height="18.8"/><polygon class="cls-9" points="709.5 361.06 674.66 361.06 675.11 282.37 709.5 288.92 709.5 361.06"/><polygon class="cls-8" points="675.11 361.06 598.71 361.06 598.71 283.14 675.11 282.37 675.11 361.06"/><polygon class="cls-5" points="644.01 293.63 630.81 293.36 630.81 282.82 644.01 282.68 644.01 293.63"/><polygon class="cls-13" points="695.15 295.21 689 294.29 689 285.01 695.15 286.15 695.15 295.21"/><g class="cls-16"><path class="cls-11" d="M655.43,341.65v4.49a1.46,1.46,0,0,1-1.46,1.47h-1a1.47,1.47,0,0,1-1.47-1.47v-4.49Z"/><path class="cls-11" d="M651.55,352.67v-.1c0-.33.66-.59,1.47-.59h1c.81,0,1.46.26,1.46.59v.1Z"/><rect class="cls-11" x="653.29" y="346.82" width="0.4" height="5.66"/><rect class="cls-12" x="646.15" y="339.82" width="14.69" height="14.69"/><path class="cls-11" d="M632.84,347a3.28,3.28,0,0,1,3.27-2.53v-.59h.49v.59a3.28,3.28,0,0,1,3.23,2.53H636.6v4.65a.69.69,0,0,0,1.37,0v-.15h.49v.15a1.18,1.18,0,0,1-2.35,0V347Z"/><path class="cls-11" d="M633.94,343.52a.26.26,0,0,0,.37.1.27.27,0,0,0,.07-.38c-.1-.16-.48-.26-.48-.26A1.07,1.07,0,0,0,633.94,343.52Z"/><path class="cls-11" d="M632.72,344.3a.27.27,0,0,0,.37.1.27.27,0,0,0,.07-.38c-.1-.16-.48-.27-.48-.27A1.11,1.11,0,0,0,632.72,344.3Z"/><path class="cls-11" d="M635.16,342.75a.26.26,0,0,0,.37.09.25.25,0,0,0,.07-.37c-.1-.16-.48-.27-.48-.27A1.11,1.11,0,0,0,635.16,342.75Z"/><path class="cls-11" d="M632.6,342.85a.27.27,0,0,0,.38.09.26.26,0,0,0,.07-.37,1.13,1.13,0,0,0-.48-.27A1.07,1.07,0,0,0,632.6,342.85Z"/><path class="cls-11" d="M633.83,342.07a.27.27,0,0,0,.37.1.27.27,0,0,0,.07-.38c-.1-.16-.48-.27-.48-.27A1,1,0,0,0,633.83,342.07Z"/><rect class="cls-12" x="628.84" y="339.82" width="14.69" height="14.69"/><rect class="cls-11" x="615.51" y="351.89" width="6.38" height="0.74"/><polygon class="cls-11" points="619.14 344.24 620.16 341.69 621.27 344.24 620.58 344.24 620.58 351.15 619.84 351.15 619.84 344.24 619.14 344.24"/><polygon class="cls-11" points="616.13 344.24 617.15 341.69 618.25 344.24 617.56 344.24 617.56 351.15 616.82 351.15 616.82 344.24 616.13 344.24"/><rect class="cls-12" x="611.35" y="339.82" width="14.69" height="14.69"/></g><polygon class="cls-17" points="604.5 353.26 621.89 353.26 626.35 361.08 605.19 361.08 604.5 353.26"/><polygon class="cls-8" points="523.09 476.88 576.33 479.11 576.33 401.37 523.09 401.37 523.09 476.88"/><rect class="cls-8" x="550.45" y="401.37" width="98.16" height="77.74"/><rect class="cls-13" x="589.87" y="401.37" width="11.67" height="18.95"/><rect class="cls-13" x="546.17" y="401.37" width="6.15" height="14.2"/><rect class="cls-22" x="550.45" y="401.33" width="98.16" height="1.89"/><polygon class="cls-8" points="426.27 518.15 461.11 525.65 461.11 424.91 426.27 421.59 426.27 518.15"/><g class="cls-35"><rect class="cls-36" x="461.03" y="424.91" width="134.96" height="2.29"/><rect class="cls-36" x="461.03" y="427.2" width="134.96" height="5.7"/><rect class="cls-36" x="461.03" y="432.9" width="134.96" height="5.7"/><rect class="cls-37" x="461.03" y="438.6" width="134.96" height="5.7"/><rect class="cls-37" x="461.03" y="444.3" width="134.96" height="5.7"/><rect class="cls-38" x="461.03" y="450" width="134.96" height="5.7"/><rect class="cls-39" x="461.03" y="455.7" width="134.96" height="5.7"/><rect class="cls-40" x="461.03" y="461.4" width="134.96" height="5.7"/><rect class="cls-41" x="461.03" y="467.1" width="134.96" height="5.7"/><rect class="cls-42" x="461.03" y="472.8" width="134.96" height="5.7"/><rect class="cls-43" x="461.03" y="478.5" width="134.96" height="5.7"/><rect class="cls-44" x="461.03" y="484.2" width="134.96" height="5.7"/><rect class="cls-45" x="461.03" y="489.9" width="134.96" height="5.7"/><rect class="cls-46" x="461.03" y="495.6" width="134.96" height="5.7"/><rect class="cls-47" x="461.03" y="501.3" width="134.96" height="5.7"/><rect class="cls-48" x="461.03" y="507" width="134.96" height="5.7"/><rect class="cls-49" x="461.03" y="512.7" width="134.96" height="5.7"/><rect class="cls-50" x="461.03" y="518.4" width="134.96" height="5.7"/><rect class="cls-50" x="461.03" y="524.1" width="134.96" height="1.55"/></g><g class="cls-51"><rect class="cls-52" x="426.27" y="421.59" width="9.98" height="3.32"/><rect class="cls-52" x="436.26" y="421.59" width="9.98" height="3.32"/><rect class="cls-53" x="446.24" y="421.59" width="9.98" height="3.32"/><rect class="cls-53" x="456.22" y="421.59" width="9.98" height="3.32"/><rect class="cls-54" x="466.21" y="421.59" width="9.98" height="3.32"/><rect class="cls-55" x="476.19" y="421.59" width="9.98" height="3.32"/><rect class="cls-56" x="486.17" y="421.59" width="9.98" height="3.32"/><rect class="cls-57" x="496.16" y="421.59" width="9.98" height="3.32"/><rect class="cls-58" x="506.14" y="421.59" width="9.98" height="3.32"/><rect class="cls-59" x="516.12" y="421.59" width="9.98" height="3.32"/><rect class="cls-60" x="526.11" y="421.59" width="9.98" height="3.32"/><rect class="cls-61" x="536.09" y="421.59" width="9.98" height="3.32"/><rect class="cls-62" x="546.07" y="421.59" width="9.98" height="3.32"/><rect class="cls-63" x="556.06" y="421.59" width="9.98" height="3.32"/><rect class="cls-64" x="566.04" y="421.59" width="9.98" height="3.32"/><rect class="cls-65" x="576.03" y="421.59" width="9.98" height="3.32"/><rect class="cls-66" x="586.01" y="421.59" width="9.98" height="3.32"/></g><g class="cls-24"><rect class="cls-5" x="521.91" y="424.91" width="13.2" height="18.8"/></g><polygon class="cls-25" points="521.91 424.98 535.11 424.98 508.13 421.59 494.93 421.59 521.91 424.98"/><polygon class="cls-10" points="440.61 441.75 446.77 442.29 446.77 423.55 440.61 422.96 440.61 441.75"/><polygon class="cls-25" points="440.61 422.96 446.77 423.55 581.6 423.55 575.3 422.96 440.61 422.96"/><path class="cls-11" d="M514.57,505.31v4.88a1.6,1.6,0,0,1-1.6,1.6h-1a1.6,1.6,0,0,1-1.6-1.6v-4.88Z"/><path class="cls-11" d="M510.34,517.3v-.12c0-.35.72-.64,1.6-.64h1c.88,0,1.6.29,1.6.64v.12Z"/><rect class="cls-11" x="512.24" y="510.92" width="0.43" height="6.15"/><rect class="cls-12" x="504.47" y="503.31" width="15.98" height="15.98"/><path class="cls-11" d="M490,511.12a3.57,3.57,0,0,1,3.56-2.76v-.64h.53v.64a3.58,3.58,0,0,1,3.51,2.76h-3.51v5a.74.74,0,0,0,.74.75.75.75,0,0,0,.75-.75V516h.53v.15a1.28,1.28,0,1,1-2.55,0v-5Z"/><path class="cls-11" d="M491.19,507.34a.29.29,0,0,0,.41.11.29.29,0,0,0,.07-.41c-.11-.18-.52-.29-.52-.29A1.15,1.15,0,0,0,491.19,507.34Z"/><path class="cls-11" d="M489.86,508.19a.3.3,0,0,0,.41.1.29.29,0,0,0,.07-.41c-.11-.17-.52-.29-.52-.29A1.19,1.19,0,0,0,489.86,508.19Z"/><path class="cls-11" d="M492.52,506.5a.29.29,0,0,0,.41.1.29.29,0,0,0,.07-.41c-.11-.17-.52-.29-.52-.29A1.19,1.19,0,0,0,492.52,506.5Z"/><path class="cls-11" d="M489.74,506.61a.29.29,0,0,0,.4.1.28.28,0,0,0,.08-.41c-.11-.17-.52-.29-.52-.29A1.19,1.19,0,0,0,489.74,506.61Z"/><path class="cls-11" d="M491.07,505.76a.29.29,0,0,0,.4.11.28.28,0,0,0,.08-.41c-.11-.18-.52-.29-.52-.29A1.15,1.15,0,0,0,491.07,505.76Z"/><rect class="cls-12" x="485.65" y="503.31" width="15.98" height="15.98"/><rect class="cls-11" x="471.15" y="516.45" width="6.93" height="0.81"/><polygon class="cls-11" points="475.1 508.13 476.21 505.35 477.42 508.13 476.66 508.13 476.66 515.64 475.85 515.64 475.85 508.13 475.1 508.13"/><polygon class="cls-11" points="471.82 508.13 472.93 505.35 474.13 508.13 473.38 508.13 473.38 515.64 472.57 515.64 472.57 508.13 471.82 508.13"/><rect class="cls-12" x="466.63" y="503.31" width="15.98" height="15.98"/><polygon class="cls-9" points="786.64 555.05 751.8 562.56 751.8 438.43 786.64 435.1 786.64 555.05"/><rect class="cls-8" x="607.72" y="443.49" width="144.16" height="119.07"/><polygon class="cls-67" points="751.88 438.43 607.72 438.43 647.08 435.1 786.64 435.1 751.88 438.43"/><polygon class="cls-13" points="772.3 455.27 766.14 455.8 766.14 437.06 772.3 436.47 772.3 455.27"/><polygon class="cls-5" points="772.3 436.47 766.14 437.06 622.12 437.06 628.41 436.47 772.3 436.47"/><g class="cls-16"><path class="cls-11" d="M741.46,544.86V549a1.37,1.37,0,0,1-1.37,1.36h-.88a1.36,1.36,0,0,1-1.36-1.36v-4.18Z"/><path class="cls-11" d="M737.85,555.11V555c0-.3.61-.54,1.36-.54h.88c.75,0,1.37.24,1.37.54v.11Z"/><rect class="cls-11" x="739.47" y="549.66" width="0.37" height="5.26"/><rect class="cls-12" x="732.83" y="543.16" width="13.65" height="13.65"/><path class="cls-11" d="M720.46,549.83a3,3,0,0,1,3-2.36v-.55H724v.55a3,3,0,0,1,3,2.36h-3v4.31a.63.63,0,0,0,.63.63.64.64,0,0,0,.64-.63V554h.45v.14a1.09,1.09,0,0,1-2.18,0v-4.31Z"/><path class="cls-11" d="M721.48,546.6a.25.25,0,0,0,.35.09.24.24,0,0,0,.06-.35c-.09-.15-.44-.25-.44-.25A1,1,0,0,0,721.48,546.6Z"/><path class="cls-11" d="M720.35,547.32a.24.24,0,0,0,.34.09.24.24,0,0,0,.07-.35,1,1,0,0,0-.45-.25A1,1,0,0,0,720.35,547.32Z"/><path class="cls-11" d="M722.62,545.88a.25.25,0,0,0,.35.09.25.25,0,0,0,.06-.35c-.09-.15-.45-.25-.45-.25A1.08,1.08,0,0,0,722.62,545.88Z"/><path class="cls-11" d="M720.24,546a.25.25,0,0,0,.35.09.24.24,0,0,0,.06-.35c-.09-.15-.44-.25-.44-.25A1,1,0,0,0,720.24,546Z"/><path class="cls-11" d="M721.38,545.25a.24.24,0,0,0,.34.09.24.24,0,0,0,.07-.35,1,1,0,0,0-.45-.25A1,1,0,0,0,721.38,545.25Z"/><rect class="cls-12" x="716.75" y="543.16" width="13.65" height="13.65"/><rect class="cls-11" x="704.36" y="554.38" width="5.93" height="0.69"/><polygon class="cls-11" points="707.74 547.27 708.68 544.9 709.71 547.27 709.07 547.27 709.07 553.69 708.38 553.69 708.38 547.27 707.74 547.27"/><polygon class="cls-11" points="704.93 547.27 705.88 544.9 706.91 547.27 706.26 547.27 706.26 553.69 705.57 553.69 705.57 547.27 704.93 547.27"/><rect class="cls-12" x="700.49" y="543.16" width="13.65" height="13.65"/></g><rect class="cls-21" x="588.67" y="475.59" width="13.2" height="18.8"/><polygon class="cls-29" points="601.87 475.57 588.67 475.57 589.76 470.15 600.46 470.15 601.87 475.57"/><path class="cls-11" d="M575.64,535.08v4.15a1.36,1.36,0,0,1-1.36,1.36h-.88a1.36,1.36,0,0,1-1.36-1.36v-4.15Z"/><path class="cls-11" d="M572,545.27v-.1c0-.3.61-.54,1.36-.54h.88c.75,0,1.36.24,1.36.54v.1Z"/><rect class="cls-11" x="573.66" y="539.85" width="0.37" height="5.23"/><rect class="cls-31" x="567.05" y="533.38" width="13.59" height="13.59"/><path class="cls-11" d="M554.74,540a3,3,0,0,1,3-2.34v-.55h.45v.55a3,3,0,0,1,3,2.34h-3v4.3a.63.63,0,0,0,.63.63.64.64,0,0,0,.64-.63v-.14h.45v.14a1.09,1.09,0,0,1-2.17,0V540Z"/><path class="cls-11" d="M555.76,536.8a.24.24,0,0,0,.34.09.24.24,0,0,0,.07-.35,1.09,1.09,0,0,0-.45-.24S555.66,536.66,555.76,536.8Z"/><path class="cls-11" d="M554.63,537.52a.24.24,0,0,0,.34.09.24.24,0,0,0,.07-.35,1.09,1.09,0,0,0-.45-.24A.92.92,0,0,0,554.63,537.52Z"/><path class="cls-11" d="M556.89,536.08a.24.24,0,0,0,.34.1.25.25,0,0,0,.07-.35.29.29,0,1,0-.41.25Z"/><path class="cls-11" d="M554.52,536.18a.25.25,0,0,0,.35.09.24.24,0,0,0,.06-.35c-.09-.15-.44-.25-.44-.25A1,1,0,0,0,554.52,536.18Z"/><path class="cls-11" d="M555.65,535.46a.25.25,0,0,0,.35.09.24.24,0,0,0,.06-.35c-.09-.15-.44-.25-.44-.25A1,1,0,0,0,555.65,535.46Z"/><rect class="cls-31" x="551.04" y="533.38" width="13.59" height="13.59"/><rect class="cls-11" x="538.71" y="544.55" width="5.9" height="0.69"/><polygon class="cls-11" points="542.08 537.47 543.02 535.11 544.04 537.47 543.4 537.47 543.4 543.86 542.71 543.86 542.71 537.47 542.08 537.47"/><polygon class="cls-11" points="539.28 537.47 540.23 535.11 541.25 537.47 540.61 537.47 540.61 543.86 539.92 543.86 539.92 537.47 539.28 537.47"/><rect class="cls-31" x="534.87" y="533.38" width="13.59" height="13.59"/><polygon class="cls-8" points="454.33 421.68 507.57 423.92 507.57 346.18 454.33 346.18 454.33 421.68"/><rect class="cls-9" x="507.49" y="346.18" width="98.16" height="77.74"/><rect class="cls-5" x="473.73" y="346.18" width="11.22" height="6.84"/><rect class="cls-5" x="473.73" y="415.39" width="11.22" height="6.84"/><rect class="cls-5" x="280.72" y="387.62" width="19.11" height="27.26" transform="translate(-196.82 490.68) rotate(-64.52)"/><rect class="cls-68" x="291.07" y="403.91" width="0.69" height="13.82" transform="translate(-204.81 497.16) rotate(-64.52)"/><rect class="cls-68" x="298.47" y="402.54" width="0.99" height="5.09" transform="translate(-195.33 500.72) rotate(-64.52)"/><rect class="cls-68" x="291.42" y="397.37" width="1.55" height="8.35" transform="translate(-196 492.58) rotate(-64.52)"/><rect class="cls-68" x="281.1" y="394.02" width="1.55" height="5.23" transform="translate(-197.44 480.46) rotate(-64.52)"/><rect class="cls-68" x="292.97" y="404.96" width="0.69" height="10.79" transform="translate(-203.31 498.62) rotate(-64.52)"/><rect class="cls-68" x="297.95" y="404.72" width="0.69" height="4.64" transform="translate(-197.48 501.19) rotate(-64.52)"/><rect class="cls-68" x="294.54" y="401.67" width="0.69" height="10.79" transform="translate(-199.44 498.15) rotate(-64.52)"/><rect class="cls-68" x="295.13" y="405.11" width="0.69" height="7.96" transform="translate(-200.94 499.85) rotate(-64.52)"/><rect class="cls-68" x="283.89" y="396.61" width="0.69" height="7.44" transform="translate(-199.44 484.7) rotate(-64.52)"/><rect class="cls-68" x="282.81" y="398.24" width="0.69" height="6.47" transform="translate(-201.08 484.38) rotate(-64.52)"/><rect class="cls-68" x="282.04" y="401.64" width="0.69" height="2.44" transform="translate(-202.77 484.49) rotate(-64.52)"/><rect class="cls-68" x="297.66" y="392.75" width="0.69" height="7.21" transform="translate(-188 494.86) rotate(-64.52)"/><rect class="cls-68" x="297" y="394.57" width="0.69" height="5.32" transform="translate(-189.17 494.77) rotate(-64.52)"/><rect class="cls-68" x="282.78" y="393.75" width="0.69" height="3.81" transform="translate(-195.84 481.03) rotate(-64.52)"/><rect class="cls-68" x="287.53" y="389.54" width="0.94" height="5.14" transform="translate(-189.87 483.42) rotate(-64.52)"/><path class="cls-68" d="M301.44,398.62a1.4,1.4,0,1,0,1.87-.66A1.41,1.41,0,0,0,301.44,398.62Z"/><g class="cls-69"><polygon class="cls-70" points="285.45 388.37 306.69 398.49 298.47 415.73 285.45 409.53 285.45 388.37"/></g><rect class="cls-71" x="489.93" y="482.83" width="32.3" height="21.99"/><rect class="cls-5" x="491.21" y="484.05" width="29.73" height="7.33"/><rect class="cls-5" x="491.21" y="492.6" width="29.73" height="10.99"/><rect class="cls-71" x="493.66" y="486.09" width="24.84" height="0.41"/><rect class="cls-71" x="493.66" y="488.94" width="24.84" height="0.41"/><rect class="cls-71" x="493.66" y="495.05" width="24.84" height="0.41"/><rect class="cls-71" x="493.66" y="497.9" width="24.84" height="0.41"/><rect class="cls-71" x="493.66" y="500.75" width="24.84" height="0.41"/><polygon class="cls-72" points="497.4 482.05 489.19 490.51 489.19 482.02 497.4 482.05"/><g class="cls-73"><polygon class="cls-74" points="496.63 482.87 496.26 490.4 489.86 489.83 496.63 482.87"/></g><polygon class="cls-5" points="496.65 482.81 494.96 488.75 489.9 489.79 496.65 482.81"/><polyline class="cls-75" points="232.1 346.18 285.26 346.18 285.34 346.18 383.42 346.18"/><path class="cls-14" d="M543.92,437.06c-1.07,0-12.83.46-14.27,1.38v.45l14.23-1.46Z"/><path class="cls-14" d="M550.12,436.49c1.06-.19,12.83-2.05,14.26-1.41v.45l-14.24,1.32Z"/><path class="cls-14" d="M224.55,423.55c1.06,0,12.83.47,14.26,1.39v.44l-14.25-1.45Z"/><path class="cls-14" d="M218.39,423c-1.06-.19-12.9-2-14.34-1.36v.44l14.32,1.29Z"/><path d="M708.65,510.37,698.34,482h-.21L696,487.79l-3.86,10.62h0a10,10,0,0,0-5.6-2.19l-.73-.08.73-.09c3.92-.71,6.56-3.19,6.56-6.17,0-4.1-3.86-7-9.38-7H672.22v.21h3.34v21.16L667.46,482h-.21l-2.13,5.83-8.19,22.5h0a3,3,0,0,1-.41,0l-.62,0h-8.27l15.73-27.24.12-.21H644.19v8.43h.2c0-4.1,2.43-8.22,7.71-8.22h6.37l-15.85,27.45H664v-8.08h-.2a7.54,7.54,0,0,1-6.47,7.75l-.14,0,3.36-9.23h9.41l3.39,9.34H670v.2H683.1v-.2h-3.36V496.28h3.88c4,0,6.21,1.77,6.21,4.83v2.5c0,.28,0,.68,0,1h0l-2.09,5.73h-2.71v.2h5.63v-.2H688l1.9-5.22a.51.51,0,0,1,0,.09l.05.47,0,.31a6.39,6.39,0,0,0,2.19,4.2l.16.11a5.45,5.45,0,0,0,3.18.91,4.62,4.62,0,0,0,3.67-1.38l-.13-.11a3.39,3.39,0,0,1-2.43,1.09c-1.5,0-2.29-1.83-2.29-3.63v-3.5a8,8,0,0,0-.4-2.56l0-.11h6.88l3.39,9.33h-3.34v.21h11.36v-.21Zm-48-9.55,4.63-12.73,4.63,12.73Zm19.15-4.74v-13h3c3.95,0,6,2.35,6,6.79,0,4.72-1.2,6.16-5.12,6.16h-3.88Zm14.1,4.74,0-.05a6.19,6.19,0,0,0-1.31-2l-.19-.19,0,0,3.8-10.47,4.63,12.73Z"/><path class="cls-76" d="M331.87,382.4c.77,0,2.1-.42,2.36.22.32.79-.71,1.21-1.05,1.58-.64.68-1,1.55-1.95,1.95a6.15,6.15,0,0,1-.87.22c-1.34,3.48-2.61,7-3.86,10.74-.17.51-.3,1.25-.79,1.27s-.64-.49-.9-.75c-.45-.45-1.2-.8-1.31-1.35a3.07,3.07,0,0,1,.22-1.27c.73-2.6,1.73-5.28,2.59-7.7-1.48.25-3.1.68-4.65,1-.93,2.36-1.82,4.82-2.7,7.35-.17.48-.66,2.08-1.62,1.66-.69-.31,0-1.88.11-2.26.77-2.2,1.55-4.36,2.37-6.45a8.7,8.7,0,0,1-.83-.3c-.51-.31-.77-1-1.24-1.28a4.71,4.71,0,0,1-.75-.37.77.77,0,0,1-.33-.75c.06-.31.69-.47,1-.57,1.24-.37,2.47-.67,3.72-1,1.19-3,2.46-6.22,3.71-9.27a6.32,6.32,0,0,1,.56-1.28c.21-.27.88-.81,1.35-.48s.11,1.07,0,1.42c-1.24,3.05-2.47,6.07-3.64,9.12,1.52-.3,3-.62,4.57-.9,1-2.55,2.28-5.57,3.42-8.22.19-.44.33-.86.64-1,.14-.07.43-.11.67-.19l.64-.22a5.64,5.64,0,0,1,1.28-.42c1.4-.11.18,2.09,0,2.55C333.64,377.82,332.79,380.1,331.87,382.4Z"/><path class="cls-76" d="M332.88,390.69c.06.34.22.58.26.94.3,0,.56-.61,1.13-.38.5.69-.25,1.45-.6,1.88.12.4.47.93.18,1.39a.65.65,0,0,1-.93-.53,3,3,0,0,1-1.13.6A1.49,1.49,0,0,1,330,393c0-1.41,1.11-2.06,1.69-2.86a3.61,3.61,0,0,1-.3-1.53,1.46,1.46,0,0,1,1.69-1.24,1.2,1.2,0,0,1,1,1.42C333.93,389.64,333.23,390,332.88,390.69Zm-.45-1.39c.14.06.22-.15.3-.26s.26-.25.19-.49C332.51,388.11,332.2,388.86,332.43,389.3Zm-.83,3.49s.08,0,.08,0a1,1,0,0,0,.67-.41c-.1-.25-.11-.59-.3-.75C331.88,392,331.41,392.35,331.6,392.79Z"/><path class="cls-76" d="M350.4,379.51c-2.23,4.54-4.34,9.57-6.3,14.67-.23.6-.48,1.9-1.09,1.91-.41,0-.64-.54-.9-.86a5.74,5.74,0,0,1-1.2-1.54,9.8,9.8,0,0,1-.19-3.34c.16-3.31.6-6.8.79-9.94-1.69,5-3.27,10.13-4.8,15.38-.2.66-.47,1.74-1.35,1.51s0-2.42.11-2.86c1.66-5.94,3.38-11.55,5.36-17.18.15-.41.31-.9.49-1.39a5.72,5.72,0,0,1,.57-1.32c.36-.44,1.1-.56,1.8-.86.42-.18,1.59-.79,2.06-.37.29.25.13,1.4.08,2.1-.43,5-1.49,9.23-1.58,14.63,1.14-2.79,2.18-5.51,3.53-8.4.88-1.89,1.93-4,2.89-6.08a3.9,3.9,0,0,1,1.2-1.77,6.6,6.6,0,0,1,.79-.22,7.68,7.68,0,0,1,1.87-.64.69.69,0,0,1,.6.19c.29.35,0,1.27-.07,1.65-1.61,6.74-2.84,13.58-4.24,20.64-.1.51-.22,1-.34,1.57s-.14,1.31-.53,1.39c-.65.15-1-.63-1.35-1s-1.14-.65-1.24-1.17a4.36,4.36,0,0,1,.12-1.12C348.26,389.83,349.44,384.63,350.4,379.51Z"/><path class="cls-77" d="M332.23,523.63h-7a2.87,2.87,0,0,0,2.75,2.29,2.78,2.78,0,0,0,2.05-.91l1.68,0a4.25,4.25,0,0,1-3.79,2.3,4.38,4.38,0,0,1-4.27-4.42,4.29,4.29,0,1,1,8.58-.08c0,.25,0,.52,0,.78ZM328,520a2.72,2.72,0,0,0-2.71,2.46h5.42A2.72,2.72,0,0,0,328,520Zm11.21,7.18v-4.56c0-1.42-.42-2.62-2.09-2.62s-2.21,1.2-2.21,2.61v4.57h-1.57v-8.39h1.47v.89h0a2.92,2.92,0,0,1,2.45-1.12,3.41,3.41,0,0,1,3,1.5,4,4,0,0,1,.52,2.15v5Zm9.95,0V526h0a3.52,3.52,0,0,1-3,1.4,4.25,4.25,0,0,1-4.36-4.37,4.3,4.3,0,0,1,4.36-4.46,3.66,3.66,0,0,1,2.85,1.25h0v-3.84h1.57v11.21ZM346.23,520a2.9,2.9,0,0,0-2.88,3,2.9,2.9,0,1,0,5.79,0A2.87,2.87,0,0,0,346.23,520Zm8.92,10h-1.63l1.23-3-3.35-8.23h1.69l2.47,6.52,2.53-6.52h1.7L355.15,530Zm9.12-2.6a4.5,4.5,0,0,1-4.52-4.47,4.53,4.53,0,1,1,4.52,4.47Zm0-7.39a3,3,0,1,0,3,3A3,3,0,0,0,364.27,520Zm5.82,7.18V515.93h1.58v11.21Zm-58.25-1.65a2.1,2.1,0,0,0,.25.65,1.83,1.83,0,0,0,.39.45,2.74,2.74,0,0,0,1.87.66,4.22,4.22,0,0,0,2.07-.53v-1.5a3.73,3.73,0,0,1-1.86.57c-.8,0-1.21-.48-1.21-1.44v-4.11H316v-1.46h-2.64v-2.7H311.8v2.69h-1.52v1.46h1.45V524A7.19,7.19,0,0,0,311.84,525.49Zm9.53-5.33a2.48,2.48,0,0,1,1.59.8l.86-1.42a3.38,3.38,0,0,0-2-.93h-.11a2.35,2.35,0,0,0-2.28,1.25l0,0v-1.13h-1.63v8.32h1.63v-4.35a3,3,0,0,1,.59-1.82A1.73,1.73,0,0,1,321.37,520.16Z"/><path class="cls-78" d="M355.37,516.85a.15.15,0,0,1-.16-.12l-.42-2.64a2.63,2.63,0,0,1,.45-2.16,2.93,2.93,0,0,1,1.94-1.07l11-1.74a.15.15,0,0,1,.16.12l.83,5.29a.15.15,0,0,1-.12.16Z"/><path class="cls-5" d="M359,514.06a.85.85,0,0,1-.7.62.92.92,0,0,1-1-.83.89.89,0,0,1,.74-1.11.82.82,0,0,1,.85.37l.53-.08a1.4,1.4,0,1,0-1,2.08,1.4,1.4,0,0,0,1.15-1.15l-.52.1Zm2-2.27a1.43,1.43,0,0,0-1.21,1.63,1.46,1.46,0,1,0,1.21-1.63Zm.38,2.37a1,1,0,0,1-.32-1.94,1,1,0,1,1,.32,1.94Zm6-.6-.26-1.61a1,1,0,0,0-1.27-.94.93.93,0,0,0-.81.58v0l0,0a1,1,0,0,0-1.6.17h0l-.05-.29-.44.07.44,2.67.47-.08-.24-1.5c-.08-.55.09-.85.56-.92a.56.56,0,0,1,.55.17.93.93,0,0,1,.21.54l.24,1.49.48-.08-.25-1.49c-.06-.38,0-.83.53-.92.42-.08.7.18.79.71l.24,1.49.47-.09Zm-10.7,1.58a.38.38,0,0,1-.38.38.39.39,0,0,1-.39-.38.4.4,0,0,1,.39-.39A.38.38,0,0,1,356.73,515.14Z"/><path class="cls-79" d="M671.06,379.51a10.85,10.85,0,0,0-1.2,4.22s-.11,4.62,4.66,4.62h.65s1,.3,17.46-4.62h-4.18l-.22-5.18-2,5.18h-3L688,371.15h2.87l-1.31,3.61,3.09-3.61h9.06l-.78,2.09h-3.09l-1,2.65h2.87l-.91,2.35H696l-1.14,3.1h3.4l-.26.91s12.32-3.18,13.63-3.53c0,0-35.12,16.65-40.87,16.65,0,0-5.55,0-5.55-4.5C665.24,390.87,664.61,386.65,671.06,379.51Zm20.31,3.35,4.21-11.38-4.47,4.76Zm-6.88-11.71-4.67,12.58h2.9l4.7-12.58Zm-13,12.58h2.9l2.09-5.49-.23,5.49h3.07l4.7-12.58h-2.87L679,376.71l.35-5.56h-3.1Zm2.18,2.9a.56.56,0,0,1-.09.31.61.61,0,0,1-.22.23.68.68,0,0,1-.31.08.65.65,0,0,1-.31-.08.57.57,0,0,1-.23-.23.55.55,0,0,1-.08-.31.58.58,0,0,1,.08-.31.57.57,0,0,1,.23-.23.65.65,0,0,1,.31-.08.68.68,0,0,1,.31.08.61.61,0,0,1,.22.23A.59.59,0,0,1,673.67,386.63Zm-.12,0a.45.45,0,0,0-.15-.35.49.49,0,0,0-.35-.15.49.49,0,0,0-.36.15.45.45,0,0,0-.14.35.48.48,0,0,0,.14.36.52.52,0,0,0,.36.14.52.52,0,0,0,.35-.14A.49.49,0,0,0,673.55,386.63Zm-.79-.33h.3a.26.26,0,0,1,.18.05.17.17,0,0,1,.06.14.15.15,0,0,1,0,.11.26.26,0,0,1-.14.07l.06,0,.05.07.11.19h-.2a.8.8,0,0,0-.13-.22.07.07,0,0,0-.06,0h0V387h-.17Zm.17.28H673l.1,0a.09.09,0,0,0,0-.06.06.06,0,0,0,0-.06.12.12,0,0,0-.09,0h-.08Zm30.66-14.82a.58.58,0,0,1-.31.54.59.59,0,0,1-.31.09.56.56,0,0,1-.31-.09.61.61,0,0,1-.23-.22.59.59,0,0,1-.08-.32.58.58,0,0,1,.08-.31.61.61,0,0,1,.23-.22.56.56,0,0,1,.31-.09.59.59,0,0,1,.31.09.69.69,0,0,1,.23.22A.68.68,0,0,1,703.59,371.76Zm-.12,0a.49.49,0,0,0-.15-.35.47.47,0,0,0-.35-.15.49.49,0,0,0-.36.15.47.47,0,0,0-.14.35.48.48,0,0,0,.14.36.49.49,0,0,0,.36.15.47.47,0,0,0,.35-.15A.49.49,0,0,0,703.47,371.76Zm-.79-.33h.3a.26.26,0,0,1,.18.05.18.18,0,0,1,.06.14.19.19,0,0,1,0,.12.37.37,0,0,1-.14.07l.06,0s0,0,0,.07l.11.19h-.2a1.88,1.88,0,0,0-.12-.23s-.05,0-.07,0h0v.26h-.17Zm.17.29h.07a.13.13,0,0,0,.1,0,.06.06,0,0,0,0-.06.09.09,0,0,0,0-.06l-.09,0h-.08Z"/><path class="cls-77" d="M627.36,322.36h-7a2.86,2.86,0,0,0,2.75,2.29,2.77,2.77,0,0,0,2.05-.9l1.68,0a4.24,4.24,0,0,1-3.79,2.31,4.39,4.39,0,0,1-4.27-4.42,4.29,4.29,0,1,1,8.58-.09c0,.25,0,.53,0,.78Zm-4.25-3.66a2.72,2.72,0,0,0-2.71,2.45h5.42A2.71,2.71,0,0,0,623.11,318.7Zm11.21,7.18v-4.56c0-1.42-.42-2.62-2.09-2.62s-2.21,1.19-2.21,2.6v4.58h-1.57v-8.4h1.47v.9h0a2.89,2.89,0,0,1,2.45-1.13,3.38,3.38,0,0,1,3,1.5,4,4,0,0,1,.53,2.16v5Zm9.95,0v-1.2h0a3.53,3.53,0,0,1-3,1.41,4.26,4.26,0,0,1-4.36-4.38,4.3,4.3,0,0,1,4.36-4.46,3.64,3.64,0,0,1,2.85,1.26h0v-3.84h1.57v11.21Zm-2.91-7.18a3,3,0,1,0,2.9,3A2.85,2.85,0,0,0,641.36,318.7Zm8.92,10h-1.63l1.22-3-3.34-8.22h1.69l2.47,6.51,2.53-6.51h1.7l-4.64,11.19Zm9.12-2.59a4.51,4.51,0,0,1-4.53-4.47,4.53,4.53,0,1,1,4.53,4.47Zm0-7.39a3,3,0,1,0,3,2.95A3,3,0,0,0,659.4,318.7Zm5.81,7.18V314.67h1.58v11.21ZM607,324.22a2.28,2.28,0,0,0,.25.66,2,2,0,0,0,.39.45,2.77,2.77,0,0,0,1.87.66,4.33,4.33,0,0,0,2.07-.53V324a3.78,3.78,0,0,1-1.87.58c-.79,0-1.21-.49-1.21-1.45V319h2.65v-1.46h-2.64v-2.69h-1.56v2.69h-1.51V319h1.45v3.73A6.47,6.47,0,0,0,607,324.22Zm9.53-5.33a2.45,2.45,0,0,1,1.59.81l.86-1.43a3.42,3.42,0,0,0-2-.92h-.11a2.35,2.35,0,0,0-2.28,1.24l0,.05v-1.13h-1.63v8.32h1.63v-4.34a2.92,2.92,0,0,1,.59-1.82A1.72,1.72,0,0,1,616.5,318.89Z"/><path class="cls-78" d="M650.5,315.58a.14.14,0,0,1-.16-.12l-.42-2.63a2.66,2.66,0,0,1,.45-2.17,2.93,2.93,0,0,1,1.94-1.07l11-1.74a.14.14,0,0,1,.15.12l.84,5.29a.15.15,0,0,1-.12.16Z"/><path class="cls-5" d="M654.16,312.79a.82.82,0,0,1-.69.62.92.92,0,0,1-1.05-.82.9.9,0,0,1,.74-1.12.82.82,0,0,1,.85.38l.53-.09a1.42,1.42,0,1,0,.15.94l-.53.09Zm2.05-2.26a1.42,1.42,0,0,0-1.21,1.62,1.46,1.46,0,1,0,1.21-1.62Zm.38,2.37a1,1,0,1,1,.81-1.15A1,1,0,0,1,656.59,312.9Zm6-.6-.26-1.61a1,1,0,0,0-1.26-.95.92.92,0,0,0-.81.59v0l0,0a1,1,0,0,0-.9-.31.89.89,0,0,0-.7.49h0l0-.29-.43.07.43,2.67.48-.08-.24-1.49c-.08-.55.09-.86.55-.93a.58.58,0,0,1,.56.17.87.87,0,0,1,.2.55l.25,1.48.48-.08-.25-1.48c-.06-.39,0-.84.53-.93.42-.07.7.18.78.72l.24,1.48.47-.08Zm-10.69,1.57a.39.39,0,0,1-.77,0,.39.39,0,0,1,.38-.39A.38.38,0,0,1,651.86,313.87Z"/><path class="cls-80" d="M420.8,124.28H579.57A38.75,38.75,0,0,1,618.31,163V537a38.75,38.75,0,0,1-38.74,38.75H411.11c-21.39,0-29.05-17.35-29.05-38.75V163A38.74,38.74,0,0,1,420.8,124.28Z"/><path class="cls-81" d="M411.11,571.57c-20.59,0-24.91-18.81-24.91-34.6V163a34.64,34.64,0,0,1,34.6-34.6H579.57a34.64,34.64,0,0,1,34.6,34.6V537a34.64,34.64,0,0,1-34.6,34.6Z"/><rect class="cls-82" x="393.46" y="174.43" width="213.45" height="351.15" rx="12.88"/><path class="cls-83" d="M406.34,175.4H594a11.92,11.92,0,0,1,11.91,11.91V512.69A11.92,11.92,0,0,1,594,524.6H406.34a11.92,11.92,0,0,1-11.91-11.91V187.31a11.92,11.92,0,0,1,11.91-11.91Zm0-1.94a13.85,13.85,0,0,0-13.85,13.85V512.69a13.85,13.85,0,0,0,13.85,13.85H594a13.85,13.85,0,0,0,13.85-13.85V187.31A13.85,13.85,0,0,0,594,173.46Z"/><g class="cls-84"><path class="cls-5" d="M422.05,173.46,607.88,498.55V187.31A13.85,13.85,0,0,0,594,173.46Z"/></g><path class="cls-85" d="M412.88,249.42a6.67,6.67,0,0,1-2.34-2.85,11.94,11.94,0,0,1,0-8.85,6.55,6.55,0,0,1,2.34-2.85,6.35,6.35,0,0,1,6.78,0,6.55,6.55,0,0,1,2.34,2.85,11.94,11.94,0,0,1,0,8.85,6.67,6.67,0,0,1-2.34,2.85,6.35,6.35,0,0,1-6.78,0Zm6.5-2.67a9.74,9.74,0,0,0,0-9.22,3.85,3.85,0,0,0-6.23,0,9.74,9.74,0,0,0,0,9.22,3.85,3.85,0,0,0,6.23,0Z"/><path class="cls-85" d="M431.47,242.93h6.2v1.91h-6.2Z"/><path class="cls-85" d="M451.29,234.08v16.13H449V236.08h-3.64v-2Z"/><path class="cls-85" d="M458,249.42a6.67,6.67,0,0,1-2.34-2.85,11.94,11.94,0,0,1,0-8.85,6.55,6.55,0,0,1,2.34-2.85,6.35,6.35,0,0,1,6.78,0,6.55,6.55,0,0,1,2.34,2.85,11.94,11.94,0,0,1,0,8.85,6.67,6.67,0,0,1-2.34,2.85,6.35,6.35,0,0,1-6.78,0Zm6.5-2.67a9.67,9.67,0,0,0,0-9.22,3.84,3.84,0,0,0-6.22,0,9.74,9.74,0,0,0,0,9.22,3.84,3.84,0,0,0,6.22,0Z"/><path class="cls-85" d="M473.39,249.42a6.67,6.67,0,0,1-2.34-2.85,11.81,11.81,0,0,1,0-8.85,6.55,6.55,0,0,1,2.34-2.85,6.34,6.34,0,0,1,6.77,0,6.42,6.42,0,0,1,2.34,2.85,11.81,11.81,0,0,1,0,8.85,6.53,6.53,0,0,1-2.34,2.85,6.34,6.34,0,0,1-6.77,0Zm6.5-2.67a9.74,9.74,0,0,0,0-9.22,3.85,3.85,0,0,0-6.23,0,9.74,9.74,0,0,0,0,9.22,3.85,3.85,0,0,0,6.23,0Z"/><path class="cls-85" d="M504.29,238v16.69h-2.21v-6.31a5.11,5.11,0,0,1-1.86,1.47,5.63,5.63,0,0,1-2.41.51,6.46,6.46,0,0,1-3.18-.78,5.63,5.63,0,0,1-2.2-2.21,7,7,0,0,1,0-6.51,5.65,5.65,0,0,1,2.2-2.19,6.46,6.46,0,0,1,3.18-.78,5.81,5.81,0,0,1,2.49.52,4.63,4.63,0,0,1,1.87,1.53V238Zm-4.2,9.88a3.86,3.86,0,0,0,1.48-1.52,4.67,4.67,0,0,0,.53-2.25,4.49,4.49,0,0,0-.54-2.23,3.91,3.91,0,0,0-1.48-1.51,4.3,4.3,0,0,0-4.19,0,3.75,3.75,0,0,0-1.48,1.5,4.62,4.62,0,0,0-.54,2.25,4.57,4.57,0,0,0,.54,2.25,3.86,3.86,0,0,0,1.48,1.52,4.35,4.35,0,0,0,4.2,0Z"/><path class="cls-85" d="M512.31,238.43a6.17,6.17,0,0,1,2.74-.55V240l-.5,0a3.76,3.76,0,0,0-2.83,1.07,4.27,4.27,0,0,0-1,3.06v6.08h-2.22V238h2.12v2.06A3.83,3.83,0,0,1,512.31,238.43Z"/><path class="cls-85" d="M517.13,249.9a1.51,1.51,0,0,1-.46-1.14,1.49,1.49,0,0,1,.46-1.12,1.57,1.57,0,0,1,2.19,0,1.67,1.67,0,0,1,0,2.27,1.47,1.47,0,0,1-1.08.45A1.5,1.5,0,0,1,517.13,249.9Z"/><rect class="cls-86" x="531.06" y="195.89" width="69.35" height="33.61" rx="7.93"/><path class="cls-86" d="M595.23,266H404.42a6.7,6.7,0,0,1-6.7-6.7V224a6.71,6.71,0,0,1,6.7-6.7H595.23a6.7,6.7,0,0,1,6.69,6.7v35.29A6.7,6.7,0,0,1,595.23,266Zm-190.81-46.3a4.32,4.32,0,0,0-4.31,4.31v35.29a4.31,4.31,0,0,0,4.31,4.31H595.23a4.32,4.32,0,0,0,4.31-4.31V224a4.32,4.32,0,0,0-4.31-4.31Z"/><path class="cls-85" d="M414.69,313.91v16.14h-2.28V315.92h-3.65v-2Z"/><path class="cls-85" d="M421.41,329.25a6.55,6.55,0,0,1-2.34-2.85,11.81,11.81,0,0,1,0-8.85,6.58,6.58,0,0,1,2.34-2.84,6.34,6.34,0,0,1,6.77,0,6.44,6.44,0,0,1,2.34,2.84,11.81,11.81,0,0,1,0,8.85,6.42,6.42,0,0,1-2.34,2.85,6.34,6.34,0,0,1-6.77,0Zm6.5-2.66a9.74,9.74,0,0,0,0-9.22,3.85,3.85,0,0,0-6.23,0,9.74,9.74,0,0,0,0,9.22,3.85,3.85,0,0,0,6.23,0Z"/><path class="cls-85" d="M438.52,313.91v16.14h-2.28V315.92H432.6v-2Z"/><path class="cls-85" d="M460.77,317.83v16.69h-2.22V328.2a4.92,4.92,0,0,1-1.85,1.48,5.63,5.63,0,0,1-2.41.51,6.46,6.46,0,0,1-3.18-.79,5.54,5.54,0,0,1-2.2-2.2,7,7,0,0,1,0-6.51,5.58,5.58,0,0,1,2.2-2.19,6.46,6.46,0,0,1,3.18-.79,6,6,0,0,1,2.49.52,4.81,4.81,0,0,1,1.87,1.54v-1.94Zm-4.2,9.88a3.86,3.86,0,0,0,1.48-1.52,4.73,4.73,0,0,0,.53-2.25,4.53,4.53,0,0,0-.54-2.24,4,4,0,0,0-1.48-1.51,4.09,4.09,0,0,0-2.09-.54,4.2,4.2,0,0,0-2.1.53,3.77,3.77,0,0,0-1.48,1.51,4.57,4.57,0,0,0-.54,2.25,4.62,4.62,0,0,0,.54,2.25,3.86,3.86,0,0,0,1.48,1.52,4.1,4.1,0,0,0,2.1.54A4.16,4.16,0,0,0,456.57,327.71Z"/><path class="cls-85" d="M468.79,318.27a6.17,6.17,0,0,1,2.74-.56v2.15a3.48,3.48,0,0,0-.5,0,3.71,3.71,0,0,0-2.83,1.07,4.24,4.24,0,0,0-1,3v6.09H465V317.83h2.12v2.05A3.87,3.87,0,0,1,468.79,318.27Z"/><path class="cls-85" d="M479.83,322.76H486v1.92h-6.2Z"/><path class="cls-85" d="M506,328v2H494.4v-1.57l6.57-6.34a7.69,7.69,0,0,0,1.61-2,3.78,3.78,0,0,0,.42-1.7,2.38,2.38,0,0,0-.89-2,4,4,0,0,0-2.55-.7,5,5,0,0,0-4.12,1.75l-1.57-1.36a6.23,6.23,0,0,1,2.48-1.8,8.72,8.72,0,0,1,3.42-.64,6.21,6.21,0,0,1,4,1.21,4,4,0,0,1,1.5,3.28,5.59,5.59,0,0,1-.55,2.45,9.86,9.86,0,0,1-2.1,2.62L497.72,328Z"/><path class="cls-85" d="M517.58,321.64a4.34,4.34,0,0,1,1.62,3.57,4.87,4.87,0,0,1-.68,2.57,4.58,4.58,0,0,1-2,1.79,7.74,7.74,0,0,1-3.38.66,10.44,10.44,0,0,1-3.29-.52,7.14,7.14,0,0,1-2.63-1.44l1.06-1.82a6.18,6.18,0,0,0,2.12,1.26,8,8,0,0,0,2.72.47,4.55,4.55,0,0,0,2.82-.77,2.53,2.53,0,0,0,1-2.11,2.48,2.48,0,0,0-1.11-2.2,7.05,7.05,0,0,0-3.78-.75h-3.67l.86-8.44h9.1v2h-7.17l-.43,4.42h1.79A8.17,8.17,0,0,1,517.58,321.64Z"/><path class="cls-85" d="M524.31,329.25A6.55,6.55,0,0,1,522,326.4a11.81,11.81,0,0,1,0-8.85,6.58,6.58,0,0,1,2.34-2.84,6.34,6.34,0,0,1,6.77,0,6.44,6.44,0,0,1,2.34,2.84,11.81,11.81,0,0,1,0,8.85,6.42,6.42,0,0,1-2.34,2.85,6.34,6.34,0,0,1-6.77,0Zm6.5-2.66a9.74,9.74,0,0,0,0-9.22,3.85,3.85,0,0,0-6.23,0,9.74,9.74,0,0,0,0,9.22,3.85,3.85,0,0,0,6.23,0Z"/><path class="cls-85" d="M555.21,317.83v16.69H553V328.2a4.92,4.92,0,0,1-1.85,1.48,5.63,5.63,0,0,1-2.41.51,6.46,6.46,0,0,1-3.18-.79,5.54,5.54,0,0,1-2.2-2.2,7,7,0,0,1,0-6.51,5.58,5.58,0,0,1,2.2-2.19,6.46,6.46,0,0,1,3.18-.79,6,6,0,0,1,2.49.52,4.81,4.81,0,0,1,1.87,1.54v-1.94Zm-4.2,9.88a3.86,3.86,0,0,0,1.48-1.52,4.73,4.73,0,0,0,.53-2.25,4.53,4.53,0,0,0-.54-2.24,4,4,0,0,0-1.48-1.51,4.09,4.09,0,0,0-2.09-.54,4.2,4.2,0,0,0-2.1.53,3.77,3.77,0,0,0-1.48,1.51,4.57,4.57,0,0,0-.54,2.25,4.62,4.62,0,0,0,.54,2.25,3.86,3.86,0,0,0,1.48,1.52,4.1,4.1,0,0,0,2.1.54A4.16,4.16,0,0,0,551,327.71Z"/><path class="cls-85" d="M563.23,318.27a6.17,6.17,0,0,1,2.74-.56v2.15a3.56,3.56,0,0,0-.51,0,3.72,3.72,0,0,0-2.82,1.07,4.24,4.24,0,0,0-1,3v6.09H559.4V317.83h2.12v2.05A3.87,3.87,0,0,1,563.23,318.27Z"/><rect class="cls-86" x="531.06" y="275.72" width="69.35" height="33.61" rx="7.93"/><path class="cls-86" d="M595.23,345.86H404.42a6.71,6.71,0,0,1-6.7-6.7V303.87a6.7,6.7,0,0,1,6.7-6.7H595.23a6.7,6.7,0,0,1,6.69,6.7v35.29A6.7,6.7,0,0,1,595.23,345.86Zm-190.81-46.3a4.31,4.31,0,0,0-4.31,4.31v35.29a4.31,4.31,0,0,0,4.31,4.31H595.23a4.32,4.32,0,0,0,4.31-4.31V303.87a4.32,4.32,0,0,0-4.31-4.31Z"/><path class="cls-5" d="M558.9,206.56v13.55h-3.14v-11h-2.71v-2.52Z"/><path class="cls-5" d="M576.63,218.86a5.6,5.6,0,0,1-3.35,1.41v2.17h-1.93v-2.11a10.56,10.56,0,0,1-2.73-.51,6.85,6.85,0,0,1-2.1-1l1.07-2.36a7.16,7.16,0,0,0,1.72.91,7.94,7.94,0,0,0,2,.46v-3.23a15,15,0,0,1-2.33-.74,4.17,4.17,0,0,1-1.59-1.19,3.22,3.22,0,0,1-.63-2.08,3.74,3.74,0,0,1,1.17-2.76,5.57,5.57,0,0,1,3.38-1.41v-2.15h1.93v2.12a8.36,8.36,0,0,1,3.93,1.18l-1,2.38a7.71,7.71,0,0,0-3-1v3.29a14.75,14.75,0,0,1,2.3.71,4.19,4.19,0,0,1,1.58,1.18,3.19,3.19,0,0,1,.64,2.06A3.64,3.64,0,0,1,576.63,218.86Zm-6.35-7.67a3.13,3.13,0,0,0,1.07.52V209a2.15,2.15,0,0,0-1.09.55,1.27,1.27,0,0,0-.35.88A1,1,0,0,0,570.28,211.19Zm4.05,6a1.14,1.14,0,0,0,.35-.83,1,1,0,0,0-.36-.8,3.23,3.23,0,0,0-1-.54v2.67A2.06,2.06,0,0,0,574.33,217.21Z"/><path class="cls-5" d="M550,286.35V299.9h-3.14v-11h-2.71v-2.51Z"/><path class="cls-5" d="M552.77,299.51a1.83,1.83,0,0,1-.54-1.35,1.79,1.79,0,0,1,.54-1.35,2,2,0,0,1,2.67,0,1.79,1.79,0,0,1,.54,1.35,1.83,1.83,0,0,1-.54,1.35,1.9,1.9,0,0,1-2.67,0Z"/><path class="cls-5" d="M568.41,294.09a3.41,3.41,0,0,1,.53,1.88,3.52,3.52,0,0,1-.72,2.2,4.55,4.55,0,0,1-2,1.45,9.08,9.08,0,0,1-6,0,4.49,4.49,0,0,1-2-1.45,3.58,3.58,0,0,1-.71-2.2,3.34,3.34,0,0,1,.54-1.88,3.78,3.78,0,0,1,1.52-1.31,3.23,3.23,0,0,1-1.17-1.18A3.18,3.18,0,0,1,558,290a3.34,3.34,0,0,1,.66-2.06,4.16,4.16,0,0,1,1.84-1.34,7.12,7.12,0,0,1,2.71-.48,7.32,7.32,0,0,1,2.74.48,4.25,4.25,0,0,1,1.85,1.34,3.39,3.39,0,0,1,.65,2.06,3.18,3.18,0,0,1-.4,1.61,3.25,3.25,0,0,1-1.18,1.18A3.84,3.84,0,0,1,568.41,294.09Zm-3.34,3.21a1.72,1.72,0,0,0,.69-1.43,1.68,1.68,0,0,0-.69-1.41,3,3,0,0,0-1.86-.52,2.92,2.92,0,0,0-1.84.52,1.67,1.67,0,0,0-.68,1.41,1.7,1.7,0,0,0,.68,1.44,2.92,2.92,0,0,0,1.84.52A3,3,0,0,0,565.07,297.3Zm-3.38-8.43a1.5,1.5,0,0,0-.58,1.25,1.45,1.45,0,0,0,.57,1.22,2.36,2.36,0,0,0,1.53.45,2.48,2.48,0,0,0,1.55-.45,1.46,1.46,0,0,0,.58-1.22,1.53,1.53,0,0,0-.58-1.25,2.48,2.48,0,0,0-1.55-.45A2.37,2.37,0,0,0,561.69,288.87Z"/><path class="cls-5" d="M585.75,298.65a5.66,5.66,0,0,1-3.36,1.41v2.16h-1.93v-2.11a10.56,10.56,0,0,1-2.73-.5,6.79,6.79,0,0,1-2.09-1l1.06-2.37a6.9,6.9,0,0,0,1.73.91,7.79,7.79,0,0,0,2,.47v-3.24a14,14,0,0,1-2.33-.73,4.06,4.06,0,0,1-1.58-1.19,3.19,3.19,0,0,1-.64-2.08,3.74,3.74,0,0,1,1.17-2.76,5.57,5.57,0,0,1,3.38-1.41V284h1.93v2.11a8.68,8.68,0,0,1,3.94,1.18l-1,2.39a7.71,7.71,0,0,0-3-1V292a13.75,13.75,0,0,1,2.3.71,4,4,0,0,1,1.58,1.18,3.19,3.19,0,0,1,.64,2.06A3.67,3.67,0,0,1,585.75,298.65ZM579.39,291a3,3,0,0,0,1.07.53v-2.75a2.12,2.12,0,0,0-1.09.55,1.26,1.26,0,0,0-.34.88A1,1,0,0,0,579.39,291Zm4.05,6a1.15,1.15,0,0,0,.35-.84,1,1,0,0,0-.36-.79,3,3,0,0,0-1-.54v2.67A2.06,2.06,0,0,0,583.44,297Z"/><path class="cls-85" d="M421,418.17v2h-11.6v-1.57l6.57-6.34a8,8,0,0,0,1.62-2,3.9,3.9,0,0,0,.41-1.7,2.38,2.38,0,0,0-.89-2,4,4,0,0,0-2.54-.7,5.05,5.05,0,0,0-4.13,1.75l-1.57-1.36a6.3,6.3,0,0,1,2.48-1.8,8.72,8.72,0,0,1,3.42-.64,6.24,6.24,0,0,1,4,1.21,4,4,0,0,1,1.5,3.28,5.6,5.6,0,0,1-.56,2.45,9.86,9.86,0,0,1-2.1,2.62l-4.93,4.75Z"/><path class="cls-85" d="M432.61,411.77a4.34,4.34,0,0,1,1.63,3.57,5,5,0,0,1-.68,2.57,4.6,4.6,0,0,1-2.06,1.79,7.73,7.73,0,0,1-3.37.66,10.45,10.45,0,0,1-3.3-.52,7.14,7.14,0,0,1-2.63-1.44l1.06-1.82a6.28,6.28,0,0,0,2.12,1.26,8,8,0,0,0,2.72.47,4.58,4.58,0,0,0,2.83-.77,2.52,2.52,0,0,0,1-2.11,2.48,2.48,0,0,0-1.11-2.2,7,7,0,0,0-3.78-.75h-3.66l.85-8.44h9.11v2h-7.17l-.44,4.42h1.8A8.14,8.14,0,0,1,432.61,411.77Z"/><path class="cls-85" d="M441.15,404v16.14h-2.28V406.05h-3.64v-2Z"/><path class="cls-85" d="M463.4,408v16.69h-2.22v-6.32a5,5,0,0,1-1.85,1.48,5.66,5.66,0,0,1-2.41.51,6.41,6.41,0,0,1-3.18-.79,5.54,5.54,0,0,1-2.2-2.2,7,7,0,0,1,0-6.51,5.58,5.58,0,0,1,2.2-2.19,6.41,6.41,0,0,1,3.18-.79,6,6,0,0,1,2.49.52,4.71,4.71,0,0,1,1.86,1.54V408Zm-4.2,9.88a3.77,3.77,0,0,0,1.47-1.52,4.62,4.62,0,0,0,.54-2.25,4.53,4.53,0,0,0-.55-2.24,4,4,0,0,0-1.47-1.51,4.09,4.09,0,0,0-2.09-.54,4.26,4.26,0,0,0-2.11.53,3.82,3.82,0,0,0-1.47,1.51,4.57,4.57,0,0,0-.54,2.25,4.62,4.62,0,0,0,.54,2.25,3.91,3.91,0,0,0,1.47,1.52,4.37,4.37,0,0,0,4.21,0Z"/><path class="cls-85" d="M471.42,408.4a6.14,6.14,0,0,1,2.74-.56V410a3.56,3.56,0,0,0-.51,0,3.69,3.69,0,0,0-2.82,1.07,4.2,4.2,0,0,0-1,3v6.09h-2.21V408h2.12V410A3.76,3.76,0,0,1,471.42,408.4Z"/><path class="cls-85" d="M482.46,412.89h6.2v1.92h-6.2Z"/><path class="cls-85" d="M507,411.77a4.32,4.32,0,0,1,1.63,3.57,5,5,0,0,1-.68,2.57,4.63,4.63,0,0,1-2.05,1.79,7.77,7.77,0,0,1-3.38.66,10.45,10.45,0,0,1-3.3-.52,7.1,7.1,0,0,1-2.62-1.44l1.06-1.82a6.18,6.18,0,0,0,2.12,1.26,7.93,7.93,0,0,0,2.72.47,4.57,4.57,0,0,0,2.82-.77,2.52,2.52,0,0,0,1-2.11,2.5,2.5,0,0,0-1.1-2.2,7.05,7.05,0,0,0-3.78-.75h-3.67l.85-8.44h9.11v2h-7.17l-.44,4.42h1.8A8.12,8.12,0,0,1,507,411.77Z"/><path class="cls-85" d="M513.7,419.38a6.55,6.55,0,0,1-2.34-2.85,11.94,11.94,0,0,1,0-8.85,6.58,6.58,0,0,1,2.34-2.84,6,6,0,0,1,3.4-1,6,6,0,0,1,3.38,1,6.58,6.58,0,0,1,2.34,2.84,11.94,11.94,0,0,1,0,8.85,6.55,6.55,0,0,1-2.34,2.85,6,6,0,0,1-3.38,1A6,6,0,0,1,513.7,419.38Zm6.5-2.66a9.67,9.67,0,0,0,0-9.22,3.64,3.64,0,0,0-3.1-1.59A3.68,3.68,0,0,0,514,407.5a9.74,9.74,0,0,0,0,9.22,3.68,3.68,0,0,0,3.12,1.59A3.64,3.64,0,0,0,520.2,416.72Z"/><path class="cls-85" d="M529.08,419.38a6.55,6.55,0,0,1-2.34-2.85,11.94,11.94,0,0,1,0-8.85,6.58,6.58,0,0,1,2.34-2.84,6.35,6.35,0,0,1,6.78,0,6.58,6.58,0,0,1,2.34,2.84,11.94,11.94,0,0,1,0,8.85,6.55,6.55,0,0,1-2.34,2.85,6.35,6.35,0,0,1-6.78,0Zm6.5-2.66a9.74,9.74,0,0,0,0-9.22,3.84,3.84,0,0,0-6.22,0,9.67,9.67,0,0,0,0,9.22,3.84,3.84,0,0,0,6.22,0Z"/><path class="cls-85" d="M560,408v16.69h-2.22v-6.32a4.92,4.92,0,0,1-1.85,1.48,5.63,5.63,0,0,1-2.41.51,6.46,6.46,0,0,1-3.18-.79,5.54,5.54,0,0,1-2.2-2.2,7,7,0,0,1,0-6.51,5.58,5.58,0,0,1,2.2-2.19,6.46,6.46,0,0,1,3.18-.79,6,6,0,0,1,2.49.52,4.74,4.74,0,0,1,1.87,1.54V408Zm-4.2,9.88a3.8,3.8,0,0,0,1.48-1.52,4.73,4.73,0,0,0,.53-2.25,4.53,4.53,0,0,0-.54-2.24,4,4,0,0,0-1.48-1.51,4.09,4.09,0,0,0-2.09-.54,4.2,4.2,0,0,0-2.1.53,3.77,3.77,0,0,0-1.48,1.51,4.57,4.57,0,0,0-.54,2.25,4.62,4.62,0,0,0,.54,2.25,3.86,3.86,0,0,0,1.48,1.52,4.1,4.1,0,0,0,2.1.54A4.16,4.16,0,0,0,555.78,417.84Z"/><path class="cls-85" d="M568,408.4a6.17,6.17,0,0,1,2.74-.56V410a3.48,3.48,0,0,0-.5,0,3.72,3.72,0,0,0-2.83,1.07,4.24,4.24,0,0,0-1,3v6.09h-2.22V408h2.13V410A3.79,3.79,0,0,1,568,408.4Z"/><rect class="cls-86" x="531.06" y="365.85" width="69.35" height="33.61" rx="7.93"/><path class="cls-86" d="M595.23,436H404.42a6.71,6.71,0,0,1-6.7-6.7V394a6.7,6.7,0,0,1,6.7-6.7H595.23a6.7,6.7,0,0,1,6.69,6.7v35.29A6.7,6.7,0,0,1,595.23,436Zm-190.81-46.3a4.31,4.31,0,0,0-4.31,4.31v35.29a4.32,4.32,0,0,0,4.31,4.31H595.23a4.32,4.32,0,0,0,4.31-4.31V394a4.32,4.32,0,0,0-4.31-4.31Z"/><path class="cls-85" d="M419.38,491.61a4.33,4.33,0,0,1,1.62,3.56,4.87,4.87,0,0,1-.68,2.57,4.6,4.6,0,0,1-2.05,1.8,7.73,7.73,0,0,1-3.37.66,10.75,10.75,0,0,1-3.3-.52,7.44,7.44,0,0,1-2.63-1.44l1.06-1.82a6,6,0,0,0,2.12,1.25,7.74,7.74,0,0,0,2.72.47,4.52,4.52,0,0,0,2.83-.77,2.54,2.54,0,0,0,1-2.11,2.49,2.49,0,0,0-1.11-2.2,7.05,7.05,0,0,0-3.78-.75h-3.66l.85-8.43h9.11v2h-7.17l-.44,4.43h1.8C416.6,490.31,418.3,490.74,419.38,491.61Z"/><path class="cls-85" d="M426.11,499.22a6.67,6.67,0,0,1-2.34-2.85,11.94,11.94,0,0,1,0-8.85,6.55,6.55,0,0,1,2.34-2.85,6.35,6.35,0,0,1,6.78,0,6.55,6.55,0,0,1,2.34,2.85,11.94,11.94,0,0,1,0,8.85,6.67,6.67,0,0,1-2.34,2.85,6.35,6.35,0,0,1-6.78,0Zm6.5-2.67a9.74,9.74,0,0,0,0-9.22,3.84,3.84,0,0,0-6.22,0,9.67,9.67,0,0,0,0,9.22,3.84,3.84,0,0,0,6.22,0Z"/><path class="cls-85" d="M443.23,483.88V500h-2.29V485.88H437.3v-2Z"/><path class="cls-85" d="M465.47,487.8v16.68h-2.21v-6.31a5,5,0,0,1-1.86,1.47,5.63,5.63,0,0,1-2.41.51,6.46,6.46,0,0,1-3.18-.78,5.67,5.67,0,0,1-2.2-2.2,6.6,6.6,0,0,1-.8-3.27,6.5,6.5,0,0,1,.8-3.25,5.72,5.72,0,0,1,2.2-2.19,6.46,6.46,0,0,1,3.18-.78,5.81,5.81,0,0,1,2.49.52,4.71,4.71,0,0,1,1.87,1.53V487.8Zm-4.2,9.87a3.8,3.8,0,0,0,1.48-1.52,4.67,4.67,0,0,0,.53-2.25,4.49,4.49,0,0,0-.54-2.23,3.84,3.84,0,0,0-1.48-1.51,4.37,4.37,0,0,0-4.19,0,3.71,3.71,0,0,0-1.48,1.51,4.94,4.94,0,0,0,0,4.49,3.86,3.86,0,0,0,1.48,1.52,4.35,4.35,0,0,0,4.2,0Z"/><path class="cls-85" d="M473.49,488.23a6.19,6.19,0,0,1,2.75-.55v2.14l-.51,0a3.76,3.76,0,0,0-2.83,1.07,4.27,4.27,0,0,0-1,3.06V500h-2.21V487.8h2.12v2.05A3.76,3.76,0,0,1,473.49,488.23Z"/><path class="cls-85" d="M484.53,492.73h6.2v1.91h-6.2Z"/><path class="cls-85" d="M504.36,483.88V500h-2.29V485.88h-3.64v-2Z"/><path class="cls-85" d="M519.82,494.32l-2.53,2.35V500h-2.21v-17.1h2.21v11L524,487.8h2.67l-5.14,5,5.65,7.17h-2.72Z"/><path class="cls-85" d="M540.29,487.8v16.68h-2.21v-6.31a5,5,0,0,1-1.85,1.47,5.66,5.66,0,0,1-2.41.51,6.4,6.4,0,0,1-3.18-.78,5.7,5.7,0,0,1-2.21-2.2,6.6,6.6,0,0,1-.79-3.27,6.49,6.49,0,0,1,.79-3.25,5.74,5.74,0,0,1,2.21-2.19,6.4,6.4,0,0,1,3.18-.78,5.88,5.88,0,0,1,2.49.52,4.68,4.68,0,0,1,1.86,1.53V487.8Zm-4.19,9.87a3.77,3.77,0,0,0,1.47-1.52,4.56,4.56,0,0,0,.53-2.25,4.49,4.49,0,0,0-.54-2.23,3.88,3.88,0,0,0-1.47-1.51,4.39,4.39,0,0,0-4.2,0,3.75,3.75,0,0,0-1.47,1.51,4.94,4.94,0,0,0,0,4.49,3.91,3.91,0,0,0,1.47,1.52,4.37,4.37,0,0,0,4.21,0Z"/><rect class="cls-86" x="531.06" y="445.69" width="69.35" height="33.61" rx="7.93"/><path class="cls-86" d="M595.23,515.82H404.42a6.7,6.7,0,0,1-6.7-6.7V473.83a6.7,6.7,0,0,1,6.7-6.69H595.23a6.7,6.7,0,0,1,6.69,6.69v35.29A6.7,6.7,0,0,1,595.23,515.82Zm-190.81-46.3a4.32,4.32,0,0,0-4.31,4.31v35.29a4.31,4.31,0,0,0,4.31,4.31H595.23a4.32,4.32,0,0,0,4.31-4.31V473.83a4.32,4.32,0,0,0-4.31-4.31Z"/><path class="cls-5" d="M553.8,463.16a3.65,3.65,0,0,1,.94,2.56,4,4,0,0,1-.62,2.18,4.28,4.28,0,0,1-1.88,1.6,7.28,7.28,0,0,1-3.11.6,10.71,10.71,0,0,1-2.82-.38,7.28,7.28,0,0,1-2.35-1.07l1.22-2.4a6.14,6.14,0,0,0,1.79.9,7,7,0,0,0,2.08.32,3.32,3.32,0,0,0,1.86-.46,1.46,1.46,0,0,0,.68-1.29c0-1.11-.85-1.66-2.54-1.66h-1.43V462l2.79-3.16h-5.77v-2.52h9.48v2l-3.06,3.48A4.59,4.59,0,0,1,553.8,463.16Z"/><path class="cls-5" d="M556.64,469.48a1.84,1.84,0,0,1-.54-1.36,1.76,1.76,0,0,1,.54-1.34,1.88,1.88,0,0,1,1.34-.51,1.86,1.86,0,0,1,1.33.51,1.74,1.74,0,0,1,.55,1.34,1.9,1.9,0,0,1-3.22,1.36Z"/><path class="cls-5" d="M570.49,457.81a7.09,7.09,0,0,1,1.6,5,8.35,8.35,0,0,1-.86,3.95,5.81,5.81,0,0,1-2.43,2.5,7.53,7.53,0,0,1-3.62.85,8.76,8.76,0,0,1-2.07-.24,5.54,5.54,0,0,1-1.69-.69l1.17-2.3a4.39,4.39,0,0,0,2.53.67,3.69,3.69,0,0,0,2.73-1,4.27,4.27,0,0,0,1.09-2.94,4.53,4.53,0,0,1-3.37,1.22,5.24,5.24,0,0,1-2.36-.52,4.12,4.12,0,0,1-1.69-1.48,4,4,0,0,1-.62-2.22,4.23,4.23,0,0,1,.68-2.38,4.47,4.47,0,0,1,1.85-1.58,6,6,0,0,1,2.6-.55A5.8,5.8,0,0,1,570.49,457.81Zm-2.55,4.09a2,2,0,0,0,0-2.92,2.53,2.53,0,0,0-1.73-.56,2.44,2.44,0,0,0-1.64.54,2.05,2.05,0,0,0,0,3,2.79,2.79,0,0,0,3.35,0Z"/><path class="cls-5" d="M589,468.62a5.66,5.66,0,0,1-3.35,1.4v2.17h-1.94v-2.11a10.71,10.71,0,0,1-2.73-.5,7.15,7.15,0,0,1-2.09-1.05l1.07-2.36a7.16,7.16,0,0,0,1.72.91,8,8,0,0,0,2,.46v-3.23a14.83,14.83,0,0,1-2.32-.74,4.07,4.07,0,0,1-1.59-1.19,3.21,3.21,0,0,1-.64-2.08,3.74,3.74,0,0,1,1.17-2.76,5.57,5.57,0,0,1,3.38-1.4V454h1.94v2.11a8.48,8.48,0,0,1,3.93,1.18l-1,2.38a7.84,7.84,0,0,0-3-1V462a13.67,13.67,0,0,1,2.29.7,4,4,0,0,1,1.58,1.18,3.18,3.18,0,0,1,.64,2.07A3.68,3.68,0,0,1,589,468.62Zm-6.35-7.68a2.91,2.91,0,0,0,1.06.52v-2.75a2,2,0,0,0-1.08.56,1.26,1.26,0,0,0-.35.88A1,1,0,0,0,582.63,460.94Zm4,6a1.1,1.1,0,0,0,.35-.83,1,1,0,0,0-.35-.79,3.23,3.23,0,0,0-1-.55v2.68A2.16,2.16,0,0,0,586.67,467Z"/><path class="cls-5" d="M554.86,388.17v2.55H544.62v-2l5.22-4.94a5.67,5.67,0,0,0,1.13-1.36,2.54,2.54,0,0,0,.29-1.14,1.5,1.5,0,0,0-.55-1.24,2.52,2.52,0,0,0-1.62-.44,3.69,3.69,0,0,0-1.61.34,3,3,0,0,0-1.2,1L544,379.45a5.46,5.46,0,0,1,2.19-1.85,7.36,7.36,0,0,1,3.19-.66,6.51,6.51,0,0,1,2.64.49,4.07,4.07,0,0,1,1.77,1.39,3.61,3.61,0,0,1,.63,2.12A4.76,4.76,0,0,1,554,383a8,8,0,0,1-1.8,2.2L549,388.17Z"/><path class="cls-5" d="M556.8,390.34a1.84,1.84,0,0,1-.55-1.36,1.77,1.77,0,0,1,.55-1.35,1.86,1.86,0,0,1,1.33-.51,1.88,1.88,0,0,1,1.34.51A1.8,1.8,0,0,1,560,389a1.87,1.87,0,0,1-.54,1.36,1.82,1.82,0,0,1-1.34.54A1.8,1.8,0,0,1,556.8,390.34Z"/><path class="cls-5" d="M570.64,378.67a7.08,7.08,0,0,1,1.61,5,8.5,8.5,0,0,1-.86,3.95A5.9,5.9,0,0,1,569,390.1a7.48,7.48,0,0,1-3.62.86,8.78,8.78,0,0,1-2.08-.25,5.73,5.73,0,0,1-1.68-.68l1.16-2.31a4.43,4.43,0,0,0,2.54.68,3.66,3.66,0,0,0,2.73-1,4.22,4.22,0,0,0,1.08-2.93,4.55,4.55,0,0,1-3.37,1.22,5.41,5.41,0,0,1-2.36-.52,4.12,4.12,0,0,1-1.68-1.49,3.89,3.89,0,0,1-.62-2.21,4.2,4.2,0,0,1,.67-2.38,4.46,4.46,0,0,1,1.85-1.58,6,6,0,0,1,2.61-.55A5.74,5.74,0,0,1,570.64,378.67Zm-2.55,4.08a1.82,1.82,0,0,0,.65-1.46,1.86,1.86,0,0,0-.63-1.45,2.52,2.52,0,0,0-1.73-.56,2.39,2.39,0,0,0-1.63.54,1.84,1.84,0,0,0-.63,1.47,1.86,1.86,0,0,0,.63,1.48,2.73,2.73,0,0,0,3.34,0Z"/><path class="cls-5" d="M589.13,389.47a5.6,5.6,0,0,1-3.35,1.41v2.17h-1.93v-2.11a10.56,10.56,0,0,1-2.73-.51,6.68,6.68,0,0,1-2.09-1l1.06-2.37a6.68,6.68,0,0,0,1.72.91,7.56,7.56,0,0,0,2,.47v-3.23a15,15,0,0,1-2.33-.74,4.06,4.06,0,0,1-1.58-1.19,3.17,3.17,0,0,1-.64-2.08,3.74,3.74,0,0,1,1.17-2.76,5.57,5.57,0,0,1,3.38-1.41v-2.15h1.93V377a8.36,8.36,0,0,1,3.93,1.18l-1,2.38a7.71,7.71,0,0,0-3-1v3.29a14.75,14.75,0,0,1,2.3.71,4.09,4.09,0,0,1,1.58,1.18,3.19,3.19,0,0,1,.64,2.06A3.64,3.64,0,0,1,589.13,389.47Zm-6.35-7.67a3.13,3.13,0,0,0,1.07.52v-2.75a2.19,2.19,0,0,0-1.09.55,1.27,1.27,0,0,0-.35.88A1,1,0,0,0,582.78,381.8Zm4.05,6a1.14,1.14,0,0,0,.35-.83,1,1,0,0,0-.36-.8,3.13,3.13,0,0,0-1-.54v2.67A2.06,2.06,0,0,0,586.83,387.82Z"/><path class="cls-87" d="M477.85,146.93h44.67c.92,0,1.67,1.09,1.67,2.42s-.75,2.43-1.67,2.43H477.85c-.92,0-1.67-1.09-1.67-2.43S476.93,146.93,477.85,146.93Z"/></g></g></svg>