<svg width="278" height="278" viewBox="0 0 278 278" fill="none" xmlns="http://www.w3.org/2000/svg">
<circle opacity="0.05" cx="139" cy="139" r="139" fill="#7B5CE1"/>
<g clip-path="url(#clip0)">
<path d="M160.084 27.5247C160.084 27.5247 160.603 28.0318 166.836 28.6581C173.084 29.2844 175.34 28.6581 175.34 28.6581L167.385 25.5712C167.385 25.5563 160.559 25.5563 160.084 27.5247Z" fill="#533BA0"/>
<path d="M161.019 208.683C161.019 208.683 159.015 209.026 157.635 211.352C156.255 213.678 155.053 215.468 154.281 215.811C153.494 216.169 149.903 218.674 148.79 220.27C147.677 221.865 147.914 222.879 147.914 222.879C147.914 222.879 147.543 223.029 147.617 223.864C147.692 224.699 148.226 226.324 150.289 227.025C152.352 227.726 155.275 228.039 158.243 226.19C161.212 224.341 163.171 221.254 164.625 220.986C166.065 220.717 173.871 217.6 174.227 216.392C174.583 215.185 177.165 205.551 173.826 205.506C170.457 205.476 161.019 208.683 161.019 208.683Z" fill="#3B3B30"/>
<path d="M164.595 218.883C163.17 219.226 161.182 222.238 158.214 224.087C155.246 225.937 152.322 225.623 150.259 224.922C148.923 224.46 148.241 223.625 147.885 222.865V222.879C147.885 222.879 147.513 223.029 147.588 223.864C147.662 224.699 148.196 226.324 150.259 227.025C152.322 227.726 155.246 228.039 158.214 226.19C161.182 224.341 163.141 221.254 164.595 220.986C166.035 220.717 173.841 217.6 174.197 216.392C174.286 216.109 174.494 215.319 174.731 214.305C173.574 215.617 170.22 217.526 164.595 218.883Z" fill="#BDBDB9"/>
<path d="M147.899 148.108C147.899 148.108 149.413 170.163 153.747 182.004C158.08 193.845 156.626 198.974 157.576 202.21C158.511 205.447 159.757 209.562 159.757 209.562C159.757 209.562 164.15 213.604 166.406 213.648C168.662 213.678 171.615 212.5 171.912 211.933C172.209 211.367 180.43 182.586 180.089 180.886C179.733 179.185 191.62 147.004 173.5 143.768C155.349 140.517 147.899 148.108 147.899 148.108Z" fill="#533BA0"/>
<path d="M171.897 211.919C171.897 211.919 169.938 205.357 170.072 199.959C170.205 194.56 167.756 178.798 167.059 176.978C166.361 175.144 158.466 155.877 158.466 155.877L175.993 142.948V200.168C175.993 200.168 173.604 210.949 171.897 211.919Z" fill="#3B2976"/>
<path d="M175.488 217.317L173.559 217.078C173.559 217.078 172.312 220.911 171.808 221.627C171.303 222.327 165.515 229.083 164.833 230.097C164.15 231.111 164.031 231.976 164.031 231.976C164.031 231.976 163.482 232.259 163.304 233.601C163.126 234.943 163.096 238.179 167.756 238.895C172.416 239.596 176.171 237.374 178.486 234.779C180.801 232.17 182.374 229.918 183.339 228.993C185.758 226.682 187.287 224.46 187.287 224.46C187.287 224.46 189.379 219.658 188.533 217.898C187.702 216.094 175.488 217.317 175.488 217.317Z" fill="#3B3B30"/>
<path d="M187.287 222.253C187.287 222.253 185.743 224.475 183.339 226.786C182.359 227.726 180.801 229.978 178.486 232.572C176.171 235.182 172.416 237.404 167.756 236.688C164.684 236.226 163.645 234.645 163.348 233.244C163.334 233.333 163.319 233.437 163.304 233.542C163.126 234.884 163.096 238.12 167.756 238.836C172.416 239.537 176.171 237.315 178.486 234.72C180.801 232.11 182.374 229.858 183.339 228.934C185.758 226.622 187.287 224.4 187.287 224.4C187.287 224.4 189.231 219.912 188.607 218.033C188.266 220.016 187.287 222.253 187.287 222.253Z" fill="#BDBDB9"/>
<path d="M193.075 140.249C193.075 140.249 193.045 141.442 193.001 143.38C192.808 149.017 192.348 160.918 191.605 167.718C190.596 176.814 190.136 180.259 190.478 184.793C190.804 189.296 191.338 189.833 190.359 200.093C189.394 210.353 189.854 218.927 189.854 218.927C189.854 218.927 188.845 219.688 187.079 220.344C185.907 220.762 184.408 221.12 182.671 221.164C178.308 221.224 174.539 218.316 174.539 218.316C174.539 218.316 172.12 206.252 172.876 200.988C173.604 195.738 170.65 178.589 170.65 178.589C170.65 178.589 168.498 166.316 167.237 160.589C165.961 154.848 172.253 128.408 176.572 126.246C180.861 124.054 193.075 140.249 193.075 140.249Z" fill="#7B5CE1"/>
<path d="M191.59 167.703C190.581 176.8 190.121 180.244 190.462 184.778C190.789 189.281 191.323 189.818 190.344 200.078C189.379 210.338 189.839 218.913 189.839 218.913C189.839 218.913 188.83 219.673 187.064 220.329C187.079 213.052 188.266 200.555 188.444 196.111C188.682 190.609 186.901 186.851 186.648 180.438C186.411 174.041 189.528 145.453 189.528 145.453C190.744 144.544 191.887 143.858 192.971 143.38C192.792 149.003 192.347 160.918 191.59 167.703Z" fill="#533BA0"/>
<path d="M203.953 95.3321C203.151 101.551 194.291 134.567 193.772 133.628C193.253 132.688 157.101 138.489 157.101 138.489C157.101 138.489 151.624 89.2627 151.328 84.3117C151.031 79.3607 156.759 57.648 158.421 54.5611C158.807 53.8453 159.312 53.3383 159.905 52.9804C161.894 51.7576 164.862 52.2199 167.712 52.6225C171.407 53.1594 174.42 52.6225 174.42 52.6225C174.42 52.6225 175.83 52.712 177.922 52.876C183.443 53.3234 193.713 54.2629 195.434 55.3068C197.809 56.7533 209.934 70.5922 209.934 70.5922C210.794 74.6185 204.754 89.1136 203.953 95.3321Z" fill="#7B5CE1"/>
<path d="M177.24 65.2385C177.24 65.2385 175.088 72.2623 175.028 74.2755C174.954 76.3037 173.411 84.3863 173.084 85.0722C172.743 85.7433 175.963 75.1554 177.24 74.2159C178.516 73.2615 176.765 70.1448 177.24 65.2385Z" fill="#533BA0"/>
<path d="M163.007 58.2296C163.007 58.2296 158.911 64.2394 157.843 74.4247C156.774 84.6099 156.359 84.0284 156.359 84.0284C156.359 84.0284 155.483 67.6693 163.007 58.2296Z" fill="#533BA0"/>
<path d="M160.633 52.6224C159.846 52.861 159.49 53.9497 158.985 54.4865C158.644 54.8444 157.932 57.0067 157.397 58.6769C157.13 59.512 156.893 60.2278 156.774 60.5559C156.566 61.0928 156.418 62.3305 156.225 63.5384C156.062 64.5376 155.854 65.5069 155.572 66.0139C154.934 67.1324 154.667 69.9658 154.459 70.8009C154.251 71.636 153.791 72.2474 153.791 72.993C153.791 73.7386 152.099 77.9291 152.099 77.9291C152.099 77.9291 116.229 81.9107 112.133 80.0168C108.037 78.1229 111.02 67.9675 111.02 67.9675C111.02 67.9675 113.439 67.4455 115.457 67.9078C116.422 68.1315 116.897 68.0868 117.357 67.9824C117.862 67.8631 118.322 67.6394 119.346 67.6096C121.29 67.5499 123.071 67.2368 125.861 65.7604C128.651 64.2692 130.461 65.5964 131.337 65.7902C132.213 65.999 132.955 66.7446 134.454 65.9245C135.967 65.1192 138.119 66.2973 138.579 65.9245C139.054 65.5516 140.761 63.8665 141.607 63.1209C142.453 62.3753 143.892 62.4498 144.872 61.5998C145.836 60.7647 148.063 59.6761 148.063 59.6761C148.063 59.6761 148.27 59.3033 149.339 58.5278C150.407 57.7524 151.995 57.3199 152.263 56.8427C152.53 56.3655 155.409 55.3962 156.566 54.0093C157.665 52.6224 160.633 52.6224 160.633 52.6224Z" fill="#FF5050"/>
<path d="M160.633 52.6224C159.846 52.861 159.49 53.9497 158.985 54.4865C158.644 54.8444 157.932 57.0067 157.397 58.6769C156.67 58.3936 156.641 55.1874 156.344 55.3216C156.047 55.4558 155.646 56.5444 155.646 57.5585C155.646 58.5726 155.706 60.1831 156.789 60.5559C157.516 60.8094 156.908 62.6139 156.24 63.5384C155.928 63.9709 155.602 64.2095 155.409 64.0007C154.786 63.3297 156.047 61.7191 155.186 60.7945C154.325 59.8699 154.043 58.7664 154.118 58.2296C154.192 57.6927 152.975 57.0813 152.975 57.0813C152.975 57.0813 152.5 58.2296 151.728 59.1691C150.986 60.0936 153.361 65.6113 153.494 65.9095C153.361 65.7306 151.684 63.3147 151.357 62.2858C151.016 61.2121 150.363 59.184 150.363 59.184C150.363 59.184 149.087 60.6752 148.612 61.8086C148.137 62.9568 147.736 66.5806 147.736 66.5806C147.736 66.5806 147.335 66.2674 147.335 64.642C147.335 63.0165 146.668 62.0174 145.926 62.3454C145.184 62.6884 144.308 63.8963 143.714 64.7762C143.106 65.656 141.637 66.5806 141.637 66.5806C141.637 66.5806 140.494 66.5359 139.692 66.5806C138.891 66.6253 135.24 65.6858 137.481 66.5806C139.218 67.2666 140.345 69.4885 140.776 70.4579C140.598 70.1298 140.271 69.6079 139.633 68.8324C138.357 67.2815 135.404 67.3561 135.359 67.2368C135.3 67.1175 132.124 66.8192 130.922 66.2078C129.72 65.5964 127.968 66.5955 127.968 66.5955C127.968 66.5955 126.098 67.1473 122.937 67.6841C120.251 68.1315 121.394 69.3692 121.795 69.7421C121.572 69.5631 121.008 69.1754 120.058 68.9815C119.583 68.8771 118.544 68.4745 117.431 67.9973C117.936 67.878 118.396 67.6543 119.42 67.6245C121.364 67.5648 123.145 67.2517 125.935 65.7753C128.725 64.2841 130.536 65.6113 131.411 65.8051C132.287 66.0139 133.029 66.7596 134.528 65.9394C136.042 65.1341 138.194 66.3122 138.654 65.9394C139.129 65.5665 140.835 63.8814 141.681 63.1358C142.527 62.3902 143.967 62.4647 144.946 61.6147C145.911 60.7796 148.137 59.691 148.137 59.691C148.137 59.691 148.345 59.3182 149.413 58.5427C150.482 57.7673 152.07 57.3348 152.337 56.8576C152.604 56.3804 155.483 55.4111 156.641 54.0242C157.665 52.6224 160.633 52.6224 160.633 52.6224Z" fill="#CA3E3E"/>
<path d="M112.311 76.5274C112.311 76.5274 114.775 78.5555 114.671 75.8265C114.567 73.0826 112.489 68.6536 110.827 70.1001C109.165 71.5466 112.311 76.5274 112.311 76.5274Z" fill="#E09C63"/>
<path d="M119.183 69.3842C119.183 69.3842 122.151 70.5623 121.349 73.4553C120.548 76.3633 118.96 78.9581 118.96 78.9581C118.96 78.9581 125.267 72.4562 119.183 69.3842Z" fill="#D3970A"/>
<path d="M199.144 91.7679L165.738 108.381L154.4 168.806L185.15 151.359L199.144 91.7679Z" fill="#D9AF6A"/>
<path d="M180.252 101.237L170.072 159.948L175.162 157.07L186.248 98.3295L180.252 101.237Z" fill="#9C480C"/>
<path d="M180.668 100.969L170.487 159.68L175.577 156.787L186.663 98.0611L180.668 100.969Z" fill="#D6D6D6"/>
<path d="M199.144 91.768L151.699 65.2385L110.337 78.1379L165.738 108.381L199.144 91.768Z" fill="#EFD995"/>
<path d="M98.5242 137.937L110.337 78.1379L165.738 108.381L154.4 168.806L98.5242 137.937Z" fill="#B76F3F"/>
<path d="M168.409 74.5738L131.174 89.9039L140.152 94.6759L175.384 78.466L168.409 74.5738Z" fill="#9C480C"/>
<path d="M136.724 69.5483L186.663 98.0612L180.252 101.238L130.224 71.3378L136.724 69.5483Z" fill="#9C480C"/>
<path d="M137.125 69.265L187.064 97.7778L180.668 100.969L130.64 71.0545L137.125 69.265Z" fill="#E6E1E4"/>
<path d="M140.153 94.6759L129.69 155.146L120.296 149.957L131.174 89.9039L140.153 94.6759Z" fill="#9C480C"/>
<path d="M167.86 74.2756L130.64 89.6057L139.618 94.3777L174.835 78.1827L167.86 74.2756Z" fill="#F1F1F1"/>
<path d="M139.618 94.3777L129.141 154.863L119.747 149.674L130.64 89.6057L139.618 94.3777Z" fill="#B3A4AD"/>
<path d="M111.065 71.3975L114.983 126.022L115.888 126.291L134.424 84.0284L111.065 71.3975Z" fill="#2B252B"/>
<path d="M110.159 71.1291L91 110.901L114.983 126.022L133.504 83.76L110.159 71.1291Z" fill="#575257"/>
<path d="M110.842 74.7826L94.2798 109.156L115.012 122.234L127.998 91.768L130.64 84.2521L110.842 74.7826Z" fill="#474247"/>
<path d="M110.441 73.3212L93.8792 107.71L114.612 120.788L130.64 84.2521L110.441 73.3212Z" fill="#EBEBEB"/>
<path d="M119.657 73.7386L118.752 73.5597L123.368 81.5528L124.021 81.6721L127.271 77.9142L119.657 73.7386Z" fill="#939393"/>
<path d="M113.335 75.6326C113.335 75.6326 113.157 78.973 112.979 80.2555C112.801 81.5231 110.931 80.8073 110.931 80.8073C110.931 80.8073 111.851 83.2678 110.842 83.9389C109.833 84.61 108.601 83.9538 108.601 83.9538C108.601 83.9538 108.572 84.2073 108.646 84.3863C108.735 84.5652 107.874 85.3108 106.85 85.3854C105.826 85.46 105.084 83.8345 105.084 83.5959C105.084 83.3573 104.906 84.0433 104.906 84.0433C104.906 84.0433 104.639 84.6398 104.149 84.938C104.001 85.0275 103.837 85.0872 103.644 85.0872C102.858 85.1021 100.869 82.3432 100.32 81.0757C99.7711 79.8081 99.8304 77.78 99.8749 76.4677C99.9343 75.1703 100.558 74.6484 100.869 74.1861C101.166 73.7387 101.344 72.6053 101.671 72.0238C102.012 71.4571 102.977 71.3527 103.452 70.0851C103.912 68.8175 104.668 69.0562 105.663 68.9816C106.642 68.907 106.345 68.8623 107.592 68.057C107.919 67.8333 108.275 67.714 108.616 67.6693C109.566 67.5351 110.471 67.9377 110.916 68.236C111.525 68.6535 112.742 71.5764 112.742 71.5764L113.335 75.6326Z" fill="#F9C48E"/>
<path d="M108.631 67.6843C108.378 67.8185 108.171 68.0273 107.963 68.2509C107.562 68.6685 107.043 68.9369 106.805 69.4738C106.731 69.6527 106.553 70.9501 106.627 71.1887C106.479 70.6966 106.286 70.5177 106.063 70.2194C105.915 70.0405 105.499 69.6676 105.277 69.5782C104.743 69.3545 103.793 70.1896 103.555 70.5922C103.169 71.2185 103.526 72.0387 103.451 72.7545C102.873 72.0835 102.264 74.0072 102.19 74.3651C102.041 75.2449 102.131 76.1695 102.249 77.0494C101.982 76.7362 101.418 76.8853 101.196 77.2283C100.973 77.5713 100.973 78.0187 100.988 78.4362C101.032 79.7933 101.121 81.2398 101.938 82.3135C102.338 82.8354 102.873 83.2381 103.347 83.7004C103.689 84.0583 104.015 84.4609 104.164 84.9232C104.015 85.0127 103.852 85.0723 103.659 85.0723C102.873 85.0872 100.884 82.3284 100.335 81.0608C99.7857 79.7933 99.8451 77.7652 99.8896 76.4529C99.9489 75.1555 100.572 74.6335 100.884 74.1712C101.181 73.7239 101.359 72.5905 101.685 72.0089C102.027 71.4422 102.991 71.3378 103.466 70.0703C103.926 68.8027 104.683 69.0413 105.677 68.9667C106.657 68.8922 106.36 68.8474 107.607 68.0422C107.933 67.8483 108.289 67.729 108.631 67.6843Z" fill="#E09C63"/>
<path d="M107.473 70.9053C107.473 70.9053 109.165 74.4694 109.492 75.6922C109.818 76.9001 110.145 79.0326 110.56 79.8528C110.976 80.673 110.931 80.8072 110.931 80.8072L111.169 81.6125C111.169 81.6125 110.827 81.3739 110.367 80.4642C109.907 79.5546 109.358 76.9598 109.224 76.6168C109.091 76.2589 107.859 72.9483 107.829 72.9036C107.8 72.8439 107.444 71.4123 107.473 70.9053Z" fill="#E09C63"/>
<path d="M103.778 74.2756C103.778 74.2756 106.39 78.809 106.805 79.8529C107.206 80.8968 108.468 83.2977 108.898 83.745C109.328 84.1924 109.328 84.1924 109.328 84.1924L108.586 83.9538L108.631 84.3863C108.631 84.3863 108.319 83.581 107.607 82.3731C106.894 81.1801 104.713 76.5274 104.609 76.244C104.505 75.9756 103.778 74.2756 103.778 74.2756Z" fill="#E09C63"/>
<path d="M105.084 83.5959C105.084 83.5959 103.347 80.852 103.006 80.2406C102.665 79.6291 102.19 77.5563 102.071 77.1537C101.952 76.751 101.73 75.737 101.626 75.8115C101.522 75.8861 102.323 79.8081 102.62 80.509C102.917 81.2099 104.371 82.9248 104.446 83.3573C104.52 83.8047 104.728 84.3564 104.55 84.5354C104.401 84.7442 105.084 84.3266 105.084 83.5959Z" fill="#E09C63"/>
<path d="M103.526 83.238C103.526 83.238 102.962 83.4766 102.932 83.7003C102.902 83.924 102.739 84.1626 102.739 84.1626C102.739 84.1626 103.051 84.8336 103.526 84.8038C103.986 84.774 104.282 84.5652 104.282 84.3862C104.282 84.2073 104.208 83.5362 103.526 83.238Z" fill="#FFE1C9"/>
<path d="M107.34 83.238C107.34 83.238 106.167 83.059 106.049 84.0283C105.93 84.9977 106.568 85.0275 106.568 85.0275C106.568 85.0275 107.399 85.2512 107.77 84.8187C108.141 84.4012 108.141 84.4012 108.141 84.4012C108.141 84.4012 107.8 83.2231 107.34 83.238Z" fill="#FFE1C9"/>
<path d="M110.219 81.6126C110.219 81.6126 109.002 81.5977 109.017 82.4477C109.046 83.5214 109.314 83.7451 109.314 83.7451C109.314 83.7451 110.13 84.0583 110.709 83.6258C111.273 83.1934 111.065 82.91 111.065 82.91C111.065 82.91 110.605 81.6126 110.219 81.6126Z" fill="#FFE1C9"/>
<path d="M111.836 78.1379C111.836 78.1379 110.872 78.123 110.872 78.7791C110.872 79.9572 110.783 79.9572 110.783 79.9572C110.783 79.9572 111.391 80.4941 111.985 80.3599C112.578 80.2257 112.712 80.2257 112.712 80.2257C112.712 80.2257 113.083 78.1379 111.836 78.1379Z" fill="#FFE1C9"/>
<path d="M179.243 150.688C179.243 150.688 177.729 150.091 176.126 150.896C174.509 151.687 172.001 152.865 172.001 152.865C172.001 152.865 168.157 153.133 167.652 154.103C167.148 155.057 167.608 156.802 168.795 156.757C169.982 156.712 172.134 156.354 172.134 156.354C172.134 156.354 171.897 157.756 171.927 158.204C171.956 158.666 171.941 158.86 171.941 158.86L164.387 163.155C164.387 163.155 170.25 163.736 171.244 163.736C172.238 163.736 172.372 163.736 172.372 163.736C172.372 163.736 172.55 165.406 173.782 165.004C175.013 164.601 183.458 157.011 183.458 157.011C183.458 157.011 183.205 149.062 179.243 150.688Z" fill="#F9C48E"/>
<path d="M213.703 85.8179C212.397 93.6172 211.477 94.9743 211.581 99.8357C211.7 104.697 210.69 112.735 210.334 114.45C209.978 116.18 208.464 124.277 206.505 128.319C204.532 132.375 201.192 137.579 199.901 140.905C198.818 143.723 197.452 146.244 196.236 147.571C196.028 147.795 195.82 148.003 195.627 148.152C194.306 149.196 194.44 150.21 194.306 150.434C194.143 150.658 191.59 151.896 190.759 151.94C190.611 151.955 190.462 151.955 190.344 151.955C190.002 151.97 189.691 151.955 189.468 151.94C189.246 151.94 189.112 151.94 189.112 151.94L187.836 153.297C187.806 153.312 187.791 153.342 187.761 153.372C187.761 153.372 187.747 153.387 187.732 153.387L182.983 158.338C182.983 158.338 182.983 157.577 182.523 156.518C182.27 155.922 181.87 155.221 181.246 154.52C179.525 152.611 177.699 150.36 177.699 150.36C177.699 150.36 179.198 150.389 179.243 149.778C179.258 149.181 179.822 148.406 180.074 147.974C180.311 147.541 181.825 145.349 181.988 145.125C181.988 145.11 181.988 145.11 181.988 145.11C181.988 145.11 181.632 142.963 181.81 142.605C181.988 142.247 182.983 142.277 183.487 141.695C184.022 141.114 185.654 138.101 185.892 137.117C186.114 136.118 186.93 133.926 187.435 133.419C187.94 132.912 190.403 127.439 190.403 127.439C190.403 127.439 190.522 125.709 190.893 125.426C191.264 125.113 191.798 124.576 191.798 124.576C191.798 124.576 191.754 124.441 191.783 124.233C191.798 123.949 191.947 123.517 192.392 123.01C192.466 122.935 192.54 122.861 192.614 122.786C192.956 122.458 193.193 122.19 193.371 121.951C193.787 121.429 193.876 121.131 193.876 121.131C193.876 121.131 193.846 120.982 193.846 120.743C193.846 120.385 193.906 119.819 194.351 119.416C195.063 118.76 194.633 115.897 194.855 115.211C194.87 115.181 194.87 115.151 194.855 115.091C194.974 113.66 193.312 101.581 193.193 99.8954C193.045 98.1506 191.308 87.0855 197.141 78.5853C202.988 70.0703 208.746 69.4141 209.963 70.5773C211.18 71.7703 211.611 73.3659 211.611 73.3659C211.611 73.3659 215.009 78.0336 213.703 85.8179Z" fill="#FF5050"/>
<path d="M207.515 71.4571C207.707 71.3826 199.812 76.2142 199.159 78.8985C198.506 81.5827 196.666 86.996 196.8 92.0961C196.933 97.2111 194.009 100.388 194.009 100.388C194.009 100.388 189.528 92.3496 189.424 90.2171C189.32 88.0995 190.878 91.0821 190.878 91.0821C190.878 91.0821 191.783 83.8047 193.238 79.5994C194.692 75.394 198.521 69.5781 199.13 68.6237C199.738 67.6693 200.836 67.207 200.836 67.207C200.836 67.207 199.382 69.0264 198.12 71.9045C196.859 74.7826 196.859 74.7826 196.859 74.7826C196.859 74.7826 200.079 71.6957 201.088 71.2931C202.098 70.8904 203.107 70.7413 203.107 70.7413C203.107 70.7413 197.645 73.4703 195.82 77.9739C193.995 82.4775 192.689 89.2478 192.689 89.2478L194.603 90.3513C194.603 90.3513 194.855 85.803 196.31 82.567C197.794 79.3459 199.397 74.544 207.515 71.4571Z" fill="#533BA0"/>
<path d="M189.424 96.5549L199.145 91.7679L193.876 114.241L189.424 96.5549Z" fill="#D9AF6A"/>
<path d="M194.529 130.884L192.644 129.959C192.644 129.959 190.863 129.899 190.626 130.168C190.403 130.421 189.72 131.421 189.75 132.285C189.78 133.165 192.644 136.804 192.644 136.804C192.644 136.804 190.181 135.79 189.513 135.357C188.83 134.925 188.578 133.255 188.207 133.538C187.836 133.792 187.435 135.521 187.242 136.103C187.064 136.61 190.091 138.116 190.789 138.459C190.596 138.385 190.21 138.236 189.513 137.952C188.444 137.535 186.07 138.146 186.07 138.31C186.07 138.489 184.868 140.234 185.595 141.084C186.322 141.934 187.999 142.366 187.999 142.366C187.999 142.366 186.975 142.68 187.094 143.246C187.168 143.753 188.414 145.08 188.682 145.379C188.489 145.244 187.658 144.678 186.782 144.38C185.773 144.051 184.6 142.605 183.962 142.396C183.309 142.202 183.458 142.903 183.087 142.933C182.716 142.963 182.315 144.29 182.315 144.29C182.315 144.29 184.779 144.693 187.42 146.9C189.32 148.451 190.077 150.762 190.359 151.955C190.017 151.97 189.706 151.955 189.483 151.94V151.925C189.483 151.925 189.082 149.987 188.607 148.883C188.133 147.78 186.693 147.123 184.274 145.707C183.324 145.14 182.552 145.021 181.988 145.11C181.988 145.095 181.988 145.095 181.988 145.095C181.988 145.095 181.632 142.948 181.81 142.59C181.988 142.232 182.983 142.262 183.487 141.68C184.022 141.099 185.654 138.086 185.892 137.102C186.114 136.103 186.93 133.911 187.435 133.404C187.94 132.897 190.403 127.424 190.403 127.424C190.403 127.424 190.522 125.694 190.893 125.411C191.264 125.098 191.798 124.561 191.798 124.561C191.798 124.561 191.754 124.427 191.783 124.218C191.976 124.456 192.11 124.755 192.11 125.098C192.08 126.365 194.707 127.633 195.241 127.901C194.811 127.752 193.015 127.141 192.793 127.051C192.511 126.947 191.65 127.364 191.383 127.961C191.071 128.542 194.158 130.63 194.529 130.884Z" fill="#C43B3B"/>
<path d="M198.625 125.232C198.328 125.157 195.998 124.456 194.559 123.905C193.965 123.681 193.134 123.338 192.362 123.025C192.437 122.95 192.511 122.876 192.585 122.801C192.926 122.473 193.164 122.205 193.342 121.966C193.698 122.622 198.165 124.978 198.625 125.232Z" fill="#C43B3B"/>
<path d="M193.817 120.758C193.817 120.4 193.876 119.833 194.321 119.431C195.034 118.775 194.603 115.911 194.826 115.226C194.841 115.196 194.841 115.166 194.826 115.106C195.078 115.226 195.419 115.33 195.835 115.434C199.026 116.195 198.67 116.627 197.898 117.865C197.126 119.118 194.277 118.521 194.574 119.461C194.885 120.341 200.614 122.622 201.326 122.891C200.851 122.771 198.254 122.026 195.88 121.101C194.841 120.698 194.203 120.639 193.817 120.758Z" fill="#C43B3B"/>
<path d="M207.782 125.008C207.782 125.008 208.821 120.654 206.209 118.551C203.597 116.463 201.742 116.568 201.771 116.926C201.801 117.298 203.819 118.909 204.354 119.52C204.888 120.132 206.268 119.998 206.832 122.384C207.411 124.799 207.589 125.635 207.782 125.008Z" fill="#C43B3B"/>
<path d="M182.508 156.518C182.508 156.518 186.782 154.311 187.717 153.402L182.968 158.353C182.968 158.353 182.953 157.577 182.508 156.518Z" fill="#C43B3B"/>
<path d="M196.236 147.571C196.028 147.795 195.82 148.003 195.612 148.152C194.277 149.181 194.425 150.195 194.277 150.434C194.128 150.658 191.561 151.895 190.73 151.955C189.899 152.015 189.097 151.955 189.097 151.955L187.806 153.297C188.637 152.343 189.453 150.016 190.433 150.479C191.442 150.941 193.713 150.195 193.861 149.793C194.01 149.39 195.494 147.377 195.835 147.511C195.894 147.511 196.028 147.541 196.236 147.571Z" fill="#C43B3B"/>
<path d="M176.765 60.2428C176.765 60.2428 175.013 59.6016 173.945 58.155C172.876 56.7085 171.793 57.8121 170.65 57.8121C169.507 57.8121 167.459 58.5875 166.287 57.8121C165.115 57.0366 163.23 56.8577 162.265 56.3208C161.286 55.7839 161.568 53.2786 160.633 53.2488C160.41 53.2339 160.158 53.1295 159.906 52.9506C161.894 51.7277 164.862 52.19 167.712 52.5927C171.407 53.1295 174.42 52.5927 174.42 52.5927C174.42 52.5927 175.83 52.6821 177.922 52.8462C178.026 52.9953 178.085 53.1444 178.115 53.2936C178.679 56.3357 176.765 60.2428 176.765 60.2428Z" fill="#533BA0"/>
<path d="M194.217 61.7938C194.217 61.7938 187.643 68.3702 185.565 71.1141C183.488 73.858 179.926 78.7195 179.926 78.7195C179.926 78.7195 183.873 68.4149 194.217 61.7938Z" fill="#533BA0"/>
<path d="M191.19 66.5658C191.19 66.5658 189.884 71.0545 189.735 73.2317C189.587 75.409 189.735 80.524 189.735 80.524C189.735 80.524 186.01 73.2615 191.19 66.5658Z" fill="#533BA0"/>
<path d="M193.772 55.9927C193.772 55.9927 194.692 58.2892 193.223 60.5112C192.644 61.3761 191.724 62.1814 190.537 62.8674C188.845 63.8665 186.634 64.6271 184.2 65.0297C182.493 62.8227 179.822 61.2867 176.201 61.2867C176.141 61.2867 176.082 61.3016 176.022 61.3016C176.022 60.1235 175.8 57.9313 175.592 56.2462C175.444 54.8743 175.295 53.8304 175.295 53.8304L174.895 53.2637L174.42 52.6075L174.984 51.7724L177.032 48.7899L195.404 33.6238C195.226 34.0116 192.347 40.2301 192.347 46.7618C192.347 53.5023 193.772 55.9927 193.772 55.9927Z" fill="#E2A46F"/>
<path d="M193.772 55.9927C193.772 55.9927 194.692 58.2892 193.223 60.5112C192.644 61.3761 191.724 62.1814 190.537 62.8674C190.299 62.0472 190.136 61.227 190.136 60.377C190.017 50.4005 189.736 53.9944 181.261 56.6041C178.338 57.4989 176.527 56.7532 175.592 56.2462C175.444 54.8743 175.295 53.8304 175.295 53.8304L174.895 53.2637C174.895 53.2637 174.91 52.7268 174.999 51.7873L177.032 48.7899L195.405 33.6238C195.227 34.0116 192.347 40.2301 192.347 46.7618C192.347 53.5023 193.772 55.9927 193.772 55.9927Z" fill="#C4734E"/>
<path d="M193.846 53.9049C193.846 53.9049 193.49 56.7234 190.329 58.8857C187.153 61.0481 183.829 62.6288 181.766 62.1963C179.703 61.7639 179.703 61.7639 179.703 61.7639C179.703 61.7639 179.406 66.6254 180.608 66.9236C181.81 67.2219 188.029 66.5806 190.982 64.1201C193.95 61.6595 197.824 58.3787 197.586 57.469C197.364 56.5594 197.364 56.5594 197.364 56.5594C197.364 56.5594 195.508 53.2041 193.846 53.9049Z" fill="#FF5050"/>
<path d="M177.046 53.5322C177.046 53.5322 174.716 57.1261 176.186 58.8709C177.64 60.6306 179.703 61.7341 179.703 61.7341C179.703 61.7341 178.056 64.5824 176.839 64.7017C175.622 64.821 174.954 62.9718 174.019 60.899C173.084 58.8112 174.805 54.8743 175.221 54.1585C175.637 53.4278 177.046 53.5322 177.046 53.5322Z" fill="#FF5050"/>
<path d="M196.681 36.0695C196.221 39.8573 191.665 48.0891 188.489 50.6391C187.376 51.5339 185.713 52.4584 183.977 53.2786C180.801 54.7848 177.358 55.9927 176.304 56.1568C174.702 56.3954 172.342 55.948 171.57 54.4269C170.828 52.9207 169.804 40.4091 169.923 39.2012C170.027 37.9933 170.294 36.2187 170.042 35.1748C169.849 34.3546 169.463 33.7432 169.463 31.1931V31.1782C169.463 30.4475 169.493 29.5826 169.582 28.4939C169.626 27.7036 169.789 27.0027 170.042 26.3764C170.042 26.3764 170.042 26.3615 170.057 26.3465C171.259 23.1552 174.345 22.171 174.345 22.171C174.345 22.171 180.905 24.6018 187.301 23.0807C193.668 21.5447 197.141 32.2668 196.681 36.0695Z" fill="#F9C48E"/>
<path d="M196.681 36.0696C196.221 39.8573 191.665 48.0891 188.489 50.6391C187.376 51.5339 185.714 52.4585 183.977 53.2787C187.168 48.6707 188.281 43.3469 188.237 41.2293C188.192 38.9477 186.664 34.3546 186.263 34.116C185.862 33.8625 180.445 36.4424 172.639 33.087C171.14 32.4309 170.116 31.7896 169.448 31.1782V31.1633C169.448 30.4326 169.478 29.5677 169.567 28.4791C169.611 27.6887 169.775 26.9878 170.027 26.3615C170.027 26.3615 170.027 26.3466 170.042 26.3316C171.244 23.1404 174.331 22.1561 174.331 22.1561C174.331 22.1561 180.89 24.5869 187.287 23.0658C193.668 21.5447 197.141 32.2669 196.681 36.0696Z" fill="#EAA671"/>
<path d="M195.835 36.6362L193.03 44.5548C193.03 44.5548 197.349 40.2451 197.497 38.7836C197.646 37.3073 195.835 36.6362 195.835 36.6362Z" fill="#89310B"/>
<path d="M180.831 32.0431C180.831 32.0431 187.539 31.8343 188.237 35.6221C188.934 39.4099 188.815 40.7073 188.815 40.7073L190.73 39.4099C190.73 39.4099 190.7 36.3976 191.769 35.7862C192.837 35.1748 194.856 35.6221 195.019 36.0546C195.182 36.4871 199.13 33.0273 196.725 30.1045C194.321 27.1667 180.831 32.0431 180.831 32.0431Z" fill="#89310B"/>
<path d="M188.236 32.6844C188.236 32.6844 196.221 37.4863 196.74 38.4556C197.26 39.41 197.26 39.41 197.26 39.41C197.26 39.41 199.783 37.188 199.783 26.6597C199.783 16.1315 189.216 13.6112 187.598 13.3577C185.981 13.1042 178.991 13.149 175.266 16.892C171.541 20.6351 170.027 24.8404 170.027 24.8404C170.027 24.8404 180.282 29.2844 188.236 32.6844Z" fill="#7B5CE1"/>
<path d="M191.427 14.5955C191.427 14.5955 181.885 13.1341 178.219 17.9658C176.26 20.5605 174.153 24.3334 172.624 27.2861C170.65 26.3168 169.433 25.6606 169.433 25.6606C169.433 25.6606 170.739 21.4404 176.468 15.8631C182.211 10.2709 191.427 14.5955 191.427 14.5955Z" fill="#533BA0"/>
<path d="M194.841 17.0113C194.841 17.0113 196.013 20.1429 194.128 24.8106C193 27.6141 189.557 33.0423 189.557 33.0423C189.557 33.0423 195.85 36.6362 197.289 38.3214C197.705 38.7986 203.582 23.1404 194.841 17.0113Z" fill="#FF5050"/>
<path d="M160.084 27.5248C160.084 27.5248 162.191 24.9449 166.524 27.5248C170.858 30.1046 172.772 33.4451 176.349 33.9521C179.926 34.4591 184.556 33.7433 185.862 33.2959C187.168 32.8336 188.222 32.6845 188.222 32.6845C188.222 32.6845 180.119 27.0625 176.898 25.8098C173.678 24.5423 169.997 24.8554 169.997 24.8554C169.997 24.8554 159.727 25.437 160.084 27.5248Z" fill="#CA3E3E"/>
<path d="M192.51 36.5914C192.51 36.5914 195.093 34.3694 196.399 35.98C197.705 37.6055 196.236 39.5888 195.731 40.5731C195.226 41.5573 193.208 45.36 191.902 45.0319C190.596 44.6889 191.932 41.8556 191.902 41.4977C191.872 41.1099 191.872 37.0537 192.51 36.5914Z" fill="#F9C48E"/>
<path d="M188.444 85.7731L199.145 91.768L189.424 96.5549L188.444 85.7731Z" fill="#EFD995"/>
<path d="M118.752 73.5597L117.298 78.0782L123.368 81.5528L126.366 77.7203L118.752 73.5597Z" fill="#D1D1D1"/>
<path d="M113.759 114.199L103.909 108.116L103.428 108.904L113.278 114.986L113.759 114.199Z" fill="#A4A4A4"/>
<path d="M117.298 78.0782L118.752 79.659L124.525 82.9547L125.92 79.4353L124.021 81.6722L123.368 81.5529L117.298 78.0782Z" fill="#CECECE"/>
<path d="M181.543 224.475C181.543 224.475 179.673 226.921 176.112 230.947C174.375 232.916 174.301 233.616 171.971 234.407C168.068 235.719 163.705 233.93 163.823 232.185C163.942 230.44 164.936 230.172 167.474 226.801C169.552 224.043 171.852 221.657 172.461 220.165C172.461 220.165 173.693 221.955 174.39 222.402C176.854 223.908 179.347 224.982 181.543 224.475Z" fill="#54544A"/>
<path d="M158.08 210.383C158.08 210.383 156.418 214.364 154.711 215.483C153.019 216.601 148.33 219.39 148.374 220.956C148.419 222.521 151.387 224.415 154.489 223.67C157.59 222.924 162.043 218.316 162.458 217.436L163.838 214.334L158.08 210.383Z" fill="#54544A"/>
<path d="M176.542 26.0483C176.542 26.0483 173.025 26.3019 171.971 26.5106C170.561 26.7791 167.37 27.6738 167.37 27.6738C167.37 27.6738 173.44 32.5502 175.444 33.2064C179.495 34.5336 186.93 32.4757 186.93 32.4757C186.93 32.4757 178.456 26.0931 176.542 26.0483Z" fill="#FF5050"/>
</g>
<defs>
<clipPath id="clip0">
<rect width="123" height="226" fill="white" transform="translate(91 13)"/>
</clipPath>
</defs>
</svg>
