<svg width="720" height="444" viewBox="0 0 720 444" fill="none" xmlns="http://www.w3.org/2000/svg">
<path d="M325.917 444C505.917 444 651.835 428.69 651.835 409.804C651.835 390.917 505.917 375.607 325.917 375.607C145.918 375.607 0 390.917 0 409.804C0 428.69 145.918 444 325.917 444Z" fill="#BED5DC"/>
<path d="M521.987 259.487C521.987 259.487 523.071 111.155 569.565 109.904C616.058 108.649 543.393 210.811 544.656 253.898L521.987 259.487Z" fill="#B2C9C6"/>
<path d="M533.721 256.518C532.935 240.019 534.88 211.924 548.606 171.8C556.809 147.813 565.464 130.659 565.553 130.492L566.24 130.841C566.154 131.011 557.521 148.122 549.331 172.064C535.648 212.07 533.71 240.055 534.493 256.486L533.721 256.518Z" fill="#74A1BD"/>
<path d="M651.488 214.225C640.82 230.964 663.967 249.247 644.535 261.148C625.092 273.043 625.378 270.749 624.722 285.04C624.722 285.04 629.627 295.501 623.316 301.82C603.546 321.62 593.163 299.18 563.99 301.979C555.82 302.763 547.989 303.232 540.81 303.394C538.607 299.014 536.226 291.668 538.741 282.997C539.66 279.813 541.249 276.452 543.741 272.994C557.285 254.25 569.753 256.535 563.276 224.871C556.8 193.2 601.443 202.879 611.259 191.031C621.074 179.183 627.312 166.363 647.256 169.248C667.214 172.144 662.166 197.496 651.488 214.225Z" fill="#B2C9C6"/>
<g opacity="0.4">
<g opacity="0.4">
<g opacity="0.4">
<path opacity="0.4" d="M547.714 285.495L546.26 284.485C546.704 283.841 592.34 219.666 718.525 167.149L719.207 168.789C593.496 221.102 548.158 284.855 547.714 285.495Z" fill="#74A1BD"/>
</g>
</g>
<g opacity="0.4">
<g opacity="0.4">
<path opacity="0.4" d="M607.812 205.499C585.136 196.919 577.512 186.066 577.199 185.611L578.661 184.609C578.735 184.715 586.345 195.479 608.441 203.842L607.812 205.499Z" fill="#74A1BD"/>
</g>
</g>
<g opacity="0.4">
<g opacity="0.4">
<path opacity="0.4" d="M617.655 222.194C609.7 215.712 605.486 203.554 605.462 187.034C605.444 174.663 607.794 164.042 607.816 163.935L609.544 164.323C609.451 164.739 600.483 205.919 618.771 220.821L617.655 222.194Z" fill="#74A1BD"/>
</g>
</g>
<g opacity="0.4">
<g opacity="0.4">
<path opacity="0.4" d="M650.052 206.281C647.403 205.385 645.899 204.72 645.831 204.688L646.564 203.074C646.88 203.216 678.556 217.23 711.782 203.138L712.476 204.77C685.7 216.124 659.923 209.617 650.052 206.281Z" fill="#74A1BD"/>
</g>
</g>
<g opacity="0.4">
<g opacity="0.4">
<path opacity="0.4" d="M681.429 238.067C670.427 232.491 664.912 224.789 662.22 219.31C659.29 213.347 658.985 208.742 658.974 208.55L660.745 208.443C660.755 208.621 662.089 226.279 682.233 236.485L681.429 238.067Z" fill="#74A1BD"/>
</g>
</g>
<g opacity="0.4">
<g opacity="0.4">
<path opacity="0.4" d="M615.393 283.116C590.377 274.664 577.427 253.162 577.284 252.916L578.81 252.013C578.966 252.28 595.018 278.881 625.829 283.888L625.545 285.637C621.968 285.057 618.583 284.193 615.393 283.116Z" fill="#74A1BD"/>
</g>
</g>
<g opacity="0.4">
<g opacity="0.4">
<path opacity="0.4" d="M592.468 269.078L591.344 267.709C599.036 261.404 614.298 254.598 643.338 257.994C660.613 260.014 674.826 264.768 674.968 264.814L674.399 266.496C673.841 266.3 618.291 247.906 592.468 269.078Z" fill="#74A1BD"/>
</g>
</g>
</g>
<path d="M204.521 318.017C204.521 318.017 202.408 152.944 157.64 155.198C112.868 157.453 183.562 265.497 182.655 313.572L204.521 318.017Z" fill="#B2C9C6"/>
<path d="M201.8 314.535C201.8 314.535 169.975 174.414 125.722 182.884C81.469 191.354 171.437 272.925 179.188 313.956L201.8 314.535Z" fill="#9BBCB6"/>
<path d="M189.149 314.322C184.313 285.89 169.321 256.899 157.597 237.587C144.888 216.65 133.179 202.27 133.062 202.128L133.954 201.399C134.071 201.542 145.831 215.985 158.582 236.99C170.356 256.387 185.415 285.516 190.283 314.127L189.149 314.322Z" fill="#74A1BD"/>
<path d="M45.4407 253.624C62.3632 268.605 42.7987 295.963 67.7824 302.872C92.7767 309.771 91.7455 307.346 96.9513 322.806C96.9513 322.806 94.8747 335.824 103.761 340.76C131.596 356.221 135.899 328.336 168.674 322.188C177.851 320.467 186.56 318.504 194.465 316.413C195.499 310.916 195.791 302.108 190.318 293.396C188.316 290.196 185.521 287.013 181.71 284.009C161.011 267.737 148.099 274.184 145.233 237.42C142.367 200.649 96.5957 225.369 82.1411 215.484C67.6864 205.595 56.8409 193.509 35.9394 202.978C15.0272 212.454 28.5111 238.657 45.4407 253.624Z" fill="#FF6D67"/>
<path d="M158.543 324.289L159.869 323.621C159.574 323.037 129.217 264.409 30.6375 206.018L29.8801 207.298C128.09 265.472 158.248 323.709 158.543 324.289Z" fill="#C74540"/>
<path d="M118.038 250.84C137.869 246.377 145.472 238.263 145.785 237.921L144.689 236.918C144.615 237 137.037 245.044 117.714 249.392L118.038 250.84Z" fill="#C74540"/>
<path d="M107.911 263.545C115.271 259.096 120.2 249.499 122.156 235.788C123.621 225.519 122.917 216.426 122.909 216.337L121.427 216.455C121.455 216.81 124.069 252.045 107.139 262.272L107.911 263.545Z" fill="#C74540"/>
<path d="M82.8843 246.537C85.1886 246.103 86.5149 245.726 86.5754 245.709L86.1558 244.283C85.8784 244.365 57.9398 252.28 32.0138 236.688L31.2493 237.96C52.1401 250.527 74.2969 248.148 82.8843 246.537Z" fill="#C74540"/>
<path d="M53.1109 269.241C62.8967 265.902 68.3799 260.156 71.2566 255.925C74.3858 251.316 75.1823 247.533 75.2143 247.373L73.7564 247.078C73.728 247.223 70.549 261.724 52.6309 267.837L53.1109 269.241Z" fill="#C74540"/>
<path d="M153.696 319.976H85.3307V393.503H146.016L153.696 319.976Z" fill="#5B43AB"/>
<path d="M120.15 319.976H50.0455L53.1249 393.503H120.15V319.976Z" fill="#7B5CE1"/>
<path d="M152.16 314.546H47.6454L45.839 322.415L152.16 323.738V314.546Z" fill="#6A50C0"/>
<path d="M109.379 382.541H61.7408C60.29 382.541 59.081 381.428 58.9601 379.981L57.3991 361.021C57.2639 359.396 58.5476 358.002 60.1798 358.002H109.379C110.919 358.002 112.167 359.25 112.167 360.793V379.75C112.167 381.289 110.919 382.541 109.379 382.541Z" fill="#9980EE"/>
<path d="M109.379 352.476H61.7408C60.29 352.476 59.081 351.363 58.9601 349.916L57.3991 330.956C57.2639 329.331 58.5476 327.937 60.1798 327.937H109.379C110.919 327.937 112.167 329.185 112.167 330.725V349.685C112.167 351.228 110.919 352.476 109.379 352.476Z" fill="#9980EE"/>
<path d="M121.942 314.546V323.361L152.16 323.738V314.546H121.942Z" fill="#5B43AB"/>
<path d="M64.4931 393.503L63.7037 397.152C63.4512 399.065 61.9969 399.079 61.3319 399.065C60.2865 399.047 59.5327 397.258 59.7958 395.612L60.1265 393.503H64.4931Z" fill="#2F1A31"/>
<path d="M109.792 393.503L110.581 397.152C110.834 399.065 112.288 399.079 112.953 399.065C113.998 399.047 114.752 397.258 114.489 395.612L114.158 393.503H109.792Z" fill="#2F1A31"/>
<path d="M84.4559 334.811C83.6487 334.811 82.8771 334.48 82.4433 333.947C82.0913 333.513 81.9704 332.976 82.0948 332.389C82.3935 330.963 83.2967 330.078 84.4559 330.078C85.7289 330.078 87.0446 330.875 87.0446 332.204C87.0446 333.484 86.0774 334.811 84.4559 334.811ZM82.614 332.5C82.5251 332.93 82.6069 333.307 82.8558 333.613C83.19 334.025 83.8016 334.281 84.4559 334.281C85.7432 334.281 86.5112 333.225 86.5112 332.204C86.5112 331.205 85.4658 330.608 84.4559 330.608C83.1154 330.608 82.7064 332.055 82.614 332.5Z" fill="#2F1A31"/>
<path d="M84.5449 337.631C84.1893 337.631 83.8977 337.339 83.8977 336.983V334.487C83.8977 334.132 84.1893 333.84 84.5449 333.84C84.9005 333.84 85.192 334.132 85.192 334.487V336.983C85.1956 337.339 84.904 337.631 84.5449 337.631Z" fill="#2F1A31"/>
<path d="M84.4559 365.622C83.6487 365.622 82.8771 365.291 82.4433 364.758C82.0913 364.324 81.9704 363.787 82.0948 363.201C82.3935 361.775 83.2967 360.889 84.4559 360.889C85.7289 360.889 87.0446 361.686 87.0446 363.016C87.0446 364.296 86.0774 365.622 84.4559 365.622ZM82.614 363.307C82.5251 363.737 82.6069 364.111 82.8558 364.42C83.19 364.833 83.8016 365.089 84.4559 365.089C85.7432 365.089 86.5112 364.033 86.5112 363.012C86.5112 362.013 85.4658 361.416 84.4559 361.416C83.1154 361.419 82.7064 362.866 82.614 363.307Z" fill="#2F1A31"/>
<path d="M84.5449 368.442C84.1893 368.442 83.8977 368.15 83.8977 367.795V365.299C83.8977 364.943 84.1893 364.651 84.5449 364.651C84.9005 364.651 85.192 364.943 85.192 365.299V367.795C85.1956 368.147 84.904 368.442 84.5449 368.442Z" fill="#2F1A31"/>
<path d="M246.509 175.865C243.739 177.611 242.359 177.252 241.676 176.164C240.993 175.079 241.26 173.678 244.03 171.932C249.076 168.753 252.753 169.18 252.753 169.18C252.753 169.18 251.629 172.64 246.509 175.865Z" fill="#CFD3A3"/>
<path d="M239.031 202.615C236.712 203.216 235.834 202.658 235.599 201.751C235.364 200.845 235.862 199.927 238.177 199.326C242.398 198.231 244.862 199.348 244.862 199.348C244.862 199.348 243.312 201.506 239.031 202.615Z" fill="#CFD3A3"/>
<path d="M247.476 252.308L246.857 252.273C246.86 252.177 247.337 242.572 243.674 228.64C240.293 215.786 232.598 196.51 215.124 177.692L215.579 177.269C233.149 196.19 240.883 215.576 244.279 228.509C247.963 242.53 247.483 252.212 247.476 252.308Z" fill="#CFD3A3"/>
<path d="M232.953 201.179L232.42 200.862C243.952 181.536 235.915 158.768 235.834 158.541L236.417 158.331C236.502 158.559 244.642 181.597 232.953 201.179Z" fill="#CFD3A3"/>
<path d="M223.31 191.425C217.02 191.624 212.166 188.623 212.109 188.591L212.44 188.065C212.5 188.104 218.723 191.937 226.123 190.49L226.24 191.098C225.237 191.29 224.256 191.393 223.31 191.425Z" fill="#CFD3A3"/>
<path d="M245.989 238.387C233.22 237.342 222.712 231.464 214.762 220.917C214.484 220.551 214.225 220.206 214.15 220.146C214.15 220.146 214.175 220.163 214.214 220.178L214.392 219.584C214.566 219.637 214.68 219.783 215.256 220.544C223.097 230.945 233.455 236.737 246.039 237.768L245.989 238.387Z" fill="#CFD3A3"/>
<path d="M227.79 232.285L227.186 232.143C229.127 223.958 223.338 212.198 223.281 212.081L223.836 211.804C223.85 211.832 225.34 214.844 226.567 218.841C227.701 222.546 228.832 227.883 227.79 232.285Z" fill="#CFD3A3"/>
<path d="M214.605 174.254C217.976 177.106 218.307 178.749 217.478 179.73C216.65 180.708 214.975 180.655 211.604 177.803C205.463 172.608 203.998 168.323 203.998 168.323C203.998 168.323 208.375 168.981 214.605 174.254Z" fill="#CFD3A3"/>
<path d="M213.706 186.532C217.781 188.235 218.591 189.7 218.094 190.885C217.599 192.069 215.985 192.52 211.91 190.817C204.489 187.713 201.8 184.072 201.8 184.072C201.8 184.072 206.178 183.385 213.706 186.532Z" fill="#CFD3A3"/>
<path d="M225.063 210.004C226.652 212.867 226.219 214.222 225.095 214.847C223.975 215.47 222.592 215.125 220.999 212.262C218.1 207.049 218.73 203.401 218.73 203.401C218.73 203.401 222.122 204.717 225.063 210.004Z" fill="#CFD3A3"/>
<path d="M229.333 181.359C230.18 184.52 229.426 185.732 228.188 186.063C226.947 186.394 225.692 185.725 224.846 182.561C223.303 176.8 224.803 173.415 224.803 173.415C224.803 173.415 227.765 175.513 229.333 181.359Z" fill="#CFD3A3"/>
<path d="M235.88 228.747C235.805 232.022 234.742 232.972 233.458 232.94C232.175 232.911 231.158 231.912 231.232 228.637C231.371 222.674 233.761 219.847 233.761 219.847C233.761 219.847 236.019 222.695 235.88 228.747Z" fill="#CFD3A3"/>
<path d="M217.542 220.274C219.708 222.727 219.573 224.146 218.612 224.996C217.649 225.846 216.226 225.803 214.057 223.35C210.11 218.876 209.943 215.178 209.943 215.178C209.943 215.178 213.538 215.74 217.542 220.274Z" fill="#CFD3A3"/>
<path d="M237.643 155.778C238.806 160.038 238.148 161.577 236.911 161.915C235.674 162.253 234.322 161.261 233.16 157.001C231.04 149.242 232.256 144.879 232.256 144.879C232.256 144.879 235.492 147.905 237.643 155.778Z" fill="#CFD3A3"/>
<path d="M213.933 58.0348C213.314 58.0348 212.951 58.0028 212.934 57.9993L212.973 57.6081C213.047 57.6152 220.686 58.3086 226.656 52.9998L226.915 53.2913C222.108 57.5726 216.241 58.0348 213.933 58.0348Z" fill="#B2C9C6"/>
<path d="M222.766 62.476C220.063 62.0849 218.36 60.8617 217.407 59.9052C216.369 58.8633 215.981 57.9175 215.963 57.8783L216.326 57.729C216.34 57.7646 217.873 61.3737 222.819 62.0885L222.766 62.476Z" fill="#B2C9C6"/>
<path d="M95.184 114.911H80.9213L79.4314 58.5469C79.4314 58.5469 81.6076 57.5015 84.9999 57.1815C89.5977 56.7477 93.7687 56.9255 93.7687 56.9255L95.184 114.911Z" fill="#CCDDDB"/>
<path d="M131.76 114.911H95.184L93.7723 56.9255L131.76 58.547V114.911Z" fill="#B2C9C6"/>
<path d="M118.486 114.911H107.836V44.9743C107.836 44.9743 110.041 44.352 112.946 44.1209C116.146 43.8648 120.274 44.1209 120.274 44.1209L118.486 114.911Z" fill="#CCDDDB"/>
<path d="M145.802 114.911H118.486L120.278 44.1208L145.802 44.9743V114.911Z" fill="#9BBCB6"/>
<path d="M144.028 114.911H136.013L124.879 62.2663C124.879 62.2663 126.234 61.9179 128.282 61.8219C130.657 61.7116 132.898 62.2663 132.898 62.2663L144.028 114.911Z" fill="#523D99"/>
<path d="M164.588 114.911H144.028L132.894 62.27L153.28 65.1787L164.588 114.911Z" fill="#7B5CE1"/>
<path d="M79.6732 65.9539L79.5771 65.5841C79.6056 65.577 82.6566 64.7912 85.9778 64.9867C89.2385 65.1787 93.6869 64.112 93.7332 64.1013L93.8221 64.4747C93.7758 64.4854 89.2741 65.5699 85.9564 65.3708C82.6886 65.1752 79.7016 65.9468 79.6732 65.9539Z" fill="#B2C9C6"/>
<path d="M107.864 50.5146L107.807 50.1341C107.882 50.1234 115.289 49.046 120.161 50.1377L120.075 50.511C115.278 49.4372 107.939 50.5039 107.864 50.5146Z" fill="#B2C9C6"/>
<path d="M119.947 54.2625C115.947 52.4881 107.932 53.1424 107.85 53.1495L107.818 52.7655C108.149 52.737 116.011 52.097 120.1 53.9105L119.947 54.2625Z" fill="#B2C9C6"/>
<path d="M107.868 106.153L107.807 105.772C108.106 105.726 115.157 104.627 118.774 105.779L118.656 106.146C115.129 105.022 107.939 106.142 107.868 106.153Z" fill="#B2C9C6"/>
<path d="M107.861 108.076L107.811 107.696C107.879 107.689 114.674 106.807 118.706 107.699L118.624 108.073C114.656 107.195 107.928 108.066 107.861 108.076Z" fill="#B2C9C6"/>
<path d="M126.156 68.3185L126.074 67.9416C126.284 67.8954 131.262 66.8571 134.199 67.9487L134.064 68.3079C131.237 67.2553 126.206 68.3078 126.156 68.3185Z" fill="#7B5CE1"/>
<path d="M126.49 69.9256L126.422 69.5487C126.614 69.5131 131.194 68.7238 134.498 69.5523L134.405 69.9256C131.18 69.1149 126.536 69.915 126.49 69.9256Z" fill="#7B5CE1"/>
<path d="M134.043 105.641L133.979 105.26C134.178 105.228 138.886 104.464 142.076 105.264L141.983 105.637C138.872 104.858 134.089 105.633 134.043 105.641Z" fill="#7B5CE1"/>
<path d="M142.417 107.675C138.402 106.814 134.534 107.664 134.494 107.675L134.409 107.301C134.448 107.291 138.402 106.423 142.499 107.301L142.417 107.675Z" fill="#7B5CE1"/>
<path d="M217.816 102.131C217.816 102.131 217.556 102.803 216.987 103.919C216.97 103.948 216.955 103.98 216.941 104.012C216.938 104.015 216.938 104.015 216.938 104.015C215.942 105.95 214.047 109.136 211.013 112.407C209.979 113.524 208.574 114.395 206.928 115.046H206.924L206.889 115.06C206.537 115.195 206.174 115.327 205.801 115.44C205.801 115.44 205.801 115.44 205.797 115.44C200.492 117.112 193.209 116.753 187.488 114.935H187.484L186.499 114.601H186.496C186.005 114.423 185.532 114.239 185.073 114.039C183.594 113.403 182.389 112.596 181.411 111.7C181.286 111.586 181.165 111.472 181.048 111.355C177.083 107.433 177.151 102.131 177.151 102.131H217.816Z" fill="#CCDDDB"/>
<path d="M219.121 94.116V99.9156C219.121 103.503 209.314 106.412 197.217 106.412C185.12 106.412 175.312 103.503 175.312 99.9156V94.116C175.312 92.2954 180.963 90.7309 188.971 90.0873C191.517 89.881 194.301 89.7637 197.22 89.7637C209.314 89.7637 219.121 91.7087 219.121 94.116Z" fill="#B2C9C6"/>
<path d="M219.121 94.116C219.121 94.468 218.915 94.8058 218.524 95.1294C216.227 97.0389 207.561 98.4684 197.217 98.4684C194.322 98.4684 191.552 98.3546 189.024 98.1519C180.988 97.5083 175.312 95.9437 175.312 94.116C175.312 92.2954 180.963 90.7309 188.971 90.0873C191.517 89.881 194.301 89.7637 197.22 89.7637C209.314 89.7637 219.121 91.7087 219.121 94.116Z" fill="#9BBCB6"/>
<path d="M198.536 34.0116C196.434 35.3842 195.418 35.0499 194.934 34.1325C194.45 33.2187 194.681 32.0666 196.787 30.6976C200.613 28.2014 203.34 28.6494 203.34 28.6494C203.34 28.6494 202.419 31.4763 198.536 34.0116Z" fill="#B2C9C6"/>
<path d="M198.429 51.5596C196.84 53.6114 195.78 53.6612 195.058 52.9713C194.333 52.2779 194.219 51.1081 195.809 49.0528C198.703 45.312 201.413 44.7573 201.413 44.7573C201.413 44.7573 201.366 47.7656 198.429 51.5596Z" fill="#B2C9C6"/>
<path d="M197.459 97.2344L197 97.1918C197.007 97.1135 197.587 89.184 195.19 77.5706C192.978 66.8533 187.705 50.7169 175.152 34.705L175.501 34.3672C188.124 50.4716 193.423 66.7004 195.645 77.4782C198.052 89.1627 197.466 97.1562 197.459 97.2344Z" fill="#B2C9C6"/>
<path d="M187.858 54.5821L187.47 54.3047C196.502 38.627 191.058 19.5962 191.005 19.4042L191.442 19.2441C191.499 19.4397 197.011 38.6981 187.858 54.5821Z" fill="#B2C9C6"/>
<path d="M180.913 46.2649C176.23 46.2649 172.688 43.6585 172.649 43.6265L172.905 43.2034C172.951 43.2354 177.489 46.5707 183.025 45.5644L183.1 46.0694C182.349 46.2081 181.621 46.2649 180.913 46.2649Z" fill="#B2C9C6"/>
<path d="M196.68 85.6851C187.207 84.4867 179.53 79.3557 173.862 70.4269C173.666 70.1176 173.481 69.826 173.424 69.7727C173.424 69.7727 173.442 69.7869 173.471 69.8011L173.616 69.314C173.744 69.3602 173.826 69.4846 174.239 70.1318C179.828 78.9325 187.395 83.996 196.733 85.1766L196.68 85.6851Z" fill="#B2C9C6"/>
<path d="M183.285 80.1666L182.84 80.0315C184.476 73.3145 180.447 63.44 180.408 63.344L180.828 63.1306C180.838 63.1555 181.877 65.6837 182.694 69.0191C183.448 72.1091 184.167 76.5539 183.285 80.1666Z" fill="#B2C9C6"/>
<path d="M174.843 31.8427C177.282 34.2891 177.489 35.6546 176.852 36.444C176.212 37.2334 174.968 37.1445 172.528 34.6981C168.083 30.2426 167.095 26.6619 167.095 26.6619C167.095 26.6619 170.334 27.3233 174.843 31.8427Z" fill="#B2C9C6"/>
<path d="M173.887 41.9733C176.877 43.488 177.446 44.7219 177.048 45.6891C176.653 46.6563 175.44 46.987 172.45 45.4722C167.002 42.7129 165.089 39.63 165.089 39.63C165.089 39.63 168.357 39.1713 173.887 41.9733Z" fill="#B2C9C6"/>
<path d="M181.781 61.6761C182.897 64.0834 182.542 65.1928 181.692 65.68C180.842 66.1671 179.821 65.8436 178.705 63.4363C176.671 59.0519 177.225 56.0508 177.225 56.0508C177.225 56.0508 179.718 57.2242 181.781 61.6761Z" fill="#B2C9C6"/>
<path d="M185.632 38.1009C186.186 40.7393 185.6 41.7172 184.668 41.959C183.736 42.2008 182.819 41.6141 182.264 38.9756C181.251 34.1717 182.446 31.4124 182.446 31.4124C182.446 31.4124 184.604 33.2294 185.632 38.1009Z" fill="#B2C9C6"/>
<path d="M189.387 77.4499C189.252 80.1523 188.441 80.9133 187.488 80.8529C186.535 80.796 185.802 79.9426 185.934 77.2401C186.176 72.3153 188.021 70.0396 188.021 70.0396C188.021 70.0396 189.632 72.454 189.387 77.4499Z" fill="#B2C9C6"/>
<path d="M175.946 69.9681C177.499 72.0554 177.368 73.2217 176.632 73.9008C175.896 74.5764 174.836 74.5053 173.282 72.4216C170.452 68.6204 170.416 65.5588 170.416 65.5588C170.416 65.5588 173.072 66.1136 175.946 69.9681Z" fill="#B2C9C6"/>
<path d="M192.416 17.1711C193.181 20.7234 192.658 21.9786 191.73 22.2276C190.802 22.4765 189.821 21.6195 189.056 18.0672C187.662 11.5956 188.668 8.02197 188.668 8.02197C188.668 8.02197 191.001 10.6071 192.416 17.1711Z" fill="#B2C9C6"/>
<path d="M197.789 97.9208C197.789 97.9208 185.774 48.0857 173.73 52.2176C161.686 56.3494 188.437 83.6298 191.52 98.2586L197.789 97.9208Z" fill="#9BBCB6"/>
<path d="M196.025 95.6699C196.025 95.6699 177.645 55.6809 166.17 61.6547C154.699 67.6286 184.867 85.4042 189.82 97.2345L196.025 95.6699Z" fill="#B2C9C6"/>
<path d="M192.48 96.6192C186.197 80.874 169.619 67.1342 169.452 66.9991L169.755 66.5439C169.922 66.6826 186.606 80.5042 192.946 96.3917L192.48 96.6192Z" fill="#B2C9C6"/>
<path d="M230.866 67.3939C226.564 73.5455 234.095 81.5746 226.873 85.5074C219.647 89.433 219.871 88.1494 219.171 93.7214C219.171 93.7214 219.281 94.5712 218.524 95.133C216.227 97.0461 207.561 98.472 197.217 98.472C194.319 98.472 191.552 98.3617 189.024 98.1555C188.395 96.3562 187.801 93.3907 188.971 90.0908C189.397 88.8783 190.069 87.6231 191.058 86.3608C196.438 79.53 200.744 80.8919 199.514 68.2509C198.284 55.6063 213.656 61.0752 217.496 56.8046C221.336 52.534 223.954 47.7479 230.866 49.6289C237.786 51.5064 235.176 61.2459 230.866 67.3939Z" fill="#CCDDDB"/>
<path d="M200.424 98.9235L199.98 98.7812C200.037 98.5643 205.936 76.7635 232.655 50.7063L232.961 51.0903C206.345 77.0515 200.481 98.7066 200.424 98.9235Z" fill="#B2C9C6"/>
<path d="M208.571 71.4546C202.27 71.2021 199.485 68.9371 199.372 68.8411L199.649 68.4321C199.678 68.4535 202.448 70.6972 208.589 70.9425L208.571 71.4546Z" fill="#B2C9C6"/>
<path d="M212.386 75.1137C209.886 74.0754 207.835 71.1347 206.455 66.6117C205.42 63.223 205.114 60.0974 205.111 60.069L205.57 60.0156C205.58 60.1365 206.8 72.2442 212.546 74.6337L212.386 75.1137Z" fill="#B2C9C6"/>
<path d="M219.046 67.7599C218.317 67.7599 217.894 67.7172 217.873 67.7137L217.919 67.2052C218.008 67.2159 226.98 68.1226 233.995 61.1887L234.301 61.5728C228.647 67.1554 221.756 67.7599 219.046 67.7599Z" fill="#B2C9C6"/>
<path d="M229.423 73.5596C226.247 73.0512 224.245 71.451 223.129 70.1994C221.909 68.8375 221.45 67.6036 221.432 67.5538L221.859 67.3618C221.877 67.408 223.676 72.1231 229.49 73.0512L229.423 73.5596Z" fill="#B2C9C6"/>
<path d="M216.902 92.0075C210.036 92.0075 205.054 87.3174 204.997 87.2641L205.299 86.8765C205.36 86.9369 211.529 92.7365 219.541 91.2537L219.615 91.7586C218.684 91.9329 217.777 92.0075 216.902 92.0075Z" fill="#B2C9C6"/>
<path d="M210.085 90.2863L209.694 90.0161C211.063 87.5768 214.26 84.3018 221.695 82.5452C226.119 81.4998 230.016 81.4856 230.055 81.4856V81.9976C229.906 81.9941 214.687 82.0972 210.085 90.2863Z" fill="#B2C9C6"/>
<path d="M235.08 121.713L77.4863 123.263V114.029H233.682L235.08 121.713Z" fill="#9980EE"/>
<path d="M386.124 66.4162C386.124 69.2218 364.92 71.494 338.763 71.494C312.606 71.494 291.498 75.5476 291.498 72.7421C291.498 52.6907 312.606 33.8696 338.763 33.8696C364.92 33.8696 386.124 48.4415 386.124 66.4162Z" fill="#7B5CE1"/>
<path d="M386.028 66.7005C386.148 68.6562 375.929 71.0173 360.841 72.8308C359.974 72.9339 359.085 73.037 358.181 73.1401C352.353 73.7909 345.889 74.3562 339.083 74.7901C333.304 75.1599 327.761 75.4017 322.633 75.5226C320.773 75.5723 318.971 75.6008 317.228 75.615C302.055 75.7359 291.619 74.7012 291.491 72.7454C291.384 71.0564 298.983 69.0687 310.764 67.3939C311.702 67.2623 312.662 67.1308 313.654 66.9992C318.64 66.3449 324.251 65.7511 330.268 65.2568C332.924 65.0364 335.648 64.8337 338.435 64.6559C340.377 64.5279 342.301 64.4212 344.182 64.3288C352.143 63.9234 359.515 63.7669 365.773 63.8452C365.923 63.8452 366.072 63.8487 366.218 63.8487C378.119 64.0123 385.917 65.015 386.028 66.7005Z" fill="#523D99"/>
<path d="M365.773 63.8452C364.39 66.4516 362.644 68.834 360.599 70.9249C359.831 71.7072 359.028 72.4468 358.181 73.1402C352.904 77.4961 346.127 80.1096 338.741 80.1096C332.828 80.1096 327.309 78.4312 322.633 75.519C320.539 74.2211 318.611 72.6672 316.898 70.9142C315.71 69.6981 314.622 68.3896 313.655 66.9957C318.64 66.3414 324.251 65.7476 330.268 65.2533C332.924 65.0328 335.648 64.8302 338.436 64.6524C340.377 64.5244 342.301 64.4177 344.182 64.3252C352.144 63.9234 359.515 63.767 365.773 63.8452Z" fill="white"/>
<path d="M338.759 37.2332C337.635 37.2332 336.725 36.3229 336.725 35.1993V2.03394C336.725 0.910295 337.635 0 338.759 0C339.883 0 340.793 0.910295 340.793 2.03394V35.1993C340.793 36.3229 339.883 37.2332 338.759 37.2332Z" fill="#7B5CE1"/>
<path d="M332.863 34.7511C332.863 31.4939 335.502 28.8555 338.759 28.8555C342.016 28.8555 344.655 31.4939 344.655 34.7511C344.655 38.0082 342.016 40.6466 338.759 40.6466C335.505 40.6466 332.863 38.0082 332.863 34.7511Z" fill="#7B5CE1"/>
<path d="M158.792 424.382L158.554 424.02C158.578 424.002 161.032 422.366 161.37 420.457C161.487 419.792 161.331 419.166 160.908 418.59C160.612 418.188 160.253 417.996 159.816 417.996C159.809 417.996 159.802 417.996 159.795 417.996C157.665 418.025 154.582 422.42 154.55 422.466L153.988 423.273L154.158 422.306C154.166 422.267 154.831 418.384 153.476 417.225C153.053 416.862 152.452 416.812 151.691 417.072C150.887 417.345 150.329 417.847 150.03 418.565C149.141 420.702 150.766 424.077 150.784 424.112L150.396 424.301C150.325 424.155 148.672 420.713 149.632 418.398C149.98 417.562 150.627 416.979 151.552 416.663C152.473 416.35 153.213 416.428 153.76 416.894C154.887 417.861 154.823 420.258 154.695 421.545C155.691 420.258 157.967 417.591 159.787 417.566C160.385 417.552 160.872 417.818 161.256 418.337C161.754 419.013 161.939 419.753 161.797 420.539C161.423 422.626 158.898 424.311 158.792 424.382Z" fill="#42428E"/>
<path d="M246.018 406.113C245.904 406.038 243.23 404.253 242.839 402.038C242.693 401.209 242.885 400.427 243.411 399.716C243.817 399.168 244.329 398.884 244.958 398.905C246.9 398.933 249.335 401.803 250.374 403.154C250.235 401.806 250.153 399.221 251.359 398.19C251.935 397.696 252.717 397.614 253.688 397.945C254.666 398.279 255.348 398.894 255.715 399.78C256.735 402.23 254.982 405.874 254.904 406.027L254.516 405.839C254.534 405.803 256.259 402.215 255.316 399.947C255 399.182 254.403 398.649 253.549 398.357C252.735 398.08 252.091 398.133 251.64 398.521C250.196 399.758 250.904 403.879 250.914 403.922L251.085 404.889L250.523 404.082C250.491 404.036 247.216 399.371 244.951 399.339C244.464 399.328 244.08 399.541 243.76 399.975C243.308 400.587 243.141 401.259 243.266 401.963C243.628 403.997 246.231 405.732 246.256 405.75L246.018 406.113Z" fill="#42428E"/>
<path d="M70.4634 415.955C70.4172 415.536 70.5452 415.173 70.8368 414.878C71.4662 414.245 72.789 414.06 73.8664 414.028C72.5721 413.573 70.883 412.808 70.531 411.841C70.3923 411.457 70.4599 411.073 70.7337 410.703C72.2947 408.588 77.5432 411.987 77.7672 412.133L77.529 412.495C76.1066 411.567 72.1774 409.48 71.0822 410.963C70.8973 411.212 70.851 411.45 70.9399 411.695C71.3489 412.826 74.3856 413.8 75.5199 414.078L75.4452 414.504C75.4132 414.501 72.1276 414.192 71.1426 415.187C70.9435 415.386 70.8617 415.625 70.8937 415.913L70.4634 415.955Z" fill="#42428E"/>
<path d="M205.498 405.049L205.068 405.003C205.1 404.715 205.018 404.477 204.819 404.278C204.001 403.453 201.438 403.506 200.517 403.595L200.442 403.168C201.576 402.887 204.613 401.917 205.022 400.782C205.111 400.537 205.065 400.299 204.88 400.05C203.781 398.564 199.855 400.654 198.433 401.582L198.195 401.22C198.415 401.074 203.664 397.678 205.228 399.79C205.502 400.16 205.57 400.541 205.427 400.925C205.079 401.892 203.39 402.656 202.092 403.111C203.169 403.147 204.492 403.328 205.121 403.961C205.417 404.267 205.541 404.63 205.498 405.049Z" fill="#42428E"/>
<path d="M638.135 410.946L637.705 410.9C637.737 410.611 637.655 410.373 637.456 410.174C636.471 409.182 633.185 409.491 633.153 409.491L633.082 409.065C634.216 408.784 637.253 407.813 637.662 406.682C637.751 406.437 637.705 406.199 637.52 405.95C636.425 404.463 632.495 406.554 631.073 407.482L630.835 407.12C631.055 406.974 636.304 403.578 637.868 405.69C638.142 406.06 638.21 406.44 638.071 406.828C637.723 407.795 636.033 408.56 634.736 409.015C635.813 409.05 637.136 409.232 637.765 409.868C638.053 410.163 638.178 410.526 638.135 410.946Z" fill="#42428E"/>
<path d="M600.579 419.824C600.472 418.572 600.013 417.683 599.217 417.175C597.467 416.062 594.626 417.082 594.598 417.093L593.613 417.456L594.317 416.677C594.338 416.656 596.354 414.401 595.942 412.769C595.785 412.15 595.273 411.685 594.423 411.386C590.846 410.134 587.916 417.417 587.77 417.783C587.767 417.79 587.763 417.797 587.763 417.801L587.28 417.612C587.28 417.609 587.283 417.605 587.283 417.602C587.333 417.47 587.866 415.994 587.212 414.981C586.81 414.359 586.028 414.017 584.887 413.96C583.816 413.911 583.08 414.16 582.693 414.704C581.946 415.753 582.661 417.591 582.668 417.609L582.188 417.801C582.152 417.715 581.359 415.681 582.273 414.405C582.771 413.708 583.66 413.384 584.915 413.445C586.234 413.509 587.155 413.932 587.653 414.704C587.898 415.088 588.012 415.514 588.044 415.923C589.218 413.608 591.632 409.86 594.591 410.899C595.615 411.258 596.237 411.845 596.44 412.645C596.774 413.967 595.849 415.518 595.22 416.375C596.269 416.122 598.125 415.87 599.491 416.737C600.433 417.335 600.97 418.359 601.091 419.781L600.579 419.824Z" fill="#42428E"/>
<path d="M443.775 429.805C443.594 429.695 439.327 427.103 439.327 424.831C439.327 424.13 439.718 423.536 440.493 423.074C441.343 422.562 442.228 422.437 443.121 422.708C445.283 423.358 446.844 426.104 447.26 426.9C449.461 425.591 451.097 425.275 452.131 425.958C453.607 426.932 453.241 429.538 453.223 429.649L452.796 429.585C452.8 429.56 453.138 427.138 451.893 426.317C450.983 425.716 449.433 426.075 447.288 427.391L447.082 427.515L446.979 427.298C446.961 427.263 445.297 423.814 443 423.12C442.228 422.889 441.464 422.996 440.721 423.444C440.077 423.831 439.764 424.283 439.764 424.831C439.764 426.861 443.96 429.407 444.003 429.432L443.775 429.805Z" fill="#42428E"/>
<path d="M394.017 94.1623C394.017 57.2598 427.14 31.8213 464.043 31.8213C517.485 31.8213 535.837 61.7366 535.837 98.6391C535.837 135.542 493.486 161.677 456.583 161.677C419.68 161.677 394.017 131.065 394.017 94.1623Z" fill="#FF6D67"/>
<path d="M382.34 153.392C382.34 153.392 405.699 149.786 407.366 126.563L425.718 139.979C425.718 139.976 416.96 161.318 382.34 153.392Z" fill="#FF6D67"/>
<path d="M455.527 169.468C441.382 169.468 428.25 164.952 417.536 156.407C406.566 164.707 391.742 163.59 381.198 161.179L379.374 160.76L381.227 160.472C381.401 160.443 398.8 157.577 404.337 141.924C396.659 130.336 392.602 116.397 392.602 101.598C392.602 84.0852 400.166 68.0057 413.902 56.3141C427.101 45.0812 444.532 38.894 462.987 38.894C488.106 38.894 507.016 45.515 519.188 58.5792C529.774 69.9365 535.14 85.9165 535.14 106.071C535.14 123.242 525.93 139.453 509.207 151.717C494.048 162.833 473.982 169.468 455.527 169.468ZM417.547 155.494L417.767 155.671C428.392 164.227 441.449 168.75 455.527 168.75C473.833 168.75 493.742 162.168 508.78 151.138C525.315 139.012 534.422 123.007 534.422 106.071C534.422 86.1049 529.12 70.2921 518.662 59.0699C506.632 46.1586 487.9 39.6159 462.987 39.6159C444.703 39.6159 427.439 45.7426 414.368 56.8617C400.795 68.4146 393.32 84.3021 393.32 101.598C393.32 116.319 397.371 130.176 405.034 141.676L405.133 141.825L405.076 141.992C400.464 155.305 387.549 159.675 382.969 160.827C393.292 162.961 407.096 163.565 417.326 155.664L417.547 155.494Z" fill="#2F1A31"/>
<g clip-path="url(#clip0)">
<path fill-rule="evenodd" clip-rule="evenodd" d="M442.671 81.4237C442.939 80.8005 443.485 80.34 444.144 80.1806L469.284 74.1042C469.944 73.9448 470.64 74.1052 471.163 74.5371L479.464 81.3905C479.777 81.6453 480.021 81.9893 480.152 82.3961C480.169 82.4479 480.183 82.5005 480.196 82.5538L487.285 111.884C487.688 113.551 487.413 115.31 486.519 116.773C485.625 118.237 484.186 119.285 482.52 119.688L453.189 126.777C451.522 127.18 449.764 126.904 448.3 126.011C446.837 125.117 445.788 123.678 445.385 122.011L438.301 92.7014C438.299 92.6946 438.298 92.6879 438.296 92.6811C438.18 92.1998 438.235 91.7172 438.422 91.2975L442.671 81.4237ZM442.992 93.7634L449.575 120.999C449.71 121.554 450.059 122.034 450.547 122.332C451.035 122.63 451.621 122.722 452.177 122.587L481.507 115.498C482.062 115.364 482.542 115.014 482.84 114.526C483.138 114.039 483.23 113.452 483.095 112.897L476.513 85.6616L442.992 93.7634ZM473.405 81.9779L444.075 89.067L446.205 84.1174L469.25 78.5474L473.405 81.9779ZM452.385 95.928C453.542 95.6484 454.707 96.3596 454.987 97.5167C455.389 99.1836 456.438 100.622 457.902 101.516C459.365 102.41 461.124 102.685 462.791 102.283C464.458 101.88 465.896 100.831 466.79 99.3676C467.684 97.904 467.96 96.1454 467.557 94.4785C467.277 93.3214 467.988 92.1568 469.145 91.8771C470.302 91.5974 471.467 92.3087 471.747 93.4657C472.418 96.2439 471.959 99.175 470.469 101.614C468.979 104.054 466.582 105.801 463.803 106.473C461.025 107.144 458.094 106.684 455.655 105.195C453.216 103.705 451.468 101.308 450.797 98.5294C450.517 97.3723 451.228 96.2077 452.385 95.928Z" fill="#282141"/>
</g>
<path d="M567.595 397.123C568.925 397.105 569.881 395.111 569.547 393.272L563.932 362.287H556.714L565.657 395.136C565.988 396.352 566.752 397.134 567.595 397.123Z" fill="#2F1A31"/>
<path d="M564.1 363.208C564.1 363.208 560.17 362.66 557.742 366.07L556.714 362.29L563.893 361.896L564.1 363.208Z" fill="#2F1A31"/>
<path d="M591.028 209.926L556.362 314.724L552.841 325.366L410.979 347.541L406.211 347.363C406.271 347.679 406.31 347.999 406.31 348.337V360.139C406.31 362.941 404.038 365.213 401.236 365.213H135.682C132.88 365.213 130.611 362.941 130.611 360.139C130.611 360.139 116.505 317.458 155.058 304.294C193.618 291.131 236.282 316.765 260.071 309.148C263.488 308.049 265.86 305.23 267.638 301.19C278.234 277.146 267.872 210.125 333.959 209.894L591.028 209.926Z" fill="#957CE6"/>
<path d="M142.705 399.317C141.372 399.299 140.415 397.305 140.749 395.466L146.247 364.808H153.696L145.72 397.184C145.397 399.317 143.551 399.328 142.705 399.317Z" fill="#2F1A31"/>
<path d="M591.028 209.926L556.362 314.724L529.657 323.578L462.863 300.973C462.863 300.973 345.561 301.215 267.638 301.187C278.234 277.142 267.872 210.122 333.958 209.891L591.028 209.926Z" fill="#7B5CE1"/>
<path d="M605.991 227.57L577.082 354.816C575.489 361.825 569.227 366.778 562.04 366.71L403.014 365.217C403.014 365.217 390.302 317.462 428.862 304.298C467.422 291.134 510.082 316.768 533.874 309.148C554.776 302.453 538.853 228.801 587.013 210.822C597.77 206.804 608.658 216.401 605.991 227.57Z" fill="#6F53CB"/>
<path d="M261.532 195.674C259.591 199.102 240.083 229.025 244.165 258.293L265.394 250.69L275.094 211.242L261.532 195.674Z" fill="#F7B686"/>
<path d="M346.308 183.414C346.308 183.414 333.265 160.244 301.515 166.652C269.764 173.056 252.436 218.065 261.049 307.207C261.049 307.207 311.489 287.347 377.077 303.356C377.074 303.356 366.278 217.024 346.308 183.414Z" fill="#FF6D67"/>
<path d="M370.524 174.051L348.203 196.115C348.203 196.115 290.986 211.423 275.094 211.242C259.203 211.057 252.948 199.557 252.948 199.557C252.948 199.557 266.361 178.521 293.5 169.009C296.049 168.11 298.716 167.32 301.507 166.655C306.194 165.542 310.956 164.899 315.685 164.621C343.783 162.961 370.524 174.051 370.524 174.051Z" fill="#FF6D67"/>
<path d="M370.524 174.051C374.09 177.891 368.589 182.087 362.427 188.179C356.265 194.273 349.899 197.826 348.207 196.115C346.518 194.405 350.141 188.079 356.304 181.988C362.466 175.893 368.888 172.291 370.524 174.051Z" fill="#2F1A31"/>
<path d="M351.176 196.204C351.176 196.204 350.842 191.799 356.435 186.17C359.803 182.781 364.07 180.566 366.929 179.339C368.628 178.61 370.595 179.428 371.267 181.152L373.055 185.722L364.724 191.034L351.176 196.204Z" fill="#F7B686"/>
<path d="M311.738 277.935C311.738 277.935 380.59 240.983 405.268 281.292C423.538 311.129 396.076 338.918 294.218 336.098C294.218 336.098 284.151 331.429 286.605 307.207C287.572 297.61 311.738 277.935 311.738 277.935Z" fill="#436E8E"/>
<path d="M311.738 277.935C311.738 277.935 220.038 240.734 201.893 263.989C181.041 290.715 201.036 336.098 297.699 319.876L309.48 307.207L311.738 277.935Z" fill="#436E8E"/>
<path d="M294.108 336.255C282.8 328.265 286.377 307.385 286.413 307.175L286.434 307.065L286.537 307.026L356.147 281.936L356.279 282.298L286.775 307.349C286.509 308.988 283.639 328.385 294.332 335.942L294.108 336.255Z" fill="#020202"/>
<path d="M286.014 313.871C286.014 313.871 269.113 314.55 261.176 318.408C253.24 322.262 257.478 331.675 273.597 331.422C289.716 331.17 288.493 328.794 288.493 328.794C288.493 328.794 285.431 320.531 286.014 313.871Z" fill="#2F1A31"/>
<path d="M307.649 279.706C302.052 279.706 297.454 278.305 293.727 275.521C286.687 270.262 285.382 261.877 286.402 256.294L293.137 252.415C293.471 250.584 306.472 257.386 306.447 257.379C306.507 257.4 312.652 259.16 333.955 248.375C348.787 240.869 356.261 230.216 356.805 215.811C357.218 204.948 352.328 198.85 351.173 196.204C351.02 195.852 358.341 188.584 358.131 187.844L363.618 185.081C363.44 184.459 368.895 182.329 368.817 182.151L373.052 185.725C375.143 190.515 379.588 201.506 379.015 216.654C378.418 232.388 371.857 254.104 343.99 268.21C328.795 275.901 316.869 279.706 307.649 279.706Z" fill="#F7B686"/>
<path d="M303.129 280.588H243.71C242.465 280.588 241.363 279.806 240.968 278.643L228.619 242.121C227.997 240.282 229.39 238.384 231.36 238.384H288.504C291.106 238.384 293.418 240.023 294.239 242.455L305.871 276.851C306.489 278.693 305.099 280.588 303.129 280.588Z" fill="#2F1A31"/>
<path d="M299.399 280.588H239.98C238.735 280.588 237.633 279.806 237.238 278.643L224.889 242.121C224.267 240.283 225.657 238.384 227.63 238.384H284.774C287.377 238.384 289.688 240.023 290.509 242.455L302.137 276.851C302.763 278.693 301.369 280.588 299.399 280.588Z" fill="#2F1A31"/>
<path d="M257.763 258.293C257.763 256.906 259.377 256.34 260.789 256.34C262.197 256.34 264.501 257.862 264.487 259.804C264.473 261.902 262.816 262.172 261.408 262.172C259.996 262.176 257.763 260.06 257.763 258.293Z" fill="#DEEBE9"/>
<path d="M321.278 275.428H239.948V280.588H322.96C323.92 280.588 324.699 279.809 324.699 278.849C324.699 276.961 323.166 275.428 321.278 275.428Z" fill="#2F1A31"/>
<path d="M295.175 256.853C295.146 256.742 292.23 245.918 290.342 242.551C288.482 239.233 286.189 238.579 286.167 238.572L286.267 238.202C286.367 238.231 288.738 238.91 290.676 242.362C292.586 245.769 295.423 256.305 295.544 256.749L295.175 256.853Z" fill="#436E8E"/>
<path d="M303.954 275.62C301.753 275.62 301.205 274.657 301.184 274.614L301.17 274.586L296.54 260.888L296.903 260.764L301.525 274.44C301.586 274.529 302.123 275.236 303.954 275.236V275.62V275.62Z" fill="#436E8E"/>
<path d="M361.062 248.045C360.72 248.045 360.4 247.966 360.112 247.799C358.658 246.96 358.697 244.258 360.205 241.648C360.902 240.439 361.808 239.443 362.758 238.842C363.782 238.191 364.753 238.067 365.485 238.49C366.94 239.329 366.9 242.032 365.393 244.642C364.184 246.74 362.452 248.045 361.062 248.045ZM364.532 239.016C364.134 239.016 363.665 239.176 363.17 239.493C362.324 240.03 361.506 240.933 360.87 242.032C359.621 244.194 359.451 246.53 360.496 247.134C361.542 247.739 363.48 246.42 364.728 244.258C365.976 242.096 366.147 239.76 365.101 239.155C364.938 239.063 364.746 239.016 364.532 239.016Z" fill="#E08B65"/>
<path d="M316.179 164.561C312.275 164.447 309.313 164.049 307.069 161.435L300.117 153.339L298.094 150.981L286.199 137.124L292.447 153.328L296.198 163.053L297.386 166.132C298.193 168.223 297.127 169.198 296.376 171.64C296.074 172.633 294.022 178.727 299.363 178.766C306.016 178.813 314.433 171.157 316.282 164.543C316.247 164.55 316.215 164.564 316.179 164.561Z" fill="#F7B686"/>
<path d="M302.051 148.136C302.051 148.136 315.148 135.67 307.595 125.148C300.042 114.626 298.151 142.034 298.151 142.034L300.263 148.371L302.051 148.136Z" fill="#2F1A31"/>
<path d="M300.053 153.058C300.078 153.15 300.099 153.242 300.117 153.338C301.333 158.804 296.241 163.074 296.241 163.074L296.195 163.057L292.443 153.331C294.037 152.147 296.383 150.718 298.09 150.984C298.99 151.12 299.705 151.721 300.053 153.058Z" fill="#2F1A31"/>
<path d="M272.324 146.287C269.369 136.544 273.526 126.662 281.605 124.213C289.684 121.763 298.631 127.676 301.582 137.419C304.537 147.162 300.38 157.044 292.301 159.494C284.222 161.94 275.279 156.03 272.324 146.287Z" fill="#F7B686"/>
<path d="M298.816 136.007C298.816 136.007 294.644 139.012 291.149 136.473C287.654 133.934 285.179 131.527 277.352 135.428C269.526 139.328 260.956 137.575 259.374 133.184C257.791 128.789 261.521 125.425 266.436 125.646C271.353 125.862 265.397 123.196 268.814 118.577C272.235 113.957 280.912 118.715 285.211 116.425C289.513 114.135 304.832 112.148 307.588 125.148L298.816 136.007Z" fill="#2F1A31"/>
<path d="M302.091 138.61C301.084 140.146 299.157 140.665 297.781 139.766C296.408 138.866 296.11 136.893 297.116 135.357C298.122 133.82 300.05 133.301 301.422 134.201C302.795 135.1 303.093 137.074 302.091 138.61Z" fill="#F7B686"/>
<path d="M268.022 131.666C267.73 131.666 267.449 131.634 267.182 131.566C265.422 131.125 264.928 130.211 265.052 129.504C265.195 128.69 266.19 127.911 267.758 128.067C270.091 128.302 271.371 127.527 271.382 127.516L271.688 128C271.631 128.035 270.248 128.892 267.702 128.636C266.539 128.519 265.71 129.045 265.614 129.603C265.511 130.183 266.165 130.727 267.321 131.015C270.337 131.769 275.542 127.132 275.596 127.086L275.976 127.509C275.77 127.69 271.307 131.666 268.022 131.666Z" fill="white"/>
<path d="M281.541 120.781C278.366 120.781 275.514 119.419 275.265 119.135L275.695 118.758L275.482 118.946L275.681 118.744C275.973 118.985 280.631 121.219 284.613 119.675C285.947 119.16 287.113 118.548 288.244 117.954C290.559 116.742 292.561 115.696 294.844 116.134L294.737 116.692C292.65 116.29 290.729 117.293 288.511 118.456C287.366 119.053 286.181 119.675 284.82 120.202C283.749 120.621 282.626 120.781 281.541 120.781Z" fill="white"/>
<path d="M303.637 124.472C302.795 124.472 301.237 123.171 300.832 122.349C300.533 121.745 300.842 121.471 300.988 121.379C302.133 120.664 303.794 122.897 304.114 123.352L304.142 123.395L304.157 123.445C304.341 124.138 304.05 124.362 303.858 124.437C303.79 124.462 303.716 124.472 303.637 124.472ZM301.479 121.813C301.408 121.813 301.344 121.83 301.287 121.862C301.262 121.912 301.315 122.221 301.895 122.805C302.67 123.58 303.47 123.957 303.648 123.9C303.641 123.893 303.659 123.822 303.616 123.637C303.033 122.829 302.044 121.813 301.479 121.813Z" fill="white"/>
<path d="M393.882 304.544C392.744 304.544 391.646 304.256 390.661 303.69C388.982 302.723 387.845 301.055 387.46 298.993C387.08 296.955 387.478 294.776 388.588 292.856C390.888 288.869 395.564 287.244 399.006 289.232C402.448 291.22 403.38 296.081 401.079 300.067C399.97 301.987 398.281 303.427 396.325 304.113C395.511 304.398 394.686 304.544 393.882 304.544ZM395.788 289.147C393.317 289.147 390.746 290.651 389.253 293.236C388.236 295 387.866 296.991 388.214 298.851C388.559 300.685 389.562 302.168 391.045 303.022C392.528 303.875 394.313 304.007 396.073 303.384C397.854 302.759 399.398 301.439 400.415 299.679C402.505 296.059 401.702 291.671 398.622 289.894C397.748 289.389 396.777 289.147 395.788 289.147Z" fill="#2F1A31"/>
<path d="M528.246 396.622C528.246 396.622 527.758 397.76 526.692 399.648C526.66 399.698 526.631 399.751 526.603 399.804C526.599 399.808 526.599 399.808 526.596 399.812C524.725 403.083 521.166 408.47 515.462 414.003C513.517 415.895 510.879 417.367 507.781 418.462H507.778L507.714 418.487C507.052 418.718 506.37 418.935 505.669 419.13C505.669 419.13 505.669 419.13 505.666 419.13C495.695 421.957 482.005 421.353 471.255 418.277H471.252L469.403 417.712H469.399C468.478 417.413 467.586 417.097 466.722 416.762C463.941 415.685 461.679 414.319 459.841 412.808C459.606 412.616 459.382 412.421 459.158 412.221C451.705 405.586 451.837 396.622 451.837 396.622H528.246Z" fill="#7B5CE1"/>
<path d="M530.699 383.071V392.878C530.699 398.948 512.269 403.865 489.529 403.865C466.793 403.865 448.359 398.948 448.359 392.878V383.071C448.359 379.988 458.977 377.349 474.025 376.258C478.811 375.906 484.042 375.714 489.529 375.714C512.269 375.71 530.699 379.003 530.699 383.071Z" fill="#4D3A8E"/>
<path d="M530.699 383.071C530.699 383.664 530.311 384.237 529.575 384.788C525.258 388.017 508.972 390.435 489.529 390.435C484.085 390.435 478.879 390.243 474.128 389.898C459.023 388.806 448.362 386.168 448.362 383.074C448.362 379.991 458.98 377.353 474.029 376.261C478.815 375.909 484.046 375.717 489.532 375.717C512.269 375.71 530.699 379.003 530.699 383.071Z" fill="#060633"/>
<path d="M492.011 281.434C488.06 283.752 486.151 283.187 485.24 281.64C484.33 280.094 484.771 278.149 488.718 275.83C495.911 271.606 501.035 272.367 501.035 272.367C501.035 272.367 499.307 277.149 492.011 281.434Z" fill="#2F1A31"/>
<path d="M491.811 311.111C488.824 314.582 486.833 314.667 485.471 313.497C484.109 312.327 483.896 310.347 486.883 306.873C492.323 300.547 497.416 299.612 497.416 299.612C497.416 299.612 497.33 304.693 491.811 311.111Z" fill="#2F1A31"/>
<path d="M489.987 388.344L489.123 388.269C489.134 388.138 490.225 374.728 485.72 355.09C481.563 336.969 471.653 309.682 448.06 282.604L448.714 282.035C472.439 309.262 482.395 336.706 486.574 354.933C491.1 374.693 489.998 388.209 489.987 388.344Z" fill="#2F1A31"/>
<path d="M471.945 316.224L471.216 315.759C488.192 289.25 477.961 257.066 477.858 256.742L478.683 256.472C478.786 256.796 489.145 289.364 471.945 316.224Z" fill="#2F1A31"/>
<path d="M458.891 302.157C450.087 302.157 443.434 297.748 443.355 297.698L443.839 296.98C443.924 297.037 452.451 302.673 462.86 300.973L462.998 301.83C461.594 302.058 460.217 302.157 458.891 302.157Z" fill="#2F1A31"/>
<path d="M488.526 368.815C470.721 366.792 456.292 358.109 445.642 343.014C445.272 342.491 444.923 341.997 444.82 341.908C444.82 341.908 444.852 341.937 444.909 341.954L445.183 341.133C445.425 341.215 445.578 341.421 446.349 342.516C456.853 357.401 471.077 365.96 488.625 367.955L488.526 368.815Z" fill="#2F1A31"/>
<path d="M463.35 359.481L462.515 359.254C465.591 347.9 458.02 331.202 457.942 331.034L458.728 330.672C458.746 330.714 460.698 334.989 462.234 340.632C463.656 345.859 465.004 353.372 463.35 359.481Z" fill="#2F1A31"/>
<path d="M447.48 277.768C452.067 281.903 452.455 284.215 451.253 285.548C450.051 286.882 447.711 286.732 443.124 282.593C434.771 275.058 432.908 269.003 432.908 269.003C432.908 269.003 439.003 270.123 447.48 277.768Z" fill="#2F1A31"/>
<path d="M445.681 294.896C451.299 297.457 452.37 299.544 451.623 301.176C450.88 302.808 448.604 303.374 442.986 300.81C432.748 296.145 429.15 290.932 429.15 290.932C429.15 290.932 435.294 290.164 445.681 294.896Z" fill="#2F1A31"/>
<path d="M460.523 328.215C462.621 332.286 461.953 334.164 460.356 334.985C458.76 335.806 456.843 335.262 454.745 331.191C450.923 323.773 451.964 318.703 451.964 318.703C451.964 318.703 456.644 320.69 460.523 328.215Z" fill="#2F1A31"/>
<path d="M467.756 288.35C468.801 292.809 467.695 294.466 465.946 294.879C464.196 295.288 462.472 294.292 461.426 289.833C459.524 281.711 461.768 277.043 461.768 277.043C461.768 277.043 465.825 280.111 467.756 288.35Z" fill="#2F1A31"/>
<path d="M474.814 354.891C474.562 359.463 473.036 360.743 471.244 360.644C469.452 360.544 468.072 359.104 468.325 354.531C468.784 346.2 472.247 342.353 472.247 342.353C472.247 342.353 475.277 346.438 474.814 354.891Z" fill="#2F1A31"/>
<path d="M449.553 342.239C452.473 345.766 452.224 347.743 450.841 348.888C449.457 350.033 447.47 349.912 444.547 346.385C439.227 339.96 439.156 334.782 439.156 334.782C439.156 334.782 444.156 335.718 449.553 342.239Z" fill="#2F1A31"/>
<path d="M480.508 252.959C481.948 258.965 480.959 261.091 479.213 261.507C477.467 261.927 475.625 260.48 474.185 254.474C471.564 243.532 473.456 237.487 473.456 237.487C473.456 237.487 477.848 241.861 480.508 252.959Z" fill="#2F1A31"/>
<path d="M490.61 389.5C490.61 389.5 468.03 305.23 445.397 312.217C422.76 319.204 473.037 365.331 478.833 390.072L490.61 389.5Z" fill="#436E8E"/>
<path d="M487.296 385.698C487.296 385.698 452.747 318.081 431.187 328.179C409.628 338.278 466.327 368.342 475.64 388.344L487.296 385.698Z" fill="#B2C9C6"/>
<path d="M480.629 387.306C468.819 360.68 437.663 337.449 437.35 337.218L437.919 336.447C438.235 336.681 469.591 360.054 481.503 386.915L480.629 387.306Z" fill="#CCDDDB"/>
<path d="M558.766 327.514C558.57 327.994 558.367 328.471 558.154 328.951C556.742 332.112 554.865 335.198 552.777 337.887C550.445 340.888 549.961 344.156 550.135 347.445C550.135 347.537 550.146 347.626 550.15 347.722C550.455 352.615 552.13 357.547 551.213 361.707C551.145 361.999 551.071 362.29 550.975 362.578C550.239 364.868 548.574 366.892 545.271 368.51C534.201 373.925 532.434 373.484 531.446 378.235C531.385 378.516 531.332 378.818 531.271 379.138C531.119 380.045 530.969 381.111 530.788 382.399C530.788 382.399 530.998 383.839 529.575 384.781C525.731 387.658 512.415 389.884 495.833 390.339C495.528 390.349 495.225 390.353 494.92 390.364C493.156 390.406 491.357 390.428 489.529 390.428C484.081 390.428 478.879 390.239 474.125 389.891C472.941 386.851 471.828 381.837 474.025 376.254C474.829 374.206 476.088 372.08 477.951 369.95C487.861 358.631 495.83 360.619 493.967 340.589C493.949 340.365 493.924 340.134 493.899 339.899C493.881 339.711 493.86 339.522 493.842 339.33C491.534 317.946 520.422 327.194 527.641 319.972C534.863 312.75 539.777 304.661 552.774 307.833C561.916 310.073 562.204 318.874 558.766 327.514Z" fill="#FF6D67"/>
<path d="M556.714 310.318C545.84 319.862 536.808 329.057 529.33 337.616C529.085 337.894 528.846 338.171 528.608 338.448C517.656 351.086 510.117 362.287 505.033 371.08C504.883 371.34 504.741 371.592 504.595 371.841C499.098 381.474 496.609 388.091 495.837 390.346C495.531 390.357 495.229 390.36 494.923 390.371C495.961 387.249 501.551 372.005 517.553 350.744C517.731 350.506 517.912 350.264 518.093 350.026C527.168 338.075 539.507 324.268 556.145 309.667L556.714 310.318Z" fill="#C74540"/>
<path d="M510.875 344.749C499.03 344.323 493.803 340.493 493.586 340.329L494.105 339.636C494.155 339.675 499.364 343.469 510.907 343.885L510.875 344.749Z" fill="#C74540"/>
<path d="M518.043 350.94C513.346 349.184 509.492 344.212 506.896 336.564C504.951 330.835 504.378 325.551 504.371 325.498L505.232 325.406C505.253 325.612 507.543 346.086 518.346 350.126L518.043 350.94Z" fill="#C74540"/>
<path d="M530.556 338.502C529.191 338.502 528.387 338.427 528.352 338.424L528.437 337.563C528.604 337.581 545.466 339.113 558.648 327.386L559.224 328.033C548.606 337.481 535.652 338.502 530.556 338.502Z" fill="#C74540"/>
<path d="M550.064 348.312C544.097 347.452 540.335 344.749 538.234 342.634C535.944 340.33 535.083 338.246 535.048 338.161L535.851 337.833C535.883 337.915 539.265 345.884 550.189 347.459L550.064 348.312Z" fill="#C74540"/>
<path d="M526.531 379.508C513.623 379.508 504.261 371.578 504.158 371.486L504.723 370.828C504.837 370.927 516.433 380.734 531.488 378.231L531.63 379.088C529.877 379.376 528.174 379.508 526.531 379.508Z" fill="#C74540"/>
<path d="M513.716 376.592L512.98 376.133C515.554 372.008 521.557 366.468 535.538 363.499C543.852 361.732 551.181 361.707 551.252 361.707V362.575C550.967 362.575 522.364 362.749 513.716 376.592Z" fill="#C74540"/>
<path d="M471.252 418.273C475.174 417.943 479.725 417.427 484.579 416.623C485.233 416.517 485.891 416.407 486.553 416.289C500.211 413.843 515.857 409.081 526.595 399.811C526.649 399.772 526.695 399.73 526.745 399.687L526.691 399.648L526.112 399.2C510.573 412.719 484.423 416.609 469.402 417.711C469.399 417.711 469.399 417.711 469.399 417.711L471.252 418.273Z" fill="#4D3A8E"/>
<path d="M505.669 419.127C505.669 419.127 505.669 419.127 505.665 419.127C505.601 419.127 505.537 419.127 505.466 419.123C499.837 418.953 492.854 418.277 484.575 416.631V416.624H484.579L484.767 415.944C485.368 416.065 485.962 416.179 486.549 416.289C495.133 417.886 502.23 418.423 507.774 418.462C507.778 418.462 507.778 418.462 507.778 418.462L505.669 419.127Z" fill="#4D3A8E"/>
<path d="M499.997 396.622C492.59 402.052 480.099 408.587 459.841 412.808C459.606 412.616 459.382 412.421 459.158 412.221C461.082 411.827 462.931 411.411 464.709 410.977C464.712 410.977 464.712 410.977 464.712 410.977H464.716C465.608 410.76 466.487 410.536 467.344 410.312C467.347 410.312 467.347 410.312 467.347 410.312H467.351C482.41 406.358 492.338 401.145 498.696 396.622H499.997Z" fill="#4D3A8E"/>
<path d="M478.9 396.622C476.564 401.277 472.329 406.873 464.715 410.977C464.715 410.977 464.715 410.977 464.712 410.977C464.691 410.991 464.676 410.998 464.655 411.009L465.132 411.599C465.903 411.183 466.643 410.756 467.347 410.312C467.35 410.312 467.35 410.312 467.35 410.312C473.932 406.191 477.695 400.978 479.832 396.622H478.9Z" fill="#4D3A8E"/>
<path d="M385.057 410.888C385.039 410.87 383.346 409.135 381.96 406.945C380.068 403.954 379.62 401.579 380.623 399.886C380.996 399.257 381.444 398.965 381.96 399.022C382.98 399.14 384.178 400.75 385.523 403.812C385.932 404.744 386.294 405.679 386.579 406.447C386.252 403.097 385.875 396.43 387.717 394.179C388.118 393.688 388.606 393.425 389.167 393.393C389.719 393.358 390.167 393.557 390.504 393.976C392.161 396.028 390.664 403.275 389.839 406.667C390.455 405.672 391.326 404.562 392.215 404.438C392.634 404.377 392.972 404.534 393.161 404.879C393.698 405.864 392.958 408.378 390.785 410.877L390.458 410.593C392.592 408.136 393.178 405.814 392.78 405.085C392.681 404.9 392.517 404.829 392.275 404.864C391.13 405.028 389.793 407.514 389.377 408.456L388.972 408.31C389.004 408.193 392.172 396.725 390.17 394.25C389.921 393.941 389.601 393.806 389.196 393.827C388.751 393.856 388.378 394.062 388.054 394.457C385.729 397.298 387.219 408.228 387.233 408.339L386.813 408.435C386.042 406.006 383.656 399.652 381.913 399.452C381.583 399.413 381.284 399.627 380.999 400.107C378.802 403.815 385.302 410.518 385.37 410.582L385.057 410.888Z" fill="#42428E"/>
<path d="M602.527 400.632C602.527 400.632 593.783 391.718 596.791 386.64C599.8 381.562 604.877 397.546 604.877 397.546C604.877 397.546 602.246 378.647 607.697 378.316C613.148 377.989 607.697 397.546 607.697 397.546C607.697 397.546 609.717 392.987 611.694 392.703C613.668 392.422 613.106 396.572 609.578 400.629H602.527V400.632Z" fill="#BED5DC"/>
<path d="M603.153 400.853C603.128 400.828 600.625 398.264 598.58 395.025C595.785 390.605 595.12 387.095 596.603 384.596C597.158 383.664 597.823 383.237 598.577 383.319C600.084 383.493 601.855 385.872 603.843 390.399C604.448 391.778 604.984 393.154 605.404 394.296C604.924 389.35 604.362 379.493 607.086 376.168C607.676 375.446 608.398 375.055 609.23 375.005C610.041 374.956 610.706 375.247 611.207 375.869C613.657 378.903 611.442 389.613 610.226 394.623C611.133 393.154 612.42 391.515 613.736 391.327C614.358 391.238 614.852 391.469 615.133 391.981C615.926 393.439 614.831 397.151 611.623 400.846L611.14 400.426C614.294 396.796 615.158 393.368 614.571 392.287C614.422 392.013 614.187 391.91 613.828 391.96C612.135 392.201 610.162 395.871 609.543 397.265L608.942 397.048C608.953 397.005 610.148 392.696 610.951 387.981C612 381.811 611.915 377.765 610.709 376.271C610.34 375.813 609.87 375.606 609.269 375.645C608.615 375.685 608.06 375.99 607.58 376.577C604.142 380.777 606.343 396.931 606.368 397.091L605.745 397.233C604.604 393.642 601.08 384.258 598.506 383.963C598.019 383.909 597.574 384.222 597.154 384.93C593.908 390.409 603.516 400.312 603.612 400.412L603.153 400.853Z" fill="#42428E"/>
<path d="M12.7514 404.576C12.7514 404.576 4.00748 395.662 7.01576 390.584C10.024 385.506 15.1019 401.49 15.1019 401.49C15.1019 401.49 12.4705 382.591 17.9217 382.26C23.3764 381.933 17.9217 401.49 17.9217 401.49C17.9217 401.49 19.9414 396.931 21.9185 396.647C23.892 396.366 23.3302 400.512 19.8027 404.573H12.7514V404.576Z" fill="#BED5DC"/>
<path d="M13.3772 404.797C13.3523 404.772 10.849 402.208 8.80432 398.969C6.00939 394.549 5.34444 391.039 6.82724 388.54C7.38196 387.608 8.04691 387.178 8.80076 387.263C10.3085 387.437 12.0793 389.816 14.067 394.343C14.6715 395.722 15.2085 397.098 15.6281 398.236C15.1445 393.29 14.5862 383.433 17.31 380.109C17.9003 379.387 18.6221 378.996 19.4542 378.946C20.2649 378.896 20.9299 379.188 21.4313 379.81C23.8813 382.843 21.666 393.553 20.4499 398.563C21.3566 397.095 22.6438 395.456 23.9595 395.267C24.5818 395.178 25.0761 395.409 25.357 395.921C26.1499 397.379 25.0547 401.092 21.8473 404.786L21.3637 404.367C24.5178 400.736 25.3819 397.308 24.7952 396.227C24.6458 395.953 24.4111 395.85 24.052 395.9C22.3594 396.142 20.3858 399.812 19.7671 401.205L19.1662 400.989C19.1768 400.946 20.3716 396.636 21.1753 391.921C22.2242 385.755 22.1425 381.705 20.9335 380.212C20.5636 379.753 20.0907 379.547 19.4933 379.586C18.839 379.625 18.2879 379.931 17.8043 380.518C14.3657 384.717 16.5668 400.871 16.5917 401.031L15.9694 401.173C14.828 397.582 11.3041 388.198 8.72964 387.903C8.24249 387.846 7.798 388.163 7.37841 388.87C4.12832 394.353 13.7399 404.253 13.8359 404.352L13.3772 404.797Z" fill="#42428E"/>
<path d="M274.276 428.365C274.276 428.365 267.566 421.523 269.874 417.626C272.186 413.729 276.083 425.997 276.083 425.997C276.083 425.997 274.063 411.489 278.248 411.236C282.434 410.984 278.248 425.997 278.248 425.997C278.248 425.997 279.799 422.498 281.317 422.281C282.832 422.064 282.398 425.25 279.692 428.365H274.276V428.365Z" fill="#BED5DC"/>
<path d="M276.396 428.589C276.371 428.564 273.864 425.993 271.812 422.747C269.014 418.316 268.345 414.803 269.832 412.296C270.386 411.361 271.051 410.934 271.809 411.016C273.32 411.19 275.094 413.576 277.086 418.11C277.69 419.49 278.227 420.873 278.65 422.014C278.167 417.057 277.608 407.179 280.336 403.848C280.93 403.126 281.651 402.731 282.483 402.681C283.298 402.635 283.963 402.923 284.464 403.545C286.918 406.582 284.699 417.317 283.483 422.338C284.393 420.866 285.68 419.223 286.999 419.034C287.625 418.949 288.12 419.177 288.4 419.689C289.197 421.15 288.098 424.87 284.884 428.571L284.4 428.152C287.558 424.514 288.425 421.079 287.839 419.995C287.689 419.721 287.451 419.618 287.092 419.667C285.396 419.909 283.419 423.586 282.796 424.983L282.195 424.767C282.206 424.724 283.404 420.407 284.208 415.678C285.261 409.498 285.175 405.437 283.966 403.944C283.596 403.485 283.124 403.279 282.523 403.318C281.865 403.357 281.314 403.663 280.83 404.249C277.384 408.459 279.589 424.646 279.614 424.809L278.992 424.951C277.85 421.353 274.316 411.948 271.738 411.653C271.247 411.592 270.802 411.912 270.383 412.62C267.126 418.114 276.758 428.034 276.854 428.134L276.396 428.589Z" fill="#42428E"/>
<path d="M232.385 385.211C232.385 385.211 225.675 378.37 227.982 374.473C230.294 370.575 234.191 382.843 234.191 382.843C234.191 382.843 232.171 368.335 236.356 368.083C240.542 367.83 236.356 382.843 236.356 382.843C236.356 382.843 237.91 379.344 239.425 379.127C240.94 378.91 240.506 382.096 237.8 385.211H232.385V385.211Z" fill="#BED5DC"/>
<path d="M231.325 384.326C231.307 384.308 229.615 382.573 228.231 380.382C226.34 377.392 225.891 375.017 226.894 373.324C227.268 372.691 227.716 372.403 228.231 372.46C229.252 372.577 230.45 374.188 231.794 377.25C232.203 378.181 232.566 379.117 232.85 379.885C232.523 376.535 232.146 369.868 233.988 367.617C234.39 367.126 234.877 366.863 235.439 366.831C235.987 366.796 236.438 366.995 236.776 367.414C238.433 369.466 236.936 376.713 236.111 380.105C236.726 379.109 237.597 378 238.486 377.876C238.906 377.815 239.244 377.972 239.432 378.32C239.969 379.305 239.226 381.819 237.057 384.319L236.73 384.034C238.863 381.577 239.45 379.259 239.052 378.526C238.949 378.341 238.789 378.27 238.55 378.306C237.405 378.469 236.068 380.951 235.649 381.897L235.243 381.751C235.275 381.634 238.444 370.167 236.442 367.692C236.193 367.382 235.873 367.247 235.467 367.269C235.023 367.297 234.65 367.503 234.326 367.898C231.997 370.739 233.49 381.67 233.505 381.78L233.085 381.876C232.313 379.444 229.927 373.093 228.185 372.894C227.851 372.855 227.552 373.072 227.271 373.548C225.074 377.26 231.577 383.96 231.641 384.024L231.325 384.326Z" fill="#42428E"/>
<path d="M310.365 430.211L309.682 430.083C309.149 429.983 308.801 429.471 308.9 428.938L321.605 361.707L332.006 360.505L312.111 429.066C311.937 429.851 311.162 430.36 310.365 430.211Z" fill="#2F1A31"/>
<path d="M423.755 429.549L424.431 429.382C424.957 429.254 425.277 428.721 425.146 428.194L408.742 361.768L398.292 361.142L421.949 428.497C422.169 429.279 422.969 429.745 423.755 429.549Z" fill="#2F1A31"/>
<path d="M423.479 362.674C423.479 368.705 398.15 373.594 366.905 373.594C335.659 373.594 310.33 368.705 310.33 362.674C310.33 356.644 335.659 351.751 366.905 351.751C398.147 351.754 423.479 356.644 423.479 362.674Z" fill="#5B43AB"/>
<path d="M423.478 358.344H310.326V362.678H423.478V358.344Z" fill="#5B43AB"/>
<path d="M423.478 357.707C423.478 363.158 398.149 367.578 366.904 367.578C335.658 367.578 310.33 363.158 310.33 357.707C310.33 352.256 335.658 347.836 366.904 347.836C398.146 347.836 423.478 352.256 423.478 357.707Z" fill="#9980EE"/>
<path d="M325.794 364.719C325.776 364.719 325.762 364.719 325.744 364.715C321.62 363.955 318.227 363.09 315.656 362.145C315.518 362.095 315.447 361.942 315.496 361.803C315.546 361.665 315.703 361.593 315.841 361.643C318.38 362.578 321.744 363.435 325.84 364.189C325.986 364.218 326.082 364.356 326.054 364.502C326.036 364.63 325.922 364.719 325.794 364.719Z" fill="#42428E"/>
<path d="M366.9 367.809C366.751 367.809 366.634 367.688 366.634 367.542C366.634 367.396 366.754 367.276 366.9 367.276C373.07 367.276 379.136 367.105 384.929 366.764C389.779 366.479 394.394 366.081 398.64 365.576C398.789 365.558 398.921 365.665 398.935 365.811C398.953 365.956 398.846 366.091 398.701 366.109C394.444 366.614 389.818 367.016 384.957 367.3C379.157 367.635 373.084 367.809 366.9 367.809Z" fill="#42428E"/>
<path d="M411.338 364.047C411.214 364.047 411.103 363.962 411.079 363.837C411.047 363.691 411.139 363.549 411.281 363.517C421.661 361.224 423.211 358.866 423.211 357.668C423.211 357.518 423.332 357.401 423.478 357.401C423.624 357.401 423.745 357.522 423.745 357.668C423.745 360.676 417.028 362.792 411.395 364.04C411.377 364.047 411.356 364.047 411.338 364.047Z" fill="#42428E"/>
<path d="M373.272 344.806H372.789V354.453H373.272V344.806Z" fill="#2F1A31"/>
<path d="M377.838 322.671L378.468 340.991C378.468 343.718 376.238 345.948 373.511 345.948H372.547C369.823 345.948 367.594 343.718 367.594 340.991C367.594 340.991 368.603 322.707 368.607 322.671C368.607 322.671 377.838 322.636 377.838 322.671Z" fill="#2F1A31"/>
<path d="M377.202 334.704L377.838 340.475C377.838 342.886 375.865 344.86 373.457 344.86H372.607C370.2 344.86 368.227 342.886 368.227 340.475L368.82 334.704H377.202Z" fill="#FF6D67"/>
<path d="M377.248 334.704C377.248 334.878 375.36 335.017 373.034 335.017C370.709 335.017 368.82 334.878 368.82 334.704C368.82 334.53 370.709 334.391 373.034 334.391C375.36 334.391 377.248 334.533 377.248 334.704Z" fill="#FCBF95"/>
<path d="M376.992 354.752C376.992 355.09 375.218 355.36 373.031 355.36C370.844 355.36 369.069 355.086 369.069 354.752C369.069 354.418 370.844 354.144 373.031 354.144C375.218 354.144 376.992 354.414 376.992 354.752Z" fill="#2F1A31"/>
<path d="M373.226 323.507C375.773 323.507 377.838 323.125 377.838 322.653C377.838 322.182 375.773 321.8 373.226 321.8C370.679 321.8 368.614 322.182 368.614 322.653C368.614 323.125 370.679 323.507 373.226 323.507Z" fill="#2F1A31"/>
<path d="M353.953 317.921H350.717C350.429 317.921 350.191 317.682 350.191 317.394V311.364C350.191 311.076 350.429 310.837 350.717 310.837H353.953C354.241 310.837 354.48 311.076 354.48 311.364V317.394C354.48 317.686 354.245 317.921 353.953 317.921Z" fill="#F7B686"/>
<path d="M352.037 311.403C352.037 311.403 351.866 311.538 351.98 311.797L352.101 311.705L352.037 311.403Z" fill="#111151"/>
<path d="M352.378 312.665C352.378 312.665 352.172 312.601 352.019 312.839L352.161 312.886L352.378 312.665Z" fill="#111151"/>
<path d="M353.818 312.338C353.818 312.338 353.612 312.274 353.459 312.512L353.601 312.558L353.818 312.338Z" fill="#111151"/>
<path d="M353.818 315.805C353.818 315.805 353.612 315.741 353.459 315.979L353.601 316.025L353.818 315.805Z" fill="#111151"/>
<path d="M351.208 311.559C351.208 311.559 351.002 311.495 350.849 311.733L350.991 311.78L351.208 311.559Z" fill="#111151"/>
<path d="M351.208 314.571C351.208 314.571 351.002 314.507 350.849 314.745L350.991 314.792L351.208 314.571Z" fill="#111151"/>
<path d="M353.096 311.911C353.096 311.911 353.064 311.698 352.783 311.666L352.805 311.815L353.096 311.911Z" fill="#111151"/>
<path d="M353.715 311.527C353.715 311.527 353.683 311.314 353.398 311.282L353.42 311.431L353.715 311.527Z" fill="#111151"/>
<path d="M351.912 314.717C351.912 314.717 352.008 314.909 352.285 314.856L352.221 314.72L351.912 314.717Z" fill="#111151"/>
<path d="M351.912 315.723C351.912 315.723 352.008 315.915 352.285 315.862L352.221 315.727L351.912 315.723Z" fill="#111151"/>
<path d="M352.975 317.039C352.975 317.039 353.189 317.003 353.217 316.722L353.068 316.744L352.975 317.039Z" fill="#111151"/>
<path d="M350.949 315.531C350.949 315.531 350.853 315.723 351.062 315.912L351.133 315.776L350.949 315.531Z" fill="#111151"/>
<path d="M353.398 315.03C353.398 315.03 353.196 314.955 353.032 315.186L353.174 315.239L353.398 315.03Z" fill="#111151"/>
<path d="M351.763 316.939C351.763 316.939 351.56 316.865 351.396 317.096L351.539 317.149L351.763 316.939Z" fill="#111151"/>
<path d="M352.819 313.917C352.819 313.917 353.032 313.888 353.068 313.604L352.918 313.622L352.819 313.917Z" fill="#111151"/>
<path d="M353.512 313.917C353.512 313.917 353.726 313.888 353.761 313.604L353.612 313.622L353.512 313.917Z" fill="#111151"/>
<path d="M351.404 313.558C351.404 313.558 351.24 313.7 351.361 313.956L351.478 313.86L351.404 313.558Z" fill="#111151"/>
<path d="M351.404 312.306C351.404 312.306 351.24 312.448 351.361 312.704L351.478 312.608L351.404 312.306Z" fill="#111151"/>
<path d="M348.979 315.734L350.789 341.83L354.455 341.663L354.942 315.734H348.979Z" fill="#2F1A31"/>
<path d="M351.574 327.973C351.574 327.973 342.461 329.228 339.627 335.028C336.793 340.827 341.625 356.221 343.126 358.02C343.126 358.02 350.589 361.017 361.353 358.02C361.353 358.02 367.949 343.626 363.785 335.028C359.621 326.43 351.574 327.973 351.574 327.973Z" fill="#2F1A31"/>
<path d="M363.447 341.855C363.554 348.697 360.137 356.15 360.137 356.15C350.771 358.76 344.271 356.15 344.271 356.15C343.307 354.994 340.761 347.388 340.491 341.453C341.806 341.556 344.089 341.844 347.979 342.577C352.808 343.491 359.177 342.655 363.447 341.855Z" fill="#FF6D67"/>
<path d="M355.788 315.275H347.979V316.651H355.788V315.275Z" fill="#2F1A31"/>
<path d="M343.293 338.58C343.293 338.58 353.039 339.956 360.162 338.58V346.453C360.162 346.453 351.663 348.704 343.293 346.453V338.58V338.58Z" fill="#436E8E"/>
<path d="M284.02 142.333C283.927 142.319 283.842 142.266 283.792 142.177C283.71 142.027 283.763 141.839 283.913 141.757C284.002 141.707 285.933 140.381 288.006 142.138C288.137 142.248 288.159 142.44 288.052 142.575C287.945 142.707 287.767 142.696 287.615 142.621C286.082 141.853 284.29 142.262 284.215 142.301C284.151 142.33 284.084 142.34 284.02 142.333Z" fill="#060633"/>
<path d="M286.882 145.398C287 146.127 286.665 146.789 286.135 146.874C285.606 146.959 285.083 146.437 284.966 145.704C284.848 144.975 285.183 144.314 285.712 144.229C286.242 144.147 286.765 144.669 286.882 145.398Z" fill="#060633"/>
<path d="M273.195 146.22C273.124 146.237 273.046 146.216 272.979 146.149C272.868 146.035 272.84 145.843 272.915 145.718C272.961 145.644 273.86 143.777 275.941 144.744C276.072 144.804 276.154 144.979 276.126 145.135C276.097 145.295 275.969 145.341 275.834 145.317C274.483 145.096 273.355 146.063 273.32 146.124C273.288 146.173 273.242 146.205 273.195 146.22Z" fill="#060633"/>
<path d="M277.079 147.948C277.466 148.577 277.406 149.317 276.951 149.598C276.492 149.879 275.809 149.594 275.421 148.965C275.034 148.335 275.094 147.596 275.55 147.315C276.008 147.034 276.691 147.318 277.079 147.948Z" fill="#060633"/>
<path d="M285.943 155.714C284.855 155.714 284.087 155.529 284.069 155.522C283.952 155.493 283.884 155.376 283.913 155.259C283.941 155.141 284.059 155.074 284.176 155.102C284.389 155.155 289.432 156.375 291.914 152.033C291.974 151.93 292.106 151.895 292.209 151.952C292.312 152.012 292.347 152.144 292.291 152.247C290.619 155.17 287.807 155.714 285.943 155.714Z" fill="#020202"/>
<path d="M292.731 153.004C292.642 153.004 292.557 152.947 292.525 152.855C292.426 152.556 292.13 152.101 291.295 151.625C291.263 151.607 291.241 151.593 291.231 151.589C291.131 151.521 291.103 151.39 291.17 151.29C291.234 151.191 291.369 151.166 291.469 151.23L291.508 151.251C292.276 151.689 292.756 152.183 292.934 152.72C292.973 152.834 292.909 152.954 292.799 152.994C292.778 153.001 292.756 153.004 292.731 153.004Z" fill="#020202"/>
<path d="M104.735 293.532L85.0427 292.874L62.726 293.453L62.6691 295.135L84.2533 294.175C86.4224 294.246 88.1186 296.234 88.0368 298.609C87.9586 300.985 86.1344 302.855 83.9653 302.78L62.4379 302.062L62.3953 303.303L104.358 304.704C107.175 304.796 109.539 302.375 109.642 299.289C109.749 296.202 107.552 293.624 104.735 293.532Z" fill="#E9554F"/>
<path d="M89.9574 298.626C90.0606 295.543 87.8595 292.966 85.0468 292.87L62.73 293.449L62.6731 295.131L84.2574 294.171C86.4264 294.242 88.1226 296.23 88.0408 298.605C87.9626 300.98 86.1384 302.851 83.9693 302.776L62.442 302.058L62.3993 303.299L84.6698 304.042C87.4861 304.138 89.8543 301.713 89.9574 298.626Z" fill="#E28569"/>
<path d="M84.2568 294.175L62.6725 295.131C64.6212 295.444 65.2079 297.421 65.4781 298.477C66.0257 300.618 64.4043 301.852 62.4414 302.033V302.062L83.9688 302.78C86.1379 302.851 87.962 300.984 88.0403 298.609C88.1185 296.234 86.4259 294.246 84.2568 294.175Z" fill="#E6EDFF"/>
<path d="M65.5498 299.458L65.5459 299.575L82.9202 300.155L82.9242 300.038L65.5498 299.458Z" fill="#2F1A31"/>
<g opacity="0.4">
<g opacity="0.4">
<path opacity="0.4" d="M87.8661 303.516C87.7914 303.516 87.7168 303.48 87.6705 303.413C87.5994 303.306 87.6279 303.16 87.7345 303.086C87.7523 303.075 89.4485 301.898 89.7223 298.609C89.9925 295.341 87.7025 294.089 87.6776 294.075C87.5639 294.015 87.5176 293.872 87.5816 293.759C87.6421 293.645 87.7843 293.602 87.8981 293.659C88.0048 293.716 90.4868 295.074 90.1881 298.648C89.893 302.179 88.0723 303.427 87.9941 303.477C87.955 303.502 87.9088 303.516 87.8661 303.516Z" fill="#436E8E"/>
</g>
</g>
<path d="M65.4782 298.534L65.4746 298.417L78.8234 298.196L78.827 298.314L65.4782 298.534Z" fill="#2F1A31"/>
<g opacity="0.4">
<g opacity="0.4">
<path opacity="0.4" d="M94.8108 302.353C94.8072 302.353 94.8072 302.353 94.8037 302.353L90.5935 302.215C90.5117 302.211 90.437 302.165 90.3979 302.094C90.3588 302.023 90.3588 301.934 90.4015 301.863C90.4086 301.848 91.134 300.593 91.5571 298.901C91.9625 297.272 90.8531 295.579 90.8424 295.562C90.7926 295.487 90.7891 295.394 90.8317 295.316C90.8744 295.238 90.9491 295.199 91.0451 295.195L95.0384 295.33C95.113 295.334 95.1806 295.37 95.2233 295.43C97.7231 299 95.017 302.239 94.9886 302.271C94.9459 302.321 94.8783 302.353 94.8108 302.353ZM90.9882 301.756L94.7006 301.88C95.0953 301.368 96.8945 298.751 94.9032 295.793L91.4505 295.679C91.7847 296.315 92.3466 297.66 92.0087 299.014C91.6994 300.255 91.2407 301.258 90.9882 301.756Z" fill="#436E8E"/>
</g>
</g>
<path d="M62.893 303.409H82.5962L104.881 304.732V306.414L83.3358 304.736C81.1667 304.736 79.4065 306.663 79.4065 309.042C79.4065 311.42 81.1667 313.348 83.3358 313.348H104.877V314.589H62.893C60.0767 314.589 57.7903 312.085 57.7903 308.999C57.7903 305.912 60.0732 303.409 62.893 303.409Z" fill="#7B5CE1"/>
<path d="M77.4899 308.999C77.4899 305.912 79.7728 303.409 82.5926 303.409L104.877 304.732V306.414L83.3358 304.736C81.1667 304.736 79.4065 306.663 79.4065 309.042C79.4065 311.42 81.1667 313.348 83.3358 313.348H104.877V314.589H82.5926C79.7763 314.589 77.4899 312.085 77.4899 308.999Z" fill="#513C97"/>
<path d="M83.3358 304.739L104.877 306.417C102.922 306.663 102.267 308.622 101.961 309.667C101.343 311.79 102.922 313.074 104.877 313.323V313.351H83.3358C81.1667 313.351 79.4065 311.424 79.4065 309.045C79.4065 306.666 81.1667 304.739 83.3358 304.739Z" fill="#E6EDFF"/>
<path d="M101.844 310.645H84.4559V310.763H101.844V310.645Z" fill="#2F1A31"/>
<path d="M79.2891 313.91C79.2144 313.856 77.4329 312.551 77.2587 309.01C77.0809 305.429 79.6092 304.152 79.7158 304.103L79.9221 304.526C79.8261 304.572 77.5681 305.728 77.7281 308.988C77.8917 312.302 79.5451 313.519 79.5629 313.529L79.2891 313.91Z" fill="#2F1A31"/>
<path d="M101.958 309.724L88.6234 309.056L88.6305 308.939L101.965 309.607L101.958 309.724Z" fill="#2F1A31"/>
<path d="M72.5224 305.767H76.5193C76.5193 305.767 75.2782 307.506 75.6552 309.266C76.0321 311.026 76.7362 312.327 76.7362 312.327H72.526C72.5224 312.324 69.9835 309.145 72.5224 305.767Z" fill="#2F1A31"/>
<path d="M298.101 187.894L298.073 186.938C315.134 186.45 321.289 171.825 321.346 171.676L322.231 172.035C322.167 172.192 320.62 175.932 316.869 179.78C313.409 183.339 307.339 187.631 298.101 187.894Z" fill="#CC6E58"/>
<path d="M306.23 196.083L305.725 195.269C305.814 195.212 314.518 189.686 315.642 179.801L316.592 179.908C315.415 190.266 306.322 196.026 306.23 196.083Z" fill="#CC6E58"/>
<path d="M268.162 198.685L264.657 209.245L265.565 209.546L269.07 198.986L268.162 198.685Z" fill="#CC6E58"/>
<path d="M344.171 334.782C344.135 334.782 344.1 334.775 344.064 334.761C343.922 334.704 343.854 334.541 343.911 334.398C343.954 334.299 344.96 331.913 348.936 331.337C349.089 331.315 349.231 331.422 349.252 331.571C349.274 331.724 349.167 331.867 349.014 331.888C345.376 332.414 344.466 334.516 344.427 334.605C344.388 334.718 344.281 334.782 344.171 334.782Z" fill="#CCDDDB"/>
<path d="M369.798 331.29C369.791 331.29 369.784 331.29 369.777 331.29C369.624 331.276 369.51 331.145 369.521 330.988L370.012 324.979C370.022 324.826 370.161 324.709 370.314 324.723C370.467 324.737 370.581 324.869 370.57 325.025L370.079 331.034C370.065 331.18 369.944 331.29 369.798 331.29Z" fill="#CCDDDB"/>
<path d="M553.321 238.636C553.264 238.636 553.208 238.629 553.151 238.607C552.856 238.515 552.692 238.199 552.788 237.907C557.14 224.217 569.625 215.31 569.753 215.221C570.006 215.043 570.354 215.103 570.532 215.356C570.71 215.608 570.649 215.957 570.397 216.135C570.276 216.22 558.09 224.921 553.855 238.245C553.777 238.487 553.56 238.636 553.321 238.636Z" fill="#7B5CE1"/>
<path d="M543.792 265.468C543.738 265.468 543.681 265.461 543.628 265.444C543.333 265.351 543.169 265.038 543.258 264.743L547.22 251.878C547.312 251.583 547.625 251.419 547.92 251.508C548.215 251.601 548.382 251.914 548.29 252.209L544.325 265.074C544.25 265.316 544.03 265.468 543.792 265.468Z" fill="#7B5CE1"/>
<path d="M275.336 158.391C275.126 158.391 274.916 158.377 274.699 158.349C272.406 158.039 270.02 156.119 268.32 153.203C265.554 148.463 265.433 142.518 268.046 139.951C269.014 139.001 270.251 138.596 271.624 138.781C273.917 139.09 276.303 141.01 278.003 143.926C280.769 148.666 280.894 154.612 278.277 157.179C277.462 157.979 276.456 158.391 275.336 158.391ZM270.998 139.378C270.048 139.378 269.191 139.73 268.498 140.409C266.08 142.781 266.251 148.375 268.878 152.88C270.479 155.625 272.687 157.431 274.788 157.712C275.958 157.869 277.007 157.527 277.829 156.72C280.247 154.348 280.076 148.755 277.448 144.25C275.848 141.505 273.64 139.698 271.538 139.417C271.357 139.393 271.176 139.378 270.998 139.378Z" fill="white"/>
<g opacity="0.3">
<path opacity="0.3" d="M293.574 136.96C295.814 141.675 295.196 147.411 292.191 149.775C289.19 152.137 284.941 150.231 282.7 145.512C280.46 140.797 281.079 135.061 284.084 132.697C287.085 130.336 291.334 132.245 293.574 136.96Z" fill="white"/>
</g>
<g opacity="0.3">
<path opacity="0.3" d="M278.227 144.303C280.474 149.039 280.168 154.789 277.548 157.143C274.927 159.497 270.98 157.563 268.733 152.826C266.485 148.09 266.791 142.34 269.412 139.986C272.033 137.636 275.98 139.567 278.227 144.303Z" fill="white"/>
</g>
<path d="M288.831 151.041C288.397 151.041 287.956 150.988 287.511 150.885C285.111 150.316 282.928 148.311 281.523 145.384C279.105 140.349 279.838 134.169 283.156 131.602C284.493 130.567 286.078 130.226 287.735 130.617C290.136 131.186 292.319 133.191 293.727 136.118C296.145 141.153 295.413 147.333 292.099 149.9C291.11 150.657 290.001 151.041 288.831 151.041ZM286.416 131.104C285.381 131.104 284.407 131.445 283.543 132.11C280.453 134.5 279.806 140.328 282.099 145.103C283.401 147.816 285.481 149.74 287.657 150.256C289.119 150.601 290.516 150.302 291.697 149.388C294.787 146.999 295.434 141.167 293.14 136.395C291.839 133.685 289.759 131.758 287.583 131.243C287.188 131.15 286.797 131.104 286.416 131.104Z" fill="white"/>
<path d="M277.847 146.323C277.719 146.323 277.587 146.28 277.477 146.195C277.217 145.992 277.167 145.619 277.37 145.356C277.434 145.27 278.999 143.297 282.327 143.215C282.658 143.201 282.935 143.467 282.942 143.802C282.949 144.132 282.69 144.41 282.355 144.417C279.625 144.484 278.369 146.028 278.316 146.095C278.199 146.245 278.021 146.323 277.847 146.323Z" fill="white"/>
<path d="M406.982 338.95C406.968 338.95 406.95 338.95 406.932 338.95C406.506 338.925 406.179 338.555 406.207 338.125C406.221 337.901 406.58 332.578 409.546 326.287C412.288 320.47 417.87 312.736 428.894 308.931C429.299 308.789 429.74 309.006 429.882 309.411C430.021 309.817 429.807 310.258 429.402 310.4C409.283 317.348 407.772 338.015 407.757 338.224C407.733 338.633 407.388 338.95 406.982 338.95Z" fill="#7B5CE1"/>
<path d="M574.077 229.06C573.917 229.06 573.754 229.01 573.615 228.907C573.27 228.651 573.199 228.164 573.455 227.819C573.868 227.264 583.685 214.257 592.952 215.872C602.482 217.536 601.273 226.891 601.259 226.987C601.198 227.41 600.811 227.709 600.38 227.648C599.957 227.588 599.662 227.197 599.719 226.77C599.762 226.447 600.718 218.805 592.682 217.404C584.361 215.95 574.792 228.623 574.7 228.751C574.55 228.953 574.316 229.06 574.077 229.06Z" fill="#7B5CE1"/>
<defs>
<clipPath id="clip0">
<rect width="51.7282" height="51.7282" fill="white" transform="translate(431.068 81.1238) rotate(-13.5878)"/>
</clipPath>
</defs>
</svg>
