<svg width="11" height="18" viewBox="0 0 11 18" fill="none" xmlns="http://www.w3.org/2000/svg">
<path d="M6.43842 13.1621H4.15141V11.834C4.15141 11.0198 4.38757 10.3162 4.85989 9.72332C5.14991 9.36759 5.59322 8.92095 6.18983 8.3834C6.30584 8.28854 6.50885 8.11858 6.79887 7.87352C8.05009 6.80632 8.68399 5.73913 8.70057 4.67194C8.70057 3.5336 8.18267 2.72332 7.14689 2.24111L6.36384 1.99209C6.07382 1.92885 5.76723 1.89723 5.44407 1.89723C4.05198 1.89723 3.1032 2.36759 2.59774 3.3083C2.30772 3.86166 2.16271 4.65613 2.16271 5.6917H0C0 3.98419 0.381168 2.66008 1.1435 1.71937C1.91412 0.778656 3.06177 0.225296 4.58644 0.0592885C4.9096 0.0197628 5.24106 0 5.58079 0C7.71864 0 9.25989 0.671937 10.2045 2.01581L10.6147 2.75099C10.8716 3.33597 11 3.97628 11 4.67194C11 5.80237 10.565 6.84585 9.69492 7.80237C9.37175 8.17391 8.95744 8.57708 8.45198 9.01186C7.38305 9.95257 6.76158 10.6403 6.58757 11.0751C6.48814 11.3202 6.43842 11.6364 6.43842 12.0237V13.1621ZM6.43842 15.4743V18H4.15141V15.4743H6.43842Z" fill="white"/>
</svg>
