<svg width="162" height="49" viewBox="0 0 162 49" fill="none" xmlns="http://www.w3.org/2000/svg">
<path d="M155.533 47.4545H6.08353C3.05485 47.4545 0.600586 45.0002 0.600586 41.9715V6.56741C0.600586 3.53874 3.05485 1.08447 6.08353 1.08447H155.533C158.561 1.08447 161.016 3.53874 161.016 6.56741V41.9715C161.016 45.0002 158.561 47.4545 155.533 47.4545Z" fill="black"/>
<path d="M6.08055 1.68491C3.3884 1.68491 1.19812 3.87519 1.19812 6.56734V41.9715C1.19812 44.6636 3.3884 46.8539 6.08055 46.8539H155.533C158.225 46.8539 160.415 44.6636 160.415 41.9715V6.56734C160.415 3.87519 158.225 1.68491 155.533 1.68491H6.08055ZM155.533 48.0549H6.08055C2.72696 48.0549 0 45.325 0 41.9715V6.56734C0 3.21375 2.72696 0.483887 6.08055 0.483887H155.533C158.886 0.483887 161.613 3.21375 161.613 6.56734V41.9715C161.613 45.325 158.886 48.0549 155.533 48.0549Z" fill="#A7A9AB"/>
<path d="M56.042 12.9343L55.427 11.008C55.2761 10.5323 55.1485 10.0014 55.0325 9.54882H55.0093C54.8961 10.0014 54.7772 10.5439 54.6408 11.008L54.0374 12.9343H56.042ZM53.8053 14.0106L53.1323 16.227H51.6586L54.1651 8.41162H55.984L58.5224 16.227H56.9936L56.2857 14.0106" fill="white"/>
<path d="M60.6547 10.5825L61.5714 13.4429C61.7339 13.9419 61.847 14.3945 61.9514 14.8586H61.9862C62.0907 14.3945 62.2183 13.9535 62.3692 13.4429L63.2743 10.5825H64.7683L62.6129 16.2279H61.2117L59.1113 10.5825" fill="white"/>
<path d="M69.0706 13.4659C68.061 13.4543 67.0979 13.6631 67.0979 14.5218C67.0979 15.0788 67.4576 15.3341 67.9101 15.3341C68.4875 15.3341 68.8965 14.9628 69.0328 14.5566C69.0706 14.4522 69.0706 14.3478 69.0706 14.2433V13.4659ZM70.4601 14.87C70.4601 15.3805 70.4834 15.8795 70.553 16.2247H69.2649L69.1634 15.601H69.1257C68.7921 16.0391 68.2002 16.3524 67.4576 16.3524C66.3204 16.3524 65.6851 15.5314 65.6851 14.6727C65.6851 13.257 66.947 12.5288 69.0328 12.5404V12.4476C69.0328 12.0763 68.8849 11.4612 67.8869 11.4612C67.3299 11.4612 66.7497 11.6353 66.3668 11.879L66.0883 10.9507C66.506 10.6954 67.2371 10.4546 68.1306 10.4546C69.938 10.4546 70.4601 11.6005 70.4601 12.8421" fill="white"/>
<path d="M72.4764 10.5812H73.9008V16.2266H72.4764V10.5812ZM73.1813 9.76893C72.7085 9.76893 72.3951 9.42081 72.3951 9.00306C72.3951 8.56211 72.7172 8.22559 73.1958 8.22559C73.6803 8.22559 73.982 8.56211 73.9936 9.00306C73.9936 9.42081 73.6803 9.76893 73.1958 9.76893" fill="white"/>
<path d="M75.9518 16.2276H77.3791V7.98291H75.9518V16.2276Z" fill="white"/>
<path d="M82.4326 13.4659C81.4231 13.4543 80.4599 13.6631 80.4599 14.5218C80.4599 15.0788 80.8196 15.3341 81.2722 15.3341C81.8524 15.3341 82.2586 14.9628 82.3978 14.5566C82.4326 14.4522 82.4326 14.3478 82.4326 14.2433V13.4659ZM83.8222 14.87C83.8222 15.3805 83.8454 15.8795 83.915 16.2247H82.6299L82.5254 15.601H82.4906C82.1541 16.0391 81.5623 16.3524 80.8196 16.3524C79.6853 16.3524 79.0471 15.5314 79.0471 14.6727C79.0471 13.257 80.312 12.5288 82.3978 12.5404V12.4476C82.3978 12.0763 82.247 11.4612 81.249 11.4612C80.692 11.4612 80.1118 11.6353 79.7318 11.879L79.4533 10.9507C79.871 10.6954 80.5992 10.4546 81.4927 10.4546C83.3 10.4546 83.8222 11.6005 83.8222 12.8421" fill="white"/>
<path d="M87.2657 13.8952C87.2657 14.0112 87.2773 14.1273 87.3005 14.2317C87.4514 14.8119 87.9504 15.2297 88.5625 15.2297C89.456 15.2297 90.0014 14.5218 90.0014 13.3759C90.0014 12.378 89.5256 11.5657 88.5741 11.5657C87.9939 11.5657 87.463 11.9834 87.3121 12.61C87.2889 12.7145 87.2657 12.8421 87.2657 12.9814V13.8952ZM85.8384 7.98291H87.2657V11.3568H87.2889C87.637 10.8114 88.2492 10.4546 89.0963 10.4546C90.4771 10.4546 91.4606 11.6005 91.449 13.3179C91.449 15.3457 90.1638 16.3553 88.8874 16.3553C88.1563 16.3553 87.5094 16.0768 87.1033 15.3805H87.08L87.0104 16.2276H85.792C85.8152 15.8447 85.8384 15.2181 85.8384 14.6495" fill="white"/>
<path d="M93.1289 16.2276H94.5533V7.98291H93.1289V16.2276Z" fill="white"/>
<path d="M100.106 12.8073C100.117 12.2851 99.8853 11.4264 98.9367 11.4264C98.0547 11.4264 97.6834 12.2271 97.6254 12.8073H100.106ZM97.6254 13.8024C97.6602 14.8235 98.4609 15.2645 99.366 15.2645C100.025 15.2645 100.489 15.1601 100.93 15.0092L101.139 15.981C100.651 16.1928 99.9781 16.3408 99.1687 16.3408C97.3353 16.3408 96.2561 15.2181 96.2561 13.492C96.2561 11.9254 97.2076 10.4546 99.0179 10.4546C100.848 10.4546 101.452 11.9602 101.452 13.2019C101.452 13.4688 101.429 13.6776 101.405 13.8024" fill="white"/>
<path d="M108.533 15.3225C109.343 15.3225 109.911 14.5334 109.911 13.3875C109.911 12.5056 109.517 11.4845 108.545 11.4845C107.535 11.4845 107.129 12.4708 107.129 13.4107C107.129 14.4986 107.674 15.3225 108.519 15.3225H108.533ZM108.487 16.3553C106.897 16.3553 105.658 15.2645 105.658 13.4455C105.658 11.5889 106.874 10.4546 108.58 10.4546C110.259 10.4546 111.385 11.6353 111.385 13.3527C111.385 15.4269 109.923 16.3553 108.498 16.3553" fill="white"/>
<path d="M113.062 12.2619C113.062 11.6121 113.041 11.0667 113.018 10.5793H114.257L114.326 11.4264H114.361C114.617 10.9855 115.232 10.4546 116.171 10.4546C117.155 10.4546 118.176 11.0899 118.176 12.8769V16.2247H116.749V13.0394C116.749 12.2271 116.447 11.6121 115.673 11.6121C115.104 11.6121 114.709 12.0182 114.559 12.4476C114.512 12.5636 114.489 12.7377 114.489 12.9002V16.2247H113.062" fill="white"/>
<path d="M124.747 9.13184V10.5794H126.102V11.647H124.747V14.1274C124.747 14.8236 124.933 15.1718 125.475 15.1718C125.73 15.1718 125.87 15.1602 126.032 15.1138L126.055 16.19C125.847 16.2742 125.464 16.3409 125.023 16.3409C124.492 16.3409 124.062 16.1668 123.795 15.8796C123.482 15.5547 123.343 15.0325 123.343 14.2899V11.647H122.542V10.5794H123.343V9.52638" fill="white"/>
<path d="M127.689 7.98291H129.116V11.3452H129.139C129.313 11.0783 129.557 10.8578 129.847 10.707C130.137 10.5474 130.471 10.4546 130.831 10.4546C131.794 10.4546 132.8 11.0899 132.8 12.9001V16.2276H131.376V13.051C131.376 12.2387 131.074 11.6121 130.285 11.6121C129.731 11.6121 129.337 11.9834 129.174 12.4128C129.128 12.5404 129.116 12.6913 129.116 12.8421V16.2276H127.689" fill="white"/>
<path d="M138.318 12.8073C138.33 12.2851 138.097 11.4264 137.146 11.4264C136.264 11.4264 135.896 12.2271 135.838 12.8073H138.318ZM135.838 13.8024C135.872 14.8235 136.67 15.2645 137.575 15.2645C138.237 15.2645 138.701 15.1601 139.139 15.0092L139.351 15.981C138.863 16.1928 138.19 16.3408 137.378 16.3408C135.547 16.3408 134.468 15.2181 134.468 13.492C134.468 11.9254 135.42 10.4546 137.227 10.4546C139.058 10.4546 139.661 11.9602 139.661 13.2019C139.661 13.4688 139.638 13.6776 139.615 13.8024" fill="white"/>
<path d="M36.0684 23.805C36.0307 19.9379 39.2335 18.0551 39.3814 17.9681C37.5683 15.3224 34.7572 14.9627 33.7679 14.9336C31.4094 14.6871 29.1205 16.3493 27.9195 16.3493C26.6923 16.3493 24.8386 14.9598 22.8456 15.0004C20.2753 15.041 17.8732 16.5292 16.5561 18.8355C13.8408 23.5439 15.8657 30.4599 18.4708 34.2661C19.7763 36.1285 21.2964 38.2115 23.2894 38.1361C25.2389 38.0548 25.9671 36.8944 28.3198 36.8944C30.6522 36.8944 31.3369 38.1361 33.3705 38.0896C35.4621 38.0548 36.7792 36.2185 38.0353 34.3357C39.5439 32.2006 40.1473 30.0973 40.1705 29.99C40.1212 29.9726 36.1091 28.4408 36.0684 23.805Z" fill="white"/>
<path d="M32.2276 12.4325C33.2748 11.1212 33.9972 9.33417 33.7941 7.52393C32.2769 7.59355 30.3796 8.5741 29.2859 9.85635C28.3199 10.9878 27.4525 12.8415 27.6788 14.5821C29.3846 14.7098 31.1339 13.7234 32.2276 12.4325Z" fill="white"/>
<path d="M59.5958 31.1886L58.2497 27.0314C58.1076 26.6079 57.8407 25.607 57.4461 24.0347H57.3997C57.2431 24.7106 56.9878 25.7114 56.6426 27.0314L55.3197 31.1886H59.5958ZM64.249 37.829H61.5308L60.0426 33.1526H54.8729L53.4543 37.829H50.8086L55.9376 21.9082H59.0997" fill="white"/>
<path d="M74.832 32.041C74.832 30.9212 74.5796 30.0016 74.0748 29.2763C73.5236 28.5221 72.7839 28.142 71.8555 28.142C71.226 28.142 70.6516 28.3538 70.1439 28.7687C69.6333 29.1893 69.2968 29.7347 69.1373 30.4136C69.0589 30.7269 69.0212 30.9851 69.0212 31.1881V33.1028C69.0212 33.9383 69.2765 34.6432 69.7871 35.2176C70.3006 35.795 70.9649 36.0793 71.783 36.0793C72.7461 36.0793 73.4946 35.7108 74.0255 34.9682C74.5651 34.2284 74.832 33.2537 74.832 32.041ZM77.4313 31.9453C77.4313 33.8977 76.9033 35.4439 75.8473 36.5753C74.9016 37.5849 73.7267 38.0868 72.3284 38.0868C70.8141 38.0868 69.7291 37.5414 69.0676 36.4564H69.0212V42.505H66.4683V30.1263C66.4683 28.8992 66.4393 27.6402 66.3755 26.3463H68.618L68.7601 28.1682H68.8094C69.6595 26.796 70.9504 26.1113 72.6823 26.1113C74.0342 26.1113 75.1685 26.648 76.0707 27.7185C76.9758 28.7919 77.4313 30.1989 77.4313 31.9453Z" fill="white"/>
<path d="M88.0345 32.041C88.0345 30.9212 87.7821 30.0016 87.2774 29.2763C86.7262 28.5221 85.9864 28.142 85.0581 28.142C84.4285 28.142 83.857 28.3538 83.3465 28.7687C82.833 29.1893 82.5023 29.7347 82.3456 30.4136C82.2644 30.7269 82.2267 30.9851 82.2267 31.1881V33.1028C82.2267 33.9383 82.4791 34.6432 82.9896 35.2176C83.5031 35.795 84.1675 36.0793 84.9884 36.0793C85.9487 36.0793 86.6972 35.7108 87.2309 34.9682C87.7647 34.2284 88.0345 33.2537 88.0345 32.041ZM90.6309 31.9453C90.6309 33.8977 90.1059 35.4439 89.0499 36.5753C88.1041 37.5849 86.9321 38.0868 85.5309 38.0868C84.0195 38.0868 82.9345 37.5414 82.2702 36.4564H82.2267V42.505H79.6738V30.1263C79.6738 28.8992 79.6419 27.6402 79.5809 26.3463H81.8234L81.9656 28.1682H82.0149C82.862 26.796 84.153 26.1113 85.8849 26.1113C87.2396 26.1113 88.3681 26.648 89.2762 27.7185C90.1813 28.7919 90.6309 30.1989 90.6309 31.9453Z" fill="white"/>
<path d="M105.397 33.364C105.397 34.7158 104.927 35.8182 103.982 36.6711C102.943 37.5995 101.501 38.0636 99.6474 38.0636C97.9329 38.0636 96.5578 37.7329 95.5164 37.0715L96.1082 34.9479C97.2309 35.6239 98.458 35.9604 99.7983 35.9604C100.759 35.9604 101.507 35.7457 102.044 35.3134C102.577 34.8783 102.844 34.2981 102.844 33.5728C102.844 32.9288 102.627 32.3805 102.186 31.9396C101.745 31.4986 101.011 31.0896 99.9868 30.7095C97.199 29.6681 95.8065 28.145 95.8065 26.1433C95.8065 24.8349 96.2938 23.7616 97.2715 22.9261C98.2462 22.0906 99.5459 21.6699 101.168 21.6699C102.618 21.6699 103.822 21.9252 104.782 22.4271L104.144 24.5071C103.248 24.0198 102.232 23.7732 101.098 23.7732C100.199 23.7732 99.4995 23.9936 98.9976 24.4346C98.574 24.8291 98.3594 25.3107 98.3594 25.8764C98.3594 26.5059 98.6001 27.0252 99.0904 27.4343C99.514 27.8114 100.286 28.2204 101.405 28.6643C102.775 29.2155 103.781 29.8595 104.428 30.5993C105.072 31.339 105.397 32.2616 105.397 33.364Z" fill="white"/>
<path d="M113.827 28.2614H111.016V33.8343C111.016 35.2529 111.512 35.9608 112.507 35.9608C112.96 35.9608 113.34 35.9231 113.639 35.8447L113.708 37.7797C113.209 37.9712 112.545 38.064 111.727 38.064C110.72 38.064 109.931 37.7565 109.363 37.1444C108.797 36.5294 108.513 35.4966 108.513 34.049V28.2614H106.836V26.3468H108.513V24.2464L111.016 23.4893V26.3468H113.827" fill="white"/>
<path d="M123.868 32.0758C123.868 31.017 123.639 30.1118 123.181 29.3518C122.65 28.4351 121.884 27.9767 120.892 27.9767C119.868 27.9767 119.087 28.4351 118.554 29.3518C118.095 30.1118 117.872 31.0344 117.872 32.1252C117.872 33.184 118.095 34.0892 118.554 34.8463C119.105 35.763 119.876 36.2214 120.871 36.2214C121.843 36.2214 122.609 35.7572 123.16 34.8231C123.633 34.0514 123.868 33.1347 123.868 32.0758ZM126.514 31.9946C126.514 33.7584 126.012 35.206 125.003 36.3403C123.947 37.5066 122.545 38.0868 120.799 38.0868C119.111 38.0868 117.77 37.5269 116.769 36.41C115.771 35.2931 115.272 33.8832 115.272 32.1832C115.272 30.4019 115.786 28.9456 116.819 27.8142C117.849 26.677 119.238 26.1113 120.985 26.1113C122.67 26.1113 124.028 26.6712 125.049 27.7881C126.027 28.8789 126.514 30.2772 126.514 31.9946Z" fill="white"/>
<path d="M134.805 28.5917C134.552 28.5453 134.286 28.5221 134.001 28.5221C133.105 28.5221 132.409 28.8615 131.921 29.5374C131.498 30.138 131.286 30.8922 131.286 31.8031V37.8286H128.736L128.756 29.9639C128.756 28.6381 128.724 27.4342 128.663 26.3463H130.886L130.978 28.5453H131.045C131.315 27.791 131.741 27.1818 132.322 26.7263C132.89 26.3173 133.505 26.1113 134.167 26.1113C134.402 26.1113 134.616 26.1287 134.805 26.1577" fill="white"/>
<path d="M143.778 30.8838C143.795 30.1295 143.63 29.4739 143.285 28.9227C142.844 28.2148 142.162 27.858 141.251 27.858C140.418 27.858 139.74 28.2061 139.22 28.8995C138.797 29.4507 138.541 30.1121 138.469 30.8838H143.778ZM146.209 31.5452C146.209 32.0036 146.18 32.3865 146.119 32.7027H138.469C138.495 33.837 138.866 34.7044 139.577 35.302C140.221 35.8387 141.057 36.1027 142.081 36.1027C143.212 36.1027 144.245 35.9229 145.176 35.5602L145.576 37.3328C144.488 37.8027 143.206 38.0435 141.724 38.0435C139.945 38.0435 138.547 37.5184 137.532 36.4683C136.519 35.4239 136.009 34.0169 136.009 32.2531C136.009 30.5211 136.479 29.0793 137.427 27.9305C138.417 26.7005 139.757 26.0884 141.44 26.0884C143.093 26.0884 144.349 26.7005 145.199 27.9305C145.875 28.9053 146.209 30.1121 146.209 31.5452Z" fill="white"/>
</svg>
