<svg width="10" height="8" viewBox="0 0 10 8" fill="none" xmlns="http://www.w3.org/2000/svg">
<path fill-rule="evenodd" clip-rule="evenodd" d="M5.0377 7.71221C4.74481 7.41932 4.74481 6.94445 5.0377 6.65155L7.68934 3.99992L5.0377 1.34828C4.74481 1.05538 4.74481 0.58051 5.0377 0.287617C5.3306 -0.00527633 5.80547 -0.00527629 6.09836 0.287617L9.28033 3.46959C9.42098 3.61024 9.5 3.801 9.5 3.99992C9.5 4.19883 9.42098 4.38959 9.28033 4.53025L6.09836 7.71221C5.80547 8.00511 5.33059 8.00511 5.0377 7.71221Z" fill="#7B5CE1"/>
<path fill-rule="evenodd" clip-rule="evenodd" d="M9.5 4C9.5 4.41421 9.16421 4.75 8.75 4.75L1.25 4.75C0.835786 4.75 0.5 4.41421 0.5 4C0.5 3.58579 0.835786 3.25 1.25 3.25L8.75 3.25C9.16421 3.25 9.5 3.58579 9.5 4Z" fill="#7B5CE1"/>
</svg>
