<svg width="22" height="22" viewBox="0 0 22 22" fill="none" xmlns="http://www.w3.org/2000/svg">
<path d="M10.9997 14.6668C13.0247 14.6668 14.6663 13.0252 14.6663 11.0002C14.6663 8.97512 13.0247 7.3335 10.9997 7.3335C8.97463 7.3335 7.33301 8.97512 7.33301 11.0002C7.33301 13.0252 8.97463 14.6668 10.9997 14.6668Z" stroke="#FF6D67" stroke-width="2" stroke-linecap="round" stroke-linejoin="round"/>
<path d="M14.6664 7.33341V11.9167C14.6664 12.6461 14.9561 13.3456 15.4718 13.8613C15.9875 14.377 16.687 14.6667 17.4164 14.6667C18.1457 14.6667 18.8452 14.377 19.3609 13.8613C19.8766 13.3456 20.1664 12.6461 20.1664 11.9167V11.0001C20.1662 8.93119 19.4662 6.92319 18.1802 5.30257C16.8941 3.68195 15.0977 2.54404 13.0829 2.07385C11.0682 1.60367 8.95362 1.82887 7.08309 2.71284C5.21255 3.5968 3.69605 5.08754 2.78017 6.94266C1.86429 8.79778 1.6029 10.9082 2.0385 12.9307C2.47411 14.9532 3.58108 16.7689 5.17943 18.0825C6.77778 19.3961 8.7735 20.1304 10.8421 20.166C12.9107 20.2015 14.9304 19.5363 16.573 18.2784" stroke="#FF6D67" stroke-width="2" stroke-linecap="round" stroke-linejoin="round"/>
</svg>
