<svg width="104" height="102" viewBox="0 0 104 102" fill="none" xmlns="http://www.w3.org/2000/svg">
<rect width="103.962" height="102" rx="51" fill="#FF6D67"/>
<path d="M53.8206 59.1641H49.3346V56.559C49.3346 54.9619 49.7978 53.5818 50.7243 52.4189C51.2931 51.7211 52.1627 50.845 53.333 49.7906C53.5605 49.6045 53.9588 49.2711 54.5277 48.7904C56.982 46.6971 58.2254 44.6037 58.2579 42.5104C58.2579 40.2775 57.242 38.6881 55.2103 37.7422L53.6743 37.2538C53.1054 37.1297 52.5041 37.0677 51.8702 37.0677C49.1395 37.0677 47.2785 37.9903 46.287 39.8356C45.7181 40.921 45.4336 42.4794 45.4336 44.5107H41.1914C41.1914 41.1613 41.9391 38.564 43.4344 36.7188C44.946 34.8736 47.1972 33.7881 50.1879 33.4625C50.8218 33.385 51.4719 33.3462 52.1383 33.3462C56.3318 33.3462 59.355 34.6642 61.208 37.3003L62.0125 38.7424C62.5164 39.8898 62.7683 41.1458 62.7683 42.5104C62.7683 44.7278 61.915 46.7746 60.2084 48.6508C59.5745 49.3796 58.7618 50.1705 57.7703 51.0233C55.6735 52.8685 54.4545 54.2176 54.1132 55.0704C53.9181 55.5511 53.8206 56.1714 53.8206 56.9312V59.1641ZM53.8206 63.6996V68.6539H49.3346V63.6996H53.8206Z" fill="white"/>
</svg>
