<svg width="14" height="15" viewBox="0 0 14 15" fill="none" xmlns="http://www.w3.org/2000/svg">
<path fill-rule="evenodd" clip-rule="evenodd" d="M0.5 2.85421C0.5 2.2559 0.985025 1.77087 1.58333 1.77087H12.4167C13.015 1.77087 13.5 2.2559 13.5 2.85421V13.6875C13.5 14.2859 13.015 14.7709 12.4167 14.7709H1.58333C0.985025 14.7709 0.5 14.2859 0.5 13.6875V2.85421ZM12.4167 2.85421H1.58333V13.6875H12.4167V2.85421Z" fill="#7B5CE1"/>
<path fill-rule="evenodd" clip-rule="evenodd" d="M10.2497 0.6875C10.5488 0.6875 10.7913 0.930012 10.7913 1.22917V3.39583C10.7913 3.69499 10.5488 3.9375 10.2497 3.9375C9.95052 3.9375 9.70801 3.69499 9.70801 3.39583V1.22917C9.70801 0.930012 9.95052 0.6875 10.2497 0.6875Z" fill="#7B5CE1"/>
<path fill-rule="evenodd" clip-rule="evenodd" d="M3.74967 0.6875C4.04883 0.6875 4.29134 0.930012 4.29134 1.22917V3.39583C4.29134 3.69499 4.04883 3.9375 3.74967 3.9375C3.45052 3.9375 3.20801 3.69499 3.20801 3.39583V1.22917C3.20801 0.930012 3.45052 0.6875 3.74967 0.6875Z" fill="#7B5CE1"/>
<path fill-rule="evenodd" clip-rule="evenodd" d="M0.5 5.56254C0.5 5.26339 0.742512 5.02087 1.04167 5.02087H12.9583C13.2575 5.02087 13.5 5.26339 13.5 5.56254C13.5 5.86169 13.2575 6.10421 12.9583 6.10421H1.04167C0.742512 6.10421 0.5 5.86169 0.5 5.56254Z" fill="#7B5CE1"/>
</svg>
