<svg width="12" height="12" viewBox="0 0 12 12" fill="none" xmlns="http://www.w3.org/2000/svg">
<path d="M10.8569 0.54934C10.6803 0.375273 10.4702 0.237112 10.2387 0.142828C10.0073 0.0485428 9.75901 0 9.50826 0C9.25751 0 9.00924 0.0485428 8.77778 0.142828C8.54631 0.237112 8.33623 0.375273 8.15965 0.54934L5.70936 2.96363L3.25907 0.54934C2.9014 0.199633 2.41629 0.00317049 1.91046 0.00317049C1.40464 0.00317049 0.919529 0.199633 0.561855 0.54934C0.204182 0.899047 0.0032444 1.37335 0.0032444 1.86791C0.0032444 2.36247 0.204182 2.83678 0.561855 3.18648L3.03114 5.5822L0.561855 7.97791C0.383823 8.15056 0.242514 8.35596 0.146082 8.58227C0.0496494 8.80858 0 9.05132 0 9.29648C0 9.54165 0.0496494 9.78439 0.146082 10.0107C0.242514 10.237 0.383823 10.4424 0.561855 10.6151C0.738434 10.7891 0.948514 10.9273 1.17998 11.0216C1.41144 11.1159 1.65971 11.1644 1.91046 11.1644C2.16121 11.1644 2.40948 11.1159 2.64095 11.0216C2.87241 10.9273 3.08249 10.7891 3.25907 10.6151L5.70936 8.20077L8.15965 10.6151C8.33623 10.7891 8.54631 10.9273 8.77778 11.0216C9.00924 11.1159 9.25751 11.1644 9.50826 11.1644C9.75901 11.1644 10.0073 11.1159 10.2387 11.0216C10.4702 10.9273 10.6803 10.7891 10.8569 10.6151C11.0349 10.4424 11.1762 10.237 11.2726 10.0107C11.3691 9.78439 11.4187 9.54165 11.4187 9.29648C11.4187 9.05132 11.3691 8.80858 11.2726 8.58227C11.1762 8.35596 11.0349 8.15056 10.8569 7.97791L8.38759 5.5822L10.8569 3.18648C11.0349 3.01384 11.1762 2.80844 11.2726 2.58213C11.3691 2.35582 11.4187 2.11308 11.4187 1.86791C11.4187 1.62275 11.3691 1.38001 11.2726 1.1537C11.1762 0.927387 11.0349 0.721985 10.8569 0.54934Z" fill="black"/>
</svg>
