<svg width="23" height="23" viewBox="0 0 23 23" fill="none" xmlns="http://www.w3.org/2000/svg">
<path fill-rule="evenodd" clip-rule="evenodd" d="M21.0772 1.1656C21.7209 1.80926 21.7209 2.85285 21.0772 3.49651L3.62971 20.944C2.98605 21.5877 1.94246 21.5877 1.2988 20.944C0.655138 20.3004 0.655139 19.2568 1.2988 18.6131L18.7463 1.1656C19.39 0.521937 20.4336 0.521937 21.0772 1.1656Z" fill="#7B5CE1"/>
<path fill-rule="evenodd" clip-rule="evenodd" d="M20.9438 20.9439C20.3001 21.5876 19.2565 21.5876 18.6129 20.9439L1.16535 3.49641C0.521691 2.85275 0.52169 1.80916 1.16535 1.1655C1.80902 0.521839 2.8526 0.52184 3.49626 1.1655L20.9438 18.613C21.5874 19.2567 21.5874 20.3003 20.9438 20.9439Z" fill="#7B5CE1"/>
</svg>
