<svg width="44" height="44" viewBox="0 0 44 44" fill="none" xmlns="http://www.w3.org/2000/svg">
<circle cx="22" cy="22" r="22" fill="#282141"/>
<path d="M32 17.82C32.0048 17.7568 32.0048 17.6933 32 17.63V17.63L30 12.63C29.9219 12.4324 29.7828 12.2647 29.603 12.1515C29.4232 12.0382 29.212 11.9851 29 12H15C14.7997 11.9998 14.604 12.0598 14.4382 12.1721C14.2724 12.2844 14.1441 12.4439 14.07 12.63L12.07 17.63C12.0652 17.6933 12.0652 17.7568 12.07 17.82C12.0368 17.8757 12.0131 17.9365 12 18V18C12.0111 18.6913 12.2012 19.3678 12.5517 19.9637C12.9023 20.5596 13.4012 21.0544 14 21.4V31C14 31.2652 14.1054 31.5196 14.2929 31.7071C14.4804 31.8947 14.7348 32 15 32H29C29.2652 32 29.5196 31.8947 29.7071 31.7071C29.8946 31.5196 30 31.2652 30 31V21.44C30.6046 21.091 31.1072 20.5898 31.4581 19.9863C31.809 19.3829 31.9958 18.6981 32 18V18C32.0094 17.9404 32.0094 17.8796 32 17.82V17.82ZM23 30H21V26H23V30ZM28 30H25V25C25 24.7348 24.8946 24.4804 24.7071 24.2929C24.5196 24.1054 24.2652 24 24 24H20C19.7348 24 19.4804 24.1054 19.2929 24.2929C19.1054 24.4804 19 24.7348 19 25V30H16V22C16.5695 21.9968 17.1317 21.872 17.6491 21.634C18.1664 21.396 18.627 21.0503 19 20.62C19.3754 21.0456 19.837 21.3865 20.3542 21.62C20.8715 21.8535 21.4325 21.9743 22 21.9743C22.5675 21.9743 23.1285 21.8535 23.6458 21.62C24.163 21.3865 24.6246 21.0456 25 20.62C25.373 21.0503 25.8336 21.396 26.3509 21.634C26.8683 21.872 27.4305 21.9968 28 22V30ZM28 20C27.4696 20 26.9609 19.7893 26.5858 19.4142C26.2107 19.0392 26 18.5304 26 18C26 17.7348 25.8946 17.4804 25.7071 17.2929C25.5196 17.1054 25.2652 17 25 17C24.7348 17 24.4804 17.1054 24.2929 17.2929C24.1054 17.4804 24 17.7348 24 18C24 18.5304 23.7893 19.0392 23.4142 19.4142C23.0391 19.7893 22.5304 20 22 20C21.4696 20 20.9609 19.7893 20.5858 19.4142C20.2107 19.0392 20 18.5304 20 18C20 17.7348 19.8946 17.4804 19.7071 17.2929C19.5196 17.1054 19.2652 17 19 17C18.7348 17 18.4804 17.1054 18.2929 17.2929C18.1054 17.4804 18 17.7348 18 18C18.0098 18.2627 17.9679 18.5247 17.8765 18.7711C17.7851 19.0175 17.646 19.2435 17.4672 19.4362C17.2885 19.6289 17.0735 19.7845 16.8347 19.8941C16.5958 20.0037 16.3376 20.0652 16.075 20.075C15.5446 20.0949 15.028 19.9033 14.6388 19.5423C14.4461 19.3635 14.2906 19.1486 14.1809 18.9097C14.0713 18.6708 14.0098 18.4127 14 18.15L15.68 14H28.32L30 18.15C29.9621 18.654 29.7348 19.125 29.3637 19.4682C28.9927 19.8114 28.5054 20.0014 28 20V20Z" fill="#F8F7FE"/>
</svg>
