<svg width="126" height="219" viewBox="0 0 126 219" fill="none" xmlns="http://www.w3.org/2000/svg">
<ellipse rx="56.9656" ry="37.1102" transform="matrix(-1 0 0 1 68.1076 180.908)" fill="#E3E5EF"/>
<path d="M68.0214 202.587C93.8286 202.587 115.717 190.763 117.478 175.505C118.082 170.292 116.304 165.114 112.351 160.523C104.566 151.461 88.9261 145.454 71.5602 144.85C44.4756 143.918 20.9816 156.035 19.1346 171.898C18.5304 177.11 20.3084 182.288 24.2442 186.88C32.0295 195.942 47.6692 201.948 65.035 202.552C66.0535 202.57 67.0375 202.587 68.0214 202.587ZM68.5566 146.904C69.5232 146.904 70.5072 146.922 71.4911 146.956C88.2874 147.543 103.34 153.273 110.763 161.904C114.319 166.046 115.924 170.655 115.389 175.263C113.68 190.056 91.1356 201.361 65.1386 200.447C48.3424 199.86 33.2897 194.129 25.8669 185.499C22.3108 181.356 20.7054 176.748 21.2406 172.139C22.8805 157.899 43.8197 146.904 68.5566 146.904Z" fill="#C2EBFF"/>
<path d="M35.8271 185.672C37.3462 187.07 39.1587 188.382 41.213 189.538C47.5482 193.163 56.1103 195.527 65.7427 195.855C78.8102 196.304 90.773 192.938 98.3684 187.415C99.197 186.811 99.9566 186.207 100.682 185.534C100.975 185.275 101.268 184.981 101.545 184.705C104.445 181.84 106.24 178.578 106.672 175.039C107.155 170.707 105.48 166.599 102.166 163.06C102.08 162.957 101.976 162.853 101.873 162.75C100.768 161.61 99.4732 160.523 98.0232 159.522C91.5326 154.965 81.9002 151.944 70.8869 151.565C64.448 151.34 58.2681 152.031 52.7614 153.481C46.5297 155.086 41.1612 157.623 37.1908 160.799C36.1896 161.61 35.292 162.439 34.4807 163.285C31.9604 166.029 30.355 169.084 29.9752 172.364C29.4056 177.231 31.6324 181.84 35.8271 185.672Z" fill="#709EDB"/>
<path d="M56.887 33.0191L57.6638 31.6728L53.9696 31.224V31.2413C52.6922 31.086 51.2077 31.4139 49.6023 32.346C44.976 35.0214 41.2301 41.4941 41.2301 46.7931C41.2301 48.6917 41.7134 50.1762 42.542 51.1945V51.2118L42.6283 51.3154C42.6456 51.3499 42.6801 51.3671 42.6974 51.3844L44.9415 53.9044L45.6147 52.7307C46.8058 52.7825 48.1522 52.42 49.6023 51.5915C54.2286 48.9161 57.9745 42.4434 57.9745 37.1444C57.9572 35.4011 57.5775 34.0203 56.887 33.0191Z" fill="#BFC3D5"/>
<path d="M62.2729 33.7269L58.786 32.0526V32.0699C57.146 31.2586 54.9365 31.4485 52.5197 32.8639C47.4101 35.8154 43.2844 42.944 43.2844 48.7954C43.2844 51.6261 44.2511 53.6283 45.8392 54.6294V54.6467L48.5839 56.5626L49.378 55.2508C50.362 55.0955 51.4322 54.7157 52.537 54.0771C57.6467 51.1255 61.7723 43.9969 61.7723 38.1456C61.7723 37.0754 61.6342 36.1261 61.3753 35.2976L62.2729 33.7269Z" fill="#9AA0BC"/>
<path d="M51.2079 34.8831L59.9771 28.6693C59.9771 28.6693 63.1707 22.7489 65.0523 22.818C66.9339 22.9043 49.309 22.3174 51.2079 34.8831Z" fill="#9AA0BC"/>
<path d="M48.4982 56.1254C44.9097 54.0277 44.9456 47.2903 48.5784 41.0769C52.2113 34.8635 58.0653 31.5271 61.6537 33.6248C65.2422 35.7225 65.2063 42.4599 61.5735 48.6733C57.9407 54.8866 52.0867 58.2231 48.4982 56.1254Z" fill="#CFCFDA"/>
<path d="M45.9428 50.5731C45.9428 56.5625 50.1721 58.9617 55.3853 55.9584C60.5985 52.9551 64.8278 45.6538 64.8278 39.6644C64.8278 33.675 60.5985 31.2758 55.3853 34.2791C50.1721 37.2997 45.9428 44.5837 45.9428 50.5731Z" fill="#3D424C"/>
<path d="M65.0522 35.401L62.273 33.7267L48.3424 56.4071L51.1734 58.0641L65.0522 35.401Z" fill="#3D424C"/>
<path d="M48.3422 51.9539C48.3422 57.9434 52.5715 60.3426 57.7847 57.3392C62.9979 54.3359 67.2272 47.0347 67.2272 41.0453C67.2272 35.0558 62.9979 32.6566 57.7847 35.66C52.5715 38.6806 48.3422 45.9818 48.3422 51.9539Z" fill="#41464F"/>
<path d="M51.2077 50.6594C51.2077 54.9745 54.2632 56.7178 58.0091 54.543C61.7723 52.3681 64.8104 47.1209 64.8104 42.8058C64.8104 38.4906 61.755 36.7473 58.0091 38.9222C54.2632 41.097 51.2077 46.3442 51.2077 50.6594Z" fill="#3D424C"/>
<path d="M51.743 50.0033C51.743 53.8351 54.4532 55.3713 57.7849 53.4554C61.1165 51.5222 63.8267 46.8619 63.8267 43.03C63.8267 39.1982 61.1165 37.662 57.7849 39.5779C54.4532 41.4938 51.743 46.1714 51.743 50.0033Z" fill="#393842"/>
<path d="M53.4886 52.5507C51.4556 51.3624 51.4771 47.5436 53.5365 44.0214C55.5959 40.4991 58.9133 38.6071 60.9463 39.7954C62.9792 40.9838 62.9577 44.8025 60.8983 48.3248C58.839 51.8471 55.5215 53.7391 53.4886 52.5507Z" fill="#3D424C"/>
<path d="M77.6541 42.5469C77.6541 42.5469 84.0756 18.8654 97.6956 26.391C104.998 30.43 113.75 40.8209 102.236 63.5876C91.7919 84.1967 100.837 102.527 100.837 102.527C100.837 102.527 91.2568 95.8821 86.3888 91.3253C81.5208 86.7685 82.1768 86.0609 82.8155 71.9244C83.4369 57.8226 77.6541 42.5469 77.6541 42.5469Z" fill="url(#paint0_linear)"/>
<path d="M95.2096 45.8265C90.7559 48.3983 84.8177 46.4306 81.9521 41.4595C79.0866 36.4712 80.364 30.361 84.8004 27.7892C89.2541 25.2173 95.1923 27.1851 98.0578 32.1561C100.923 37.1444 99.646 43.2546 95.2096 45.8265Z" fill="white"/>
<path d="M30.614 135.547C30.6313 135.582 30.6486 135.599 30.6486 135.616C32.2194 139.88 35.0677 145.006 37.191 157.123C38.2267 162.888 39.0726 170.275 39.5386 179.924C39.6249 181.995 40.2809 183.963 41.2303 185.862C47.5656 189.486 56.1277 191.851 65.7601 192.179C78.8276 192.628 90.7904 189.262 98.3858 183.739C98.8174 181.098 99.9394 178.526 100.803 175.971C101.32 174.383 101.769 172.778 101.873 171.173C101.873 170.862 101.925 170.569 101.976 170.258C101.976 170.034 101.976 170.034 101.976 170.034C102.339 166.236 102.235 162.75 102.166 159.401C102.114 156.829 102.08 154.327 102.304 151.841C102.287 151.824 102.304 151.807 102.304 151.789C102.356 151.047 102.442 150.339 102.546 149.597C104.065 140.19 106.516 134.322 107.828 127.417C109.675 117.941 111.419 109.691 107.621 106.256C102.391 101.578 93.328 93.9491 86.7165 87.6145C82.4182 83.4892 80.5193 89.1679 80.5193 89.1679C80.5193 89.1679 66.8303 83.4029 55.092 84.8183C43.3363 86.1646 33.4796 106.377 29.8372 126.019C29.0432 130.127 29.5438 132.63 30.614 135.547Z" fill="#FF5050"/>
<path d="M101.873 171.173C102.529 163.181 103.565 156.933 104.6 150.132C106.12 140.725 108.674 134.719 110.539 127.935C112.955 119.184 113.663 111.52 107.621 106.256C102.339 101.647 95.2616 97.1596 89.6686 93.9664C89.893 94.6741 89.824 95.8133 90.6008 95.9859C92.4996 96.3829 101.752 101.716 104.998 105.307C112.161 113.246 104.307 120.099 99.9742 134.391C92.0853 160.351 84.5762 162.422 84.5762 162.422C84.5762 162.422 79.5011 177.87 101.873 171.173Z" fill="#DB4343"/>
<path d="M29.889 132.768C30.1479 133.717 30.3896 134.632 30.614 135.547C30.6312 135.581 30.6485 135.599 30.6485 135.616C32.8753 144.436 33.8765 152.031 34.4807 159.608C35.0158 166.305 35.154 167.306 35.6373 174.78C35.6373 174.78 35.6373 174.953 35.6373 175.16C35.6373 175.263 35.6373 175.367 35.6546 175.505C35.6546 175.626 35.6718 175.781 35.6891 175.937C35.7063 176.04 35.7236 176.178 35.7409 176.299C37.26 177.697 39.9184 183.566 41.9726 184.739C48.3078 188.364 56.1277 191.834 65.76 192.162C78.8276 192.61 90.7904 189.244 98.3858 183.721C99.2144 183.117 100.733 177.783 100.802 175.954C100.872 173.848 100.992 171.898 101.165 170.12C101.614 165.528 101.769 162.076 101.873 159.073C101.959 156.449 102.028 154.171 102.304 151.824C102.287 151.806 102.304 151.789 102.304 151.772C102.373 151.047 102.477 150.339 102.598 149.58H102.546C102.546 149.58 101.251 152.687 98.0233 155.845C94.45 159.366 88.4945 162.974 79.3109 162.56C73.062 162.283 71.9227 160.696 57.8194 155.707C57.5604 155.655 57.336 155.535 57.1116 155.483C55.6961 154.93 54.6086 154.516 53.9008 154.24C53.9008 154.24 53.9008 154.24 53.849 154.24C53.78 154.24 53.7282 154.188 53.7282 154.188C53.6937 154.188 53.3139 152.393 52.7615 149.804C51.2769 142.814 48.6013 129.885 48.5668 129.885C41.7136 127.21 29.7336 120.616 29.889 132.768Z" fill="#DB4343"/>
<path d="M35.62 174.78C35.62 174.78 35.62 174.953 35.62 175.16C35.62 175.263 35.62 175.367 35.6372 175.505C35.6372 175.626 35.6545 175.781 35.6717 175.937C35.689 176.04 35.7063 176.178 35.7235 176.299C35.62 180.407 38.2611 183.842 41.2129 185.844C47.272 189.918 54.8847 192.317 64.5171 192.645C77.5846 193.094 90.0307 190.453 98.3684 183.721C99.1625 183.082 101.51 180.148 101.614 177.801C101.924 169.636 101.907 170.758 101.959 170.223C101.959 169.999 101.959 169.999 101.959 169.999L101.148 170.103L39.5212 179.889L35.62 174.78Z" fill="#FF5050"/>
<path d="M62.4803 87.8042C62.3594 88.6154 56.4385 92.6889 51.4842 101.043C46.5299 109.397 42.3007 134.632 42.3007 134.632L44.959 167.203L49.4472 187.173L64.2928 156.588L75.0127 123.896L88.0112 101.06L80.9682 93.8281L62.4803 87.8042Z" fill="#DDE8F6"/>
<path d="M49.4475 187.191C49.3267 184.86 48.688 143.521 49.8273 136.324C50.9666 129.126 59.9948 102.027 60.4436 100.87L64.5002 102.441C64.3967 102.717 55.1786 130.248 54.1083 137.014C53.2107 142.624 52.4857 162.128 53.2797 177.853L49.4475 187.191Z" fill="#F7FBFF"/>
<path d="M86.0949 72.3042C83.074 81.0036 82.9014 83.5236 82.4871 94.346C82.2109 101.026 76.8768 103.977 71.3701 104.564C67.9522 104.927 64.845 102.735 62.48 101.63C56.3001 98.6956 58.596 95.5542 59.252 92.8788C59.5455 91.7051 59.3383 88.8226 59.0103 85.9573C58.596 82.3499 57.9918 78.7769 57.9918 78.7769L74.1321 62.0342C74.1494 62.0687 89.0985 63.6049 86.0949 72.3042Z" fill="#FEBFBF"/>
<path d="M61.8416 94.2424C61.4964 94.0697 61.1857 93.8454 60.8922 93.621C60.7023 93.4656 59.3041 92.5508 59.3386 92.3609C59.494 90.9974 59.3213 88.5118 59.0279 85.9745L64.3101 81.9701L77.2741 73.2708L84.7314 74.876C84.7314 74.876 82.1248 85.0425 75.0646 89.2886C72.9585 90.5486 70.749 91.636 68.4704 92.5681C66.7786 93.2585 65.0179 93.9834 63.2399 94.415C62.9292 94.484 62.653 94.5185 62.3422 94.4322C62.1696 94.3977 61.997 94.3287 61.8416 94.2424Z" fill="url(#paint1_linear)"/>
<path d="M59.6494 89.7718C59.6494 89.7718 58.8035 92.4472 58.9762 93.9316C59.1488 95.416 59.6667 99.5068 62.4977 101.647C59.6667 105.237 54.885 106.877 53.0725 106.687C54.5743 101.164 55.1612 95.9511 55.8172 91.6187C56.4386 87.2863 60.7887 86.6304 59.6494 89.7718Z" fill="white"/>
<path d="M56.4039 87.8043C56.4039 87.8043 52.7443 86.061 45.8394 99.7314C43.3191 104.737 41.8 107.619 41.8 107.619L44.1304 115.956L38.7101 118.079C38.7101 118.079 33.2034 135.668 49.4472 187.173C49.4472 187.173 42.9048 138.999 44.6828 129.972C46.4436 120.945 54.4878 100.232 54.4878 100.232L56.4039 87.8043Z" fill="#6A7273"/>
<path d="M68.7465 25.6488C68.7465 25.6488 53.4176 28.8766 49.43 40.5965C45.4424 52.3164 45.0799 68.8176 46.8925 76.464C48.6877 84.1104 50.4658 90.5831 53.9528 91.7396C57.4225 92.8961 77.2741 88.9089 84.4898 75.3766C91.7054 61.8443 98.5068 49.4684 93.0001 36.9027C89.0988 28.0999 76.4628 23.7157 68.7465 25.6488Z" fill="#FEC7C7"/>
<path d="M98.5068 36.2642C95.1925 28.7558 88.5465 27.5648 88.5465 27.5648C88.5465 27.5648 85.3184 23.6985 75.1854 23.6812C65.6221 23.6639 55.5582 29.5843 51.795 33.8995C47.842 38.439 48.8087 42.547 48.8087 42.547C48.8087 42.547 50.6212 38.2491 51.2254 39.4401C52.4855 41.9256 52.1921 43.2892 55.6445 45.1188C62.8947 48.9507 70.8526 46.1717 76.1176 48.4329C77.2915 48.9334 78.1373 50.4523 77.6885 53.8872C76.7563 60.8777 78.379 63.1389 81.4862 62.0514C86.4923 60.3081 86.2678 61.3956 88.7191 64.7786C87.8042 67.9718 85.0767 72.5631 83.9202 79.5364C83.9202 79.5364 90.9114 71.3894 95.8139 62.7419C98.0062 57.5464 104.152 51.1428 98.5068 36.2642Z" fill="#FD635E"/>
<path d="M81.8658 62.9315C81.8658 62.9315 84.0236 58.3747 88.9434 59.7038C93.8631 61.0501 92.931 66.6598 87.6487 71.6826C82.3664 76.7054 81.0718 70.7851 80.8128 70.3881C80.5711 70.0083 83.1432 66.4009 81.8658 62.9315Z" fill="url(#paint2_linear)"/>
<path d="M77.2742 57.8398C77.2742 57.8398 78.5861 63.2769 77.9992 68.0408C77.4123 72.8048 79.1385 77.9484 79.1385 77.9484C79.1385 77.9484 78.1891 71.7691 79.1385 68.2307C80.088 64.6923 82.7291 62.4139 82.4529 60.4807C82.1767 58.5303 77.2742 57.8398 77.2742 57.8398Z" fill="#FF6D67"/>
<path d="M86.6994 97.2113C86.6994 97.2113 84.2999 100.404 79.4665 110.554C73.511 123.068 59.7011 147.785 58.4927 155.034C57.2844 162.301 48.6187 188.123 48.6187 188.123C48.6187 188.123 49.9479 189.193 51.139 187.173C58.4927 174.694 76.1176 143.763 79.1902 136.634C75.8414 133.131 74.3223 131.732 74.3223 131.732L82.9189 125.898C82.9189 125.898 87.4589 112.504 93.915 104.115C97.5919 99.3516 92.1025 93.155 92.1025 93.155L86.4922 86.3198L86.6994 97.2113Z" fill="#6A7273"/>
<path d="M82.9017 85.1635L82.332 89.7893C82.332 89.7893 77.4123 101.906 62.4976 101.63C62.1869 103.943 62.4976 110.519 64.828 112.452C74.3396 108.845 85.4047 101.647 87.6143 95.3127C87.8732 94.5705 86.5095 86.32 86.5095 86.32L83.2124 83.3684L82.9017 85.1635Z" fill="white"/>
<path d="M79.1899 70.0947C79.1899 76.0841 83.4191 78.4833 88.6323 75.48C93.8456 72.4766 98.0748 65.1754 98.0748 59.186C98.0748 53.1966 93.8456 50.7974 88.6323 53.8007C83.4191 56.804 79.1899 64.1053 79.1899 70.0947Z" fill="#3D424C"/>
<path d="M97.0394 54.0768L95.3822 53.162L81.745 76.015L85.8189 78.2761L98.6102 54.9571L97.0394 54.0768Z" fill="#3D424C"/>
<path d="M82.1764 71.769C82.1764 77.7584 86.4057 80.1576 91.6189 77.1543C96.8321 74.151 101.061 66.8497 101.061 60.8603C101.061 54.8709 96.8321 52.4717 91.6189 55.475C86.4057 58.4956 82.1764 65.7796 82.1764 71.769Z" fill="#464B54"/>
<path d="M82.6598 72.0106C82.6598 78 86.8891 80.3992 92.1023 77.3959C97.3155 74.3925 101.545 67.0913 101.545 61.1019C101.545 55.1125 97.3155 52.7133 92.1023 55.7166C86.8891 58.7372 82.6598 66.0212 82.6598 72.0106Z" fill="#41464F"/>
<path d="M101.666 57.0631L99.4214 55.8721H99.4042C97.7125 54.5948 95.2094 54.6121 92.4129 56.2173C87.3033 59.1689 83.1776 66.2975 83.1776 72.1488C83.1776 75.3593 84.4205 77.5169 86.3884 78.3281V78.3454L88.6325 79.6226L89.2194 78.6215C90.2206 78.4662 91.2909 78.0865 92.4129 77.4478C97.5226 74.4963 101.648 67.3676 101.648 61.5163C101.648 60.2045 101.424 59.0653 101.044 58.1332L101.666 57.0631Z" fill="#9AA0BC"/>
<path d="M105.74 62.4998L103.254 58.7716C103.15 58.5817 103.012 58.3918 102.891 58.2192L102.805 58.0811C102.805 58.0811 102.805 58.0811 102.788 58.0811C101.148 56.0616 98.2649 55.7509 94.9851 57.6496C89.8754 60.6012 85.7498 67.7298 85.7498 73.5811C85.7498 76.8606 87.0444 79.0355 89.0814 79.8122H89.0986C89.4094 79.933 89.7546 80.0021 90.0999 80.0538L93.0517 80.7615L94.0357 79.3461C94.3464 79.2081 94.6571 79.0355 94.9851 78.8456C99.5251 76.222 103.288 70.2843 104.065 64.8818L105.74 62.4998Z" fill="#BFC3D5"/>
<path d="M89.3919 74.9278C89.3919 80.244 93.1378 82.3843 97.7641 79.7089C102.39 77.0335 106.136 70.5608 106.136 65.2618C106.136 59.9456 102.39 57.8053 97.7641 60.4807C93.1551 63.156 89.3919 69.6288 89.3919 74.9278Z" fill="#E8E7EC"/>
<path d="M90.7902 74.1165C90.7902 78.5352 93.9147 80.3303 97.7815 78.1037C101.631 75.8771 104.773 70.4918 104.773 66.0558C104.773 61.6198 101.648 59.842 97.7815 62.0686C93.932 64.3125 90.7902 69.6978 90.7902 74.1165Z" fill="#99A0BB"/>
<path d="M91.5325 73.7021C91.5325 77.672 94.329 79.26 97.7814 77.275C101.234 75.2728 104.03 70.4571 104.03 66.4872C104.03 62.5173 101.234 60.9293 97.7814 62.9142C94.329 64.9165 91.5325 69.7494 91.5325 73.7021Z" fill="#E8E7EC"/>
<path d="M93.811 66.8496C93.4485 67.4019 93.1205 67.9715 92.8443 68.5584L97.7813 70.3017L100.992 74.3925C101.579 73.633 102.114 72.8218 102.563 71.9587L97.7813 70.0946L93.811 66.8496Z" fill="#EFEEF2"/>
<path d="M100.267 62.0685L97.7815 70.0947L92.3094 76.7228C92.9308 77.6376 93.863 78.1381 95.0023 78.1209L97.7815 70.3018L103.288 63.5184C102.632 62.4828 101.562 61.965 100.267 62.0685Z" fill="#F9F9FA"/>
<path d="M104.03 66.1766C104.013 65.5035 103.892 64.9166 103.72 64.3988L97.7814 70.0948L91.5325 73.6677C91.5325 73.685 91.5325 73.685 91.5325 73.7022C91.5325 74.3064 91.6015 74.8414 91.7224 75.3247L97.7987 70.1466L104.03 66.1766Z" fill="#CFCFDA"/>
<path d="M98.2823 54.8881C98.2995 54.6637 100.112 32.691 79.9497 22.1966C72.9412 18.5546 67.3137 17.8987 63.2053 20.2289C62.9981 20.3497 62.7737 20.4705 62.5838 20.6086C62.3939 20.7294 55.7997 24.0435 55.6271 24.1815C51.0699 27.6854 52.6753 27.8753 57.4397 25.1827C60.9784 23.1977 64.6553 22.6454 71.0596 25.9766C90.0827 35.867 90.7386 58.6337 90.7214 58.8408L98.2823 54.8881Z" fill="#D6D6FF"/>
<path d="M49.4297 35.2456L50.6036 35.3146C50.8625 34.9867 51.1214 34.6415 51.4322 34.3135C51.7774 32.2768 52.934 27.8235 56.5591 25.7868C60.0806 23.7846 65.1212 24.475 71.5082 27.8063C90.5486 37.6966 88.8741 58.4438 88.8569 58.6509L90.7212 58.8235C90.7384 58.5991 92.551 36.6264 72.3714 26.132C65.3801 22.5073 59.7353 21.8341 55.6442 24.147C49.9649 27.3748 49.447 34.9349 49.4297 35.2456Z" fill="#8990B0"/>
<path d="M48.4287 83.489L49.1019 82.3153C44.8209 79.847 37.8642 75.1176 37.5017 72.891C37.1219 70.6126 42.7667 60.2562 46.4263 54.2496L45.2697 53.5419C44.2685 55.1816 35.5855 69.5942 36.1725 73.1154C36.7594 76.7056 47.2376 82.7986 48.4287 83.489Z" fill="#8990B0"/>
<path d="M43.3708 81.2451C43.388 80.175 44.1476 78.8977 45.0625 78.3971C45.494 78.1555 45.8911 78.121 46.1845 78.2763C46.2018 78.2936 46.2191 78.2936 46.2536 78.3108L51.1733 81.1761L48.7911 85.2151L43.8887 82.3671C43.5779 82.2117 43.3708 81.8147 43.3708 81.2451Z" fill="#3D424C"/>
<path d="M48.2904 84.1104C48.3077 83.0403 49.0672 81.763 49.9821 81.2625C50.897 80.7446 51.6393 81.1934 51.622 82.2636C51.6048 83.3165 50.8452 84.5937 49.9303 85.1116C49.0154 85.6121 48.2731 85.1633 48.2904 84.1104Z" fill="#3D424C"/>
<path opacity="0.26" d="M116.256 36.1921V177.573C116.256 180.957 113.097 185.686 113.097 185.686C110.577 189.086 107.003 192.141 102.481 194.748C92.8827 200.271 80.3157 203.05 67.7488 203.05C55.3027 203.05 42.8911 200.323 33.4313 194.869C24.2996 189.604 19.2072 182.562 19.0173 175.002H19.0001V174.605V174.587C19.0001 174.587 19.0001 174.57 19.0001 174.553V35.9159C19.0001 35.8987 19.0001 35.8987 19.0001 35.8814C19.0001 35.2428 19.0346 34.6214 19.1036 34L20.5882 35.8814V35.9159C20.6054 42.7511 25.0764 49.2066 33.2242 54.1949L34.8123 55.1269C53.4038 65.4833 83.1985 65.3107 101.652 54.6609C106.002 52.1409 109.403 49.2411 111.768 46.0306L116.256 36.1921Z" fill="url(#paint3_linear)"/>
<path d="M62.4799 155.466C63.5502 155.466 64.4133 156.329 64.4133 157.399V176.351C64.4133 177.421 63.5502 178.284 62.4799 178.284C61.4097 178.284 60.5466 177.421 60.5466 176.351V157.399C60.5638 156.329 61.4269 155.466 62.4799 155.466Z" fill="#60A5D4"/>
<path d="M28.5427 154.24C29.613 154.24 30.4761 155.103 30.4761 156.173V166.875C30.4761 167.945 29.613 168.808 28.5427 168.808C27.4724 168.808 26.6093 167.945 26.6093 166.875V156.173C26.6093 155.103 27.4724 154.24 28.5427 154.24Z" fill="#60A5D4"/>
<path d="M42.2661 177.853C43.3363 177.853 44.1995 178.716 44.1995 179.786V186.397C44.1995 187.467 43.3363 188.33 42.2661 188.33C41.1958 188.33 40.3327 187.467 40.3327 186.397V179.786C40.3327 178.716 41.1958 177.853 42.2661 177.853Z" fill="#60A5D4"/>
<path d="M111.436 152.307C112.506 152.307 113.37 153.17 113.37 154.24V164.942C113.37 166.012 112.506 166.875 111.436 166.875C110.366 166.875 109.503 166.012 109.503 164.942V154.24C109.52 153.17 110.383 152.307 111.436 152.307Z" fill="#60A5D4"/>
<path d="M92.3613 177.853C93.4316 177.853 94.2947 178.716 94.2947 179.786V190.487C94.2947 191.557 93.4316 192.42 92.3613 192.42C91.291 192.42 90.4279 191.557 90.4279 190.487V179.786C90.4279 178.716 91.291 177.853 92.3613 177.853Z" fill="#60A5D4"/>
<path d="M84.0581 151.668C85.1283 151.668 85.9915 152.531 85.9915 153.601V157.986C85.9915 159.056 85.1283 159.919 84.0581 159.919C82.9878 159.919 82.1247 159.056 82.1247 157.986V153.601C82.142 152.549 83.0051 151.668 84.0581 151.668Z" fill="#60A5D4"/>
<path d="M28.5427 144.885C29.613 144.885 30.4761 145.748 30.4761 146.818V148.043C30.4761 149.114 29.613 149.977 28.5427 149.977C27.4724 149.977 26.6093 149.114 26.6093 148.043V146.818C26.6093 145.748 27.4724 144.885 28.5427 144.885Z" fill="#60A5D4"/>
<path d="M111.436 168.791C112.506 168.791 113.37 169.654 113.37 170.724V171.95C113.37 173.02 112.506 173.883 111.436 173.883C110.366 173.883 109.503 173.02 109.503 171.95V170.724C109.52 169.654 110.383 168.791 111.436 168.791Z" fill="#60A5D4"/>
<path d="M62.3938 183.082C63.464 183.082 64.3271 183.945 64.3271 185.016V186.241C64.3271 187.311 63.464 188.174 62.3938 188.174C61.3235 188.174 60.4604 187.311 60.4604 186.241V185.016C60.4604 183.945 61.3235 183.082 62.3938 183.082Z" fill="#60A5D4"/>
<path d="M24.7028 45.1536L28.6064 63.5324L25.4892 65.3997L17.8645 41.798L24.7028 45.1536Z" fill="#A9AEBF"/>
<path d="M9.66401 40.1131L22.3577 50.3345C23.4811 50.9803 24.2814 53.1706 24.2814 53.1706C24.2814 53.1706 29.0697 50.4047 29.0978 50.3907C29.7577 49.829 30.1649 48.776 30.1649 47.386V18.0277C30.1649 15.0933 28.3816 11.6675 26.1771 10.3898L9.07426 0.477356C8.04921 -0.112337 7.10841 -0.140418 6.39229 0.308872C6.26591 0.393114 1.96915 2.79401 1.85682 2.90633C1.26706 3.49602 4.39836 4.80177 4.39836 6.12156L5.66212 32.4893C5.66212 35.4237 7.45946 38.8495 9.66401 40.1131Z" fill="#B7BBC9"/>
<path d="M4.59513 43.0474L21.6979 52.9739C23.9025 54.2516 25.6858 52.8897 25.6858 49.9553V20.583C25.6858 17.6485 23.9025 14.2227 21.6979 12.945L4.59513 3.01852C2.39058 1.74086 0.607292 3.10277 0.607292 6.03719V35.3955C0.607292 38.358 2.39058 41.7698 4.59513 43.0474Z" fill="#E1E1E7"/>
<path d="M22.2595 52.5669C23.4671 52.5669 24.2394 51.3735 24.2394 49.5342V21.0324C24.2394 18.3085 22.5825 15.1354 20.5604 13.956L4.20185 4.46479C3.72443 4.18398 3.26105 4.04358 2.8398 4.04358C1.64626 4.04358 0.859925 5.23701 0.859925 7.07629V35.5781C0.859925 38.3019 2.51684 41.475 4.53885 42.6544L20.8974 52.1457C21.3749 52.4405 21.8382 52.5669 22.2595 52.5669Z" fill="#EFF0F5"/>
<path d="M16.3358 17.7307C15.9159 19.0436 14.5478 20.2825 13.2881 20.5044C12.0283 20.7171 11.3375 19.8295 11.7574 18.5166C12.1773 17.2037 13.5454 15.9648 14.8052 15.7429C16.0649 15.5302 16.7558 16.4178 16.3358 17.7307Z" fill="#709EDB"/>
<path d="M14.2347 32.898C13.7635 33.9868 12.942 35.3707 11.7942 35.4724C11.5405 35.4928 11.3834 35.4114 11.2747 35.2689C11.0452 35.0145 11.1297 34.2615 11.323 33.4169L12.4587 29.1839L14.1622 22.8444C14.4643 21.7353 13.0628 21.603 12.1446 22.529L11.7096 22.9665L8.66508 26.3041L9.25708 26.8231L11.2505 24.6455L9.71617 30.3846L8.45968 35.0552C7.51732 38.23 9.3054 38.4132 9.64369 38.4437C9.98197 38.4844 10.3444 38.4132 10.6706 38.3012C12.9661 37.4363 14.2226 35.4317 15.0804 32.7962L14.2347 32.898Z" fill="#709EDB"/>
<path d="M21.5855 47.0211L25.4891 65.3998L13.9047 44.1569L21.5855 47.0211Z" fill="#EFF0F5"/>
<defs>
<linearGradient id="paint0_linear" x1="96.9861" y1="89.1405" x2="90.8226" y2="21.8474" gradientUnits="userSpaceOnUse">
<stop offset="0.1224" stop-color="#F7413E"/>
<stop offset="0.9896" stop-color="#FF6D67"/>
</linearGradient>
<linearGradient id="paint1_linear" x1="68.1303" y1="83.6861" x2="88.9061" y2="85.9814" gradientUnits="userSpaceOnUse">
<stop offset="0.1224" stop-color="#FCA4B5"/>
<stop offset="0.9896" stop-color="#FFADB7"/>
</linearGradient>
<linearGradient id="paint2_linear" x1="79.4948" y1="69.2019" x2="95.1365" y2="62.1351" gradientUnits="userSpaceOnUse">
<stop offset="0.1224" stop-color="#FEB9B8"/>
<stop offset="1" stop-color="#FFDEDE"/>
</linearGradient>
<linearGradient id="paint3_linear" x1="67.6352" y1="67.3181" x2="67.6352" y2="203.344" gradientUnits="userSpaceOnUse">
<stop stop-color="white"/>
<stop offset="0.1109" stop-color="#D5EDFF"/>
<stop offset="0.2956" stop-color="#95D3FF"/>
<stop offset="0.4723" stop-color="#60BCFF"/>
<stop offset="0.6357" stop-color="#36ABFF"/>
<stop offset="0.7832" stop-color="#199EFF"/>
<stop offset="0.9095" stop-color="#0697FF"/>
<stop offset="1" stop-color="#0094FF"/>
</linearGradient>
</defs>
</svg>
