<svg width="16" height="4" viewBox="0 0 16 4" fill="none" xmlns="http://www.w3.org/2000/svg">
<path d="M8 1.31924e-06C7.58979 1.30131e-06 7.18879 0.1173 6.84771 0.337062C6.50663 0.556825 6.24079 0.869182 6.08381 1.23463C5.92682 1.60009 5.88575 2.00222 5.96578 2.39018C6.04581 2.77814 6.24334 3.13451 6.53341 3.41421C6.82347 3.69392 7.19304 3.8844 7.59537 3.96157C7.9977 4.03874 8.41473 3.99913 8.79371 3.84776C9.1727 3.69638 9.49663 3.44004 9.72453 3.11114C9.95243 2.78224 10.0741 2.39556 10.0741 2C10.0735 1.46973 9.85483 0.96133 9.46598 0.586372C9.07714 0.211415 8.54991 0.000530871 8 1.31924e-06ZM11.8519 2C11.8519 1.60444 11.9735 1.21776 12.2014 0.88886C12.4293 0.559962 12.7532 0.303618 13.1322 0.152243C13.5112 0.000867496 13.9282 -0.0387398 14.3306 0.0384309C14.7329 0.115601 15.1025 0.306082 15.3925 0.585787C15.6826 0.865492 15.8801 1.22186 15.9601 1.60982C16.0402 1.99778 15.9991 2.39991 15.8421 2.76537C15.6851 3.13082 15.4193 3.44318 15.0782 3.66294C14.7371 3.8827 14.3361 4 13.9259 4C13.376 3.99947 12.8488 3.78859 12.4599 3.41363C12.0711 3.03867 11.8524 2.53027 11.8519 2ZM4.14815 2C4.14815 2.39556 4.02651 2.78224 3.7986 3.11114C3.5707 3.44004 3.24678 3.69638 2.86779 3.84776C2.4888 3.99913 2.07177 4.03874 1.66944 3.96157C1.26711 3.8844 0.897547 3.69392 0.607482 3.41421C0.317418 3.13451 0.119882 2.77814 0.0398532 2.39018C-0.0401763 2.00222 0.000898466 1.60009 0.15788 1.23463C0.314862 0.869181 0.580701 0.556825 0.921781 0.337062C1.26286 0.117299 1.66386 1.04228e-06 2.07407 1.06021e-06C2.62398 0.000530612 3.15121 0.211414 3.54006 0.586372C3.9289 0.96133 4.1476 1.46973 4.14815 2Z" fill="#282141"/>
</svg>
