<svg width="16" height="16" viewBox="0 0 16 16" fill="none" xmlns="http://www.w3.org/2000/svg">
<path d="M14 9.3335C13.8232 9.3335 13.6536 9.40373 13.5286 9.52876C13.4036 9.65378 13.3333 9.82335 13.3333 10.0002V12.6668C13.3333 12.8436 13.2631 13.0132 13.1381 13.1382C13.0131 13.2633 12.8435 13.3335 12.6667 13.3335H3.33334C3.15653 13.3335 2.98696 13.2633 2.86194 13.1382C2.73691 13.0132 2.66668 12.8436 2.66668 12.6668V10.0002C2.66668 9.82335 2.59644 9.65378 2.47141 9.52876C2.34639 9.40373 2.17682 9.3335 2.00001 9.3335C1.8232 9.3335 1.65363 9.40373 1.52861 9.52876C1.40358 9.65378 1.33334 9.82335 1.33334 10.0002V12.6668C1.33334 13.1973 1.54406 13.706 1.91913 14.081C2.2942 14.4561 2.80291 14.6668 3.33334 14.6668H12.6667C13.1971 14.6668 13.7058 14.4561 14.0809 14.081C14.456 13.706 14.6667 13.1973 14.6667 12.6668V10.0002C14.6667 9.82335 14.5964 9.65378 14.4714 9.52876C14.3464 9.40373 14.1768 9.3335 14 9.3335Z" fill="#F8F7FE"/>
<path d="M8.66773 8.39649L10.1944 6.86316C10.2566 6.801 10.3304 6.7517 10.4116 6.71805C10.4928 6.68441 10.5798 6.6671 10.6677 6.6671C10.7556 6.6671 10.8427 6.68441 10.9239 6.71805C11.0051 6.7517 11.0789 6.801 11.1411 6.86316C11.2032 6.92532 11.2525 6.99911 11.2862 7.08033C11.3198 7.16154 11.3371 7.24859 11.3371 7.33649C11.3371 7.4244 11.3198 7.51145 11.2862 7.59266C11.2525 7.67388 11.2032 7.74767 11.1411 7.80983L8.4744 10.4765C8.411 10.5372 8.33623 10.5848 8.2544 10.6165C8.09209 10.6832 7.91004 10.6832 7.74773 10.6165C7.6659 10.5848 7.59114 10.5372 7.52773 10.4765L4.86107 7.80983C4.79858 7.74785 4.74898 7.67412 4.71514 7.59288C4.68129 7.51164 4.66387 7.4245 4.66387 7.33649C4.66387 7.24849 4.68129 7.16135 4.71514 7.08011C4.74898 6.99887 4.79858 6.92514 4.86107 6.86316C4.92304 6.80068 4.99678 6.75108 5.07802 6.71723C5.15925 6.68339 5.24639 6.66596 5.3344 6.66596C5.42241 6.66596 5.50954 6.68339 5.59078 6.71723C5.67202 6.75108 5.74576 6.80068 5.80773 6.86316L7.3344 8.39649L7.3344 4.00316C7.3344 3.82635 7.40464 3.65678 7.52966 3.53176C7.65469 3.40673 7.82426 3.33649 8.00107 3.33649C8.17788 3.33649 8.34745 3.40673 8.47247 3.53176C8.5975 3.65678 8.66773 3.82635 8.66773 4.00316L8.66773 8.39649Z" fill="#F8F7FE"/>
</svg>
