<svg width="26" height="26" viewBox="0 0 26 26" fill="none" xmlns="http://www.w3.org/2000/svg">
<path d="M7.75316 19H7.82066L10.9482 18.714C11.2908 18.6797 11.6112 18.5282 11.8557 18.2849L18.6058 11.5105C18.8678 11.2327 19.0094 10.862 18.9995 10.4796C18.9897 10.0973 18.8292 9.73443 18.5533 9.4706L16.4983 7.40815C16.23 7.15531 15.8786 7.01024 15.5107 7.00052C15.1429 6.99081 14.7843 7.11713 14.5032 7.35546L7.75316 14.1299C7.51073 14.3753 7.35978 14.6969 7.32566 15.0407L7.00315 18.1795C6.99305 18.2898 7.0073 18.4009 7.0449 18.505C7.08249 18.6091 7.14251 18.7036 7.22065 18.7817C7.29074 18.8515 7.37385 18.9067 7.46523 18.9441C7.55661 18.9816 7.65445 19.0006 7.75316 19ZM15.4557 8.46196L17.5033 10.5169L16.0033 11.9847L13.9932 9.96739L15.4557 8.46196ZM8.78067 15.1687L13.0032 10.961L15.0282 12.9933L10.8282 17.2085L8.57817 17.4193L8.78067 15.1687Z" fill="#3C58BF"/>
<rect x="0.5" y="0.5" width="25" height="25" rx="4.5" stroke="#3C58BF"/>
</svg>
