<svg width="36" height="36" viewBox="0 0 36 36" fill="none" xmlns="http://www.w3.org/2000/svg">
<circle opacity="0.2" cx="18" cy="18" r="17.5" stroke="#7B5CE1"/>
<path fill-rule="evenodd" clip-rule="evenodd" d="M9 14.5C9 13.6716 9.67157 13 10.5 13H25.5C26.3284 13 27 13.6716 27 14.5C27 15.3284 26.3284 16 25.5 16H10.5C9.67157 16 9 15.3284 9 14.5Z" fill="#7B5CE1"/>
<path fill-rule="evenodd" clip-rule="evenodd" d="M9 21.5C9 20.6716 9.67157 20 10.5 20H25.5C26.3284 20 27 20.6716 27 21.5C27 22.3284 26.3284 23 25.5 23H10.5C9.67157 23 9 22.3284 9 21.5Z" fill="#7B5CE1"/>
</svg>
