<svg width="103" height="103" viewBox="0 0 103 103" fill="none" xmlns="http://www.w3.org/2000/svg">
<path d="M51.5 0C41.3143 0 31.3573 3.02042 22.8882 8.67931C14.419 14.3382 7.81814 22.3814 3.92023 31.7918C0.0223141 41.2022 -0.997557 51.5571 0.989581 61.5471C2.97672 71.5372 7.88162 80.7136 15.084 87.916C22.2864 95.1184 31.4628 100.023 41.4529 102.01C51.4429 103.998 61.7978 102.978 71.2082 99.0798C80.6186 95.1819 88.6618 88.581 94.3207 80.1119C99.9796 71.6427 103 61.6857 103 51.5C102.985 37.8461 97.5538 24.7558 87.899 15.101C78.2442 5.44622 65.1539 0.0153978 51.5 0ZM51.5 91.5555C43.5778 91.5555 35.8334 89.2063 29.2463 84.805C22.6592 80.4036 17.5252 74.1478 14.4935 66.8286C11.4618 59.5094 10.6686 51.4556 12.2141 43.6855C13.7597 35.9155 17.5746 28.7783 23.1765 23.1764C28.7783 17.5746 35.9155 13.7597 43.6856 12.2141C51.4556 10.6685 59.5094 11.4618 66.8286 14.4935C74.1478 17.5252 80.4036 22.6592 84.805 29.2463C89.2063 35.8334 91.5556 43.5777 91.5556 51.5C91.5436 62.1197 87.3196 72.301 79.8103 79.8103C72.301 87.3196 62.1197 91.5436 51.5 91.5555ZM70.8054 40.2868L59.5927 51.5L70.8054 62.7132C71.864 63.7892 72.4546 65.2401 72.4485 66.7496C72.4423 68.2591 71.84 69.7051 70.7725 70.7725C69.7051 71.8399 68.2592 72.4423 66.7496 72.4485C65.2401 72.4546 63.7893 71.864 62.7132 70.8053L51.5 59.5926L40.2868 70.8053C39.2108 71.864 37.76 72.4546 36.2504 72.4485C34.7409 72.4423 33.2949 71.8399 32.2275 70.7725C31.1601 69.7051 30.5577 68.2591 30.5515 66.7496C30.5454 65.2401 31.136 63.7892 32.1947 62.7132L43.4074 51.5L32.1947 40.2868C31.136 39.2107 30.5454 37.7599 30.5515 36.2504C30.5577 34.7408 31.1601 33.2949 32.2275 32.2275C33.2949 31.16 34.7409 30.5577 36.2504 30.5515C37.76 30.5454 39.2108 31.136 40.2868 32.1946L51.5 43.4073L62.7132 32.1946C63.7893 31.136 65.2401 30.5454 66.7496 30.5515C68.2592 30.5577 69.7051 31.16 70.7725 32.2275C71.84 33.2949 72.4423 34.7408 72.4485 36.2504C72.4546 37.7599 71.864 39.2107 70.8054 40.2868Z" fill="#FF5050"/>
</svg>
