<svg width="24" height="24" viewBox="0 0 24 24" fill="none" xmlns="http://www.w3.org/2000/svg">
<path fill-rule="evenodd" clip-rule="evenodd" d="M12.0377 15.7122C11.7448 15.4193 11.7448 14.9444 12.0377 14.6516L14.6893 11.9999L12.0377 9.34828C11.7448 9.05538 11.7448 8.58051 12.0377 8.28762C12.3306 7.99472 12.8055 7.99472 13.0984 8.28762L16.2803 11.4696C16.421 11.6102 16.5 11.801 16.5 11.9999C16.5 12.1988 16.421 12.3896 16.2803 12.5302L13.0984 15.7122C12.8055 16.0051 12.3306 16.0051 12.0377 15.7122Z" fill="#7B5CE1"/>
<path fill-rule="evenodd" clip-rule="evenodd" d="M16.5 11.9999C16.5 12.4141 16.1642 12.7499 15.75 12.7499L8.25 12.7499C7.83579 12.7499 7.5 12.4141 7.5 11.9999C7.5 11.5857 7.83579 11.2499 8.25 11.2499L15.75 11.2499C16.1642 11.2499 16.5 11.5857 16.5 11.9999Z" fill="#7B5CE1"/>
</svg>
