<svg width="36" height="36" viewBox="0 0 36 36" fill="none" xmlns="http://www.w3.org/2000/svg">
<path fill-rule="evenodd" clip-rule="evenodd" d="M9 27C9 26.1716 9.67157 25.5 10.5 25.5H31.5C32.3284 25.5 33 26.1716 33 27C33 27.8284 32.3284 28.5 31.5 28.5H10.5C9.67157 28.5 9 27.8284 9 27Z" fill="#7B5CE1"/>
<path fill-rule="evenodd" clip-rule="evenodd" d="M3 21C3 20.1716 3.67157 19.5 4.5 19.5H31.5C32.3284 19.5 33 20.1716 33 21C33 21.8284 32.3284 22.5 31.5 22.5H4.5C3.67157 22.5 3 21.8284 3 21Z" fill="#7B5CE1"/>
<path fill-rule="evenodd" clip-rule="evenodd" d="M9 15C9 14.1716 9.67157 13.5 10.5 13.5H31.5C32.3284 13.5 33 14.1716 33 15C33 15.8284 32.3284 16.5 31.5 16.5H10.5C9.67157 16.5 9 15.8284 9 15Z" fill="#7B5CE1"/>
<path fill-rule="evenodd" clip-rule="evenodd" d="M3 9C3 8.17157 3.67157 7.5 4.5 7.5H31.5C32.3284 7.5 33 8.17157 33 9C33 9.82843 32.3284 10.5 31.5 10.5H4.5C3.67157 10.5 3 9.82843 3 9Z" fill="#7B5CE1"/>
</svg>
