<svg width="155" height="225" viewBox="0 0 155 225" fill="none" xmlns="http://www.w3.org/2000/svg">
<path d="M145.322 204.277L118.841 219.448L104.392 211.179L130.872 196.008L145.322 204.277Z" fill="#E3E5EF"/>
<path d="M104.745 225L155 196.208L152.043 223.316L104.745 225Z" fill="#E3E5EF"/>
<path d="M36.175 141.759L55.7664 152.979L29.2862 168.15L9.69482 156.93L36.175 141.759Z" fill="#E3E5EF"/>
<path d="M50.2553 136.207L0 164.999L2.95718 137.891L50.2553 136.207Z" fill="#E3E5EF"/>
<path d="M51.5489 210.729L36.595 219.298L9.94678 204.044L24.9175 195.474L51.5489 210.729Z" fill="#E3E5EF"/>
<path d="M0.167969 195.941L50.7425 224.9L3.42759 223.049L0.167969 195.941Z" fill="#E3E5EF"/>
<path d="M145.053 157.163L125.596 168.317L98.948 153.062L118.405 141.909L145.053 157.163Z" fill="#E3E5EF"/>
<path d="M154.832 165.266L104.257 136.307L151.589 138.158L154.832 165.266Z" fill="#E3E5EF"/>
<path d="M78.3484 224.9L18.1631 190.423L78.3484 155.946L138.534 190.423L78.3484 224.9Z" fill="#E3E5EF"/>
<path d="M78.3484 215.814L138.534 181.337V127.338L78.3484 161.815V215.814Z" fill="#D5AD74"/>
<path d="M138.534 127.338L78.3484 161.815L110.827 144.576L138.534 127.338Z" fill="#937246"/>
<path d="M78.3484 215.814L18.1631 181.337V127.338L78.3484 161.815V215.814Z" fill="#BA9463"/>
<path d="M74.6854 177.753L61.9829 170.484V156.013L74.6854 163.282V177.753ZM62.8062 170L73.8284 176.319V163.765L62.8062 157.447V170Z" fill="#7D655E"/>
<path d="M69.7288 173.118L66.9229 171.517V164.232L69.7288 165.832V173.118Z" fill="#7D655E"/>
<path d="M72.4843 168.8L64.1672 164.032L68.3342 161.448L72.4843 168.8Z" fill="#7D655E"/>
<path d="M78.3484 161.815L18.1631 127.338L78.3484 92.8441L138.534 127.338L78.3484 161.815Z" fill="#F4C992"/>
<path d="M105.467 173.352L115.145 167.8V140.725L105.467 146.277V173.352Z" fill="#D9D5D2"/>
<path d="M105.467 146.277L45.2817 111.8L54.9598 106.248L115.145 140.725L105.467 146.277Z" fill="#E8E8E8"/>
<path d="M18.1631 127.338L78.3484 161.815L45.8699 144.576L18.1631 127.338Z" fill="#937246"/>
<path d="M52.2379 173.935L42.5767 168.383V141.308L52.2379 146.86V173.935Z" fill="#BFAF9F"/>
<path d="M52.2379 146.86L112.44 112.366L102.762 106.831L42.5767 141.308L52.2379 146.86Z" fill="#F2F2F2"/>
<path d="M52.2379 146.86V147.977L46.3403 144.843L42.5767 142.492V141.308L52.2379 146.86Z" fill="#D4C9BE"/>
<path d="M110.827 144.576L105.467 147.411V146.277L115.145 140.725V141.892L110.827 144.576Z" fill="#E6E1DE"/>
<path d="M89.0011 131.272C83.5572 134.39 74.7024 134.373 69.2249 131.239C63.7474 128.105 63.7138 123.036 69.1577 119.902C74.6016 116.785 83.4564 116.801 88.9339 119.935C94.4282 123.086 94.445 128.155 89.0011 131.272Z" fill="#E3E5EF"/>
<path d="M87.3119 37.9425L87.3 37.9543C83.798 36.5124 79.2479 37.0206 74.257 39.8808C63.239 46.1921 54.3054 61.4738 54.3054 74.0136C54.3054 91.08 74.257 110.51 74.257 110.51L80.1889 113.418L93.351 40.9209L87.3119 37.9425Z" fill="#D74141"/>
<path d="M80.1887 42.7882C91.2068 36.4769 100.14 41.5236 100.14 54.0752C100.14 71.1416 80.1887 113.418 80.1887 113.418C80.1887 113.418 60.249 93.9992 60.249 76.921C60.249 64.3812 69.1707 49.0994 80.1887 42.7882Z" fill="#FF5050"/>
<path d="M91.6136 71.4396C96.1556 63.7308 96.2005 55.3718 91.714 52.7692C87.2274 50.1667 79.9083 54.3061 75.3663 62.0149C70.8243 69.7237 70.7794 78.0827 75.266 80.6852C79.7526 83.2878 87.0717 79.1483 91.6136 71.4396Z" fill="white"/>
<path d="M61.8217 77.5828C61.8217 65.3266 70.5409 50.3994 81.3088 44.23C91.9576 38.1315 99.9382 42.6108 100.117 54.5715C100.117 54.406 100.129 54.2287 100.129 54.0633C100.129 41.5235 91.1952 36.465 80.1772 42.7763C69.1591 49.0875 60.2256 64.3693 60.2256 76.9209C60.2256 93.9873 80.1772 113.417 80.1772 113.417C80.1891 113.417 61.8217 94.2592 61.8217 77.5828Z" fill="#7B5CE1"/>
</svg>
