<svg width="166" height="205" viewBox="0 0 166 205" fill="none" xmlns="http://www.w3.org/2000/svg">
<g clip-path="url(#clip0)">
<path d="M6.36111 181.453L116.504 116.6C124.931 111.637 138.566 111.611 146.942 116.548L150.236 118.487C158.612 123.424 158.574 131.45 150.135 136.413L39.992 201.265C31.5652 206.228 17.9304 206.254 9.55441 201.317L6.25975 199.378C-2.11629 194.441 -2.07828 186.415 6.36111 181.453Z" fill="#E3E5EF"/>
<path d="M23.4428 12.3683C23.4428 15.1598 25.3816 18.5718 27.7639 19.9805C30.1589 21.3892 32.085 20.2648 32.085 17.4603C32.085 14.6687 30.1462 11.2568 27.7639 9.84809C25.3816 8.4523 23.4428 9.57669 23.4428 12.3683Z" fill="#CCCCCC"/>
<path d="M22.9865 12.6396C22.9865 15.4312 24.9253 18.8431 27.3076 20.2518C29.7026 21.6606 31.6287 20.5362 31.6287 17.7317C31.6287 14.9401 29.6899 11.5282 27.3076 10.1195C24.9126 8.72366 22.9865 9.84805 22.9865 12.6396Z" fill="#AFAEAA"/>
<path d="M23.6963 13.8933C23.6963 15.8448 25.0522 18.2229 26.7122 19.2051C28.3722 20.1873 29.728 19.3989 29.728 17.4474C29.728 15.4959 28.3722 13.1179 26.7122 12.1357C25.0522 11.1534 23.6963 11.9418 23.6963 13.8933Z" fill="#A8A7A3"/>
<path d="M50.2436 167.947C50.2436 167.947 49.4199 164.651 45.6564 163.307C41.9056 161.95 38.028 160.865 38.028 160.865L36.0766 146.984C36.0766 146.984 45.6438 149.608 47.7092 153.498C49.7874 157.362 53.0694 160.49 50.2436 167.947Z" fill="#813E08"/>
<path d="M26.8008 162.079C27.9666 161.394 29.0563 161.058 30.0447 161.033C32.6171 160.942 34.4038 162.971 34.4038 166.499C34.4038 171.423 30.9824 177.433 26.7881 179.876C23.7469 181.672 21.1111 181.129 19.882 178.803C19.4385 177.937 19.185 176.8 19.185 175.456C19.185 170.57 22.6064 164.561 26.8008 162.079Z" fill="#676A68"/>
<path d="M29.7027 160.722C29.4999 160.865 29.2972 161.007 29.0944 161.136C30.0448 160.58 30.9318 160.231 31.8188 160.167V160.102C31.8188 159.96 31.8188 159.818 31.7555 159.753C31.0585 160.024 30.3869 160.309 29.7027 160.722Z" fill="#4C4C4C"/>
<path d="M18.3995 180.574C18.3995 181.336 18.4628 182.099 18.6022 182.797C19.2105 182.59 19.8947 182.241 20.579 181.892C19.8947 180.78 19.4892 179.32 19.4892 177.524C19.4892 176.761 19.5526 175.999 19.692 175.236C19.7553 174.474 19.9708 173.633 20.2369 172.871C20.4396 172.108 20.7184 171.346 21.0479 170.583C19.3498 173.84 18.3995 177.381 18.3995 180.574Z" fill="#4C4C4C"/>
<path d="M6.28516 181C6.28516 169.549 14.1797 155.592 23.9116 149.905C28.6635 147.126 32.1482 146.351 34.4925 147.514C35.0754 147.798 36.2285 148.445 36.2285 148.445L42.0195 151.844L40.7904 154.067L38.3447 158.577C38.3447 159.133 38.3447 159.753 38.2814 160.309V160.373C37.3943 170.648 30.653 182.448 22.2136 188.276C22.0108 188.418 21.8081 188.548 21.5293 188.69L18.1966 194.661L17.449 196.044L11.3919 192.502C11.3919 192.502 10.3401 191.805 9.8079 191.494C7.46363 190.163 6.28516 186.7 6.28516 181ZM20.8577 182.383C20.8577 182.383 20.8577 182.448 20.921 182.448C22.4923 183.003 24.5325 182.732 26.712 181.401C31.8188 178.415 35.8991 171.191 35.8991 165.298C35.8991 164.949 35.8991 164.6 35.8357 164.328C35.6963 162.596 35.2275 161.201 34.4038 160.296C32.9085 159.805 31.1345 160.012 29.0943 161.136C29.0943 161.136 29.031 161.136 29.031 161.201C28.9676 161.201 28.8916 161.265 28.8282 161.343C28.3467 161.55 27.8778 161.963 27.3963 162.312C25.2168 164.186 23.24 166.616 21.6813 169.33C21.4026 169.743 21.2758 170.157 21.0731 170.583C20.0467 172.871 19.5018 175.301 19.5018 177.524C19.4891 179.604 20.034 181.272 20.8577 182.383Z" fill="#2C2C2C"/>
<path d="M29.7026 153.227C32.427 151.624 34.9487 150.861 37.2549 150.797C43.2487 150.59 47.3923 155.307 47.3923 163.501C47.3923 174.952 39.4218 188.91 29.6899 194.596C22.6064 198.758 16.4859 197.517 13.6221 192.102C12.5957 190.086 11.9875 187.449 11.9875 184.322C12.0001 172.936 19.9707 158.991 29.7026 153.227ZM19.4891 177.524C19.4891 179.604 20.034 181.272 20.845 182.383C20.845 182.383 20.845 182.448 20.9084 182.448C22.4797 183.003 24.5198 182.732 26.6994 181.401C31.8061 178.415 35.8864 171.191 35.8864 165.298C35.8864 163.139 35.3415 161.407 34.3911 160.296C32.8959 159.805 31.1218 160.012 29.0817 161.136C28.5368 161.485 27.9285 161.899 27.3836 162.312C25.2041 164.186 23.2273 166.616 21.6687 169.33C21.3899 169.743 21.2632 170.157 21.0604 170.583C20.034 172.871 19.4891 175.301 19.4891 177.524Z" fill="#2A2A2A"/>
<path d="M30.3236 155.721C33.1114 154.118 35.6964 153.369 37.9393 153.498C38.9657 153.498 39.9161 153.718 40.8031 154.067C44.4146 155.449 46.6575 159.327 46.6575 165.233C46.6575 175.714 39.3078 188.574 30.3236 193.911C25.5463 196.754 21.1999 196.832 18.2094 194.687C17.183 193.989 16.2959 192.942 15.6117 191.701C14.5219 189.827 13.9897 187.32 13.9897 184.399C13.977 173.84 21.3266 161.007 30.3236 155.721ZM20.9211 182.448C22.4798 183.016 24.5326 182.732 26.7121 181.414C31.8188 178.415 35.8991 171.204 35.8991 165.31C35.8991 164.961 35.8991 164.613 35.8231 164.341C35.6964 162.609 35.2149 161.214 34.3912 160.309C32.8959 159.831 31.1219 160.037 29.0817 161.149C29.0817 161.149 29.0057 161.149 29.0057 161.214C28.9297 161.214 28.8663 161.291 28.803 161.356C28.3214 161.627 27.8526 161.976 27.371 162.325C25.1915 164.199 23.2274 166.629 21.6561 169.33C21.39 169.756 21.2506 170.157 21.0478 170.583C20.0341 172.884 19.4765 175.314 19.4765 177.524C19.4765 179.617 20.0341 181.272 20.8451 182.396C20.8578 182.383 20.8578 182.448 20.9211 182.448Z" fill="#232323"/>
<path d="M30.0699 159.701C32.1481 158.512 34.0615 157.944 35.7342 158.047C36.4945 158.047 37.1915 158.202 37.8504 158.474C40.5368 159.508 42.2095 162.39 42.2095 166.784C42.2095 174.59 36.7353 184.141 30.0573 188.121C26.5092 190.241 23.2652 190.292 21.035 188.69C20.2747 188.173 19.6157 187.397 19.0962 186.48C18.2979 185.084 17.8797 183.223 17.8797 181.052C17.9051 173.181 23.3793 163.617 30.0699 159.701ZM20.8576 182.383C20.8576 182.383 20.8576 182.448 20.9336 182.448C22.4922 183.016 24.545 182.732 26.7246 181.414C31.8313 178.415 35.9116 171.204 35.9116 165.31C35.9116 164.961 35.9116 164.613 35.8356 164.341C35.7089 162.609 35.2273 161.214 34.4037 160.309C32.9084 159.831 31.1344 160.037 29.0942 161.149C29.0942 161.149 29.0182 161.149 29.0182 161.214C28.9422 161.214 28.8788 161.291 28.8154 161.356C28.3339 161.627 27.8651 161.976 27.3835 162.325C25.204 164.199 23.2399 166.629 21.6686 169.33C21.4025 169.756 21.2631 170.157 21.0603 170.583C20.0466 172.884 19.489 175.314 19.489 177.524C19.489 179.604 20.0466 181.272 20.8576 182.383Z" fill="#2C2C2C"/>
<path d="M18.3992 180.574C18.3992 181.336 18.4626 182.099 18.602 182.797C19.0075 185.575 20.376 187.449 22.2134 188.276C24.1902 189.103 26.8386 188.832 29.7024 187.165C35.9623 183.482 41.0056 174.603 41.0056 167.314C41.0056 164.057 39.9792 161.614 38.2812 160.373V160.309C36.6465 159.055 34.4036 158.784 31.7426 159.753C31.0583 160.024 30.3867 160.309 29.7024 160.722C29.4997 160.865 29.2969 161.007 29.0942 161.136C30.0446 160.58 30.9316 160.231 31.8186 160.167V160.102C32.769 159.96 33.5926 160.037 34.4036 160.309C35.354 161.42 35.8989 163.152 35.8989 165.31C35.8989 171.217 31.8186 178.428 26.7119 181.414C24.5323 182.732 22.4922 183.016 20.9209 182.461C20.8575 182.461 20.8575 182.396 20.8575 182.396C20.7181 182.254 20.6548 182.112 20.5788 181.905C19.8945 180.793 19.489 179.333 19.489 177.536C19.489 176.774 19.5523 176.011 19.6917 175.249C19.7551 174.486 19.9705 173.646 20.2366 172.884C20.4394 172.121 20.7181 171.359 21.0476 170.596C19.3496 173.84 18.3992 177.381 18.3992 180.574Z" fill="#9FA1A0"/>
<path d="M28.3339 186.725C34.5937 183.042 39.6371 174.163 39.6371 166.874C39.6371 163.617 38.6107 161.175 36.9126 159.934V159.869C36.6212 159.637 36.2917 159.456 35.9623 159.301C36.8239 159.469 37.6096 159.805 38.2812 160.322V160.386C39.9792 161.64 41.0056 164.07 41.0056 167.327C41.0056 174.616 35.9623 183.507 29.7024 187.178C26.8386 188.845 24.1902 189.116 22.2134 188.289C22.1374 188.25 22.0614 188.212 21.9853 188.173C23.7974 188.509 25.9896 188.082 28.3339 186.725Z" fill="#686B6A"/>
<path d="M20.9211 182.448C22.5558 184.464 25.4196 184.735 28.6762 182.861C33.7196 179.876 37.8633 172.587 37.8633 166.68C37.8633 163.204 36.5074 160.994 34.3912 160.296C35.3416 161.407 35.8865 163.139 35.8865 165.297C35.8865 171.204 31.8062 178.415 26.6995 181.401C24.5326 182.732 22.4924 183.003 20.9211 182.448Z" fill="#CCCECD"/>
<path d="M27.3838 162.325C27.9287 161.912 28.5369 161.485 29.0818 161.149C28.9424 161.214 28.8157 161.291 28.6763 161.356C28.2074 161.627 27.8019 161.899 27.3838 162.325Z" fill="#383838"/>
<path d="M21.6688 169.33C23.2401 166.616 25.2042 164.186 27.3838 162.312C25.0775 163.992 23.0374 166.486 21.6688 169.33Z" fill="#383838"/>
<path d="M27.9792 162.777C29.145 162.092 30.2348 161.756 31.2232 161.731C33.7956 161.64 35.5823 163.669 35.5823 167.197C35.5823 172.121 32.1609 178.131 27.9666 180.574C24.9253 182.37 22.2896 181.827 21.0605 179.501C20.6169 178.635 20.3635 177.498 20.3635 176.154C20.3762 171.256 23.7976 165.259 27.9792 162.777Z" fill="#9FA1A0"/>
<path d="M29.3984 166.525C30.1461 166.086 30.843 165.879 31.4766 165.853C33.1239 165.802 34.2644 167.094 34.2644 169.343C34.2644 172.496 32.0722 176.335 29.3984 177.898C27.447 179.049 25.7616 178.7 24.976 177.213C24.6972 176.658 24.5325 175.934 24.5325 175.081C24.5325 171.94 26.7247 168.115 29.3984 166.525Z" fill="#B9BAB9"/>
<path d="M29.3984 170.234C29.6645 170.079 29.9053 170.002 30.1207 170.002C30.6909 169.976 31.0964 170.441 31.0964 171.23C31.0964 172.328 30.3361 173.672 29.3984 174.215C28.7141 174.616 28.1313 174.499 27.8525 173.969C27.7511 173.776 27.7004 173.517 27.7004 173.22C27.6877 172.121 28.4607 170.777 29.3984 170.234Z" fill="#959795"/>
<path d="M109.459 68.7555L109.522 68.7937C109.497 68.7809 109.484 68.7809 109.459 68.7809V68.7555Z" fill="#FFF887"/>
<path d="M30.26 44.8848C30.2473 44.9106 30.184 45.014 30.0446 45.1691C30.0446 45.1691 30.0446 45.182 30.0319 45.182C29.9939 45.2079 29.9432 45.2337 29.8925 45.2596C29.5124 45.4793 29.1449 45.5697 28.8281 45.5439C28.8281 45.5439 28.8281 45.5439 28.8154 45.5439C28.6 45.5568 28.3846 45.531 28.2072 45.4534L27.9537 45.3113L16.7139 38.8622C17.4489 38.7459 18.5133 38.72 19.9705 39.0173C22.2134 39.4955 23.62 40.6069 27.4342 43.0625C27.5356 43.1271 27.637 43.1917 27.7257 43.2434C28.2072 43.5536 28.638 43.8379 28.9928 44.0706C29.8038 44.5746 30.26 44.8848 30.26 44.8848Z" fill="#636363"/>
<path d="M31.616 39.4955L31.4766 39.754L30.8303 40.8784C30.6276 42.0545 29.9306 43.2822 29.0309 44.0577C29.0309 44.0577 29.0183 44.0577 29.0183 44.0706L28.7015 44.6263L28.296 45.3371L28.2453 45.4276L27.9918 45.2854L16.752 38.8364L16.0044 38.4099C15.5608 38.1773 15.2821 37.6603 15.2567 36.9236V36.7686C15.2694 35.2047 16.3592 33.3178 17.6897 32.5683C18.2853 32.2322 18.8302 32.1805 19.2483 32.3615H19.261C19.3244 32.3873 19.3877 32.4261 19.4511 32.4778L31.3499 39.3275L31.616 39.4955Z" fill="#5E5E5E"/>
<path d="M28.7014 44.6392L28.2452 45.4534L16.0043 38.4228C15.5608 38.1901 15.282 37.6732 15.2567 36.9236L28.7014 44.6392Z" fill="#666666"/>
<path d="M27.3963 43.7604C27.4089 42.1966 28.4987 40.3097 29.8292 39.5601C31.1598 38.8105 32.2115 39.4697 32.1989 41.0335C32.1862 42.5972 31.0964 44.4841 29.7659 45.2337C28.4354 45.9833 27.3836 45.3242 27.3963 43.7604Z" fill="#0A0A0A"/>
<path d="M32.1862 41.0335C32.1862 41.0464 32.1862 41.0594 32.1862 41.0852V41.1111C32.1482 42.4552 31.3372 44.019 30.2601 44.8978C30.0954 45.027 29.9307 45.1433 29.7659 45.2467C29.4491 45.4277 29.1323 45.5311 28.8535 45.5569C28.8535 45.5569 28.8536 45.5569 28.8409 45.5569C28.6255 45.5698 28.41 45.544 28.2326 45.4664L27.9792 45.3243C27.6117 45.0399 27.3836 44.5101 27.3836 43.7863C27.3836 43.5537 27.409 43.3211 27.4596 43.0884C27.7258 41.7056 28.6761 40.2322 29.8166 39.599C30.3868 39.2759 30.9064 39.2112 31.3119 39.3793C31.4133 39.418 31.5146 39.4697 31.6033 39.5473C31.9835 39.7928 32.1989 40.3098 32.1862 41.0335Z" fill="#5B5B5B"/>
<path d="M32.1863 41.3047C32.1736 42.7135 31.2232 44.4065 30.0447 45.1561C30.0447 45.1561 30.0447 45.169 30.0321 45.169C29.994 45.1949 29.9434 45.2207 29.8927 45.2466C29.5125 45.4663 29.145 45.5567 28.8282 45.5309C28.8282 45.5309 28.8282 45.5309 28.8156 45.5309C28.6128 45.518 28.4227 45.4533 28.2707 45.337C27.8905 45.0786 27.6624 44.5616 27.6751 43.8637C27.6751 43.6569 27.7004 43.4501 27.7511 43.2304C27.9919 41.9122 28.8916 40.5293 29.956 39.9219C30.5389 39.5988 31.0585 39.5471 31.4513 39.7539C31.8568 39.9607 32.1229 40.413 32.1609 41.0721V41.098C32.1863 41.1626 32.1863 41.2401 32.1863 41.3047Z" fill="#4C4C4C"/>
<path d="M17.5884 32.7104C17.5884 32.7104 17.2463 32.9043 17.0435 33.1369C17.335 33.2791 29.0564 40.0771 29.0564 40.0771C29.0564 40.0771 29.2084 39.8962 29.5632 39.6635C29.3478 39.5343 17.5884 32.7104 17.5884 32.7104Z" fill="#6B6B6B"/>
<path d="M43.1855 53.9575C45.1496 53.3113 47.9754 53.9187 49.496 55.3274C51.0166 56.7232 50.6618 58.3904 48.6977 59.0366C46.7335 59.6828 43.9077 59.0754 42.3871 57.6667C40.8539 56.2709 41.2213 54.6037 43.1855 53.9575Z" fill="#ABAEAC"/>
<path d="M50.4082 57.4729L51.7007 51.2306L42.7798 49.292L41.4746 55.5213L50.4082 57.4729Z" fill="#ABAEAC"/>
<path d="M43.5022 50.7783C44.8581 52.0319 47.6332 52.8073 49.6986 52.523C51.7641 52.2387 52.347 50.998 50.9912 49.7444C49.6353 48.4907 46.8602 47.7153 44.7947 47.9996C42.7292 48.2839 42.1463 49.5246 43.5022 50.7783Z" fill="#AFAEAA"/>
<path d="M43.781 50.1321C43.9077 50.3131 44.0851 50.5069 44.2626 50.6879C45.3016 51.683 47.5572 52.3034 49.2045 52.0578C49.6987 51.9932 50.0535 51.8123 50.3577 51.683C50.9659 51.1919 51.0293 50.5069 50.2309 49.822C49.1285 48.8268 46.9363 48.2065 45.289 48.452C43.9711 48.6459 43.4135 49.3955 43.781 50.1321Z" fill="#919294"/>
<path d="M51.8783 57.6797C53.8424 57.0335 56.6682 57.6409 58.1888 59.0496C59.7095 60.4454 59.3546 62.1126 57.3905 62.7588C55.4264 63.405 52.6006 62.7976 51.08 61.3889C49.5594 59.9801 49.9142 58.3259 51.8783 57.6797Z" fill="#ABAEAC"/>
<path d="M59.1013 61.1821L60.4065 54.9398L51.4856 53.0012L50.1804 59.2435L59.1013 61.1821Z" fill="#ABAEAC"/>
<path d="M52.2077 54.4875C53.5636 55.7411 56.3387 56.5166 58.4042 56.2322C60.4697 55.9479 61.0526 54.7072 59.6967 53.4536C58.3408 52.2 55.5657 51.4245 53.5002 51.7088C51.4221 51.9932 50.8518 53.2468 52.2077 54.4875Z" fill="#AFAEAA"/>
<path d="M52.5118 53.8024C52.6385 53.9833 52.7525 54.1772 52.9426 54.3581C54.045 55.3533 56.2373 55.9736 57.9479 55.7927C58.4928 55.728 58.8603 55.5471 59.1137 55.3533C59.722 54.9138 59.6586 54.2289 58.9363 53.5439C57.8973 52.5488 55.6417 51.9284 53.9944 52.174C52.6258 52.3161 52.0809 53.0657 52.5118 53.8024Z" fill="#919294"/>
<path d="M43.781 50.1321C43.9077 50.313 44.0851 50.5069 44.2625 50.6878C45.3016 51.683 47.5572 52.3033 49.2045 52.0577C49.6987 51.9931 50.0535 51.8122 50.3577 51.683C50.2309 51.502 50.1169 51.3082 49.9268 51.1272C48.8244 50.1321 46.6322 49.5117 44.9215 49.6927C44.4526 49.7573 44.0344 49.9511 43.781 50.1321Z" fill="#D4DED0"/>
<path d="M52.5118 53.8025C52.6385 53.9835 52.7525 54.1773 52.9426 54.3583C54.045 55.3534 56.2373 55.9738 57.948 55.7928C58.4929 55.7282 58.8603 55.5473 59.1138 55.3534C58.9871 55.1725 58.873 54.9786 58.6196 54.7977C57.5805 53.8025 55.3249 53.1822 53.6776 53.4277C53.1834 53.4924 52.8159 53.6862 52.5118 53.8025Z" fill="#D4DED0"/>
<path d="M66.3621 60.6135C66.3621 60.6135 68.8331 60.6781 68.3516 62.7977C67.8701 64.9172 68.6177 66.0933 65.7286 67.67C64.5881 68.2904 63.1182 62.2936 66.3621 60.6135Z" fill="#F5A13A"/>
<path d="M79.3633 71.8444L80.9346 68.7685C80.9346 68.7685 71.6969 63.8574 70.3156 63.1337C70.1256 63.0303 69.9355 62.9269 69.7201 62.8106C67.5279 61.5957 63.4349 59.334 58.4549 63.3275C55.6037 65.6021 52.1317 65.124 49.7367 64.3097C45.4283 62.8493 42.0577 59.5666 41.7915 58.5715C41.4367 56.4907 40.0935 49.4084 37.6099 46.3971C35.481 43.8253 30.6784 40.8398 30.4757 40.7106L28.7143 43.6831C29.9688 44.4585 33.5422 46.8495 35.0121 48.633C36.4441 50.3648 37.7999 55.3147 38.4462 59.1789C38.877 61.7508 43.1601 65.46 47.7853 67.2693C52.6386 69.1821 57.175 68.7427 60.5584 66.0416C63.7897 63.4568 66.0833 64.7362 68.1108 65.8477C68.3389 65.9769 68.5669 66.0933 68.7697 66.2096C70.1509 66.9462 79.3633 71.8444 79.3633 71.8444Z" fill="#8A8882"/>
<path d="M30.8558 53.88L32.8326 53.4406C32.8326 53.4406 32.3004 53.4664 33.4535 53.6086C32.3384 54.3582 33.4155 53.8929 33.4155 53.8929C34.3025 53.9705 33.9223 54.5262 35.0121 55.1465C35.4176 55.3533 38.6869 55.1724 39.0924 55.5213C41.0692 57.1239 42.7672 60.174 43.1094 65.4469L51.346 69.7506C51.346 69.7506 55.5023 71.9735 59.2405 70.371C62.9787 68.8459 64.9555 67.7991 65.0949 67.1141C65.2343 66.4162 65.8425 64.8266 65.8425 64.8266C65.8425 64.8266 64.6133 64.0641 64.8161 63.0948C65.0822 62.1255 65.2723 60.7168 66.5648 60.9235C66.7042 60.51 68.0601 61.2983 68.0601 61.2983C67.5659 60.4971 65.5637 60.0964 65.437 60.0964C65.2976 60.0318 65.1582 59.9543 65.0315 59.9543C64.626 59.8121 57.6946 59.6699 47.2657 53.376C34.2772 45.5311 38.4208 44.8203 34.8854 42.8817C33.7956 42.2613 31.7555 42.6749 30.6023 43.502C30.2602 43.7088 29.9941 43.9932 29.8547 44.2646C29.7153 44.4713 29.1071 46.6943 29.2465 46.8364C29.5252 48.3615 30.1335 48.2193 29.8547 50.7265C29.5633 53.1562 31.1979 53.3889 30.8558 53.88Z" fill="#FF5050"/>
<path d="M68.0601 61.2983C68.0601 61.2983 66.7042 60.4971 66.5648 60.9235C65.2723 60.7168 65.0949 62.1126 64.8161 63.0819C64.6133 64.0511 65.8425 64.8137 65.8425 64.8137C65.8425 64.8137 65.2723 66.287 65.1202 67.0237C62.8393 67.2304 60.1529 67.6957 57.3017 69.1432C55.8698 69.8669 54.1845 70.1771 52.3597 70.19C51.7262 69.9445 51.346 69.7506 51.346 69.7506L43.1093 65.4469C42.7672 60.174 41.0692 57.111 39.0924 55.5213C38.6869 55.1724 35.4176 55.3533 35.0121 55.1465C33.9223 54.5262 34.3025 53.9575 33.4155 53.8929C33.4155 53.8929 32.3383 54.3582 33.4535 53.6086C32.8199 53.531 32.6932 53.4923 32.7185 53.4664L30.8557 53.88C31.1979 53.3889 29.5632 53.1562 29.8293 50.7265C30.1081 48.2322 29.4872 48.3615 29.2211 46.8364C29.0817 46.6943 29.7026 44.4713 29.8293 44.2646C29.9687 43.9802 30.2348 43.7088 30.577 43.502C31.0205 43.1789 31.5907 42.9334 32.1863 42.7654C31.3119 43.2048 30.6277 44.3163 31.1852 45.5311C31.7428 46.746 34.0997 52.2774 36.0892 53.376C38.0787 54.4616 43.3374 55.8186 44.8454 56.762C46.3406 57.7055 49.3439 60.8848 51.7008 61.4922C54.0578 62.0996 60.3556 62.8104 62.2057 61.7119C64.0431 60.6134 65.437 60.1093 65.437 60.1093C65.5764 60.0964 67.5659 60.4971 68.0601 61.2983Z" fill="#DF4444"/>
<path d="M133.358 99.3077C133.155 99.4498 132.952 99.5791 132.749 99.7213C133.7 99.1655 134.587 98.8166 135.474 98.752V98.6873C135.474 98.5452 135.474 98.4159 135.411 98.3384C134.726 98.6227 134.042 98.8941 133.358 99.3077Z" fill="#4C4C4C"/>
<path d="M122.067 119.172C122.067 119.934 122.13 120.697 122.27 121.395C122.878 121.188 123.562 120.839 124.246 120.49C123.562 119.379 123.157 117.918 123.157 116.122C123.157 115.359 123.22 114.597 123.359 113.834C123.423 113.072 123.638 112.232 123.904 111.469C124.107 110.707 124.386 109.944 124.715 109.182C123.017 112.438 122.067 115.967 122.067 119.172Z" fill="#4C4C4C"/>
<path d="M109.953 119.585C109.953 108.135 117.847 94.1769 127.579 88.4774C132.331 85.6988 135.816 84.9234 138.16 86.0865C138.743 86.3708 139.896 87.017 139.896 87.017L145.687 90.416L144.458 92.6519L142.012 97.1624C142.012 97.7181 142.012 98.3384 141.949 98.8942V98.9588C141.062 109.233 134.321 121.033 125.881 126.862C125.679 127.004 125.476 127.133 125.197 127.275L121.864 133.246L121.117 134.629L115.06 131.088C115.06 131.088 114.008 130.39 113.476 130.08C111.119 128.749 109.953 125.298 109.953 119.585ZM124.513 120.968C124.513 120.968 124.513 121.033 124.576 121.033C126.147 121.589 128.188 121.317 130.367 119.986C135.474 117.001 139.554 109.776 139.554 103.883C139.554 103.534 139.554 103.185 139.491 102.914C139.351 101.182 138.883 99.7859 138.059 98.8812C136.564 98.3901 134.79 98.6098 132.749 99.7213C132.749 99.7213 132.686 99.7213 132.686 99.7859C132.623 99.7859 132.547 99.8505 132.483 99.9281C132.002 100.135 131.533 100.548 131.051 100.897C128.872 102.771 126.895 105.201 125.336 107.915C125.058 108.329 124.931 108.742 124.728 109.169C123.702 111.456 123.157 113.886 123.157 116.109C123.157 118.19 123.702 119.857 124.513 120.968Z" fill="#2C2C2C"/>
<path d="M133.358 91.8117C136.082 90.2091 138.604 89.4466 140.91 89.382C146.904 89.1752 151.047 93.8925 151.047 102.086C151.047 113.537 143.077 127.495 133.345 133.194C126.261 137.356 120.141 136.115 117.277 130.7C116.251 128.684 115.642 126.047 115.642 122.92C115.668 111.534 123.626 97.5758 133.358 91.8117ZM123.157 116.109C123.157 118.19 123.702 119.857 124.513 120.968C124.513 120.968 124.513 121.033 124.576 121.033C126.147 121.589 128.188 121.317 130.367 119.986C135.474 117.001 139.554 109.776 139.554 103.883C139.554 101.724 139.009 99.9926 138.059 98.8811C136.564 98.39 134.79 98.6097 132.749 99.7212C132.204 100.07 131.596 100.484 131.051 100.897C128.872 102.771 126.895 105.201 125.336 107.915C125.058 108.329 124.931 108.742 124.728 109.169C123.702 111.456 123.157 113.886 123.157 116.109Z" fill="#2A2A2A"/>
<path d="M133.979 94.306C136.766 92.7035 139.351 91.9539 141.594 92.0831C142.621 92.0831 143.571 92.3028 144.458 92.6518C148.07 94.0346 150.312 97.9118 150.312 103.818C150.312 114.299 142.963 127.159 133.979 132.496C129.201 135.34 124.855 135.417 121.864 133.272C120.838 132.574 119.951 131.527 119.267 130.286C118.177 128.412 117.645 125.905 117.645 122.984C117.645 112.425 124.982 99.5919 133.979 94.306ZM124.589 121.033C126.147 121.601 128.2 121.317 130.38 119.999C135.487 117.001 139.567 109.789 139.567 103.896C139.567 103.547 139.567 103.198 139.491 102.926C139.364 101.195 138.883 99.7987 138.059 98.894C136.564 98.4159 134.79 98.6226 132.749 99.7341C132.749 99.7341 132.673 99.7341 132.673 99.7987C132.597 99.7987 132.534 99.8763 132.471 99.9409C131.989 100.212 131.52 100.561 131.039 100.91C128.859 102.784 126.895 105.214 125.324 107.915C125.058 108.341 124.918 108.742 124.716 109.169C123.702 111.469 123.144 113.899 123.144 116.109C123.144 118.202 123.702 119.857 124.513 120.981C124.513 120.981 124.513 121.033 124.589 121.033Z" fill="#232323"/>
<path d="M133.738 98.2867C135.816 97.0977 137.729 96.529 139.402 96.6324C140.162 96.6324 140.859 96.7875 141.518 97.0589C144.205 98.0928 145.877 100.975 145.877 105.369C145.877 113.175 140.403 122.726 133.725 126.706C130.177 128.826 126.933 128.878 124.703 127.275C123.942 126.758 123.283 125.983 122.764 125.065C121.966 123.669 121.547 121.808 121.547 119.637C121.573 111.766 127.034 102.203 133.738 98.2867ZM124.513 120.981C124.513 120.981 124.513 121.046 124.589 121.046C126.147 121.614 128.2 121.33 130.38 120.012C135.486 117.014 139.567 109.802 139.567 103.909C139.567 103.56 139.567 103.211 139.491 102.939C139.364 101.208 138.882 99.8117 138.059 98.9071C136.563 98.4289 134.789 98.6357 132.749 99.7471C132.749 99.7471 132.673 99.7471 132.673 99.8117C132.597 99.8117 132.534 99.8893 132.47 99.9539C131.989 100.225 131.52 100.574 131.039 100.923C128.859 102.797 126.895 105.227 125.324 107.928C125.058 108.354 124.918 108.755 124.715 109.182C123.702 111.482 123.144 113.912 123.144 116.122C123.144 118.203 123.702 119.857 124.513 120.981Z" fill="#2C2C2C"/>
<path d="M122.067 119.172C122.067 119.934 122.131 120.697 122.27 121.395C122.675 124.173 124.044 126.047 125.881 126.875C127.858 127.702 130.507 127.43 133.37 125.763C139.63 122.08 144.674 113.201 144.674 105.912C144.674 102.655 143.647 100.212 141.949 98.9717V98.9071C140.315 97.6535 138.072 97.382 135.411 98.3513C134.726 98.6357 134.055 98.9071 133.37 99.3206C133.168 99.4628 132.965 99.592 132.762 99.7342C133.713 99.1785 134.6 98.8295 135.487 98.7649V98.7003C136.437 98.5581 137.261 98.6357 138.072 98.9071C139.022 100.019 139.567 101.75 139.567 103.909C139.567 109.815 135.487 117.026 130.38 120.012C128.2 121.33 126.16 121.614 124.589 121.059C124.525 121.059 124.525 120.994 124.525 120.994C124.386 120.852 124.323 120.71 124.247 120.503C123.562 119.392 123.157 117.931 123.157 116.135C123.157 115.372 123.22 114.61 123.36 113.847C123.423 113.085 123.638 112.245 123.905 111.482C124.107 110.72 124.386 109.957 124.716 109.195C123.018 112.438 122.067 115.967 122.067 119.172Z" fill="#9FA1A0"/>
<path d="M131.989 125.311C138.249 121.627 143.292 112.749 143.292 105.46C143.292 102.203 142.266 99.7601 140.568 98.5194V98.4548C140.276 98.2221 139.947 98.0412 139.617 97.8861C140.479 98.0541 141.265 98.3901 141.936 98.9071V98.9717C143.634 100.225 144.661 102.655 144.661 105.912C144.661 113.201 139.617 122.093 133.357 125.763C130.494 127.43 127.845 127.702 125.868 126.875C125.792 126.836 125.716 126.797 125.64 126.758C127.452 127.094 129.645 126.668 131.989 125.311Z" fill="#686B6A"/>
<path d="M124.576 121.046C126.211 123.062 129.075 123.333 132.331 121.459C137.362 118.474 141.518 111.185 141.518 105.279C141.518 101.802 140.162 99.5921 138.046 98.8942C138.997 100.006 139.542 101.737 139.542 103.896C139.542 109.802 135.461 117.014 130.354 119.999C128.188 121.317 126.147 121.602 124.576 121.046Z" fill="#CCCECD"/>
<path d="M131.051 100.91C131.596 100.497 132.204 100.07 132.749 99.7343C132.61 99.7989 132.483 99.8764 132.344 99.941C131.862 100.212 131.457 100.497 131.051 100.91Z" fill="#383838"/>
<path d="M125.337 107.915C126.908 105.201 128.872 102.784 131.052 100.897C128.733 102.577 126.692 105.072 125.337 107.915Z" fill="#383838"/>
<path d="M131.647 101.363C132.813 100.678 133.903 100.342 134.891 100.316C137.463 100.225 139.25 102.254 139.25 105.783C139.25 110.707 135.829 116.716 131.634 119.159C128.593 120.955 125.957 120.413 124.728 118.086C124.285 117.22 124.031 116.083 124.031 114.739C124.031 109.854 127.453 103.844 131.647 101.363Z" fill="#9FA1A0"/>
<path d="M133.053 105.111C133.801 104.671 134.498 104.464 135.132 104.439C136.779 104.387 137.919 105.679 137.919 107.928C137.919 111.082 135.727 114.92 133.053 116.484C131.102 117.634 129.417 117.285 128.631 115.799C128.352 115.243 128.188 114.519 128.188 113.666C128.188 110.539 130.38 106.7 133.053 105.111Z" fill="#B9BAB9"/>
<path d="M133.053 108.82C133.32 108.665 133.56 108.587 133.776 108.587C134.346 108.561 134.751 109.027 134.751 109.815C134.751 110.913 133.991 112.257 133.053 112.8C132.369 113.201 131.786 113.085 131.508 112.555C131.406 112.361 131.355 112.102 131.355 111.805C131.355 110.707 132.116 109.375 133.053 108.82Z" fill="#959795"/>
<path d="M41.1453 135.934C41.1453 137.95 41.6902 139.475 42.6406 140.445C44.0725 141.97 59.6968 160.154 73.471 158.5L114.185 127.547L111.664 126.022L88.1829 112.206L83.5577 114.92C83.5577 114.92 83.5577 114.92 83.5577 114.985L81.923 115.889L78.6537 117.828C78.5903 117.828 78.5143 117.828 78.451 117.892C78.3876 117.892 78.3876 117.957 78.3116 117.957L46.6575 136.632L41.1453 135.934Z" fill="#FF5050"/>
<path d="M112.652 136.645L77.3863 157.414C72.9892 159.999 72.7231 159.663 72.7231 154.519V151.96L114.21 127.521L112.652 136.645Z" fill="#DF4444"/>
<path d="M73.078 151.766C70.8857 153.86 67.8319 155.385 64.9934 154.907C62.1169 154.661 59.6586 152.399 58.252 149.207C56.8581 146.028 56.1865 142.215 56.2372 138.364C56.1612 134.513 56.6807 130.597 57.3016 126.707L54.8687 126.138C53.8676 130.08 52.9679 134.086 52.6638 138.248C52.2583 142.383 52.5117 146.739 53.9436 151.017C55.2995 155.217 58.8476 159.637 63.929 160.645C68.8963 161.873 73.8763 159.934 77.5891 156.962L73.078 151.766Z" fill="#DF4444"/>
<path d="M70.3029 136.102L85.5217 127.146C87.8786 125.763 87.5745 123.346 84.8628 121.744C82.151 120.141 78.0327 119.973 75.6884 121.356L60.4696 130.312C58.1127 131.695 58.4168 134.112 61.1285 135.715C63.8403 137.304 67.946 137.485 70.3029 136.102Z" fill="#FF5050"/>
<path d="M83.0126 142.875L98.2314 133.918C100.588 132.535 100.284 130.119 97.5725 128.516C94.8607 126.913 90.7424 126.745 88.3981 128.128L73.1793 137.085C70.8224 138.467 71.1265 140.884 73.8382 142.487C76.5627 144.089 80.6683 144.257 83.0126 142.875Z" fill="#FF5050"/>
<path d="M84.8194 123.311C82.1077 121.708 77.9894 121.54 75.6451 122.923L60.4263 131.879C59.628 132.345 59.1465 132.939 58.9564 133.56C58.6269 132.448 59.0958 131.324 60.4263 130.535L75.6451 121.579C78.002 120.196 82.1077 120.364 84.8194 121.967C86.6062 123.027 87.3158 124.422 86.9356 125.663C86.6822 124.823 85.9852 123.996 84.8194 123.311Z" fill="#A93232"/>
<path d="M97.5419 130.096C94.8301 128.494 90.7118 128.325 88.3675 129.708L73.1487 138.665C72.3504 139.13 71.8689 139.724 71.6788 140.345C71.3493 139.233 71.8182 138.109 73.1487 137.321L88.3675 128.364C90.7245 126.981 94.8301 127.149 97.5419 128.752C99.3286 129.812 100.038 131.208 99.658 132.448C99.4046 131.608 98.695 130.781 97.5419 130.096Z" fill="#A93232"/>
<path d="M59.4631 109.069C59.4631 109.069 62.4156 111.783 62.4917 114.82C62.5677 117.857 61.3639 129.85 62.2636 133.973C63.6575 140.319 68.6501 144.984 68.6501 144.984C68.6501 144.984 65.6976 147.957 63.4167 148.681C61.1358 149.404 57.385 151.136 55.9277 146.083C54.4704 141.017 54.3437 130.174 54.3437 130.174L59.4631 109.069Z" fill="#A93232"/>
<path d="M33.8335 138.054C36.5579 139.928 38.6995 144.555 38.6995 144.555C39.5105 144.826 55.1474 155.773 59.101 158.422C62.0662 160.412 52.2076 150.797 55.8444 132.044V131.837C60.2034 121.912 63.6755 89.8992 62.9912 77.0657C62.9912 77.0657 63.3334 72.8266 56.1105 67.838C50.7376 64.439 43.5147 60.4842 38.9529 58.0545C38.2686 57.4988 36.634 56.3873 34.7332 55.418C33.8462 55.0045 32.8324 55.1466 31.9454 55.418C30.919 55.767 30.108 56.3227 29.9686 56.3873C27.7257 56.8009 25.6096 69.4405 21.5926 90.4032C16.0297 119.211 25.6729 132.225 33.8335 138.054Z" fill="#FF5050"/>
<path d="M31.5021 136.8L32.0977 136.128C24.2158 128.839 22.86 122.868 21.4154 116.561C21.2887 116.005 21.1619 115.437 21.0226 114.881C19.4513 108.251 20.7945 98.752 21.6815 92.4839L21.6942 92.3546C22.5685 86.1641 27.4218 63.4696 28.727 58.9979C29.1198 57.6409 29.6774 56.8137 30.3236 56.6199C31.0079 56.4131 31.6542 56.9559 31.6668 56.9559L32.2371 56.2709C32.199 56.2321 31.2233 55.4179 30.0829 55.754C29.1198 56.0383 28.3848 57.0464 27.878 58.7394C26.5728 63.224 21.6942 86.009 20.8198 92.2254L20.7945 92.3546C19.8948 98.7003 18.5389 108.29 20.1482 115.101C20.2749 115.657 20.4016 116.212 20.5284 116.768C21.9603 122.933 23.4175 129.317 31.5021 136.8Z" fill="#D4DED0"/>
<path d="M32.427 62.6037C32.427 62.6037 37.407 62.539 51.0038 71.0042C59.0757 76.0317 52.4737 99.7601 48.8876 115.282C45.3015 130.79 47.5191 138.209 47.5191 138.209C47.5191 138.209 43.3881 134.332 37.7999 131.631C32.2243 128.917 28.8663 127.198 28.8663 127.198C28.8663 127.198 25.6983 122.093 25.1281 113.421C24.5705 104.762 30.1461 67.0236 32.427 62.6037Z" fill="#CCCECD"/>
<path d="M36.7861 132.845L37.6225 132.548C37.5971 132.471 35.1388 125.22 36.3806 112.555C37.6351 99.7989 43.819 68.1222 43.8823 67.812L43.0206 67.6311C42.9573 67.9542 36.7734 99.6567 35.5063 112.464C34.2264 125.337 36.6721 132.548 36.7861 132.845Z" fill="#D4DED0"/>
<path d="M34.011 72.0899C34.011 72.0899 31.9835 77.8928 36.9382 80.8394C41.8929 83.7861 45.2002 83.1787 47.6585 79.3661C50.1168 75.5535 50.8391 70.2676 51.6248 69.4534C52.4104 68.6392 54.2605 68.0318 54.2605 68.0318L44.1358 62.048C44.1358 62.048 36.8748 63.9219 34.011 72.0899Z" fill="#C7AEA7"/>
<path d="M33.6637 136.377C33.6637 136.377 28.8484 128.7 37.9847 133.353C47.1084 138.005 49.9722 146.354 47.704 145.85C45.4357 145.346 37.9087 142.826 33.6637 136.377Z" fill="#A93232"/>
<path d="M60.8877 75.7474C61.4326 78.1772 61.4326 88.8007 59.1897 105.395C57.0102 122.054 54.9067 126.151 54.9067 126.151C55.2488 128.232 55.5149 130.248 55.8571 132.057V131.85C60.2161 121.925 63.6882 89.9121 63.0039 77.0786C63.0039 77.0786 63.3461 72.8396 56.1232 67.8509C50.7503 64.4519 43.5274 60.4972 38.9656 58.0675C38.2813 57.5117 36.6467 56.4003 34.7459 55.431C33.8589 55.0174 32.8451 55.1596 31.9581 55.431C35.4302 56.7492 44.9593 62.5133 44.9593 62.5133C44.9593 62.5133 50.9531 66.0545 55.0967 68.4842C59.1897 70.9656 60.3429 73.2531 60.8877 75.7474Z" fill="#DF4444"/>
<path d="M81.9229 115.876L97.8132 120.49L105.847 102.926L120.065 71.6892L130.899 74.6229C118.303 34.7783 86.7254 63.4566 86.7254 63.4566L76.2206 69.4921C76.2332 91.5663 82.8099 92.5485 81.9229 115.876Z" fill="#4D3E43"/>
<path d="M67.4392 161.395C69.5554 161.395 71.5955 160.903 73.3315 159.947C78.489 157.091 109.928 138.791 110.244 138.61L109.801 137.821C109.484 138.002 78.0581 156.302 72.9007 159.159C68.1995 161.756 59.2786 160.929 54.7421 152.619C51.27 146.273 54.0705 134.086 55.9332 126.022C56.4274 123.85 56.8583 121.976 57.0863 120.568L57.1497 120.193C59.7094 104.309 61.268 94.7198 61.4708 87.9347C61.5088 86.6294 61.5848 85.337 61.6609 84.0963C61.9776 78.7328 62.2564 74.0931 59.4306 71.5342C56.1486 68.5617 53.5889 66.7652 53.5636 66.7523L53.0694 67.5019C53.0947 67.5148 55.6164 69.2854 58.8477 72.2192C61.3441 74.4938 61.078 78.9267 60.7865 84.0575C60.7105 85.3111 60.6344 86.6035 60.5964 87.9218C60.3937 94.6552 58.8477 104.219 56.288 120.064L56.2247 120.438C55.9966 121.808 55.5784 123.682 55.0842 125.841C53.1961 134.034 50.3576 146.429 53.9818 153.071C57.0737 158.706 62.4845 161.395 67.4392 161.395Z" fill="#D4DED0"/>
<path d="M76.2714 69.5697L84.4447 103.107L81.923 115.876L96.6983 124.548L102.008 127.676L108.001 131.217L121.814 117.957L144.75 95.9475L156.078 83.6826C156.078 83.6826 151.58 72.0252 134.638 62.9267C130.076 60.497 124.563 58.2095 117.961 56.4001L76.2841 69.4921V69.5697H76.2714Z" fill="#A93232"/>
<path d="M76.2079 69.531C76.2079 72.7878 76.3473 75.5665 76.6134 77.9962C77.9059 91.8765 82.3283 95.702 81.9228 113.886C81.9862 114.506 81.9228 115.204 81.9228 115.902L83.6335 116.949C83.6969 116.949 83.6969 116.949 83.6969 116.949L85.9398 118.345L107.925 131.191H107.989L111.727 126.681L111.663 126.06L108.597 107.734L105.809 103.017L98.7256 82.7393L87.9673 76.4195L81.9102 72.8783C81.7708 72.8137 81.6314 72.7361 81.5047 72.594L76.2079 69.531Z" fill="#A93232"/>
<path d="M76.2079 69.531C76.2079 72.7878 76.3473 75.5665 76.6134 77.9962C77.9059 91.8766 82.3283 95.7021 81.9228 113.886C83.0126 115.825 83.6969 116.936 83.6969 116.936C83.6969 116.936 103.034 118.603 107.925 131.165H107.989L111.727 126.655L111.663 126.035L108.597 107.708L105.809 102.991L98.7256 82.7135L87.9673 76.3936C85.5216 75.4243 83.5448 74.1061 81.9102 72.8525C81.7708 72.7878 81.6314 72.7103 81.5047 72.5681L76.2079 69.531Z" fill="#FF5050"/>
<path d="M81.923 115.876L78.6536 117.815C80.7698 116.639 83.0761 116.846 83.621 116.91C83.6843 116.91 83.6843 116.91 83.6843 116.91C83.6843 116.91 83.621 116.148 83.5449 114.972C83.5449 114.907 83.5449 114.907 83.5449 114.907C83.3422 111.301 83.0127 108.742 83.0127 105.77C83.0127 101.673 78.1214 82.1189 78.0454 80.5164C76.7909 79.7668 76.6008 77.9833 76.6008 77.9833C77.9694 92.3418 82.6706 95.9476 81.923 115.876Z" fill="#A93232"/>
<path d="M98.8018 84.3548C99.2833 104.969 109.281 109.065 107.989 131.152V131.217C107.925 132.122 107.849 133.026 107.786 133.996L112.69 136.632L120.445 128.723L121.801 117.957L123.436 104.49L144.737 95.9476L160.158 92.0058C158.803 89.5115 157.434 85.6989 156.078 83.6957C147.297 70.9268 137.489 67.7992 129.125 68.4195C117.822 69.1821 113.045 74.3646 113.045 74.3646L98.7511 82.6876C98.7384 83.2433 98.7384 83.7991 98.8018 84.3548Z" fill="#C4781A"/>
<path d="M108.002 125.763C108.407 128.051 108.002 131.243 108.002 131.243C107.938 132.148 107.862 133.052 107.799 134.022L112.703 136.658L120.458 128.749L121.814 117.983L144.75 95.9734L160.158 93.8151C159.854 92.0704 157.447 85.7376 156.078 83.7215C156.078 83.7215 151.592 72.0641 134.638 62.9656C134.98 63.6635 135.043 64.3484 134.574 64.8395C133.966 65.5374 131.913 66.8557 129.125 68.4453C121.497 73.0204 112.424 77.4404 110.65 78.4097C108.673 79.5212 101.932 82.8556 99.22 84.1738C99.0806 84.316 98.9412 84.3806 98.8145 84.3806C98.5357 84.5228 98.409 84.6649 98.2696 84.7295C96.9137 85.4274 94.7975 86.7457 94.392 87.6504C94.392 87.6504 96.2294 101.401 100.589 106.674C104.935 112.012 107.114 120.968 108.002 125.763Z" fill="#DF4444"/>
<path d="M119.761 76.0316C119.761 76.0316 139.288 65.8992 148.754 74.1576C141.366 67.127 136.234 61.7377 119.761 76.0316Z" fill="#A93232"/>
<path d="M78.0582 80.5034C78.0582 80.5034 91.6169 89.6665 94.3794 87.6116C97.1418 85.5567 98.6751 84.4323 102.185 82.6876C105.695 80.9429 132.433 67.5924 134.562 64.8008C136.69 62.0092 131.52 60.9495 131.52 60.9495L76.3728 75.2563C76.3728 75.2692 75.7519 79.0172 78.0582 80.5034Z" fill="#A93232"/>
<path d="M110.65 119.236C111.055 128.671 112.627 136.658 112.627 136.658C113.717 137.149 115.757 137.356 117.873 136.942C119.444 136.736 121.066 136.18 122.295 135.211C122.295 135.211 123.524 129.86 123.93 127.508C126.654 111.327 135.867 109.479 146.891 102.048C158.055 94.5517 156.623 89.4597 157.979 88.2836C158.334 87.4694 154.849 84.2901 148.767 79.9606C147.145 78.8103 137.311 72.4776 123.157 80.8135C109.332 88.9298 110.042 103.34 110.65 119.236Z" fill="#FF5050"/>
<path d="M142.836 78.7457C143.495 78.7457 144.052 78.2546 144.128 77.5825C145.003 70.5777 153.087 59.7604 155.698 56.4389C156.141 55.8703 156.053 55.0561 155.508 54.5908C154.95 54.1126 154.101 54.1902 153.645 54.7717C150.908 58.2483 142.544 69.4146 141.531 77.2724C141.429 78.0478 142.05 78.7457 142.836 78.7457Z" fill="#D4DED0"/>
<path d="M131.989 66.2999C136.006 66.2999 140.226 65.2918 143.596 63.3016L160.602 53.2984C164.036 51.2693 166 48.4907 166 45.6733C166 43.2565 164.581 41.0723 161.983 39.5602L159.829 38.2937C154.418 35.1015 145.32 35.4633 139.136 39.1079L122.13 49.124C118.696 51.1401 116.732 53.9188 116.732 56.7362C116.732 59.153 118.151 61.3371 120.749 62.8621L122.903 64.1287C125.362 65.5891 128.606 66.2999 131.989 66.2999ZM160.678 41.8736C161.907 42.5974 163.377 43.851 163.377 45.6733C163.377 47.5085 161.882 49.4341 159.284 50.9721L142.278 60.9882C136.906 64.1416 128.808 64.5164 124.209 61.8024L122.054 60.5358C120.825 59.8121 119.355 58.5585 119.355 56.7362C119.355 54.901 120.851 52.9753 123.448 51.4373L140.454 41.4213C145.827 38.2678 153.924 37.893 158.524 40.6071L160.678 41.8736Z" fill="#D4DED0"/>
<path d="M139.136 37.9706L114.984 52.1999L113.121 51.1143V17.512L114.984 14.2293L139.136 0L141.011 1.08561V34.7009L139.136 37.9706Z" fill="#DDA60D"/>
<path d="M161.578 51.1918L137.413 65.4211L135.55 64.3355V30.7202L137.413 27.4375L161.578 13.2083L163.44 14.2939V47.9091L161.578 51.1918Z" fill="#FF5050"/>
<path d="M137.413 27.4375L161.578 13.2083L161.679 13.2729L138.705 26.7913L136.842 30.074V63.6893L138.604 64.7103L137.413 65.4211L135.55 64.3355V30.7202L137.413 27.4375Z" fill="#C76C26"/>
<path d="M139.136 0L161.578 13.2083L137.413 27.4376L114.984 14.2293L139.136 0Z" fill="#FF5050"/>
<path d="M160.627 12.6526L139.136 0L161.578 13.2083L137.413 27.4376L136.462 26.8819L160.627 12.6526Z" fill="#E4B140"/>
<path d="M135.55 64.3355L113.121 51.1143V17.512L135.55 30.7203V64.3355Z" fill="#DF4444"/>
<path d="M134.422 32.3745L113.121 19.8254V17.512L135.55 30.7203V64.3355L134.422 63.6635V32.3745Z" fill="#C46D33"/>
<path d="M134.207 35.4246L114.451 23.793V21.5055L134.207 33.15V35.4246Z" fill="#DCDCDE"/>
<path d="M135.55 30.7204L137.413 27.4377L114.984 14.2294L113.121 17.5121L135.55 30.7204Z" fill="#DF4444"/>
<path d="M135.018 29.428L136.462 26.8819L137.413 27.4377L135.55 30.7204L113.121 17.5121L113.526 16.7754L135.018 29.428Z" fill="#E49A40"/>
<path d="M135.55 64.3355L113.108 51.1272V17.512L135.55 30.7203V64.3355ZM134.79 32.1936L113.868 19.8771V50.6749L134.79 62.9785V32.1936Z" fill="#683E3E"/>
<path d="M137.413 65.4211L135.55 64.3355V30.7202L137.413 27.4375L161.578 13.2083L163.44 14.2939V47.9091L161.578 51.1918L137.413 65.4211ZM162.68 14.7462L161.844 14.2551L161.578 14.1L137.97 28.0062L136.31 30.927V63.8702L137.413 64.5164L161.02 50.6231L162.68 47.7023V14.7462Z" fill="#613635"/>
<path d="M161.578 13.2083L137.413 27.4376L136.754 27.0499L136.855 26.8689L160.07 13.2083L139.136 0.891754L115.731 14.6687L114.984 14.2293L139.136 0L161.578 13.2083Z" fill="#997171"/>
<path d="M131.241 23.5604L154.443 9.89974L155.381 9.56372L155.951 9.89974L131.799 24.129L131.14 23.7413L131.241 23.5604Z" fill="#997171"/>
<path d="M113.121 17.5121L114.984 14.2294L115.731 14.6688L115.528 14.798L114.147 17.2277L117.987 19.4894L119.469 16.8788L120.128 17.2665L118.646 19.8642L129.657 26.3521L131.14 23.7414L131.799 24.1291L130.316 26.7398L135.271 29.6606L136.754 27.05L137.413 27.4377L135.55 30.7204L129.936 27.4118L129.075 26.8949L118.266 20.5363L117.404 20.0322L113.121 17.5121Z" fill="#7D5252"/>
<path d="M119.571 16.6978L142.773 3.03718L143.711 2.68823L144.293 3.03718L120.128 17.2665L119.469 16.8787L119.571 16.6978Z" fill="#997171"/>
<path d="M129.911 11.0241L127.922 9.86098C127.453 9.58957 127.516 9.09846 128.048 8.77536L128.897 8.27133C129.442 7.94823 130.266 7.92238 130.735 8.19379L132.724 9.35694C133.193 9.62835 133.13 10.1195 132.597 10.4426L131.761 10.9337C131.204 11.2568 130.38 11.2955 129.911 11.0241Z" fill="#EB8638"/>
<path d="M144.103 19.4377L142.114 18.2746C141.645 18.0032 141.708 17.5121 142.241 17.189L143.077 16.6978C143.622 16.3747 144.445 16.3489 144.914 16.6203L146.904 17.7835C147.373 18.0549 147.309 18.546 146.777 18.8691L145.941 19.3602C145.396 19.6833 144.572 19.7091 144.103 19.4377Z" fill="#EB8638"/>
<path d="M129.911 10.6364L127.922 9.47328C127.453 9.20188 127.516 8.71077 128.048 8.38767L128.897 7.88364C129.442 7.56054 130.266 7.53469 130.735 7.80609L132.724 8.96925C133.193 9.24065 133.13 9.73176 132.597 10.0549L131.761 10.546C131.204 10.8691 130.38 10.9078 129.911 10.6364Z" fill="#FFE254"/>
<path d="M144.103 19.05L142.114 17.8869C141.645 17.6155 141.708 17.1244 142.241 16.8013L143.077 16.3101C143.622 15.987 144.445 15.9612 144.914 16.2326L146.904 17.3958C147.373 17.6672 147.309 18.1583 146.777 18.4814L145.941 18.9725C145.396 19.2956 144.572 19.3214 144.103 19.05Z" fill="#FFE254"/>
<path d="M128.074 8.7883C128.074 8.7883 128.923 9.29233 129.886 9.84806C130.139 9.99023 130.393 10.1453 130.646 10.2875C131.052 10.533 131.444 10.7527 131.761 10.9466C133.054 11.7091 133.662 10.1195 136.45 11.7479C136.488 11.7737 136.576 11.8125 136.716 11.903C139.529 13.5572 140.137 15.8836 141.43 16.6332C141.886 16.8916 142.469 17.2406 143.039 17.5766C143.305 17.7317 143.559 17.8868 143.799 18.016C144.547 18.4554 145.13 18.8044 145.13 18.8044L146.701 17.8739C146.701 17.8739 146.118 17.5249 145.371 17.0855C145.13 16.9433 144.876 16.8012 144.61 16.6461C144.04 16.3101 143.457 15.9611 143.001 15.7026C141.708 14.9401 141.1 12.6138 138.287 10.9595C138.148 10.882 138.072 10.8303 138.021 10.8044C138.008 10.7915 137.996 10.7915 137.996 10.7915H137.983H137.97C135.208 9.18894 134.6 10.7657 133.32 10.0161C133.003 9.82222 132.61 9.58958 132.205 9.35695C131.951 9.21479 131.698 9.0597 131.444 8.91754C130.481 8.34888 129.632 7.84485 129.632 7.84485L128.074 8.7883Z" fill="#997171"/>
<path d="M143.039 17.5895C143.305 17.7445 143.558 17.8996 143.799 18.0289L145.37 17.0983C145.13 16.9562 144.876 16.814 144.61 16.6589L143.039 17.5895Z" fill="#FFCC54"/>
<path d="M129.886 9.84814C130.139 9.99031 130.393 10.1454 130.646 10.2876L132.217 9.36996C131.964 9.22779 131.71 9.07271 131.457 8.93054L129.886 9.84814Z" fill="#FFCC54"/>
<path d="M162.68 14.7463L161.248 15.2503L138.857 28.4716L136.31 30.9271L137.97 28.0063L161.578 14.1001L162.68 14.7463Z" fill="#9F5238"/>
<path d="M150.49 52.3292L150.857 51.6313C151.149 51.0756 158.144 37.9965 158.144 31.5604C158.144 29.0531 157.269 27.1533 155.698 26.2228C154.114 25.2923 152.036 25.4732 149.882 26.7397C145.713 29.1953 142.329 35.1533 142.329 40.0256C142.329 46.6685 149.539 51.6701 149.844 51.8769L150.49 52.3292ZM153.468 27.0758C154.025 27.0758 154.545 27.205 154.988 27.4635C156.103 28.1226 156.724 29.5701 156.724 31.5475C156.724 36.7946 151.478 47.3406 149.996 50.1968C148.285 48.8527 143.748 44.8204 143.748 40.0256C143.748 35.6056 146.815 30.2034 150.591 27.9934C151.63 27.3859 152.606 27.0758 153.468 27.0758Z" fill="#DCDCDE"/>
<path d="M70.2401 75.9025V76.161C70.2401 77.7765 70.7723 78.875 71.596 79.4049L71.5453 79.4308L88.0946 86.3709L90.819 84.5874L125.603 61.2209C125.603 53.221 103.82 47.0691 103.82 47.0691C103.82 47.0691 102.845 46.9658 101.362 47.0691C99.7146 47.1855 97.4337 47.5861 95.2162 48.7105C88.0439 52.355 85.649 54.8106 83.4821 58.0028C80.3268 62.6942 77.387 64.3873 77.387 64.3873C76.5507 64.8784 75.765 65.4341 75.0174 66.0545C74.0416 66.8557 73.1673 67.7992 72.4323 68.846C71.0891 70.8105 70.2401 73.1497 70.2401 75.9025Z" fill="#9E6E44"/>
<path d="M70.2401 75.9025V76.161C70.2401 77.7765 70.7723 78.875 71.596 79.4049L71.5453 79.4308L87.2583 86.4873L90.8064 84.6004L125.603 61.2209C125.603 53.221 103.82 47.0691 103.82 47.0691C103.82 47.0691 102.845 46.9658 101.362 47.0691C106.342 47.599 114.452 51.683 117.468 53.2985C120.712 55.0303 121.599 55.935 118.57 56.8009C115.542 57.6668 108.686 61.1175 105.518 63.8962C102.363 66.6748 99.8033 70.4486 93.9743 74.0027C88.1453 77.5697 86.46 77.686 85.3575 77.6343C84.2551 77.5826 77.2729 75.14 74.8653 72.258C73.0913 70.1126 74.2824 67.3598 75.03 66.0674C74.0543 66.8687 73.18 67.8121 72.445 68.859C71.0891 70.8105 70.2401 73.1497 70.2401 75.9025Z" fill="#8C5F3C"/>
<path d="M72.4443 68.8589C72.4443 68.8589 71.0631 72.8395 74.2184 74.6488C77.3863 76.4711 83.5955 81.253 87.0549 79.5082C87.1689 79.4565 87.283 79.4178 87.397 79.3919C89.5005 78.2675 91.9842 77.2078 93.6062 76.2514C93.6062 76.2514 90.4763 78.0349 97.2303 74.0673C100.702 72.0253 104.288 68.2515 105.923 66.6747C107.799 64.8783 108.749 63.7927 116.643 59.7604C117.606 59.2693 118.354 58.8945 118.354 58.8945C122.751 57.7314 125.64 57.0076 125.64 62.3581V62.6037C125.64 65.6279 123.816 69.182 121.585 70.5002C121.585 70.5002 111.587 76.3548 106.886 78.9008C100.69 82.261 91.1098 86.4613 91.1098 86.4613C90.8437 86.5647 90.5776 86.6423 90.3242 86.7198C87.4731 87.5599 84.3938 87.03 81.8341 85.505L71.532 79.4049L71.5827 79.379C70.759 78.8491 70.2268 77.7506 70.2268 76.1351V75.8766C70.2395 73.1496 71.0885 70.8104 72.4443 68.8589Z" fill="#734E31"/>
<path d="M71.5954 77.699L71.5447 77.7249L81.8468 83.825C84.4192 85.35 87.4857 85.8799 90.3369 85.0398C90.5903 84.9623 90.8564 84.8718 91.1225 84.7813C91.1225 84.7813 100.702 80.581 106.899 77.2208C111.6 74.6748 121.598 68.8202 121.598 68.8202C123.702 67.5795 125.425 64.3356 125.615 61.4277C125.64 61.725 125.653 62.0352 125.653 62.3712V62.6167C125.653 65.6409 123.828 69.195 121.598 70.5133C121.598 70.5133 111.6 76.3678 106.899 78.9139C100.702 82.2741 91.1225 86.4744 91.1225 86.4744C90.8564 86.5778 90.5903 86.6682 90.3369 86.7329C87.4857 87.5729 84.4065 87.043 81.8468 85.518L71.5447 79.4179L71.5954 79.392C70.7717 78.8622 70.2395 77.7636 70.2395 76.1481V75.8897C70.2395 75.5536 70.2522 75.2176 70.2775 74.8945C70.3789 76.2644 70.8477 77.2208 71.5954 77.699Z" fill="#6B4528"/>
<path d="M72.1529 69.3243C72.2543 69.1692 72.343 69.0141 72.4443 68.8719C72.4443 68.8719 72.2923 69.3114 72.2036 69.9705C72.1782 69.7378 72.1529 69.5311 72.1529 69.3243Z" fill="#6B4528"/>
<path d="M6.74132 151.936C8.08452 153.978 13.5841 156.511 17.0308 157.248C18.1966 157.468 19.0836 157.468 19.4764 157.183C42.4884 137.875 51.6754 159.536 50.2435 167.949C50.1801 168.285 50.2308 168.466 50.3702 168.505C51.0798 168.75 54.0703 165.002 53.4494 160.453C53.3734 159.691 53.0313 157.959 52.9045 156.977V156.912C52.9045 156.77 52.8285 156.641 52.8285 156.485C52.8285 156.343 52.8285 156.214 52.8285 156.214C52.7525 156.072 52.7525 155.943 52.6891 155.788V155.71C52.1442 153.836 51.5993 152.246 51.0671 150.928C51.0671 150.786 50.9911 150.657 50.9277 150.502C49.2297 146.34 47.3163 144.117 43.3754 141.416C39.1303 138.495 32.1482 135.032 26.0531 135.032H26.0404C25.1914 135.032 24.3804 135.096 23.5821 135.238C23.2906 135.29 22.9358 135.381 22.5557 135.51C18.7161 136.841 10.8343 142.308 6.56392 150.644C6.34849 151.044 6.42452 151.484 6.74132 151.936Z" fill="#DF4444"/>
<path d="M12.0381 155.527C10.8977 155.01 9.8079 154.429 8.89553 153.834C10.2134 151.792 15.1427 144.516 20.997 140.419C24.0763 138.261 27.9665 136.619 32.0721 135.973C35.5315 136.968 38.9022 138.623 41.5886 140.264C35.2274 137.963 27.9285 139.941 22.9992 143.391C17.9558 146.92 13.4827 153.343 12.0381 155.527Z" fill="#A93232"/>
<path d="M6.74133 151.934C6.69064 151.52 7.34957 148.018 14.3824 141.284C23.0119 133.013 30.1968 135.908 30.1968 135.908C30.0827 135.688 26.1798 135.223 26.0531 135.042H26.0404C25.1914 135.042 24.3804 135.107 23.5821 135.249C23.2907 135.3 22.9359 135.391 22.5557 135.52C18.7162 136.851 10.8343 142.318 6.56393 150.654C6.34851 151.042 6.42454 151.481 6.74133 151.934Z" fill="#F5A13A"/>
<path d="M29.4872 171.643L31.1725 165.065L34.9233 166.073L33.6055 171.204C33.6055 171.204 31.6033 175.159 30.5262 175.081C28.6001 174.952 29.4872 171.643 29.4872 171.643Z" fill="#DDDEDD"/>
<path d="M32.1229 170.855C32.2243 170.803 32.313 170.777 32.389 170.777C32.6044 170.777 32.7438 170.958 32.7311 171.243C32.7185 171.643 32.4143 172.122 32.0595 172.315C31.8061 172.445 31.5907 172.393 31.502 172.199C31.4639 172.122 31.4513 172.031 31.4513 171.928C31.4639 171.527 31.7681 171.049 32.1229 170.855Z" fill="#959795"/>
<path d="M31.4513 165.724C32.0089 166.28 33.1747 166.668 34.049 166.59C34.936 166.513 35.2021 165.996 34.6446 165.44C34.087 164.884 32.9212 164.496 32.0469 164.574C31.1725 164.652 30.8938 165.168 31.4513 165.724Z" fill="#C7C9C8"/>
<path d="M31.1725 165.078L35.4682 148.341L39.219 149.349L34.9233 166.086C34.8473 166.37 34.5938 166.603 34.163 166.719C33.314 166.952 32.1228 166.642 31.5019 166.008C31.2105 165.698 31.0964 165.362 31.1725 165.078Z" fill="#777883"/>
<path d="M35.7469 148.988C36.3045 149.543 37.4703 149.931 38.3447 149.853C39.2317 149.776 39.4978 149.259 38.9402 148.703C38.3827 148.147 37.2169 147.76 36.3425 147.837C35.4682 147.902 35.1894 148.419 35.7469 148.988Z" fill="#6A6967"/>
<path d="M16.4226 155.863C20.7817 150.616 26.0785 145.227 36.0892 143.185C43.4515 141.673 47.2657 145.963 49.3058 149.854C49.3692 149.996 49.4452 150.138 49.4452 150.267C50.3956 152.076 50.8011 153.873 51.0798 155.062V155.127C51.1432 155.398 51.1432 155.618 51.2192 155.824C51.2192 155.967 51.2826 156.109 51.2826 156.238V156.303C51.422 157.272 51.5107 158.668 51.574 159.43C51.9669 162.273 51.1685 164.768 50.3956 166.202C50.4589 156.962 41.0311 139.114 19.4892 157.194C19.0837 157.466 18.2093 157.466 17.0435 157.259C16.2959 157.104 15.4469 156.858 14.5725 156.548C14.978 156.38 15.4215 156.264 15.9664 156.212C16.0805 155.992 16.2832 156.018 16.4226 155.863Z" fill="#DF4444"/>
<path d="M22.543 135.521C22.543 135.521 29.7912 134.371 40.4609 141.13C51.1051 147.876 51.612 164.819 50.3702 168.49C51.0798 168.735 54.0703 164.987 53.4494 160.438C53.3734 159.676 53.0313 157.944 52.9045 156.962V156.897C52.9045 156.755 52.8285 156.626 52.8285 156.471C52.8285 156.328 52.8285 156.199 52.8285 156.199C52.7525 156.057 52.7525 155.928 52.6891 155.773V155.695C52.1442 153.821 51.5993 152.232 51.0671 150.913C51.0671 150.771 50.9911 150.642 50.9277 150.487C49.2297 146.325 47.3163 144.102 43.3754 141.401C38.5474 138.067 30.1714 134.047 23.5694 135.224C23.2779 135.301 22.9231 135.392 22.543 135.521Z" fill="#DF4444"/>
<path d="M17 157.495C18.1532 157.702 20.5355 158.555 20.941 158.27C43.9529 138.975 51.6446 159.782 50.2127 168.183C49.8072 170.341 53.368 166.128 52.6204 160.713C52.557 159.95 52.4556 158.555 52.3289 157.585V157.521C52.3289 157.379 52.2655 157.236 52.2655 157.107C52.2022 156.9 52.2022 156.694 52.1262 156.409V156.345C51.8474 155.169 51.4419 153.359 50.4915 151.55C50.4915 151.408 50.4281 151.265 50.3521 151.136C48.312 147.246 44.5104 142.968 37.1355 144.467C27.1374 146.509 21.8406 151.899 17.4689 157.146C17.3422 157.314 17.1394 157.288 17 157.495Z" fill="#A93232"/>
<path d="M84.3176 69.4017L84.1782 69.6602L83.532 70.7845C83.3292 71.9606 82.6323 73.1884 81.7326 73.9638C81.7326 73.9638 81.7199 73.9638 81.7199 73.9768L81.4031 74.5325L80.9976 75.2433L80.9469 75.3338L80.6935 75.1916L68.9975 68.4712L68.2498 68.0447C67.8063 67.812 67.5275 67.2951 67.5022 66.5584V66.4033C67.5149 64.8395 68.6046 62.9526 69.9352 62.203C70.5308 61.867 71.0756 61.8153 71.4938 61.9962H71.5065C71.5698 62.0221 71.6332 62.0609 71.6966 62.1126L84.0515 69.2207L84.3176 69.4017Z" fill="#5E5E5E"/>
<path d="M81.4033 74.5324L80.9471 75.3467L68.25 68.0575C67.8065 67.8249 67.5277 67.3079 67.5024 66.5583L81.4033 74.5324Z" fill="#666666"/>
<path d="M84.9006 70.9396C84.9006 70.9526 84.9006 70.9655 84.9006 70.9913V71.0172C84.8626 72.3613 84.0516 73.9251 82.9745 74.8039C82.8098 74.9332 82.6451 75.0495 82.4803 75.1529C82.1635 75.3338 81.8467 75.4372 81.568 75.463C81.568 75.463 81.568 75.463 81.5553 75.463C81.3399 75.476 81.1244 75.4501 80.947 75.3726L80.6936 75.2304C80.3261 74.9461 80.098 74.4162 80.098 73.6925C80.098 73.4598 80.1234 73.2272 80.1741 72.9946C80.4402 71.6117 81.3905 70.1384 82.531 69.5051C83.1012 69.182 83.6208 69.1174 84.0263 69.2854C84.1277 69.3242 84.229 69.3759 84.3177 69.4534C84.6852 69.686 84.9006 70.2159 84.9006 70.9396Z" fill="#5B5B5B"/>
<path d="M84.9006 71.211C84.888 72.6197 83.9376 74.3127 82.7591 75.0623C82.7591 75.0623 82.7591 75.0753 82.7464 75.0753C82.7084 75.1011 82.6577 75.127 82.607 75.1528C82.2269 75.3725 81.8594 75.463 81.5426 75.4371C81.5426 75.4371 81.5426 75.4371 81.5299 75.4371C81.3272 75.4242 81.1371 75.3596 80.9851 75.2433C80.6049 74.9848 80.3768 74.4678 80.3895 73.7699C80.3895 73.5632 80.4148 73.3564 80.4655 73.1367C80.7063 71.8184 81.606 70.4356 82.6704 69.8281C83.2533 69.505 83.7728 69.4533 84.1657 69.6601C84.5712 69.8669 84.8373 70.3192 84.8753 70.9784V71.0042C84.9006 71.0688 84.9006 71.1464 84.9006 71.211Z" fill="#4C4C4C"/>
<path d="M69.8466 62.3452C69.8466 62.3452 69.5044 62.5391 69.3017 62.7717C69.5931 62.9139 81.7707 69.9704 81.7707 69.9704C81.7707 69.9704 81.9228 69.7894 82.2776 69.5568C82.0495 69.4405 69.8466 62.3452 69.8466 62.3452Z" fill="#6B6B6B"/>
<path d="M40.2328 129.537C41.4493 129.537 42.3997 128.787 42.7291 127.573C43.2994 125.492 41.8168 122.39 39.6246 121.059L32.6298 116.936L31.8188 116.846C30.7036 116.846 29.8166 117.608 29.4745 118.849C28.993 120.671 29.7279 123.398 31.616 124.522L39.2317 129.434L40.2328 129.537Z" fill="#AEB1B5"/>
<path d="M39.2064 128.865C40.2328 128.865 41.0438 128.232 41.3226 127.198C41.8041 125.44 40.5496 122.804 38.6995 121.679L32.3003 117.905L31.616 117.828C30.6783 117.828 29.918 118.474 29.6392 119.521C29.221 121.072 29.8546 123.372 31.4513 124.329L38.3701 128.761L39.2064 128.865Z" fill="#9A9DA1"/>
<path d="M32.1355 123.165L38.7501 127.405C40.9423 128.064 40.1947 124.225 38.0025 122.894L31.9454 119.327C30.5008 118.694 30.4755 122.157 32.1355 123.165Z" fill="#7F8388"/>
<path d="M34.8221 122.429C34.1251 122.002 33.783 121.149 33.6563 120.335L37.99 122.894C39.0545 123.54 39.7641 124.768 39.9795 125.789L34.8221 122.429Z" fill="#434343"/>
<path d="M29.842 44.2775C29.9814 43.9932 30.2475 43.7218 30.5896 43.515C30.5896 43.515 29.3605 45.1176 30.5896 46.914C31.54 48.3098 32.3637 51.9285 35.3415 54.0868C36.0131 54.5779 37.217 54.9786 38.2434 55.2758C38.1673 55.2241 38.0786 55.1854 38.0026 55.1337C39.4345 55.3405 41.1452 55.0174 42.7672 55.7152C43.6796 56.09 44.5539 56.6975 45.3649 57.3695C46.2012 57.7185 46.7841 58.0933 46.8348 58.4422C46.7841 58.4034 46.7081 58.4164 46.5941 58.481C47.8866 59.7475 48.9003 61.0528 49.4452 61.6861C50.4716 62.8622 50.5096 62.8751 56.3133 63.4696C60.8371 63.9349 64.8034 61.5569 66.362 60.5876C66.362 60.5876 68.2248 60.7944 66.7548 61.544C65.4623 61.3372 64.9554 62.9656 65.1329 63.8057C65.2089 64.7103 66.7548 65.2531 66.7548 65.2531C66.7548 65.2531 66.248 66.5197 66.1212 67.2176C65.9819 67.9155 62.9913 68.8202 59.2405 70.3452C55.5023 71.9478 51.346 69.7248 51.346 69.7248L43.1093 65.4212C43.008 63.909 42.8179 62.6166 42.5391 61.5052C40.3089 61.1304 35.9751 60.3162 35.9751 60.3162L30.5643 56.7362C29.2464 55.6894 29.5886 53.7508 29.3731 51.3211C29.1324 48.6588 29.2084 48.0126 29.2211 46.8106C29.1957 46.0869 29.7026 44.4843 29.842 44.2775Z" fill="#FF5050"/>
<path d="M29.614 53.1176C29.6774 54.1385 29.9308 54.9915 30.5644 55.4826L35.9753 59.0626C35.9753 59.0626 40.309 59.8768 42.5392 60.2516C42.818 61.363 43.0208 62.6555 43.1095 64.1676L51.3461 68.4712C51.3461 68.4712 55.5024 70.6942 59.2406 69.0916C62.1804 67.8897 64.6514 67.0754 65.6398 66.4422C66.2988 66.0286 66.7549 65.6409 67.0591 65.3049L67.5786 65.4987C67.5659 65.6538 67.5533 65.783 67.5279 65.9123C67.1478 67.657 62.9788 68.846 59.2406 70.3711C55.5024 71.9736 51.3461 69.7507 51.3461 69.7507L43.1095 65.447C43.0081 63.9349 42.818 62.6425 42.5392 61.5311C40.309 61.1563 35.9753 60.3421 35.9753 60.3421L30.5644 56.7621C29.6774 56.0642 29.538 54.6814 29.614 53.1176Z" fill="#A93232"/>
<path d="M31.1322 57.1368L39.8377 71.2368L42.3594 75.3208C42.3594 75.3208 44.0701 74.3645 45.9328 72.6585C49.2021 69.6472 52.915 64.3355 48.6192 57.8347C46.7818 54.9914 44.2728 53.88 41.8145 53.7378C39.3435 53.5439 36.8472 54.2677 34.9084 55.0948C34.8957 55.0948 34.8957 55.0948 34.8957 55.0948C34.8577 55.1207 34.8197 55.1336 34.7943 55.1465L34.7817 55.1594C32.6021 56.09 31.1322 57.1368 31.1322 57.1368Z" fill="#ABAEAC"/>
<path d="M40.499 72.7131L42.3744 75.3237C42.3744 75.3237 55.3756 68.0346 48.6342 57.8247C46.7968 54.9814 44.2752 53.8699 41.8295 53.7278C41.8295 53.7278 48.6722 54.0767 49.5593 61.9991C49.9521 65.8892 45.3903 70.7745 40.499 72.7131Z" fill="#919294"/>
<path d="M29.3731 61.7247C29.3731 66.5712 32.7311 72.4775 36.8748 74.9072C41.0184 77.3498 44.3765 75.3983 44.3765 70.5518C44.3765 65.7053 41.0184 59.7991 36.8748 57.3694C32.7311 54.9267 29.3731 56.8783 29.3731 61.7247Z" fill="#B8B8B8"/>
<path d="M29.5124 62.1384C29.5124 66.8039 32.7437 72.4775 36.7226 74.8297C40.7016 77.1689 43.9329 75.295 43.9329 70.6423C43.9329 65.9768 40.7016 60.3032 36.7226 57.951C32.7437 55.5988 29.5124 57.4728 29.5124 62.1384Z" fill="#CCCCCC"/>
<path d="M30.7163 62.5132C30.7163 66.4938 33.4787 71.3403 36.8747 73.3435C40.2708 75.3467 43.0332 73.7441 43.0332 69.7635C43.0332 65.7829 40.2708 60.9365 36.8747 58.9332C33.4661 56.93 30.7163 58.5326 30.7163 62.5132Z" fill="#A6A6A6"/>
<path d="M31.1473 62.4227C31.1473 66.2094 33.7704 70.8362 37.0143 72.7489C40.2583 74.6617 42.8813 73.1237 42.8813 69.337C42.8813 65.5503 40.2583 60.9235 37.0143 59.0108C33.7704 57.1109 31.1473 58.636 31.1473 62.4227Z" fill="#F4F4ED"/>
<path d="M36.7228 63.6763C36.7228 65.3564 37.8886 67.3984 39.3205 68.2514C40.7524 69.0915 41.9182 68.4194 41.9182 66.7393C41.9182 65.0592 40.7524 63.0172 39.3205 62.1642C37.8886 61.3112 36.7228 61.9962 36.7228 63.6763Z" fill="#FCFCFA"/>
<path d="M40.6638 54.3452C41.8802 54.1126 44.5413 54.2806 45.4663 55.5471C46.9996 57.6279 40.1189 59.2305 40.1189 59.2305C40.1189 59.2305 37.3945 56.5035 35.3163 56.2838C35.1769 55.7927 36.3427 55.1465 40.6638 54.3452Z" fill="#BBBBBB"/>
<path d="M94.3791 87.6504C94.3791 87.6504 96.2165 101.402 100.576 106.675C104.935 112.025 106.912 124.367 105.467 129.744L108.001 131.256C111.739 129.796 109.154 119.728 109.091 117.027C109.028 114.39 106.101 109.324 102.628 103.146C99.093 96.904 98.8143 84.4065 98.8143 84.4065C98.5355 84.5487 98.4088 84.6908 98.2694 84.7554C96.9008 85.4275 94.7973 86.7457 94.3791 87.6504Z" fill="#FF5050"/>
<path d="M117.873 136.942C119.444 136.736 121.066 136.18 122.295 135.211C122.295 135.211 123.524 129.86 123.93 127.508C126.654 111.327 138.021 112.581 149.045 105.162C160.209 97.6665 159.69 97.5502 161.045 96.3741C157.637 71.5471 126.502 85.5826 120.407 93.6083C115.883 99.5663 116.986 130.131 117.873 136.942Z" fill="#FF5050"/>
<path d="M117.467 132.69C117.467 132.69 115.478 102.797 122.371 93.1431C124.855 89.6795 127.655 87.379 131.064 85.8798C134.473 84.3806 140.897 82.4679 140.897 82.4679C140.897 82.4679 123.309 84.0575 117.151 93.5954C110.992 103.133 112.842 133.169 117.467 132.69Z" fill="#DF4444"/>
<path d="M35.937 121.046V126.332L34.6572 125.44V120.335L35.937 121.046Z" fill="#9A9DA1"/>
<path d="M35.9371 125.595L37.2043 124.871V122.416L35.9371 121.666V125.595Z" fill="#7F8388"/>
<path d="M34.9234 55.0949C35.6076 54.8106 40.6636 54.5133 43.9329 59.3081C47.6964 64.8008 47.5317 70.203 45.9478 72.6586C49.2171 69.6473 52.9299 64.3355 48.6341 57.8348C46.7968 54.9915 44.2878 53.88 41.8294 53.7379C39.3458 53.544 36.8621 54.2548 34.9234 55.0949Z" fill="#DF4444"/>
<path d="M46.9561 68.3456C48.6668 66.3941 49.7185 64.1841 49.5158 62.2326C48.7428 55.3441 43.4713 54.1809 42.1154 54C43.2306 54.1034 44.3584 54.4006 45.4228 54.9951C46.5886 55.6413 47.6784 56.6365 48.5907 58.0581C48.8442 58.4459 49.0723 58.8206 49.2623 59.2084C49.3004 59.273 49.3257 59.3376 49.351 59.3893C49.5158 59.6995 49.6552 60.0226 49.7819 60.3198C49.8072 60.3974 49.8452 60.462 49.8706 60.5395C49.9973 60.8756 50.0987 61.1987 50.1874 61.5218C50.2 61.5476 50.2001 61.5735 50.2127 61.6122C50.4028 62.336 50.4915 63.0339 50.5168 63.7059C50.5168 63.7705 50.5168 63.8352 50.5168 63.8868C50.5168 64.1582 50.5042 64.4426 50.4915 64.7011C50.4915 64.7657 50.4788 64.8174 50.4788 64.882C50.4155 65.5282 50.2761 66.1485 50.086 66.756C50.0733 66.7947 50.0607 66.8335 50.048 66.8594C49.9593 67.1178 49.8706 67.3634 49.7692 67.609C49.7439 67.6736 49.7185 67.7382 49.6805 67.8028C49.5791 68.0354 49.4778 68.2552 49.3637 68.4749C49.3384 68.5266 49.313 68.5782 49.2877 68.6299C49.0089 69.1598 48.6794 69.6768 48.3373 70.155C48.2993 70.2067 48.2613 70.2584 48.2233 70.3101C48.0839 70.491 47.9445 70.6719 47.8051 70.8529C47.7544 70.9175 47.7164 70.9692 47.6657 71.0338C47.5136 71.2147 47.3616 71.3957 47.2095 71.5637C47.1715 71.6025 47.1461 71.6412 47.1081 71.68C46.918 71.8868 46.728 72.0807 46.5379 72.2745C46.5126 72.3004 46.4745 72.3391 46.4492 72.365C46.2971 72.5201 46.1324 72.6752 45.9803 72.8173C45.955 72.8432 45.9423 72.8561 45.917 72.8819C46.5886 71.8351 46.9941 70.2454 46.9561 68.3456Z" fill="#A93232"/>
<path d="M42.1462 53.7628C42.0449 53.7502 41.9308 53.7375 41.8294 53.7249C41.8294 53.7375 41.9435 53.7375 42.1462 53.7628Z" fill="#DE7E2A"/>
<path d="M34.7839 55.1452C34.7839 55.1452 34.8219 55.1199 34.8979 55.0819C34.8726 55.1072 34.8346 55.1199 34.7839 55.1452Z" fill="#C4781A"/>
<path d="M31.7682 42.7913L32.8833 42.3906L24.7354 19.1145C24.4313 18.2357 24.7354 17.2535 25.4957 16.7236L27.4598 15.3407L26.7882 14.3585L24.8241 15.7414C23.6329 16.5814 23.1387 18.1323 23.6329 19.5281L31.7682 42.7913Z" fill="#B8B8B8"/>
<path d="M131.178 70.2159L132.217 66.5972C132.42 65.8863 132.027 65.1497 131.33 64.93C130.633 64.7232 129.898 65.1238 129.696 65.8346L128.656 69.4534C128.454 70.1642 128.847 70.9008 129.543 71.1206C130.24 71.3273 130.975 70.9267 131.178 70.2159Z" fill="#D4DED0"/>
<path d="M129.36 95.6148C135.291 87.6407 158.898 80.5455 161.293 97.2432C161.293 97.2432 152.841 104.145 148.191 106.38C144.82 107.996 134.784 110.8 128.081 115.35C124.089 118.064 124.71 117.017 124.786 114.316C124.989 108.41 125.61 100.668 129.36 95.6148Z" fill="#A93232"/>
<path d="M125.374 117.414C125.919 117.414 126.565 117.13 127.288 116.548C132.166 112.684 139.541 109.699 144.433 107.721C146.017 107.075 147.271 106.571 148.12 106.17C152.859 103.896 161.235 97.0719 161.59 96.7876L161.768 96.6454L161.73 96.4128C160.957 91.0106 157.941 87.4824 153.037 86.19C144.724 84.0058 132.521 88.9686 128.365 94.5518C124.525 99.7084 123.816 107.605 123.626 113.899C123.575 115.721 123.942 116.846 124.728 117.259C124.931 117.363 125.146 117.414 125.374 117.414ZM160.893 96.2965C159.613 97.3304 152.048 103.379 147.778 105.434C146.954 105.834 145.649 106.351 144.141 106.972C139.212 108.962 131.774 111.973 126.806 115.915C126.071 116.497 125.463 116.716 125.108 116.535C124.652 116.29 124.411 115.346 124.449 113.938C124.639 107.76 125.336 100.032 129.024 95.0687C133.028 89.6794 144.825 84.8976 152.847 87.0042C157.332 88.1673 160.12 91.3854 160.893 96.2965Z" fill="#D4DED0"/>
</g>
<defs>
<clipPath id="clip0">
<rect width="166" height="205" fill="white" transform="matrix(-1 0 0 1 166 0)"/>
</clipPath>
</defs>
</svg>
