<svg width="32" height="32" viewBox="0 0 32 32" fill="none" xmlns="http://www.w3.org/2000/svg">
<g opacity="0.3">
<path fill-rule="evenodd" clip-rule="evenodd" d="M16 26C21.5228 26 26 21.5228 26 16C26 10.4772 21.5228 6 16 6C10.4772 6 6 10.4772 6 16C6 21.5228 10.4772 26 16 26ZM28 16C28 22.6274 22.6274 28 16 28C9.37258 28 4 22.6274 4 16C4 9.37258 9.37258 4 16 4C22.6274 4 28 9.37258 28 16Z" fill="#282141"/>
<path fill-rule="evenodd" clip-rule="evenodd" d="M15.9497 11.0502C16.3403 11.4407 16.3403 12.0739 15.9497 12.4644L12.4142 15.9999L15.9497 19.5355C16.3403 19.926 16.3403 20.5592 15.9497 20.9497C15.5592 21.3402 14.926 21.3402 14.5355 20.9497L10.2929 16.7071C10.1054 16.5195 10 16.2652 10 15.9999C10 15.7347 10.1054 15.4804 10.2929 15.2928L14.5355 11.0502C14.926 10.6597 15.5592 10.6597 15.9497 11.0502Z" fill="#282141"/>
<path fill-rule="evenodd" clip-rule="evenodd" d="M10 16C10 15.4477 10.4477 15 11 15H21C21.5523 15 22 15.4477 22 16C22 16.5523 21.5523 17 21 17H11C10.4477 17 10 16.5523 10 16Z" fill="#282141"/>
</g>
</svg>
