<svg width="116" height="36" viewBox="0 0 116 36" fill="none" xmlns="http://www.w3.org/2000/svg">
<path d="M4.44 14.25H0V36H4.44V27.03H5.31L7.02 36H11.79L9.21 24.27L11.82 14.25H7.32L5.1 23.58H4.44V14.25Z" fill="white"/>
<path d="M20.1478 33.3L20.5378 36H24.9178L20.9878 14.25H16.3378L12.4078 36H16.7878L17.1778 33.3H20.1478ZM18.6778 22.14L19.6678 29.85H17.6578L18.6778 22.14Z" fill="white"/>
<path d="M32.5835 18.06C32.8535 18.06 33.0035 18.21 33.0035 18.51V25.11C33.0035 25.41 32.8535 25.56 32.5835 25.56H30.4535V18.06H32.5835ZM37.2935 17.07C37.2935 15.36 36.3935 14.25 34.3535 14.25H26.1035V36H30.4535V29.07H31.0235L33.1235 36H37.6235L35.3435 29.07C36.6335 29.07 37.2935 28.11 37.2935 27.15V17.07Z" fill="white"/>
<path d="M39.1406 32.64C39.1406 35.04 40.0106 36 42.5306 36H50.1206V23.46H45.8906V32.04H43.9106C43.6406 32.04 43.5206 31.89 43.5206 31.62V18.72C43.5206 18.45 43.6406 18.3 43.9106 18.3H48.6806L47.9306 14.25H41.7206C40.0106 14.25 39.1406 15.3 39.1406 16.89V32.64Z" fill="white"/>
<path d="M58.3062 18.06C58.5762 18.06 58.6962 18.21 58.6962 18.48V31.74C58.6962 32.07 58.6362 32.19 58.2762 32.19H56.6262C56.2662 32.19 56.2062 32.07 56.2062 31.74V18.48C56.2062 18.21 56.3262 18.06 56.5962 18.06H58.3062ZM63.1062 17.07C63.1062 15.36 62.2062 14.25 60.1662 14.25H54.7662C52.7262 14.25 51.8262 15.36 51.8262 17.07V32.91C51.8262 34.56 52.5462 36 54.9462 36H59.9862C62.3862 36 63.1062 34.56 63.1062 32.91V17.07Z" fill="white"/>
<path d="M65 36H73.1L73.85 31.95H69.47V14.25H65V36Z" fill="#FF6D67"/>
<path d="M83.0553 36C85.5753 36 86.4453 35.04 86.4453 32.64V14.25H82.0053V31.71C82.0053 32.04 81.9453 32.19 81.5853 32.19H80.0553C79.6953 32.19 79.6353 32.04 79.6353 31.71V14.25H75.1953V32.64C75.1953 35.04 76.0653 36 78.5853 36H83.0553Z" fill="#FF6D67"/>
<path d="M99.6624 14.25H95.3724L93.6924 21.9L92.0724 14.25H87.7524L90.7224 24.66L87.6324 36H92.0424L93.6924 28.35L95.3724 36H99.7824L96.6924 24.66L99.6624 14.25Z" fill="#FF6D67"/>
<path d="M95.0996 0.935687L95.6584 0.500043L100.1 3.58618L103.6 0L104.158 0.696083L101.315 5.12876C101.315 5.14328 101.315 5.17958 101.315 5.23767C101.315 5.28123 101.325 5.31027 101.345 5.3248C101.6 5.58618 101.923 6.14163 102.394 6.62083C102.884 7.08552 103.384 7.57199 103.894 8.08024C104.404 8.58849 104.864 9.08222 105.276 9.56143C105.707 10.0406 105.982 10.4109 106.1 10.6723L105.276 10.5416L100.6 7.08618C100.364 7.20235 100.256 7.12909 99.982 7.49212C99.7271 7.84064 99.4624 8.23272 99.1878 8.66836C98.9329 9.08948 98.6976 9.49608 98.482 9.88816C98.2663 10.2802 98.0898 10.5779 97.9526 10.7812L97.0996 10.5416L98.5996 5.58618L95.0996 0.935687Z" fill="#FF6D67"/>
<path d="M106.12 17.2407L106.14 16.7868L109.508 15.971L109.214 12.7622L109.788 12.7908L110.771 16.0452C110.778 16.0514 110.796 16.0668 110.824 16.0916C110.846 16.1102 110.864 16.1179 110.879 16.1146C111.114 16.1037 111.521 16.1853 111.952 16.1637C112.385 16.1266 112.832 16.094 113.294 16.066C113.756 16.038 114.19 16.0274 114.597 16.034C115.011 16.0313 115.308 16.0574 115.485 16.1124L115.077 16.4519L111.43 17.2232C111.389 17.3857 111.308 17.4062 111.371 17.6927C111.435 17.9636 111.517 18.2578 111.615 18.5753C111.715 18.8772 111.816 19.1635 111.918 19.4342C112.019 19.7048 112.091 19.9165 112.134 20.069L111.66 20.3762L109.86 17.5436L106.12 17.2407Z" fill="#FF6D67"/>
<path d="M100.558 26.6782L100.578 26.2243L103.945 25.4085L103.651 22.1997L104.226 22.2283L105.208 25.4827C105.216 25.4889 105.233 25.5043 105.262 25.5291C105.283 25.5477 105.301 25.5554 105.317 25.5521C105.551 25.5412 105.958 25.6228 106.39 25.6012C106.822 25.5641 107.269 25.5315 107.731 25.5035C108.193 25.4755 108.627 25.4649 109.034 25.4715C109.449 25.4688 109.745 25.4949 109.922 25.5499L109.514 25.8894L105.868 26.6607C105.826 26.8232 105.745 26.8437 105.809 27.1302C105.873 27.4011 105.954 27.6953 106.053 28.0128C106.152 28.3147 106.253 28.601 106.355 28.8717C106.457 29.1423 106.529 29.354 106.571 29.5065L106.097 29.8137L104.298 26.9811L100.558 26.6782Z" fill="#FF6D67"/>
</svg>
