<svg width="145" height="45" viewBox="0 0 145 45" fill="none" xmlns="http://www.w3.org/2000/svg">
<path d="M5.55 17.8125H0V45H5.55V33.7875H6.6375L8.775 45H14.7375L11.5125 30.3375L14.775 17.8125H9.15L6.375 29.475H5.55V17.8125Z" fill="#8163E4"/>
<path d="M25.1848 41.625L25.6723 45H31.1473L26.2348 17.8125H20.4223L15.5098 45H20.9848L21.4723 41.625H25.1848ZM23.3473 27.675L24.5848 37.3125H22.0723L23.3473 27.675Z" fill="#8163E4"/>
<path d="M40.7294 22.575C41.0669 22.575 41.2544 22.7625 41.2544 23.1375V31.3875C41.2544 31.7625 41.0669 31.95 40.7294 31.95H38.0669V22.575H40.7294ZM46.6169 21.3375C46.6169 19.2 45.4919 17.8125 42.9419 17.8125H32.6294V45H38.0669V36.3375H38.7794L41.4044 45H47.0294L44.1794 36.3375C45.7919 36.3375 46.6169 35.1375 46.6169 33.9375V21.3375Z" fill="#8163E4"/>
<path d="M48.9258 40.8C48.9258 43.8 50.0133 45 53.1633 45H62.6508V29.325H57.3633V40.05H54.8883C54.5508 40.05 54.4008 39.8625 54.4008 39.525V23.4C54.4008 23.0625 54.5508 22.875 54.8883 22.875H60.8508L59.9133 17.8125H52.1508C50.0133 17.8125 48.9258 19.125 48.9258 21.1125V40.8Z" fill="#8163E4"/>
<path d="M72.8827 22.575C73.2202 22.575 73.3702 22.7625 73.3702 23.1V39.675C73.3702 40.0875 73.2952 40.2375 72.8452 40.2375H70.7827C70.3327 40.2375 70.2577 40.0875 70.2577 39.675V23.1C70.2577 22.7625 70.4077 22.575 70.7452 22.575H72.8827ZM78.8827 21.3375C78.8827 19.2 77.7577 17.8125 75.2077 17.8125H68.4577C65.9077 17.8125 64.7827 19.2 64.7827 21.3375V41.1375C64.7827 43.2 65.6827 45 68.6827 45H74.9827C77.9827 45 78.8827 43.2 78.8827 41.1375V21.3375Z" fill="#8163E4"/>
<path d="M81.25 45H91.375L92.3125 39.9375H86.8375V17.8125H81.25V45Z" fill="#FF6D67"/>
<path d="M103.819 45C106.969 45 108.057 43.8 108.057 40.8V17.8125H102.507V39.6375C102.507 40.05 102.432 40.2375 101.982 40.2375H100.069C99.6191 40.2375 99.5441 40.05 99.5441 39.6375V17.8125H93.9941V40.8C93.9941 43.8 95.0816 45 98.2316 45H103.819Z" fill="#FF6D67"/>
<path d="M124.578 17.8125H119.216L117.116 27.375L115.091 17.8125H109.691L113.403 30.825L109.541 45H115.053L117.116 35.4375L119.216 45H124.728L120.866 30.825L124.578 17.8125Z" fill="#FF6D67"/>
<path d="M118.875 1.16961L119.574 0.625054L125.125 4.48273L129.5 0L130.199 0.870103L126.645 6.41094C126.645 6.4291 126.645 6.47448 126.645 6.54708C126.645 6.60154 126.657 6.63784 126.681 6.65599C127 6.98273 127.404 7.67703 127.993 8.27604C128.605 8.8569 129.23 9.46499 129.868 10.1003C130.505 10.7356 131.081 11.3528 131.596 11.9518C132.135 12.5508 132.478 13.0137 132.625 13.3404L131.596 13.177L125.75 8.85773C125.456 9.00294 125.321 8.91136 124.978 9.36515C124.659 9.8008 124.328 10.2909 123.985 10.8354C123.667 11.3619 123.373 11.8701 123.103 12.3602C122.833 12.8503 122.613 13.2224 122.441 13.4765L121.375 13.177L123.25 6.98273L118.875 1.16961Z" fill="#FF6D67"/>
<path d="M132.65 21.5507L132.675 20.9832L136.884 19.9635L136.517 15.9525L137.235 15.9882L138.463 20.0562C138.472 20.064 138.495 20.0833 138.53 20.1143C138.557 20.1375 138.58 20.1471 138.599 20.1431C138.892 20.1294 139.401 20.2313 139.94 20.2044C140.481 20.158 141.04 20.1172 141.617 20.0823C142.194 20.0473 142.737 20.0339 143.246 20.0423C143.764 20.0389 144.134 20.0715 144.356 20.1403L143.846 20.5646L139.288 21.5288C139.236 21.7318 139.135 21.7575 139.214 22.1156C139.294 22.4543 139.396 22.8221 139.519 23.2189C139.644 23.5963 139.77 23.9541 139.897 24.2925C140.024 24.6308 140.114 24.8953 140.167 25.086L139.575 25.47L137.325 21.9292L132.65 21.5507Z" fill="#FF6D67"/>
<path d="M125.698 33.348L125.723 32.7806L129.932 31.7609L129.565 27.7499L130.283 27.7856L131.511 31.8536C131.52 31.8613 131.542 31.8807 131.578 31.9116C131.604 31.9349 131.627 31.9444 131.646 31.9404C131.939 31.9268 132.448 32.0287 132.988 32.0018C133.528 31.9553 134.087 31.9146 134.664 31.8796C135.242 31.8446 135.785 31.8313 136.293 31.8397C136.812 31.8362 137.182 31.8689 137.403 31.9376L136.893 32.362L132.335 33.3261C132.284 33.5292 132.182 33.5548 132.261 33.913C132.341 34.2517 132.443 34.6194 132.566 35.0163C132.691 35.3936 132.817 35.7515 132.944 36.0898C133.072 36.4282 133.162 36.6927 133.214 36.8834L132.622 37.2674L130.372 33.7266L125.698 33.348Z" fill="#FF6D67"/>
</svg>
