<?xml version="1.0" encoding="utf-8"?>
<!-- Generator: Adobe Illustrator 24.0.2, SVG Export Plug-In . SVG Version: 6.00 Build 0)  -->
<svg version="1.1" id="Layer_1" xmlns="http://www.w3.org/2000/svg" xmlns:xlink="http://www.w3.org/1999/xlink" x="0px" y="0px"
	 viewBox="0 0 145 45" style="enable-background:new 0 0 145 45;" xml:space="preserve">
<style type="text/css">
	.st0{fill:none;}
	.st1{fill:#675EA7;}
	.st2{fill:#ED6D67;}
</style>
<g>
	<title>logotype</title>
	<path class="st0" d="M48.64,27.33c0,0.8,0.65,1.44,1.44,1.44h0.37c1.07,0,2.17-0.87,2.17-1.94v-0.94h-1.91
		C49.66,25.88,48.64,26.53,48.64,27.33z"/>
	<path class="st0" d="M75.55,20.44c-1.02-0.68-2.41-0.41-3.09,0.62c-0.06,0.09-0.11,0.18-0.16,0.28c-0.03,0.07-0.15,0.61-0.37,1.64
		c-0.13,0.55-0.22,1.1-0.28,1.65c-0.05,0.33,0.08,0.66,0.34,0.87c0.25,0.18,0.53,0.31,0.83,0.37h2.29l0.95-4.64
		C76.11,20.95,75.95,20.69,75.55,20.44z"/>
	<path class="st0" d="M88.02,20.45c-0.33-0.23-0.72-0.37-1.13-0.39c-0.47,0.02-0.93,0.14-1.34,0.37c-0.49,0.25-0.76,0.51-0.81,0.8
		l-1.28,6.4c-0.05,0.28,0.12,0.55,0.51,0.8c0.34,0.23,0.73,0.35,1.14,0.37c0.46-0.02,0.92-0.15,1.32-0.37
		c0.5-0.25,0.77-0.51,0.83-0.78l1.28-6.44C88.59,20.96,88.41,20.71,88.02,20.45z"/>
	<path class="st1" d="M67.98,18.64c0.03-0.15,0.05-0.31,0.05-0.47c0.02-0.43-0.28-0.81-0.71-0.88c-0.49-0.09-0.99-0.12-1.49-0.1
		c-0.18,0-0.34,0-0.51,0h-0.04c-3.05,0-5.36,1.19-6.32,3.23c-0.12,0.2-0.21,0.42-0.26,0.65l-1.96,9.69
		c-0.05,0.27,0.14,0.49,0.58,0.66c0.35,0.15,0.72,0.22,1.1,0.22c0.42,0,0.83-0.08,1.23-0.22c0.49-0.18,0.76-0.39,0.81-0.65
		l1.93-9.59c0.07-0.37,0.41-0.64,1.02-0.86c0.5-0.19,1.03-0.29,1.57-0.29h0.94c0.51,0.04,1.02-0.07,1.47-0.32
		C67.72,19.47,67.93,19.07,67.98,18.64z"/>
	<path class="st1" d="M79.85,20.78c0-0.73-0.37-1.47-1.12-2.2c-0.68-0.69-1.57-1.14-2.53-1.28c-0.41-0.06-0.82-0.1-1.23-0.1
		c-1.21,0.02-2.4,0.31-3.47,0.87c-1.33,0.66-2.22,1.5-2.69,2.52c-0.25,0.78-0.45,1.58-0.59,2.38c-0.15,0.7-0.25,1.42-0.28,2.14
		c-0.06,1.33,0.75,2.55,2,3.01c1.01,0.43,2.55,0.66,4.6,0.67l-0.35,1.71c-0.06,0.27-0.33,0.53-0.83,0.79
		c-0.41,0.22-0.86,0.35-1.32,0.37c-0.4-0.01-0.78-0.13-1.1-0.37c-0.3-0.17-0.5-0.48-0.54-0.82c0-0.32,0-0.55,0-0.69
		c0-0.22-0.22-0.37-0.62-0.51c-0.31-0.1-0.63-0.16-0.96-0.16c-1.22,0-1.91,0.4-2.07,1.19c-0.23,1.23,0.31,2.48,1.36,3.17
		c1,0.7,2.2,1.07,3.41,1.03c0.99-0.03,1.96-0.24,2.87-0.61c0.81-0.3,1.56-0.75,2.2-1.33c0.62-0.49,1.07-1.17,1.28-1.94l1.96-9.59
		C79.84,20.95,79.85,20.86,79.85,20.78z M75.12,25.86h-2.29c-0.3-0.06-0.59-0.18-0.83-0.37c-0.26-0.21-0.39-0.54-0.34-0.87
		c0.06-0.56,0.15-1.11,0.28-1.65c0.21-1.02,0.33-1.57,0.37-1.64c0.53-1.11,1.86-1.59,2.97-1.06c0.1,0.05,0.19,0.1,0.28,0.16
		c0.39,0.25,0.56,0.51,0.51,0.78L75.12,25.86z"/>
	<path class="st1" d="M92.32,20.78c0-0.73-0.37-1.47-1.1-2.2c-0.68-0.69-1.57-1.14-2.53-1.28c-0.41-0.06-0.82-0.1-1.23-0.1
		c-0.99,0.03-1.96,0.23-2.87,0.61c-0.81,0.32-1.57,0.77-2.22,1.35c-0.73,0.66-1.18,1.3-1.3,1.94l-1.34,6.68
		c-0.02,0.11-0.03,0.23-0.03,0.34c0,0.73,0.37,1.47,1.1,2.16c1.01,0.95,2.36,1.46,3.74,1.39c1-0.03,1.98-0.23,2.9-0.61
		c0.82-0.3,1.56-0.76,2.2-1.35c0.75-0.65,1.18-1.29,1.3-1.92l1.34-6.72C92.31,20.97,92.32,20.87,92.32,20.78z M87.25,27.66
		c-0.05,0.27-0.33,0.53-0.83,0.78c-0.41,0.22-0.86,0.35-1.32,0.37c-0.41-0.01-0.8-0.14-1.14-0.37c-0.4-0.25-0.56-0.52-0.51-0.8
		l1.27-6.4c0.05-0.28,0.32-0.55,0.81-0.8c0.41-0.23,0.87-0.35,1.34-0.37c0.41,0.02,0.8,0.15,1.13,0.39c0.4,0.26,0.58,0.51,0.53,0.77
		L87.25,27.66z"/>
	<path class="st2" d="M99.51,28.81c-1.94-0.04-3.22-0.19-3.47-0.37c-0.25-0.18-0.31-0.37-0.2-0.93l2.5-12.32
		c0.05-0.26-0.14-0.47-0.58-0.63c-0.35-0.14-0.72-0.22-1.1-0.22c-0.38,0.01-0.77,0.08-1.13,0.2c-0.56,0.17-0.87,0.4-0.92,0.66
		l-2.48,12.37c-0.5,2.57,1.03,4.08,3.3,4.08h2.59l0,0c0.45,0.01,0.91-0.04,1.35-0.15c0.55-0.21,0.94-0.7,1.02-1.28
		c0.07-0.29,0.04-0.6-0.08-0.87C100.16,29.03,99.85,28.82,99.51,28.81z"/>
	<path class="st2" d="M114.5,17.42c-0.34-0.14-0.71-0.22-1.07-0.22c-0.41,0.01-0.82,0.09-1.2,0.24c-0.5,0.19-0.78,0.4-0.83,0.65
		l-1.92,9.54c-0.05,0.29-0.33,0.55-0.83,0.8c-0.41,0.22-0.86,0.35-1.33,0.37c-0.44,0.02-0.88-0.11-1.24-0.37
		c-0.33-0.26-0.47-0.51-0.42-0.77l1.93-9.59c0.05-0.24-0.17-0.45-0.65-0.65c-0.32-0.13-0.67-0.21-1.02-0.22
		c-0.41,0.01-0.82,0.09-1.2,0.24c-0.5,0.19-0.78,0.4-0.83,0.65l-1.96,9.69c-0.02,0.11-0.03,0.23-0.02,0.34
		c0,0.73,0.37,1.47,1.1,2.16c1.01,0.95,2.36,1.46,3.74,1.39c0.99-0.03,1.98-0.23,2.9-0.61c0.82-0.3,1.56-0.76,2.2-1.35
		c0.75-0.65,1.18-1.29,1.3-1.92l1.96-9.73C115.16,17.83,114.95,17.62,114.5,17.42z"/>
	<path class="st2" d="M125.31,16.75h-0.1c-0.62,0.02-1.2,0.33-1.56,0.83l-2.34,3.17l-1.1-3.17c-0.19-0.52-0.69-0.86-1.24-0.83h-0.1
		c-1.2,0-2.22,1.29-1.86,2.35l1.76,5.08l-4.28,5.8c-0.42,0.56-0.32,1.27,0.22,1.53l0.54,0.25c0.69,0.33,1.63,0.03,2.17-0.7
		l2.54-3.44l1.19,3.44c0.25,0.73,1.07,1.03,1.9,0.7l0.64-0.25c0.62-0.22,0.98-0.88,0.82-1.53l-2.02-5.8l3.74-5.09
		C127.03,18.04,126.53,16.75,125.31,16.75z"/>
	<path class="st1" d="M57.32,20.78c0-0.73-0.37-1.47-1.1-2.2c-0.68-0.69-1.57-1.14-2.52-1.28c-0.41-0.06-0.82-0.1-1.23-0.1
		c-1.46,0-2.88,0.42-4.1,1.21c-0.61,0.39-1.16,0.87-1.61,1.43c-0.45,0.51-0.71,1.16-0.73,1.83c0,0.62,0.54,0.93,1.62,0.93
		c0.89,0,1.51-0.21,1.88-0.65c0.11-0.23,0.2-0.47,0.28-0.71c0.17-0.36,0.45-0.65,0.8-0.83c0.39-0.22,0.83-0.34,1.28-0.34
		c1.04,0,1.57,0.49,1.57,1.47c-0.01,0.5-0.12,1-0.31,1.47c-0.37-0.04-0.73-0.06-1.1-0.06c-1.78-0.05-3.54,0.42-5.07,1.35
		c-1.5,0.97-2.24,2.2-2.24,3.7c-0.01,1.05,0.49,2.04,1.34,2.66c1,0.73,2.22,1.09,3.45,1.04c1-0.03,1.98-0.24,2.9-0.61
		c0.81-0.3,1.56-0.76,2.2-1.35c0.75-0.65,1.18-1.29,1.3-1.92l1.34-6.72C57.31,20.98,57.33,20.88,57.32,20.78z M52.61,26.82
		c0,1.07-1.1,1.94-2.17,1.94h-0.37c-0.8,0-1.44-0.65-1.44-1.44c0-0.8,1.02-1.45,2.07-1.45h1.91L52.61,26.82z"/>
	<path class="st1" d="M30.15,11.43h-2.52c-1.06,0-1.98,0.73-2.23,1.76l-5.27,21.54c-0.3,1.24,0.46,2.49,1.7,2.79
		c0.18,0.04,0.36,0.06,0.54,0.06h2.51c1.06,0,1.99-0.72,2.24-1.76l5.26-21.54c0.3-1.24-0.46-2.48-1.69-2.78
		C30.52,11.46,30.33,11.43,30.15,11.43z"/>
	<path class="st2" d="M54.71,42.4c-5.82-3.71-15.46-10.88-15.85-17.9C38.28,14.44,61.14,6.88,61.14,6.88S32.63,13.29,30.5,24.51
		c-1.6,8.4,15.2,15.7,23.75,18.83c0.28,0.09,0.58-0.05,0.67-0.33C54.99,42.78,54.91,42.54,54.71,42.4z"/>
	<path class="st2" d="M61.77,12.85c0.5-1.17,2.57-6.34,2.57-6.34l3.1-1.16c0.32-0.12,0.58-0.34,0.76-0.62
		c0.23-0.37,0.12-0.85-0.25-1.08c-0.06-0.04-0.12-0.06-0.19-0.08c-0.32-0.1-0.67-0.09-0.98,0.03l-3.1,1.16c0,0-4.96-2.53-6.11-3.08
		S55,1.61,55,1.61l6.45,5.23l-1.57,7.74C59.88,14.58,61.27,14.01,61.77,12.85z"/>
</g>
</svg>
