<svg width="12" height="9" viewBox="0 0 12 9" fill="none" xmlns="http://www.w3.org/2000/svg">
<path d="M5.25 3.18393V8.2174C5.25 8.64964 5.58581 9 6 9C6.41419 9 6.75 8.64964 6.75 8.2174V3.19821C9.20161 3.64953 10.5 6.27429 10.5 8.21735C10.5 8.64959 10.8358 8.99995 11.25 8.99995C11.6642 8.99995 12 8.64959 12 8.21735C12 5.17703 9.92292 2.04196 6.75 1.61554V0.782604C6.75 0.350362 6.41419 0 6 0C5.58581 0 5.25 0.350362 5.25 0.782604V1.60683C1.94119 1.97568 0 4.9354 0 8.21735C0 8.64959 0.335812 8.99995 0.75 8.99995C1.16419 8.99995 1.5 8.64959 1.5 8.21735C1.5 6.58855 2.30634 3.61641 5.25 3.18393V3.18393Z" fill="#282141"/>
</svg>
