<svg width="34" height="34" viewBox="0 0 34 34" fill="none" xmlns="http://www.w3.org/2000/svg">
<g clip-path="url(#clip0)">
<path d="M22.8832 10.5089L7.2588 11.4468C6.64282 11.4849 6.05358 11.712 5.57142 12.0973C5.08926 12.4825 4.73764 13.0071 4.5645 13.5994C4.39137 14.1918 4.40514 14.8232 4.60395 15.4074C4.80275 15.9917 5.17691 16.5004 5.67542 16.8643L10.4389 20.3148C10.551 20.4 10.6449 20.5067 10.7153 20.6286C10.7857 20.7506 10.8311 20.8853 10.8489 21.025L11.4554 26.8755C11.5077 27.3727 11.6834 27.8489 11.9666 28.2609C12.2497 28.6729 12.6314 29.0076 13.0768 29.2346C13.5222 29.4616 14.0173 29.5737 14.517 29.5607C15.0167 29.5477 15.5053 29.41 15.9383 29.1601C16.3415 28.922 16.6863 28.5967 16.9475 28.208L25.5718 15.1458C25.877 14.6812 26.047 14.1409 26.063 13.5852C26.079 13.0296 25.9403 12.4804 25.6623 11.999C25.3844 11.5176 24.9781 11.1228 24.4889 10.8589C23.9997 10.5949 23.4468 10.472 22.8918 10.5039L22.8832 10.5089ZM23.8974 14.0457L15.273 27.1078C15.158 27.2762 14.9942 27.4054 14.8036 27.478C14.6131 27.5506 14.4048 27.5633 14.2069 27.5142C14.009 27.4651 13.8307 27.3567 13.6962 27.2035C13.5616 27.0503 13.477 26.8596 13.4539 26.657L12.8387 20.8114C12.8296 20.7339 12.8161 20.6569 12.798 20.5809L18.7649 17.1359C18.9946 17.0033 19.1622 16.7849 19.2308 16.5287C19.2995 16.2725 19.2635 15.9996 19.1309 15.7699C18.9983 15.5402 18.7799 15.3726 18.5237 15.304C18.2675 15.2353 17.9946 15.2713 17.7649 15.4039L11.798 18.8489C11.7412 18.7952 11.6814 18.745 11.6187 18.6983L6.86391 15.2428C6.7 15.1214 6.57712 14.9529 6.51172 14.7597C6.44633 14.5666 6.44156 14.358 6.49805 14.1621C6.55454 13.9661 6.66958 13.7921 6.82776 13.6634C6.98595 13.5347 7.1797 13.4574 7.38304 13.442L23.0074 12.5041C23.1912 12.4949 23.374 12.5366 23.5357 12.6246C23.6973 12.7126 23.8315 12.8435 23.9235 13.0029C24.0156 13.1623 24.0618 13.344 24.0572 13.5279C24.0526 13.7119 23.9973 13.8911 23.8974 14.0457Z" fill="#FF6D67"/>
</g>
<defs>
<clipPath id="clip0">
<rect width="24" height="24" fill="white" transform="translate(0.607422 12.6074) rotate(-30)"/>
</clipPath>
</defs>
</svg>
