<svg width="26" height="26" viewBox="0 0 26 26" fill="none" xmlns="http://www.w3.org/2000/svg">
<rect x="0.5" y="0.5" width="25" height="25" rx="4.5" stroke="#0CC0CC"/>
<path fill-rule="evenodd" clip-rule="evenodd" d="M7.16667 9.5C7.16667 9.17783 7.42783 8.91667 7.75 8.91667H18.25C18.5722 8.91667 18.8333 9.17783 18.8333 9.5V11.25H7.16667V9.5ZM6 11.8333V9.5C6 8.5335 6.7835 7.75 7.75 7.75H18.25C19.2165 7.75 20 8.5335 20 9.5V11.8333V16.5C20 17.4665 19.2165 18.25 18.25 18.25H7.75C6.7835 18.25 6 17.4665 6 16.5V11.8333ZM18.8333 12.4167V16.5C18.8333 16.8222 18.5722 17.0833 18.25 17.0833H7.75C7.42783 17.0833 7.16667 16.8222 7.16667 16.5V12.4167H18.8333Z" fill="#0CC0CC"/>
</svg>
