<svg width="278" height="278" viewBox="0 0 278 278" fill="none" xmlns="http://www.w3.org/2000/svg">
<circle opacity="0.05" cx="139" cy="139" r="139" fill="#7B5CE1"/>
<g clip-path="url(#clip0)">
<path d="M238.951 220.147L152.579 170.879C146.27 167.285 136.092 167.258 129.825 170.838L110.184 182.039C103.917 185.618 103.959 191.416 110.253 195.023L196.626 244.292C202.934 247.885 213.113 247.912 219.38 244.332L239.02 233.131C245.287 229.552 245.26 223.74 238.951 220.147Z" fill="#E3E5EF"/>
<path d="M112.829 128.891L113.517 117.758L118.765 32.9534C118.779 32.7221 118.806 32.5179 118.848 32.3138L115.955 31.3611L120.542 30.1089C121.258 29.8776 122.14 29.9864 123.076 30.5172L245.108 100.147C247.34 101.412 249.006 104.556 248.855 107.17L243.607 191.974L242.987 202.577C242.822 205.19 240.894 206.279 238.662 204.999L116.575 135.901C114.344 134.648 112.663 131.504 112.829 128.891Z" fill="#B7BBC9"/>
<path d="M111.41 129.49L112.099 118.357L117.346 33.5523C117.346 33.4979 117.36 33.457 117.36 33.4026L115.955 31.3611L118.228 30.7486C118.889 30.6261 119.22 30.667 120.032 31.1433L242.051 100.746C244.282 102.011 245.949 105.155 245.797 107.768L239.888 203.434C239.792 205.067 238.952 206.374 237.822 206.605L236.046 207.313L233.993 204.305L115.143 136.499C112.911 135.247 111.245 132.103 111.41 129.49Z" fill="#534046"/>
<path d="M110.487 129.967L111.176 118.833L116.424 34.0287C116.424 33.9742 116.437 33.9334 116.437 33.8789L115.955 31.3611L117.099 31.048C117.76 30.9255 118.297 31.1297 119.109 31.5924L241.128 101.222C243.359 102.488 245.026 105.632 244.874 108.245L239.103 201.678C235.536 200.603 231.638 200.807 227.933 201.855L114.22 136.989C111.989 135.724 110.322 132.58 110.487 129.967Z" fill="#5E4C52"/>
<path d="M238.786 193.294L241.114 192.709L241.142 205.448L236.045 207.326L238.786 193.294Z" fill="#B7BBC9"/>
<path d="M239.64 193.077L238.965 203.924C238.883 205.149 238.401 206.197 237.685 206.728L236.046 207.34L238.786 193.294L239.64 193.077Z" fill="url(#paint0_linear)"/>
<path d="M147.331 201.365L165.939 193.812L173.996 190.532C174.919 189.96 175.594 188.599 175.374 187.701L172.054 173.832L162.551 162.154L166.27 157.364L187.839 170.021L198.789 199.051L196.378 204.645L194.257 204.373L179.768 217.725C176.2 221.018 170.856 221.576 166.669 219.126L146.849 207.503C144.411 206.047 144.673 202.44 147.331 201.365Z" fill="url(#paint1_linear)"/>
<path d="M193.637 186.489L196.957 200.358C197.177 201.256 196.502 202.631 195.579 203.189L188.031 210.144L179.809 217.725C176.241 221.018 170.897 221.576 166.71 219.126L146.89 207.503C146.753 207.422 146.629 207.34 146.505 207.245C146.477 207.218 146.436 207.19 146.408 207.163C146.298 207.081 146.202 206.986 146.119 206.891C146.091 206.864 146.064 206.823 146.036 206.796C145.967 206.728 145.912 206.646 145.857 206.564C145.816 206.51 145.775 206.455 145.747 206.401C145.706 206.347 145.678 206.292 145.651 206.238C145.582 206.129 145.527 206.006 145.472 205.897C145.458 205.87 145.444 205.829 145.43 205.802C145.403 205.72 145.361 205.639 145.348 205.544C144.866 203.951 145.568 202.087 147.359 201.365L165.966 193.812L174.024 190.532C174.947 189.96 175.622 188.599 175.401 187.701L172.082 173.832L162.578 162.154L166.297 157.364L187.866 170.021L184.147 174.812L193.637 186.489Z" fill="url(#paint2_linear)"/>
<path d="M147.138 201.46C145.706 202.236 145.293 203.856 145.665 205.067C145.692 205.149 145.72 205.217 145.747 205.299C145.761 205.326 145.775 205.353 145.789 205.38C145.83 205.489 145.885 205.598 145.94 205.693C145.981 205.761 145.995 205.802 146.036 205.843C146.064 205.897 146.105 205.938 146.133 205.993C146.188 206.061 146.243 206.129 146.298 206.197C146.298 206.197 146.353 206.265 146.381 206.292C146.463 206.374 146.546 206.455 146.643 206.537C146.67 206.564 146.698 206.578 146.725 206.605C146.849 206.7 146.959 206.782 147.069 206.836L166.889 218.46C168.528 219.426 170.415 219.929 172.316 219.929C175.016 219.929 177.605 218.922 179.575 217.098L195.373 202.536L195.4 202.522C196.199 202.032 196.805 200.807 196.626 200.059L193.334 186.272L186.117 177.398C186.172 177.411 186.213 177.411 186.269 177.425L193.651 186.489L196.97 200.358C197.191 201.256 196.516 202.631 195.593 203.189L188.045 210.144L179.823 217.725C176.255 221.018 170.911 221.576 166.724 219.126L146.904 207.503C146.766 207.422 146.643 207.34 146.519 207.245C146.491 207.218 146.45 207.19 146.422 207.163C146.312 207.081 146.216 206.986 146.133 206.891C146.105 206.864 146.078 206.823 146.05 206.796C145.981 206.728 145.926 206.646 145.871 206.564C145.83 206.51 145.789 206.455 145.761 206.401C145.72 206.346 145.692 206.292 145.665 206.238C145.596 206.129 145.541 206.006 145.486 205.897C145.472 205.87 145.458 205.829 145.444 205.802C145.417 205.72 145.375 205.639 145.362 205.543C144.866 204.019 145.499 202.236 147.138 201.46Z" fill="url(#paint3_linear)"/>
<path d="M145.334 205.543C145.568 206.319 146.078 207.027 146.89 207.503L166.71 219.126C170.911 221.59 176.241 221.018 179.809 217.725L183.349 214.458L195.593 203.175C196.516 202.604 197.191 201.243 196.97 200.344L193.651 186.476L184.147 174.798L187.866 170.007L197.232 182.719L197.397 182.937L197.452 183.168L200.758 199.283C201.116 201.052 199.794 203.679 198.003 204.713L179.809 219.698C176.241 222.992 170.897 223.55 166.71 221.1L146.89 209.477C145.389 208.606 144.907 206.959 145.334 205.543Z" fill="#B7BBC9"/>
<path d="M108.008 130.198L108.697 119.065L238.786 193.281L238.098 204.414C237.932 207.027 236.004 208.116 233.773 206.837L111.754 137.221C109.523 135.955 107.843 132.811 108.008 130.198Z" fill="#EFF0F5"/>
<path d="M118.269 31.8374L240.301 101.453C242.533 102.719 244.199 105.863 244.048 108.476L238.8 193.281L108.711 119.065L113.958 34.26C114.11 31.6469 116.038 30.5717 118.269 31.8374Z" fill="#68575C"/>
<path d="M119.178 38.2205L238.69 106.394L233.649 187.796L114.151 119.623L119.178 38.2205Z" fill="#B8C1FF"/>
<path d="M119.178 38.2205L122.594 40.1668L117.773 118.153L233.855 184.38L233.649 187.796L114.151 119.623L119.178 38.2205Z" fill="#B8C1FF"/>
<path d="M172.096 161.324L174.671 162.794C175.415 163.216 175.98 164.278 175.925 165.149L175.745 168.089C175.69 168.96 175.043 169.327 174.299 168.905L171.724 167.435C170.98 167.013 170.415 165.952 170.47 165.081L170.649 162.141C170.691 161.256 171.352 160.889 172.096 161.324Z" fill="#D9DBE6"/>
<path opacity="0.2" d="M213.925 117.01C215.895 103.372 223.705 97.343 223.705 97.343L211.364 90.3065C211.364 90.3065 201.447 96.54 200.138 112.396C199.973 114.437 201.075 116.384 202.893 117.336L207.783 119.922C210.331 121.256 213.375 119.745 213.925 117.01Z" fill="#282141"/>
<path opacity="0.2" d="M226.087 123.27C228.043 109.796 235.619 104.134 235.619 104.134L223.264 97.0844C223.264 97.0844 213.609 102.746 212.259 118.779C212.094 120.82 213.196 122.767 215.014 123.719L219.903 126.305C222.506 127.68 225.605 126.101 226.087 123.27Z" fill="#282141"/>
<path opacity="0.2" d="M189.436 103.209C191.406 89.5716 199.215 83.5423 199.215 83.5423L186.874 76.5059C186.874 76.5059 176.958 82.7393 175.649 98.5951C175.484 100.637 176.586 102.583 178.404 103.536L183.293 106.122C185.855 107.455 188.899 105.945 189.436 103.209Z" fill="#282141"/>
<path opacity="0.2" d="M201.612 109.47C203.568 95.9955 211.143 90.3337 211.143 90.3337L198.789 83.2836C198.789 83.2836 189.133 88.9454 187.797 104.978C187.632 107.02 188.734 108.966 190.552 109.919L195.442 112.505C198.017 113.879 201.116 112.3 201.612 109.47Z" fill="#282141"/>
<path opacity="0.2" d="M164.961 89.4082C166.931 75.7709 174.74 69.7416 174.74 69.7416L162.399 62.7051C162.399 62.7051 152.482 68.9386 151.174 84.7944C151.009 86.8359 152.111 88.7822 153.929 89.7349L158.818 92.3208C161.366 93.6546 164.41 92.1439 164.961 89.4082Z" fill="#282141"/>
<path opacity="0.2" d="M177.123 95.6689C179.079 82.1949 186.654 76.5331 186.654 76.5331L174.299 69.483C174.299 69.483 164.644 75.1448 163.308 91.1776C163.143 93.2191 164.245 95.1654 166.063 96.1181L170.952 98.704C173.528 100.079 176.641 98.4998 177.123 95.6689Z" fill="#282141"/>
<path opacity="0.2" d="M140.472 75.6076C142.441 61.9702 150.251 55.9409 150.251 55.9409L137.91 48.9045C137.91 48.9045 127.993 55.1379 126.685 70.9937C126.519 73.0353 127.621 74.9815 129.439 75.9342L134.329 78.5201C136.877 79.8539 139.921 78.3432 140.472 75.6076Z" fill="#282141"/>
<path opacity="0.2" d="M152.634 81.8682C154.59 68.3941 162.165 62.7323 162.165 62.7323L149.81 55.6823C149.81 55.6823 140.155 61.3441 138.819 77.3768C138.654 79.4183 139.756 81.3646 141.574 82.3173L146.463 84.9032C149.053 86.2778 152.152 84.6855 152.634 81.8682Z" fill="#282141"/>
<path opacity="0.2" d="M128.145 68.0676C130.101 54.5935 137.676 48.9317 137.676 48.9317L125.321 41.8817C125.321 41.8817 115.666 47.5435 114.33 63.5762C114.165 65.6177 115.267 67.564 117.085 68.5167L121.974 71.1026C124.564 72.4772 127.663 70.8849 128.145 68.0676Z" fill="#282141"/>
<path opacity="0.2" d="M239.131 129.994C240.081 123.542 239.613 116.179 240.15 112.437C240.687 108.667 238.69 106.394 238.69 106.394C238.69 106.394 225.798 108.966 224.407 125.189C224.228 127.231 225.344 129.177 227.162 130.13L232.933 133.165C235.55 134.553 238.704 132.906 239.131 129.994Z" fill="#282141"/>
<path d="M104.923 55.2469C106.438 40.684 119.178 39.5272 119.178 39.5272L131.423 46.5092C131.423 46.5092 119.936 46.0192 117.388 60.7045C116.341 62.8277 113.669 63.7804 111.465 62.5283L107.512 60.269C105.722 59.2619 104.702 57.2884 104.923 55.2469Z" fill="#ED3E3E"/>
<path d="M129.329 67.3735C131.864 52.8379 143.337 53.3006 143.337 53.3006L131.079 46.305C131.079 46.305 118.38 47.2849 116.823 62.0247C116.603 64.0526 117.622 66.0397 119.413 67.0604L123.365 69.3197C125.611 70.6127 128.338 69.5783 129.329 67.3735Z" fill="#D9591E"/>
<path d="M141.285 74.0425C143.805 59.6702 155.265 60.1057 155.265 60.1057L142.993 53.1101C142.993 53.1101 130.349 53.9131 128.737 68.8298C128.517 70.8577 129.536 72.8448 131.326 73.8656L135.279 76.1249C137.552 77.4178 140.348 76.329 141.285 74.0425Z" fill="#ED3E3E"/>
<path d="M153.033 80.7114C155.54 66.5025 167.179 66.9108 167.179 66.9108L154.893 59.9016C154.893 59.9016 142.29 60.5276 140.637 75.6213C140.417 77.6492 141.436 79.6362 143.227 80.657L147.18 82.9163C149.507 84.2365 152.166 83.0796 153.033 80.7114Z" fill="#D9591E"/>
<path d="M164.975 87.3667C167.454 73.3211 179.093 73.7022 179.093 73.7022L166.793 66.6929C166.793 66.6929 154.232 67.1421 152.537 82.4126C152.317 84.4406 153.336 86.4276 155.127 87.4484L159.08 89.7077C161.449 91.0551 164.162 89.8302 164.975 87.3667Z" fill="#ED3E3E"/>
<path d="M177.123 94.0357C179.588 80.1534 191.02 80.5073 191.02 80.5073L178.707 73.4844C178.707 73.4844 166.201 73.7566 164.451 89.2041C164.217 91.232 165.25 93.2191 167.041 94.2399L170.994 96.4992C173.39 97.8602 176.365 96.5808 177.123 94.0357Z" fill="#D9591E"/>
<path d="M189.065 100.705C191.516 86.9721 202.921 87.3123 202.921 87.3123L190.593 80.2759C190.593 80.2759 178.129 80.3712 176.338 95.9956C176.104 98.0235 177.137 100.011 178.927 101.031L182.88 103.291C185.332 104.679 188.376 103.331 189.065 100.705Z" fill="#ED3E3E"/>
<path d="M201.02 107.36C203.458 93.7907 214.848 94.1038 214.848 94.1038L202.507 87.0673C202.507 87.0673 190.084 86.9857 188.252 102.787C188.018 104.815 189.051 106.802 190.841 107.823L194.794 110.082C197.287 111.498 200.373 110.082 201.02 107.36Z" fill="#D9791E"/>
<path d="M212.961 114.029C215.372 100.623 226.762 100.909 226.762 100.909L214.407 93.8589C214.407 93.8589 202.039 93.6003 200.152 109.579C199.918 111.607 200.951 113.594 202.741 114.614L206.694 116.874C209.229 118.316 212.383 116.833 212.961 114.029Z" fill="#ED3E3E"/>
<path d="M222.066 123.992L238.029 116.982L238.635 107.292C238.635 107.292 219.655 101.984 222.066 123.992Z" fill="#7B5CE1"/>
<path d="M224.903 120.684C227.327 108.054 238.621 107.278 238.621 107.278L238.676 106.394L226.308 100.65C226.308 100.65 213.981 100.215 212.052 116.37C211.804 118.398 212.851 120.385 214.642 121.406L218.595 123.665C221.17 125.121 224.352 123.583 224.903 120.684Z" fill="#F5A13A"/>
<path d="M104.028 55.2469C105.543 40.684 119.178 38.2206 119.178 38.2206L131.423 45.2026C131.423 45.2026 119.054 46.0192 116.492 60.7181C115.446 62.8413 112.774 63.794 110.57 62.5419L106.617 60.2826C104.826 59.2619 103.821 57.2884 104.028 55.2469Z" fill="#7B5CE1"/>
<path d="M128.448 67.3735C130.982 52.8378 143.351 51.994 143.351 51.994L131.092 44.9984C131.092 44.9984 117.512 47.2849 115.942 62.0247C115.721 64.0526 116.74 66.0397 118.531 67.0604L122.484 69.3197C124.715 70.6127 127.456 69.5783 128.448 67.3735Z" fill="#FF6D67"/>
<path d="M140.389 74.0425C142.91 59.6702 155.265 58.7991 155.265 58.7991L142.993 51.8035C142.993 51.8035 129.453 53.9131 127.842 68.8298C127.621 70.8577 128.641 72.8448 130.431 73.8656L134.384 76.1248C136.671 77.4178 139.453 76.329 140.389 74.0425Z" fill="#7B5CE1"/>
<path d="M152.331 80.7114C154.838 66.5025 167.165 65.6042 167.165 65.6042L154.879 58.595C154.879 58.595 141.381 60.5276 139.728 75.6212C139.508 77.6492 140.527 79.6362 142.318 80.657L146.271 82.9163C148.612 84.2365 151.463 83.0796 152.331 80.7114Z" fill="#FF6D67"/>
<path d="M164.286 87.3667C166.765 73.3211 179.093 72.3956 179.093 72.3956L166.793 65.3864C166.793 65.3864 153.35 67.1421 151.642 82.4126C151.422 84.4405 152.441 86.4276 154.232 87.4484L158.185 89.7077C160.554 91.0551 163.474 89.8302 164.286 87.3667Z" fill="#7B5CE1"/>
<path d="M176.228 94.0357C178.693 80.1534 191.006 79.2007 191.006 79.2007L178.693 72.1779C178.693 72.1779 165.291 73.7566 163.542 89.2041C163.308 91.2321 164.341 93.2191 166.132 94.2399L170.085 96.4992C172.495 97.8602 175.47 96.5808 176.228 94.0357Z" fill="#FF6D67"/>
<path d="M188.183 100.705C190.635 86.9721 202.934 86.0057 202.934 86.0057L190.607 78.9693C190.607 78.9693 177.247 80.3711 175.456 95.9956C175.222 98.0235 176.255 100.011 178.046 101.031L181.999 103.291C184.45 104.679 187.481 103.331 188.183 100.705Z" fill="#7B5CE1"/>
<path d="M200.124 107.36C202.562 93.7907 214.848 92.7972 214.848 92.7972L202.507 85.7607C202.507 85.7607 189.202 86.9857 187.356 102.787C187.122 104.815 188.155 106.802 189.946 107.823L193.899 110.082C196.392 111.497 199.491 110.082 200.124 107.36Z" fill="#FF6D67"/>
<path d="M212.066 114.029C214.476 100.623 226.762 99.6023 226.762 99.6023L214.407 92.5522C214.407 92.5522 201.144 93.6002 199.257 109.579C199.023 111.606 200.056 113.594 201.846 114.614L205.799 116.874C208.333 118.316 211.488 116.833 212.066 114.029Z" fill="#7B5CE1"/>
<path d="M224.021 120.684C226.418 107.442 238.69 106.394 238.69 106.394L226.321 99.3437C226.321 99.3437 213.113 100.215 211.171 116.37C210.923 118.398 211.97 120.385 213.76 121.406L217.713 123.665C220.289 125.121 223.498 123.583 224.021 120.684Z" fill="#FF6D67"/>
<path opacity="0.3" d="M106.465 47.3938L118.586 54.3078L213.485 108.449L225.729 115.445C226.803 113.281 228.222 111.62 229.696 110.368L217.382 103.345L122.498 49.204L110.625 42.4398C109.096 43.6919 107.622 45.3251 106.465 47.3938Z" fill="#303030"/>
<path opacity="0.2" d="M216.832 165.911C218.98 165.911 220.413 164.155 220.592 161.338L221.418 148.068C221.694 143.658 218.856 138.337 215.11 136.2L139.742 93.2055C138.75 92.6475 137.814 92.3617 136.932 92.3617C134.783 92.3617 133.351 94.1174 133.172 96.9347L132.346 110.205C132.07 114.614 134.907 119.936 138.654 122.073L214.022 165.053C215 165.625 215.95 165.911 216.832 165.911Z" fill="#282141"/>
<path d="M137.662 89.6941L211.336 131.722C215.234 133.941 218.154 139.453 217.878 144.026L217.217 154.751C217.052 157.323 215.922 159.038 214.27 159.664C214.008 159.759 211.515 160.739 211.212 160.78C210.096 160.943 211.005 159.773 209.656 158.997L135.995 116.969C132.098 114.75 129.178 109.238 129.453 104.665L130.114 93.9404C130.252 91.6267 128.751 90.8646 130.142 90.1024C130.335 89.9935 133.007 89.0408 133.213 88.9727C134.467 88.5508 136.023 88.755 137.662 89.6941Z" fill="#E7E7F0"/>
<path d="M134.811 90.7421L208.485 132.77C212.383 134.989 215.303 140.501 215.027 145.074L214.366 155.799C214.077 160.372 210.702 162.277 206.804 160.045L133.144 118.017C129.247 115.798 126.327 110.286 126.602 105.713L127.263 94.9884C127.539 90.4154 130.927 88.5236 134.811 90.7421Z" fill="#D9DBE6"/>
<path d="M208.361 134.676C211.35 136.377 213.608 140.623 213.388 144.135L212.727 154.859C212.506 158.371 209.903 159.827 206.901 158.126L149.369 125.271L151.504 102.134L208.361 134.676Z" fill="white"/>
<path d="M128.048 105.768L128.613 96.5536C128.682 95.5057 128.93 94.621 129.343 93.9133C130.252 91.9126 132.359 91.3273 134.687 92.6475L135.114 92.8925L150.898 101.902L152.138 102.61L150.692 126.047L133.227 116.084C130.899 114.75 129.012 111.879 128.393 109.007C128.117 107.932 127.993 106.816 128.048 105.768Z" fill="white"/>
<path d="M134.895 97L135.983 97.6261L135.074 112.162L134 111.536L134.895 97Z" fill="#5B8CCE"/>
</g>
<defs>
<linearGradient id="paint0_linear" x1="239.636" y1="200.204" x2="236.049" y2="200.204" gradientUnits="userSpaceOnUse">
<stop offset="0.1108" stop-color="#D4D4DD"/>
<stop offset="0.2676" stop-color="#D4D4DD"/>
<stop offset="0.5278" stop-color="#D4D4DD"/>
<stop offset="0.5337" stop-color="#D1D2DB"/>
<stop offset="0.5647" stop-color="#C9CBD5"/>
<stop offset="0.6205" stop-color="#C7C9D3"/>
<stop offset="0.7574" stop-color="#C7C9D3"/>
<stop offset="0.7697" stop-color="#BCBECB"/>
<stop offset="0.7874" stop-color="#B5B8C6"/>
<stop offset="0.8368" stop-color="#B3B6C5"/>
<stop offset="1" stop-color="#B3B6C5"/>
</linearGradient>
<linearGradient id="paint1_linear" x1="160.638" y1="215.675" x2="187.119" y2="169.258" gradientUnits="userSpaceOnUse">
<stop offset="0.1108" stop-color="#E7E7F0"/>
<stop offset="0.2676" stop-color="#E7E7F0"/>
<stop offset="0.5278" stop-color="#E7E7F0"/>
<stop offset="0.5356" stop-color="#E3E4ED"/>
<stop offset="0.5659" stop-color="#DBDDE8"/>
<stop offset="0.6205" stop-color="#D9DBE6"/>
<stop offset="0.7574" stop-color="#D9DBE6"/>
<stop offset="0.7578" stop-color="#D8DAE6"/>
<stop offset="0.7703" stop-color="#CDD0DE"/>
<stop offset="0.7879" stop-color="#C6CAD9"/>
<stop offset="0.8368" stop-color="#C4C8D8"/>
<stop offset="1" stop-color="#C4C8D8"/>
</linearGradient>
<linearGradient id="paint2_linear" x1="160.146" y1="215.394" x2="186.627" y2="168.977" gradientUnits="userSpaceOnUse">
<stop offset="0.1108" stop-color="#F1F1F6"/>
<stop offset="0.2676" stop-color="#F1F1F6"/>
<stop offset="0.5278" stop-color="#E7E7F0"/>
<stop offset="0.5356" stop-color="#E3E4ED"/>
<stop offset="0.5659" stop-color="#DBDDE8"/>
<stop offset="0.6205" stop-color="#D9DBE6"/>
<stop offset="0.7574" stop-color="#D9DBE6"/>
<stop offset="0.7578" stop-color="#D8DAE6"/>
<stop offset="0.7703" stop-color="#CDD0DE"/>
<stop offset="0.7879" stop-color="#C6CAD9"/>
<stop offset="0.8368" stop-color="#C4C8D8"/>
<stop offset="1" stop-color="#C4C8D8"/>
</linearGradient>
<linearGradient id="paint3_linear" x1="162.707" y1="216.856" x2="189.189" y2="170.438" gradientUnits="userSpaceOnUse">
<stop offset="0.1108" stop-color="#D4D4DD"/>
<stop offset="0.2676" stop-color="#D4D4DD"/>
<stop offset="0.5278" stop-color="#D4D4DD"/>
<stop offset="0.5337" stop-color="#D1D2DB"/>
<stop offset="0.5647" stop-color="#C9CBD5"/>
<stop offset="0.6205" stop-color="#C7C9D3"/>
<stop offset="0.7574" stop-color="#C7C9D3"/>
<stop offset="0.7697" stop-color="#BCBECB"/>
<stop offset="0.7874" stop-color="#B5B8C6"/>
<stop offset="0.8368" stop-color="#B3B6C5"/>
<stop offset="1" stop-color="#B3B6C5"/>
</linearGradient>
<clipPath id="clip0">
<rect width="159" height="217" fill="white" transform="matrix(-1 0 0 1 263 30)"/>
</clipPath>
</defs>
</svg>
