<svg width="32" height="32" viewBox="0 0 32 32" fill="none" xmlns="http://www.w3.org/2000/svg">
<path d="M16 28C22.6274 28 28 22.6274 28 16C28 9.37258 22.6274 4 16 4C9.37258 4 4 9.37258 4 16C4 22.6274 9.37258 28 16 28Z" fill="#FF6D67"/>
<path fill-rule="evenodd" clip-rule="evenodd" d="M16.0502 11.0502C16.4407 10.6597 17.0739 10.6597 17.4644 11.0502L21.7071 15.2928C22.0976 15.6834 22.0976 16.3165 21.7071 16.7071L17.4644 20.9497C17.0739 21.3402 16.4407 21.3402 16.0502 20.9497C15.6597 20.5592 15.6597 19.926 16.0502 19.5355L19.5857 15.9999L16.0502 12.4644C15.6597 12.0739 15.6597 11.4407 16.0502 11.0502Z" fill="white"/>
<path fill-rule="evenodd" clip-rule="evenodd" d="M10 16C10 15.4477 10.4477 15 11 15H21C21.5523 15 22 15.4477 22 16C22 16.5523 21.5523 17 21 17H11C10.4477 17 10 16.5523 10 16Z" fill="white"/>
</svg>
