<svg width="283" height="278" viewBox="0 0 283 278" fill="none" xmlns="http://www.w3.org/2000/svg">
<circle opacity="0.05" cx="144" cy="139" r="139" fill="#7B5CE1"/>
<g clip-path="url(#clip0)">
<path d="M23.8368 190.952L109.45 141.475C115.703 137.867 125.792 137.839 132.004 141.434L151.472 152.682C157.684 156.277 157.643 162.099 151.404 165.721L65.7902 215.199C59.5375 218.807 49.4485 218.834 43.2367 215.24L23.7686 203.991C17.5568 200.396 17.5841 194.56 23.8368 190.952Z" fill="#E3E5EF"/>
<path d="M148.851 99.3099L148.168 88.1296L142.966 2.96591C142.953 2.73356 142.926 2.52855 142.885 2.32353L145.752 1.36679L141.205 0.109355C140.495 -0.122996 139.622 -0.0136545 138.693 0.519388L17.7342 70.4436C15.5226 71.7147 13.8707 74.8719 14.0208 77.4961L19.2223 162.66L19.8367 173.307C20.0005 175.931 21.9118 177.025 24.1235 175.74L145.137 106.349C147.349 105.091 149.014 101.934 148.851 99.3099Z" fill="#B7BBC9"/>
<path d="M150.257 99.9112L149.574 88.731L144.373 3.56729C144.373 3.51262 144.359 3.47161 144.359 3.41694L145.751 1.36678L143.499 0.751733C142.844 0.628723 142.516 0.669726 141.71 1.1481L20.765 71.0449C18.5533 72.316 16.9014 75.4733 17.0516 78.0975L22.9084 174.168C23.004 175.808 23.8368 177.12 24.9563 177.353L26.7174 178.063L28.7516 175.043L146.557 106.95C148.769 105.693 150.421 102.535 150.257 99.9112Z" fill="#534046"/>
<path d="M151.172 100.39L150.489 89.2093L145.287 4.04563C145.287 3.99096 145.274 3.94996 145.274 3.89529L145.752 1.36675L144.618 1.05239C143.963 0.929385 143.431 1.1344 142.625 1.5991L21.6798 71.5233C19.4681 72.7944 17.8162 75.9516 17.9664 78.5758L23.6867 172.405C27.2226 171.325 31.0862 171.53 34.7587 172.583L147.472 107.442C149.683 106.171 151.335 103.014 151.172 100.39Z" fill="#5E4C52"/>
<path d="M24.0007 163.986L21.6934 163.398L21.6661 176.191L26.7175 178.077L24.0007 163.986Z" fill="#B7BBC9"/>
<path d="M23.1542 163.767L23.8231 174.66C23.9051 175.89 24.3829 176.943 25.0928 177.476L26.7174 178.091L24.0006 163.986L23.1542 163.767Z" fill="url(#paint0_linear)"/>
<path d="M114.652 172.091L96.2075 164.505L88.2209 161.211C87.3062 160.637 86.6373 159.27 86.8557 158.368L90.1459 144.441L99.5659 132.714L95.8798 127.903L74.5004 140.614L63.6469 169.767L66.036 175.384L68.1384 175.111L82.5006 188.519C86.0366 191.827 91.3336 192.387 95.4839 189.927L115.13 178.255C117.546 176.792 117.287 173.17 114.652 172.091Z" fill="url(#paint1_linear)"/>
<path d="M68.7527 157.152L65.4625 171.079C65.2441 171.981 65.913 173.362 66.8277 173.922L74.3092 180.906L82.4596 188.519C85.9955 191.827 91.2926 192.387 95.4429 189.927L115.089 178.255C115.225 178.173 115.348 178.091 115.471 177.995C115.498 177.968 115.539 177.94 115.566 177.913C115.676 177.831 115.771 177.735 115.853 177.64C115.88 177.612 115.908 177.571 115.935 177.544C116.003 177.476 116.058 177.394 116.112 177.312C116.153 177.257 116.194 177.202 116.222 177.148C116.263 177.093 116.29 177.038 116.317 176.984C116.385 176.874 116.44 176.751 116.495 176.642C116.508 176.615 116.522 176.574 116.536 176.546C116.563 176.464 116.604 176.382 116.618 176.287C117.095 174.687 116.399 172.815 114.624 172.091L96.1801 164.505L88.1935 161.211C87.2788 160.637 86.6099 159.27 86.8283 158.368L90.1185 144.441L99.5386 132.714L95.8525 127.903L74.473 140.614L78.1591 145.425L68.7527 157.152Z" fill="url(#paint2_linear)"/>
<path d="M114.843 172.186C116.263 172.965 116.672 174.592 116.304 175.808C116.276 175.89 116.249 175.958 116.222 176.04C116.208 176.068 116.194 176.095 116.181 176.122C116.14 176.232 116.085 176.341 116.03 176.437C115.99 176.505 115.976 176.546 115.935 176.587C115.908 176.642 115.867 176.683 115.839 176.737C115.785 176.806 115.73 176.874 115.676 176.943C115.676 176.943 115.621 177.011 115.594 177.038C115.512 177.12 115.43 177.202 115.334 177.284C115.307 177.312 115.28 177.325 115.252 177.353C115.129 177.448 115.02 177.53 114.911 177.585L95.2654 189.257C93.6408 190.228 91.7704 190.733 89.8864 190.733C87.2105 190.733 84.6439 189.722 82.6916 187.89L67.0325 173.266L67.0052 173.252C66.2134 172.76 65.6127 171.53 65.7901 170.778L69.053 156.933L76.2068 148.022C76.1522 148.035 76.1113 148.035 76.0566 148.049L68.739 157.152L65.4488 171.079C65.2304 171.981 65.8994 173.362 66.8141 173.922L74.2955 180.906L82.4459 188.519C85.9818 191.827 91.2789 192.387 95.4292 189.927L115.075 178.255C115.211 178.173 115.334 178.091 115.457 177.995C115.484 177.968 115.525 177.94 115.553 177.913C115.662 177.831 115.757 177.735 115.839 177.64C115.867 177.612 115.894 177.571 115.921 177.544C115.99 177.476 116.044 177.394 116.099 177.312C116.14 177.257 116.181 177.202 116.208 177.148C116.249 177.093 116.276 177.038 116.304 176.984C116.372 176.874 116.426 176.751 116.481 176.642C116.495 176.614 116.508 176.573 116.522 176.546C116.549 176.464 116.59 176.382 116.604 176.286C117.095 174.756 116.467 172.965 114.843 172.186Z" fill="url(#paint3_linear)"/>
<path d="M116.631 176.287C116.399 177.066 115.894 177.776 115.089 178.255L95.4429 189.927C91.279 192.401 85.9955 191.827 82.4596 188.519L78.951 185.239L66.8141 173.908C65.8994 173.334 65.2304 171.968 65.4489 171.066L68.7391 157.138L78.1591 145.411L74.473 140.6L65.1895 153.366L65.0257 153.584L64.9711 153.817L61.6945 169.999C61.3396 171.776 62.6502 174.414 64.425 175.453L82.4596 190.501C85.9955 193.809 91.2926 194.369 95.4429 191.909L115.089 180.237C116.577 179.362 117.054 177.708 116.631 176.287Z" fill="#B7BBC9"/>
<path d="M153.629 100.622L152.946 89.4418L24.0006 163.972L24.6832 175.152C24.8471 177.776 26.7584 178.87 28.97 177.585L149.915 107.675C152.127 106.403 153.793 103.246 153.629 100.622Z" fill="#EFF0F5"/>
<path d="M143.458 1.84518L22.4989 71.7557C20.2872 73.0268 18.6353 76.184 18.7855 78.8082L23.987 163.972L152.933 89.4417L147.731 4.27804C147.581 1.65383 145.67 0.574079 143.458 1.84518Z" fill="#68575C"/>
<path d="M142.557 8.25531L24.0962 76.717L29.0929 158.464L147.54 90.0021L142.557 8.25531Z" fill="#B8C1FF"/>
<path d="M142.557 8.25531L139.171 10.2098L143.949 88.526L28.8882 155.033L29.093 158.464L147.54 90.0021L142.557 8.25531Z" fill="#B8C1FF"/>
<path d="M90.1049 131.88L87.5519 133.356C86.8147 133.78 86.255 134.846 86.3096 135.721L86.4871 138.673C86.5417 139.548 87.1833 139.917 87.9206 139.493L90.4735 138.017C91.2107 137.593 91.7705 136.527 91.7159 135.652L91.5384 132.7C91.4974 131.812 90.8421 131.443 90.1049 131.88Z" fill="#D9DBE6"/>
<path opacity="0.3" d="M48.6429 87.3778C46.6907 73.6827 38.9498 67.6279 38.9498 67.6279L51.1823 60.5617C51.1823 60.5617 61.0119 66.8215 62.3089 82.7444C62.4727 84.7946 61.3805 86.7491 59.5784 87.7058L54.7318 90.3027C52.2062 91.6421 49.189 90.125 48.6429 87.3778Z" fill="#282141"/>
<path opacity="0.3" d="M36.588 93.665C34.6494 80.1339 27.1406 74.4481 27.1406 74.4481L39.3867 67.3682C39.3867 67.3682 48.957 73.054 50.2949 89.1546C50.4587 91.2048 49.3665 93.1593 47.5644 94.116L42.7179 96.7129C40.1376 98.0933 37.0658 96.5078 36.588 93.665Z" fill="#282141"/>
<path opacity="0.3" d="M72.9167 73.5188C70.9645 59.8237 63.2236 53.7689 63.2236 53.7689L75.4561 46.7026C75.4561 46.7026 85.2857 52.9625 86.5826 68.8854C86.7465 70.9356 85.6543 72.89 83.8522 73.8468L79.0056 76.4436C76.4663 77.7831 73.4492 76.266 72.9167 73.5188Z" fill="#282141"/>
<path opacity="0.3" d="M60.8481 79.8059C58.9095 66.2748 51.4008 60.5891 51.4008 60.5891L63.6468 53.5092C63.6468 53.5092 73.2171 59.1949 74.5413 75.2955C74.7052 77.3457 73.613 79.3002 71.8109 80.2569L66.9643 82.8538C64.4114 84.2343 61.3396 82.6488 60.8481 79.8059Z" fill="#282141"/>
<path opacity="0.3" d="M97.1768 59.6597C95.2245 45.9646 87.4836 39.9098 87.4836 39.9098L99.7161 32.8436C99.7161 32.8436 109.546 39.1034 110.843 55.0263C111.007 57.0765 109.914 59.031 108.112 59.9877L103.266 62.5846C100.74 63.924 97.7228 62.4069 97.1768 59.6597Z" fill="#282141"/>
<path opacity="0.3" d="M85.1218 65.9469C83.1832 52.4158 75.6744 46.73 75.6744 46.73L87.9205 39.6501C87.9205 39.6501 97.4908 45.3359 98.815 61.4365C98.9789 63.4867 97.8867 65.4412 96.0846 66.3979L91.238 68.9948C88.6851 70.3752 85.5996 68.7898 85.1218 65.9469Z" fill="#282141"/>
<path opacity="0.3" d="M121.451 45.8005C119.498 32.1054 111.757 26.0506 111.757 26.0506L123.99 18.9844C123.99 18.9844 133.82 25.2442 135.116 41.1671C135.28 43.2173 134.188 45.1718 132.386 46.1285L127.539 48.7254C125.014 50.0648 121.997 48.5477 121.451 45.8005Z" fill="#282141"/>
<path opacity="0.3" d="M109.396 52.0876C107.457 38.5566 99.9482 32.8708 99.9482 32.8708L112.194 25.7909C112.194 25.7909 121.765 31.4767 123.089 47.5773C123.253 49.6274 122.16 51.5819 120.358 52.5387L115.512 55.1355C112.945 56.516 109.873 54.9169 109.396 52.0876Z" fill="#282141"/>
<path opacity="0.3" d="M133.669 38.2286C131.731 24.6976 124.222 19.0118 124.222 19.0118L136.468 11.9319C136.468 11.9319 146.038 17.6177 147.363 33.7183C147.526 35.7684 146.434 37.7229 144.632 38.6797L139.786 41.2765C137.219 42.657 134.147 41.0578 133.669 38.2286Z" fill="#282141"/>
<path opacity="0.3" d="M23.6593 100.417C22.7173 93.9384 23.1815 86.5441 22.649 82.7855C22.1166 78.9996 24.0962 76.717 24.0962 76.717C24.0962 76.717 36.8747 79.3002 38.2536 95.5922C38.4311 97.6423 37.3252 99.5968 35.5231 100.554L29.8028 103.601C27.2089 104.996 24.0825 103.342 23.6593 100.417Z" fill="#282141"/>
<path d="M156.687 25.3536C155.185 10.7291 142.557 9.56738 142.557 9.56738L130.42 16.5789C130.42 16.5789 141.806 16.0869 144.332 30.8344C145.369 32.9666 148.018 33.9233 150.202 32.6659L154.12 30.397C155.895 29.3856 156.905 27.4038 156.687 25.3536Z" fill="#ED3E3E"/>
<path d="M132.495 37.5316C129.983 22.9344 118.611 23.3991 118.611 23.3991L130.761 16.3739C130.761 16.3739 143.349 17.358 144.891 32.1602C145.11 34.1966 144.1 36.1921 142.325 37.2172L138.407 39.4861C136.181 40.7845 133.478 39.7457 132.495 37.5316Z" fill="#D9591E"/>
<path d="M120.645 44.2288C118.147 29.7956 106.788 30.233 106.788 30.233L118.952 23.2078C118.952 23.2078 131.485 24.0142 133.082 38.994C133.301 41.0305 132.291 43.026 130.516 44.0511L126.598 46.3199C124.345 47.6184 121.574 46.5249 120.645 44.2288Z" fill="#ED3E3E"/>
<path d="M109 50.9259C106.515 36.6568 94.9788 37.0668 94.9788 37.0668L107.157 30.028C107.157 30.028 119.648 30.6567 121.287 45.8142C121.505 47.8507 120.495 49.8462 118.72 50.8713L114.802 53.1401C112.495 54.4659 109.86 53.3041 109 50.9259Z" fill="#D9591E"/>
<path d="M97.1631 57.6095C94.7057 43.5044 83.1696 43.8871 83.1696 43.8871L95.361 36.8482C95.361 36.8482 107.812 37.2992 109.491 52.6345C109.71 54.6709 108.699 56.6664 106.925 57.6915L103.006 59.9604C100.658 61.3135 97.9686 60.0834 97.1631 57.6095Z" fill="#ED3E3E"/>
<path d="M85.1218 64.3067C82.6781 50.3656 71.3467 50.7209 71.3467 50.7209L83.5518 43.6684C83.5518 43.6684 95.9481 43.9417 97.6819 59.4546C97.914 61.4911 96.8901 63.4866 95.1153 64.5117L91.1971 66.7805C88.8216 68.1473 85.8727 66.8625 85.1218 64.3067Z" fill="#D9591E"/>
<path d="M73.2853 71.0039C70.8552 57.2131 59.5511 57.5548 59.5511 57.5548L71.7699 50.4886C71.7699 50.4886 84.1252 50.5843 85.9 66.2748C86.1321 68.3113 85.1082 70.3068 83.3334 71.3319L79.4152 73.6008C76.9851 74.9949 73.9679 73.6418 73.2853 71.0039Z" fill="#ED3E3E"/>
<path d="M61.4351 77.6874C59.0187 64.0606 47.7283 64.375 47.7283 64.375L59.9607 57.3088C59.9607 57.3088 72.275 57.2268 74.0908 73.095C74.3229 75.1315 73.299 77.127 71.5242 78.1521L67.606 80.4209C65.1349 81.8424 62.0768 80.4209 61.4351 77.6874Z" fill="#D9791E"/>
<path d="M49.5986 84.3847C47.2095 70.9219 35.9191 71.2089 35.9191 71.2089L48.1651 64.129C48.1651 64.129 60.4249 63.8694 62.2952 79.9153C62.5273 81.9518 61.5034 83.9473 59.7286 84.9724L55.8104 87.2412C53.2984 88.69 50.172 87.2002 49.5986 84.3847Z" fill="#ED3E3E"/>
<path d="M40.5745 94.3894L24.7516 87.3505L24.1509 77.6191C24.1509 77.6191 42.9637 72.2886 40.5745 94.3894Z" fill="#7B5CE1"/>
<path d="M37.7621 91.0681C35.3593 78.3845 24.1645 77.6054 24.1645 77.6054L24.1099 76.717L36.3696 70.9492C36.3696 70.9492 48.5884 70.5118 50.4997 86.7354C50.7454 88.7719 49.7079 90.7674 47.9331 91.7925L44.0149 94.0614C41.4619 95.5238 38.3082 93.9793 37.7621 91.0681Z" fill="#F5A13A"/>
<path d="M157.574 25.3537C156.073 10.7292 142.557 8.25531 142.557 8.25531L130.42 15.2669C130.42 15.2669 142.68 16.0869 145.219 30.8481C146.257 32.9803 148.905 33.937 151.09 32.6796L155.008 30.4107C156.783 29.3856 157.779 27.4038 157.574 25.3537Z" fill="#7B5CE1"/>
<path d="M133.369 37.5316C130.857 22.9344 118.597 22.087 118.597 22.087L130.748 15.0618C130.748 15.0618 144.209 17.358 145.765 32.1602C145.984 34.1967 144.973 36.1922 143.199 37.2172L139.28 39.4861C137.069 40.7845 134.352 39.7458 133.369 37.5316Z" fill="#FF6D67"/>
<path d="M121.532 44.2288C119.034 29.7956 106.788 28.9209 106.788 28.9209L118.952 21.8957C118.952 21.8957 132.372 24.0142 133.97 38.994C134.188 41.0305 133.178 43.026 131.403 44.0511L127.485 46.32C125.219 47.6184 122.461 46.525 121.532 44.2288Z" fill="#7B5CE1"/>
<path d="M109.696 50.926C107.211 36.6568 94.9924 35.7548 94.9924 35.7548L107.17 28.7159C107.17 28.7159 120.549 30.6567 122.188 45.8142C122.406 47.8507 121.396 49.8462 119.621 50.8713L115.703 53.1401C113.382 54.4659 110.556 53.3041 109.696 50.926Z" fill="#FF6D67"/>
<path d="M97.8457 57.6095C95.3883 43.5044 83.1696 42.575 83.1696 42.575L95.361 35.5361C95.361 35.5361 108.686 37.2992 110.379 52.6344C110.597 54.6709 109.587 56.6664 107.812 57.6915L103.894 59.9603C101.546 61.3134 98.6512 60.0833 97.8457 57.6095Z" fill="#7B5CE1"/>
<path d="M86.0092 64.3067C83.5655 50.3656 71.3604 49.4089 71.3604 49.4089L83.5655 42.3563C83.5655 42.3563 96.8491 43.9418 98.583 59.4547C98.815 61.4912 97.7911 63.4867 96.0163 64.5117L92.0981 66.7806C89.709 68.1474 86.7601 66.8626 86.0092 64.3067Z" fill="#FF6D67"/>
<path d="M74.1591 71.0039C71.7289 57.2131 59.5375 56.2427 59.5375 56.2427L71.7563 49.1765C71.7563 49.1765 84.999 50.5843 86.7737 66.2749C87.0058 68.3114 85.9819 70.3068 84.2071 71.3319L80.2889 73.6008C77.8588 74.9949 74.8553 73.6418 74.1591 71.0039Z" fill="#7B5CE1"/>
<path d="M62.3225 77.6874C59.9061 64.0607 47.7283 63.0629 47.7283 63.0629L59.9607 55.9967C59.9607 55.9967 73.1488 57.2268 74.9782 73.095C75.2103 75.1315 74.1864 77.127 72.4116 78.1521L68.4934 80.421C66.0223 81.8424 62.9506 80.421 62.3225 77.6874Z" fill="#FF6D67"/>
<path d="M50.486 84.3847C48.0969 70.9219 35.9191 69.8968 35.9191 69.8968L48.1651 62.817C48.1651 62.817 61.3123 63.8694 63.1826 79.9153C63.4147 81.9518 62.3908 83.9473 60.616 84.9724L56.6978 87.2412C54.1858 88.69 51.0594 87.2002 50.486 84.3847Z" fill="#7B5CE1"/>
<path d="M38.6359 91.0681C36.2604 77.7694 24.0962 76.717 24.0962 76.717L36.3559 69.6371C36.3559 69.6371 49.4485 70.5118 51.3734 86.7354C51.6192 88.7719 50.5816 90.7674 48.8068 91.7925L44.8886 94.0614C42.3356 95.5238 39.1546 93.9793 38.6359 91.0681Z" fill="#FF6D67"/>
<path opacity="0.3" d="M155.158 17.4674L143.144 24.4106L49.0798 78.7809L36.943 85.8061C35.8781 83.633 34.4719 81.9655 33.0111 80.7081L45.2162 73.6555L139.267 19.2852L151.035 12.4924C152.55 13.7498 154.011 15.3899 155.158 17.4674Z" fill="#282141"/>
</g>
<g clip-path="url(#clip1)">
<path d="M189.18 183.478L169.969 172.318L127.464 197.001L113.454 188.868L94.3667 199.957L113.578 211.109L127.588 202.975L141.589 211.109L189.18 183.478Z" fill="#E3E5EF"/>
<path d="M109.846 120.003L155.695 93.3815L151.903 168.91L101.389 198.231L109.846 120.003Z" fill="#BAA190"/>
<path d="M151.903 168.91L156.919 173.114L156.936 97.5677L155.695 93.3815L151.903 168.91Z" fill="#CCBBAF"/>
<path d="M166.678 177.495L156.919 173.114L156.936 97.5677L163.422 97.4615L166.678 177.495Z" fill="#EEDBB9"/>
<path d="M117.573 124.083L163.422 97.4615L166.678 177.495L116.174 206.816L117.573 124.083Z" fill="#FCF4E8"/>
<path d="M101.389 198.231L112.178 198.869L116.851 120.614L109.846 120.003L101.389 198.231Z" fill="#EEDBB9"/>
<path d="M116.174 206.816L112.178 198.869L116.851 120.614L117.573 124.083L116.174 206.816Z" fill="#CCBBAF"/>
<path d="M116.174 206.816L101.389 198.231L112.178 198.869L116.174 206.816Z" fill="#F7EDDE"/>
<path d="M148.611 114.764C148.611 115.552 149.166 115.861 149.843 115.472C150.521 115.074 151.075 114.118 151.075 113.339C151.075 112.551 150.521 112.242 149.843 112.631C149.157 113.029 148.611 113.985 148.611 114.764Z" fill="#67565B"/>
<path d="M131.204 124.871C131.204 125.659 131.759 125.969 132.437 125.579C133.114 125.181 133.669 124.225 133.669 123.446C133.669 122.659 133.114 122.349 132.437 122.738C131.759 123.128 131.204 124.083 131.204 124.871Z" fill="#67565B"/>
<path d="M140.744 144.289C139.829 144.289 138.975 144.067 138.227 143.634C136.432 142.589 135.446 140.448 135.446 137.589V128.216C135.455 128.093 135.517 125.721 132.278 124.641L132.595 123.667C136.599 124.995 136.467 128.11 136.458 128.243V137.58C136.458 140.058 137.268 141.89 138.729 142.74C140.207 143.598 142.214 143.377 144.387 142.12C149.042 139.421 152.827 132.854 152.827 127.482V118.72C152.827 115.587 149.808 114.578 149.676 114.534L149.984 113.56C150.019 113.569 153.847 114.826 153.847 118.72V127.482C153.847 133.181 149.835 140.147 144.898 143.005C143.446 143.855 142.029 144.289 140.744 144.289Z" fill="#C6A67D"/>
<path d="M135.314 153.351L172.803 131.588L174.986 176.522L133.132 200.816L135.314 153.351Z" fill="#966A01"/>
<path d="M174.986 176.522L177.37 177.407L174.326 134.828L172.803 131.588L174.986 176.522Z" fill="#C6A67D"/>
<path d="M185.387 182.557L177.37 177.407L174.326 134.828L179.764 135.624L185.387 182.557Z" fill="#A77501"/>
<path d="M142.275 157.396L179.764 135.624L185.387 182.557L143.534 206.86L142.275 157.396Z" fill="#FF6D67"/>
<path d="M133.132 200.816L139.001 200.426L141.263 153.944L135.314 153.351L133.132 200.816Z" fill="#D94545"/>
<path d="M143.534 206.86L139.001 200.426L141.263 153.944L142.275 157.396L143.534 206.86Z" fill="#AE3636"/>
<path d="M143.534 206.86L133.132 200.816L139.001 200.426L143.534 206.86Z" fill="#BA9463"/>
<path d="M168.262 148.749C168.262 149.351 168.685 149.599 169.213 149.298C169.741 148.997 170.163 148.253 170.163 147.652C170.163 147.05 169.741 146.802 169.213 147.103C168.685 147.404 168.262 148.147 168.262 148.749Z" fill="#67565B"/>
<path d="M154.824 156.555C154.824 157.157 155.247 157.405 155.775 157.104C156.303 156.803 156.725 156.06 156.725 155.458C156.725 154.856 156.303 154.608 155.775 154.909C155.247 155.21 154.824 155.944 154.824 156.555Z" fill="#67565B"/>
<path d="M162.19 175.911C161.46 175.911 160.791 175.734 160.184 175.389C158.758 174.566 157.975 172.866 157.975 170.618V159.139C157.983 159.016 158.124 157.361 155.607 156.484L155.942 155.52C159.268 156.67 159.013 159.104 158.996 159.201V170.627C158.996 172.495 159.594 173.875 160.694 174.512C161.803 175.159 163.308 174.982 164.944 174.035C168.509 171.964 171.404 166.937 171.404 162.83V151.803C171.404 149.085 169.221 148.714 169.133 148.705L169.283 147.687C170.374 147.846 172.425 148.908 172.425 151.803V162.821C172.425 167.255 169.301 172.68 165.455 174.911C164.32 175.575 163.202 175.911 162.19 175.911Z" fill="#FCF4E8"/>
</g>
<defs>
<linearGradient id="paint0_linear" x1="23.1587" y1="170.925" x2="26.7143" y2="170.925" gradientUnits="userSpaceOnUse">
<stop offset="0.1108" stop-color="#D4D4DD"/>
<stop offset="0.2676" stop-color="#D4D4DD"/>
<stop offset="0.5278" stop-color="#D4D4DD"/>
<stop offset="0.5337" stop-color="#D1D2DB"/>
<stop offset="0.5647" stop-color="#C9CBD5"/>
<stop offset="0.6205" stop-color="#C7C9D3"/>
<stop offset="0.7574" stop-color="#C7C9D3"/>
<stop offset="0.7697" stop-color="#BCBECB"/>
<stop offset="0.7874" stop-color="#B5B8C6"/>
<stop offset="0.8368" stop-color="#B3B6C5"/>
<stop offset="1" stop-color="#B3B6C5"/>
</linearGradient>
<linearGradient id="paint1_linear" x1="101.462" y1="186.461" x2="74.6932" y2="140.148" gradientUnits="userSpaceOnUse">
<stop offset="0.1108" stop-color="#E7E7F0"/>
<stop offset="0.2676" stop-color="#E7E7F0"/>
<stop offset="0.5278" stop-color="#E7E7F0"/>
<stop offset="0.5356" stop-color="#E3E4ED"/>
<stop offset="0.5659" stop-color="#DBDDE8"/>
<stop offset="0.6205" stop-color="#D9DBE6"/>
<stop offset="0.7574" stop-color="#D9DBE6"/>
<stop offset="0.7578" stop-color="#D8DAE6"/>
<stop offset="0.7703" stop-color="#CDD0DE"/>
<stop offset="0.7879" stop-color="#C6CAD9"/>
<stop offset="0.8368" stop-color="#C4C8D8"/>
<stop offset="1" stop-color="#C4C8D8"/>
</linearGradient>
<linearGradient id="paint2_linear" x1="101.949" y1="186.179" x2="75.1803" y2="139.866" gradientUnits="userSpaceOnUse">
<stop offset="0.1108" stop-color="#F1F1F6"/>
<stop offset="0.2676" stop-color="#F1F1F6"/>
<stop offset="0.5278" stop-color="#E7E7F0"/>
<stop offset="0.5356" stop-color="#E3E4ED"/>
<stop offset="0.5659" stop-color="#DBDDE8"/>
<stop offset="0.6205" stop-color="#D9DBE6"/>
<stop offset="0.7574" stop-color="#D9DBE6"/>
<stop offset="0.7578" stop-color="#D8DAE6"/>
<stop offset="0.7703" stop-color="#CDD0DE"/>
<stop offset="0.7879" stop-color="#C6CAD9"/>
<stop offset="0.8368" stop-color="#C4C8D8"/>
<stop offset="1" stop-color="#C4C8D8"/>
</linearGradient>
<linearGradient id="paint3_linear" x1="99.4106" y1="187.647" x2="72.6416" y2="141.334" gradientUnits="userSpaceOnUse">
<stop offset="0.1108" stop-color="#D4D4DD"/>
<stop offset="0.2676" stop-color="#D4D4DD"/>
<stop offset="0.5278" stop-color="#D4D4DD"/>
<stop offset="0.5337" stop-color="#D1D2DB"/>
<stop offset="0.5647" stop-color="#C9CBD5"/>
<stop offset="0.6205" stop-color="#C7C9D3"/>
<stop offset="0.7574" stop-color="#C7C9D3"/>
<stop offset="0.7697" stop-color="#BCBECB"/>
<stop offset="0.7874" stop-color="#B5B8C6"/>
<stop offset="0.8368" stop-color="#B3B6C5"/>
<stop offset="1" stop-color="#B3B6C5"/>
</linearGradient>
<clipPath id="clip0">
<rect width="157.602" height="217.919" fill="white"/>
</clipPath>
<clipPath id="clip1">
<rect width="120.633" height="125.498" fill="white" transform="translate(94.3667 85.611)"/>
</clipPath>
</defs>
</svg>
