<svg width="102" height="102" viewBox="0 0 102 102" fill="none" xmlns="http://www.w3.org/2000/svg">
<path d="M51 0C40.9132 0 31.0528 2.9911 22.6659 8.59505C14.279 14.199 7.74223 22.1641 3.88217 31.4831C0.0220977 40.8022 -0.987872 51.0566 0.979973 60.9496C2.94782 70.8426 7.8051 79.93 14.9376 87.0624C22.0701 94.1949 31.1574 99.0522 41.0504 101.02C50.9434 102.988 61.1978 101.978 70.5169 98.1178C79.8359 94.2578 87.801 87.721 93.405 79.3341C99.0089 70.9472 102 61.0868 102 51C101.985 37.4786 96.6067 24.5154 87.0456 14.9544C77.4846 5.39334 64.5214 0.0152483 51 0ZM51 90.6666C43.1547 90.6666 35.4855 88.3402 28.9624 83.9816C22.4392 79.623 17.3551 73.4279 14.3528 66.1798C11.3505 58.9316 10.565 50.956 12.0955 43.2614C13.6261 35.5668 17.404 28.4989 22.9515 22.9514C28.4989 17.4039 35.5669 13.6261 43.2614 12.0955C50.956 10.565 58.9316 11.3505 66.1798 14.3528C73.4279 17.3551 79.623 22.4392 83.9816 28.9624C88.3403 35.4855 90.6667 43.1547 90.6667 51C90.6548 61.5166 86.4718 71.5991 79.0355 79.0354C71.5991 86.4718 61.5166 90.6548 51 90.6666Z" fill="#41DDA5"/>
<path fill-rule="evenodd" clip-rule="evenodd" d="M72.3231 34.6148C74.7017 36.3848 75.1949 39.748 73.4249 42.1265L51.9512 70.9818C50.9967 72.2644 49.5201 73.0548 47.9235 73.1379C46.3268 73.221 44.7762 72.5881 43.6937 71.4115L28.2595 54.6352C26.2521 52.4532 26.3936 49.057 28.5755 47.0496C30.7575 45.0422 34.1536 45.1838 36.161 47.3657L47.2071 59.3723L64.8114 35.7165C66.5815 33.3379 69.9446 32.8447 72.3231 34.6148Z" fill="#41DDA5"/>
</svg>
