<svg width="85" height="85" viewBox="0 0 85 85" fill="none" xmlns="http://www.w3.org/2000/svg">
<path d="M42.5 85C65.9721 85 85 65.9721 85 42.5C85 19.0279 65.9721 0 42.5 0C19.0279 0 0 19.0279 0 42.5C0 65.9721 19.0279 85 42.5 85Z" fill="#282141"/>
<path d="M42.5006 15.7256V83.8552C42.2109 83.7875 32.0873 83.7164 31.7993 83.6419C27.9344 82.6393 24.2846 81.1075 20.9297 79.1264C19.0614 78.0231 17.2852 76.7828 15.6146 75.4141C11.689 72.2067 8.34973 68.3088 5.77881 63.9079V22.0378C5.77881 18.5517 8.60473 15.7256 12.0911 15.7256H42.5006Z" fill="#B55D14"/>
<path d="M22.9526 33.3698V22.0378C22.9526 18.5518 25.7787 15.7256 29.2649 15.7256H18.8567C15.3707 15.7256 12.5444 18.5517 12.5444 22.0378V33.3698H22.9526Z" fill="#C5C6E0"/>
<path d="M79.2205 21.5252V63.9112C74.9619 71.1987 68.5972 77.1053 60.9595 80.7932C57.5543 82.4378 53.8975 83.6415 50.0604 84.3285C47.6075 84.7691 45.0801 84.9999 42.5005 84.9999C39.1145 84.9999 35.8219 84.6044 32.6666 83.855C32.3769 83.7873 32.0872 83.7162 31.7993 83.6417V21.5252C31.7993 18.3221 34.396 15.7256 37.5989 15.7256H73.4211C76.6239 15.7256 79.2205 18.3222 79.2205 21.5252Z" fill="#ED8C40"/>
<path d="M61.1475 15.7261H49.8721V33.3529H61.1475V15.7261Z" fill="#EBEBF2"/>
<path d="M61.1475 15.7261H49.8721V18.0038H61.1475V15.7261Z" fill="#C5C6E0"/>
<path d="M54.6669 44.3565L43.8862 55.1372C43.1353 55.8881 43.667 57.172 44.729 57.172H47.4597C48.1179 57.172 48.6517 57.7056 48.6517 58.364V67.4588C48.6517 68.1171 49.1852 68.6508 49.8438 68.6508H61.176C61.8343 68.6508 62.3682 68.1172 62.3682 67.4588V58.364C62.3682 57.7058 62.9018 57.172 63.5602 57.172H66.2908C67.3528 57.172 67.8847 55.8881 67.1337 55.1372L56.353 44.3565C55.8873 43.8909 55.1326 43.8909 54.6669 44.3565Z" fill="#B55D14"/>
</svg>
