<svg width="91" height="85" viewBox="0 0 91 85" fill="none" xmlns="http://www.w3.org/2000/svg">
<path d="M85.2194 42.4668C85.2194 55.2218 79.5753 66.6646 70.6422 74.448C70.5007 74.5707 70.3576 74.6935 70.2145 74.8146C70.1396 74.8793 70.0647 74.9423 69.9898 75.0054C69.84 75.1298 69.6902 75.2542 69.5387 75.3769C69.3523 75.5296 69.1642 75.6789 68.9744 75.8282C68.8097 75.9575 68.6432 76.0869 68.4751 76.2147C67.9342 76.6277 67.3816 77.0275 66.8207 77.414C66.6808 77.5102 66.5394 77.6065 66.3979 77.7027C66.2664 77.7906 66.1349 77.8785 66.0018 77.9664C65.9219 78.0179 65.842 78.0709 65.7621 78.1207C65.6439 78.1987 65.5257 78.2733 65.4076 78.348C64.4056 78.9833 63.3753 79.5755 62.3184 80.1246C62.2035 80.186 62.087 80.2457 61.9721 80.3038C61.8407 80.3718 61.7108 80.4365 61.5793 80.5012C61.4878 80.5476 61.3962 80.5941 61.303 80.6372C61.1832 80.6969 61.0634 80.755 60.9419 80.8097C60.822 80.8694 60.7005 80.9258 60.579 80.9806C60.4226 81.0536 60.2661 81.1249 60.108 81.1962C59.8833 81.2991 59.6569 81.3986 59.4289 81.4948C59.051 81.659 58.6682 81.8166 58.2837 81.9676C56.9955 82.4752 55.6772 82.9231 54.3307 83.3063C54.141 83.361 53.9495 83.4141 53.7581 83.4655C53.59 83.5103 53.4219 83.5551 53.2538 83.5966C53.1722 83.6182 53.0924 83.6381 53.0108 83.658C52.8443 83.7011 52.6762 83.7409 52.5081 83.7807C52.3117 83.8288 52.1137 83.8736 51.9156 83.9168C51.8906 83.9234 51.8657 83.9284 51.839 83.9333C51.6426 83.9781 51.4462 84.0196 51.2481 84.0594C51.0468 84.1009 50.8437 84.1407 50.6406 84.1805C50.6256 84.1838 50.609 84.1872 50.5924 84.1888C50.391 84.227 50.1896 84.2635 49.9865 84.3C49.7435 84.3414 49.5005 84.3812 49.2558 84.4194C49.0661 84.4492 48.878 84.4775 48.6866 84.504C48.4769 84.5339 48.2655 84.562 48.0541 84.5903C48.0491 84.5903 48.0441 84.5919 48.0391 84.5919C47.6063 84.6467 47.1703 84.6948 46.7325 84.7362C46.2964 84.7777 45.857 84.8142 45.4159 84.8424C44.9749 84.8706 44.5321 84.8922 44.0877 84.9071C44.0861 84.9088 44.0861 84.9088 44.0844 84.9071H44.0827C43.9612 84.9121 43.8381 84.9154 43.7149 84.9187C43.625 84.922 43.5335 84.9237 43.4419 84.9253C43.1656 84.9303 42.8877 84.9336 42.6097 84.9336C42.2935 84.9336 41.9772 84.9303 41.6626 84.9237C41.5128 84.9204 41.3614 84.9154 41.2116 84.9104C41.0834 84.9071 40.9569 84.9021 40.8287 84.8971C40.7239 84.8922 40.6207 84.8888 40.5158 84.8822C40.3927 84.8772 40.2678 84.8706 40.1447 84.864C39.6786 84.8374 39.2142 84.8026 38.7515 84.7611C38.65 84.7528 38.5501 84.7429 38.4503 84.7329C38.1823 84.708 37.916 84.6798 37.6497 84.6483C36.6993 84.5388 35.7589 84.3978 34.8301 84.227C34.687 84.2004 34.5438 84.1739 34.4023 84.1457C34.2426 84.1158 34.0828 84.0826 33.9246 84.0495C33.7898 84.0229 33.655 83.9947 33.5202 83.9649C32.9343 83.8388 32.3534 83.6994 31.7775 83.5485C31.6643 83.5186 31.5528 83.4904 31.4413 83.4589C31.3398 83.4324 31.2382 83.4042 31.1367 83.376C31.0085 83.3411 30.8804 83.3046 30.7522 83.2665C30.5958 83.2217 30.4393 83.1752 30.2828 83.1288C30.158 83.0906 30.0332 83.0525 29.9083 83.0143C29.5671 82.9082 29.2259 82.797 28.888 82.6826C28.5818 82.5797 28.2755 82.4719 27.9709 82.3607C27.6663 82.2496 27.3634 82.1351 27.0622 82.0174C26.949 81.9726 26.8375 81.9294 26.7243 81.883C26.5911 81.8299 26.458 81.7768 26.3265 81.7221C26.2033 81.6707 26.0818 81.6192 25.9603 81.5678C25.8388 81.5164 25.7173 81.465 25.5958 81.4119C25.4793 81.3621 25.3628 81.3107 25.2479 81.2593C25.1148 81.1995 24.9849 81.1415 24.8534 81.0818C24.7403 81.0287 24.6271 80.9773 24.5156 80.9242C24.3957 80.8678 24.2775 80.8114 24.1577 80.755C24.0395 80.6986 23.9214 80.6405 23.8032 80.5825C23.0941 80.2357 22.3984 79.8675 21.7126 79.4826C21.5995 79.4179 21.4846 79.3532 21.3714 79.2885C21.1451 79.1575 20.9187 79.0264 20.694 78.8904C20.4926 78.771 20.2929 78.6499 20.0948 78.5255C20.0565 78.5022 20.0199 78.479 19.9833 78.4558C19.7752 78.3264 19.5688 78.1937 19.3624 78.061C19.3624 78.0593 19.3608 78.0593 19.3591 78.0593C19.1411 77.9167 18.9247 77.774 18.71 77.628C18.5152 77.4953 18.3205 77.3609 18.1274 77.2266C18.0908 77.2017 18.0542 77.1751 18.0192 77.1503C17.8678 77.0441 17.718 76.9363 17.5698 76.8285C17.4933 76.7737 17.4167 76.7173 17.3418 76.6626C17.1604 76.5299 16.9806 76.3955 16.8025 76.2595C16.5961 76.1019 16.3898 75.9426 16.185 75.7817C6.32488 68.005 0 55.9716 0 42.4668C0 32.7923 3.24733 23.8727 8.71502 16.7313C11.8042 12.6953 15.6025 9.22658 19.9267 6.51268C26.4946 2.38544 34.2725 0 42.6097 0C48.2422 0 53.62 1.08987 58.5401 3.06889C59.552 3.47365 60.5424 3.91823 61.5128 4.39764C66.5377 6.88095 71.0017 10.3231 74.6602 14.4852C78.074 18.3652 80.7887 22.869 82.6096 27.8042C82.6612 27.9435 82.7127 28.0845 82.7627 28.2255C83.2337 29.5443 83.6398 30.8913 83.9811 32.2648C84.79 35.5328 85.2194 38.95 85.2194 42.4668Z" fill="#3D4951"/>
<path d="M70.6417 74.4477C63.1484 80.977 53.3432 84.9334 42.6092 84.9334C37.1232 84.9334 31.8785 83.8999 27.0616 82.0171C23.1153 80.4743 19.4568 78.3626 16.1845 75.7814C20.329 71.7603 22.4678 66.6328 22.4678 60.8567C22.4678 46.9289 11.3527 48.4152 14.4685 41.2738C14.9196 40.2403 15.5986 39.5071 16.4309 39.0443C21.331 36.3055 31.529 42.853 31.529 52.0912C31.5407 50.0558 31.9052 24.7549 42.7407 24.7549C45.5186 24.7549 47.0366 25.7369 47.7457 27.2581C47.7473 27.2581 47.7473 27.2598 47.7473 27.2598C49.4367 30.8827 46.5489 37.5546 45.1924 41.2738C44.1338 44.1801 43.4364 48.1349 44.2337 51.5189V51.5206C44.237 51.5322 44.2403 51.5455 44.2437 51.5571C44.2853 51.7313 44.3302 51.9038 44.3802 52.0747C44.3902 52.1078 44.4001 52.1427 44.4101 52.1775C45.0626 54.3373 46.3858 56.2085 48.6961 57.3366C49.0406 57.5074 49.4068 57.6584 49.7963 57.7927C54.7297 59.4931 57.4111 55.8851 58.1068 52.1642C58.4347 50.4092 58.3215 48.6309 57.7956 47.3685C55.7283 42.4068 59.2037 36.5344 64.5332 37.5862C65.5668 37.7885 66.6604 38.2696 67.8172 39.036C76.3507 44.6927 63.0752 67.0027 69.7063 73.6116C69.9926 73.897 70.3055 74.1773 70.6417 74.4477Z" fill="#5EA5EC"/>
<path d="M64.7812 31.0057C63.3165 31.3723 62.0765 31.8799 61.0246 32.4672C59.5732 33.275 58.4847 34.2355 57.6691 35.1877C56.8801 36.11 55.3722 35.5095 55.4571 34.3002C55.9181 27.8141 57.7706 17.5325 64.7812 15.3428C67.2879 14.5598 69.3085 14.797 70.7816 15.6646H70.7832C75.7199 18.5742 74.4966 28.5738 64.7812 31.0057Z" fill="#5EA5EC"/>
<path d="M28.5598 30.2508C28.0555 30.362 27.4912 30.2243 27.0851 29.7498C25.4007 27.7808 22.7392 25.7852 18.5665 24.7401C4.71833 21.2747 5.27426 4.97145 15.5272 5.41768C16.4626 5.45915 17.4763 5.63665 18.5665 5.97837C26.9636 8.60269 29.1823 20.9181 29.7349 28.6865C29.7931 29.5126 29.2306 30.1032 28.5598 30.2508Z" fill="#5EA5EC"/>
<path d="M36.225 20.369C36.0536 20.719 35.7357 20.8899 35.4145 20.9015C34.975 20.9181 34.5256 20.6394 34.4274 20.1152C34.1278 18.4978 33.299 16.5569 31.3349 14.6625C25.5859 9.11361 29.1878 1.61225 33.8932 2.31726L33.8948 2.31892C35.0083 2.48481 36.1851 3.11186 37.3136 4.33444C41.1002 8.4368 38.3955 15.9166 36.225 20.369Z" fill="#5EA5EC"/>
<path d="M83.9809 32.2645C83.2818 34.7429 80.4789 37.0885 76.2329 36.493C76.1963 36.488 76.1613 36.483 76.1264 36.4797C73.921 36.1894 72.2482 36.6356 71.0465 37.2577C70.3624 37.6111 69.6184 36.8994 69.9596 36.2093C71.7755 32.5283 75.2958 26.9711 79.8996 27.273C79.9296 27.2747 79.9612 27.2764 79.9912 27.2797C81.1796 27.3775 82.095 27.7209 82.7625 28.2252C83.2335 29.544 83.6396 30.891 83.9809 32.2645Z" fill="#5EA5EC"/>
<path d="M28.5598 30.2508C28.0555 30.362 27.4912 30.2243 27.0851 29.7498C25.4007 27.7808 22.7392 25.7852 18.5665 24.7401C4.71833 21.2747 5.27426 4.97145 15.5272 5.41768L15.5289 5.41934C10.98 6.62035 9.94468 15.3227 17.3631 17.8475C23.3651 19.8929 27.2832 25.7935 28.5598 30.2508Z" fill="#4278C3"/>
<path d="M35.4145 20.9015C34.975 20.9181 34.5256 20.6394 34.4274 20.1152C34.1278 18.4978 33.299 16.5569 31.3349 14.6625C25.5859 9.11361 29.1878 1.61225 33.8932 2.31726L33.8948 2.31892C30.6924 2.31892 29.7404 9.45534 33.7916 12.3202C35.476 13.5112 36.0819 17.7612 35.4145 20.9015Z" fill="#4278C3"/>
<path d="M27.0621 82.0172C23.1158 80.4745 19.4573 78.3627 16.185 75.7815C20.3295 71.7605 22.4683 66.6329 22.4683 60.8568C22.4683 46.929 11.3531 48.4153 14.469 41.2739C14.92 40.2405 15.5991 39.5073 16.4314 39.0444C14.469 41.2739 18.655 47.2657 26.1384 51.5191C33.0092 55.424 41.2532 68.5937 27.0621 82.0172Z" fill="#4278C3"/>
<path d="M47.7465 27.2586C45.3313 23.1861 33.5055 33.3367 31.5298 52.0917C31.5414 50.0563 31.906 24.7554 42.7415 24.7554C45.5194 24.7554 47.0374 25.7374 47.7465 27.2586Z" fill="#4278C3"/>
<path d="M46.5857 32.8874C47.1385 31.1101 46.9688 29.4783 46.2066 29.2429C45.4445 29.0074 44.3785 30.2574 43.8257 32.0347C43.2729 33.8121 43.4426 35.4438 44.2047 35.6793C44.9669 35.9147 46.0329 34.6648 46.5857 32.8874Z" fill="#75CEF9"/>
<path d="M23.9766 12.8261C24.5408 12.2638 23.928 10.7413 22.6078 9.42562C21.2877 8.1099 19.7601 7.49914 19.1959 8.06144C18.6317 8.62375 19.2445 10.1462 20.5647 11.4619C21.8848 12.7776 23.4124 13.3884 23.9766 12.8261Z" fill="#75CEF9"/>
<path d="M36.7052 9.7719C37.3331 9.61575 37.5452 8.303 37.1789 6.83978C36.8126 5.37656 36.0066 4.31698 35.3787 4.47313C34.7507 4.62928 34.5387 5.94203 34.905 7.40525C35.2713 8.86846 36.0773 9.92805 36.7052 9.7719Z" fill="#75CEF9"/>
<path d="M68.0516 46.9991C68.836 46.8536 69.195 45.2527 68.8533 43.4234C68.5117 41.5941 67.5988 40.2292 66.8144 40.3747C66.0299 40.5202 65.671 42.1211 66.0127 43.9504C66.3543 45.7797 67.2672 47.1446 68.0516 46.9991Z" fill="#75CEF9"/>
<path d="M72.5969 22.2701C73.0506 20.4652 72.7909 18.8454 72.017 18.6521C71.243 18.4589 70.2478 19.7654 69.7941 21.5703C69.3404 23.3752 69.6001 24.995 70.374 25.1883C71.148 25.3815 72.1432 24.075 72.5969 22.2701Z" fill="#75CEF9"/>
<path d="M70.7821 15.6646C66.616 13.6922 56.6426 25.1151 61.0251 32.4672C59.5737 33.275 58.4852 34.2355 57.6696 35.1877C56.8806 36.11 55.3727 35.5095 55.4575 34.3002C55.9186 27.8141 57.7711 17.5325 64.7817 15.3428C67.2884 14.5598 69.309 14.797 70.7821 15.6646Z" fill="#4278C3"/>
<path d="M76.1268 36.4802C73.9215 36.1899 72.2487 36.6361 71.047 37.2582C70.3629 37.6115 69.6189 36.8999 69.9601 36.2098C71.776 32.5288 75.2963 26.9716 79.9001 27.2735C77.5549 28.6023 74.3392 31.4339 76.1268 36.4802Z" fill="#4278C3"/>
<path d="M68.7176 3.16016H58.205C54.9544 3.16016 52.3179 5.78613 52.3179 9.02754V27.8987H74.6047V9.02754C74.6047 5.78613 71.9699 3.16016 68.7176 3.16016Z" fill="#F1D333"/>
<path d="M65.1893 3.16016C61.9386 3.16016 59.3038 5.78613 59.3038 9.02589V27.8971H52.3198V9.02755C52.3198 5.78779 54.9546 3.16182 58.2053 3.16182L65.1893 3.16016Z" fill="#E7A52E"/>
<path d="M85.1641 42.5582C85.1641 55.3131 79.52 66.756 70.5869 74.5393C69.8613 75.1713 69.1156 75.7785 68.3483 76.3608C67.8306 76.7539 67.303 77.1371 66.7654 77.5054C64.5184 79.0564 62.1133 80.3968 59.58 81.4966C58.9691 81.7653 58.35 82.0175 57.7225 82.253C57.6859 82.248 57.6509 82.2431 57.6143 82.2381C57.4961 82.2198 57.3763 82.2016 57.2581 82.1834C57.0517 82.1502 56.8453 82.117 56.6389 82.0805C56.4925 82.0556 56.346 82.0291 56.1995 82.0009C56.098 81.9826 55.9964 81.9627 55.8966 81.9428C55.8683 81.9378 55.8417 81.9329 55.8134 81.9279C55.7085 81.9063 55.6036 81.8848 55.4988 81.8632C55.3823 81.84 55.2674 81.8151 55.1509 81.7902C55.0361 81.7653 54.9196 81.7404 54.8047 81.7139C54.6865 81.6874 54.5667 81.6608 54.4485 81.6326C54.3104 81.5994 54.1739 81.5679 54.0391 81.5331C53.9791 81.5198 53.9176 81.5032 53.8576 81.4883C53.7977 81.4734 53.7378 81.4584 53.6779 81.4435C53.6612 81.4385 53.6463 81.4352 53.6313 81.4302C53.5497 81.4103 53.4665 81.3888 53.3849 81.3655C53.2867 81.3406 53.1902 81.3141 53.0937 81.2876C52.869 81.2262 52.6443 81.1632 52.4196 81.0968C52.2881 81.057 52.1566 81.0188 52.0234 80.9774C51.9868 80.9674 51.9502 80.9558 51.9152 80.9442C51.8953 80.9375 51.877 80.9326 51.857 80.9259C51.7288 80.8878 51.6007 80.8463 51.4742 80.8048C51.4425 80.7949 51.4126 80.7849 51.381 80.775C51.1995 80.7169 51.0198 80.6555 50.84 80.5942C50.6603 80.5328 50.4805 80.4697 50.3024 80.4051C50.2225 80.3769 50.1426 80.347 50.0644 80.3188C50.0228 80.3039 49.9812 80.2889 49.9395 80.2723C49.9312 80.269 49.9212 80.2657 49.9129 80.2624C49.7848 80.2159 49.6599 80.1678 49.5351 80.1181C49.4935 80.1031 49.4519 80.0882 49.4119 80.0716C49.2854 80.0235 49.1623 79.9754 49.0374 79.924C48.9675 79.8958 48.8993 79.8676 48.8294 79.8394C48.6263 79.7564 48.4232 79.6718 48.2235 79.5856C48.2035 79.5773 48.1836 79.569 48.1636 79.5607C47.9921 79.4877 47.824 79.4131 47.6559 79.3367C47.4529 79.2455 47.2515 79.1526 47.0501 79.0581C46.9735 79.0216 46.8953 78.9834 46.8187 78.9469C46.6556 78.8689 46.4925 78.7893 46.3294 78.708C46.1663 78.6268 46.0031 78.5438 45.8417 78.4592C45.7535 78.4144 45.6653 78.368 45.5787 78.3199C45.4888 78.2751 45.4006 78.227 45.3124 78.1789C45.2242 78.1308 45.136 78.0826 45.0494 78.0345C44.9096 77.9582 44.7681 77.8803 44.63 77.8006C44.4918 77.7227 44.3537 77.6431 44.2172 77.5618C44.2055 77.5551 44.1956 77.5485 44.1839 77.5419C44.0807 77.4821 43.9775 77.4208 43.876 77.3594C43.6929 77.2499 43.5115 77.1371 43.3317 77.0243C43.2385 76.9662 43.1453 76.9082 43.0554 76.8501C43.0421 76.8418 43.0305 76.8335 43.0171 76.8252C42.9073 76.7556 42.7991 76.6842 42.6909 76.6129C42.5644 76.53 42.4379 76.4454 42.3131 76.3608C42.1866 76.2745 42.0617 76.1882 41.9369 76.102C41.6639 75.9129 41.396 75.7204 41.133 75.523C41.0315 75.45 40.9316 75.3754 40.8334 75.2991C40.7052 75.2029 40.5787 75.105 40.4539 75.0071C40.3773 74.9474 40.3024 74.8877 40.2275 74.828C40.156 74.7732 40.0861 74.7168 40.0161 74.6588C39.8797 74.5493 39.7448 74.4398 39.6117 74.327C39.5834 74.3038 39.5551 74.2805 39.5268 74.2573C39.392 74.1429 39.2572 74.0284 39.124 73.9123C38.9492 73.7597 38.7761 73.607 38.6047 73.4528C38.4499 73.3118 38.2968 73.1691 38.1453 73.0264C38.1287 73.0115 38.112 72.9949 38.0954 72.98C37.9389 72.8324 37.7858 72.6831 37.6327 72.5321C37.3264 72.2302 37.0268 71.9233 36.7339 71.6114C36.6506 71.5219 36.5691 71.4323 36.4859 71.3427C36.3477 71.1901 36.2096 71.0375 36.0747 70.8832C35.9699 70.7638 35.8667 70.646 35.7668 70.5265C35.4339 70.1367 35.1144 69.7402 34.8048 69.3371C34.7232 69.2326 34.6433 69.1265 34.5651 69.0203C34.5301 68.9755 34.4985 68.9307 34.4652 68.8859C34.4153 68.8196 34.3654 68.7516 34.3171 68.6835C34.3121 68.6769 34.3071 68.6703 34.3021 68.6636C34.2172 68.5459 34.134 68.4297 34.0524 68.312C33.8777 68.0631 33.7079 67.8126 33.5415 67.5605C33.4682 67.4494 33.395 67.3366 33.3251 67.2254C33.2469 67.1027 33.1703 66.9799 33.0937 66.8555C33.0172 66.7327 32.9423 66.6083 32.869 66.4839C32.7209 66.2367 32.5778 65.9862 32.4363 65.7341C32.4363 65.7341 32.4346 65.7324 32.4346 65.7308C32.2948 65.4786 32.1583 65.2232 32.0268 64.966C31.8953 64.7106 31.7672 64.4518 31.6423 64.1897C31.5808 64.0603 31.5192 63.9293 31.4592 63.7982C31.4027 63.6738 31.3477 63.551 31.2928 63.4266C31.2379 63.3022 31.1846 63.1794 31.1314 63.0534C31.1097 63.0003 31.0881 62.9489 31.0664 62.8974C31.0265 62.7996 30.9865 62.7034 30.9483 62.6055C30.8933 62.4711 30.8417 62.3367 30.7901 62.2024C30.6869 61.9336 30.5871 61.6616 30.4939 61.3895C30.4606 61.295 30.429 61.2004 30.3973 61.1059C30.3657 61.0097 30.3341 60.9151 30.3041 60.8206C30.2725 60.7243 30.2425 60.6281 30.2142 60.5336C30.1244 60.2466 30.0411 59.9579 29.9629 59.6676C29.933 59.5582 29.903 59.4487 29.8747 59.3375C29.8714 59.3226 29.8664 59.306 29.863 59.2911C29.8397 59.2032 29.8181 59.1152 29.7965 59.0273C29.7515 58.8399 29.7066 58.6541 29.6666 58.4666C29.6367 58.3323 29.6084 58.1996 29.5801 58.0652C29.5268 57.8081 29.4786 57.5476 29.432 57.2888C29.4137 57.1794 29.3953 57.0715 29.3787 56.9637C29.3421 56.7464 29.3105 56.5307 29.2822 56.3134C29.2672 56.2106 29.2539 56.1077 29.2422 56.0049C29.2123 55.7643 29.1856 55.5238 29.1623 55.2816C29.1523 55.1887 29.144 55.0942 29.1374 55.0013C29.0741 54.2647 29.0425 53.5232 29.0425 52.7734C29.0425 52.644 29.0441 52.5163 29.0458 52.3869C29.0475 52.2641 29.0491 52.1397 29.0541 52.017C29.0625 51.72 29.0758 51.4248 29.0941 51.1311C29.0991 51.0416 29.1057 50.952 29.1124 50.8624C29.1174 50.7778 29.124 50.6932 29.1324 50.6086C29.139 50.5174 29.1473 50.4278 29.1557 50.3366C29.1623 50.2553 29.1706 50.1756 29.179 50.0944C29.1923 49.9683 29.2056 49.8422 29.2206 49.7161C29.2356 49.5901 29.2505 49.4657 29.2672 49.3396C29.2822 49.2284 29.2971 49.1156 29.3138 49.0028C29.3171 48.9829 29.3188 48.9614 29.3221 48.9398C29.3404 48.8237 29.3571 48.7076 29.377 48.5914C29.3953 48.4786 29.4136 48.3642 29.4336 48.2497C29.4786 47.9926 29.5268 47.7355 29.5801 47.4817C29.6001 47.3805 29.6217 47.2809 29.6433 47.1814C29.6933 46.9525 29.7465 46.7236 29.8031 46.4963C29.8231 46.4133 29.8431 46.3304 29.8647 46.2475C30.0694 45.4462 30.3124 44.6583 30.5904 43.8819C30.632 43.7658 30.6736 43.648 30.7186 43.5319C31.1097 42.4852 31.5658 41.4633 32.0834 40.4697C32.1383 40.3618 32.1949 40.254 32.2515 40.1478C32.5827 39.5341 32.9356 38.9335 33.3101 38.343C33.3617 38.2617 33.4133 38.1821 33.4649 38.1025C33.5098 38.0328 33.5564 37.9615 33.6031 37.8918C33.6663 37.7956 33.7295 37.6994 33.7945 37.6048C33.9093 37.4373 34.0242 37.2714 34.1407 37.1055C34.1973 37.0275 34.2538 36.9479 34.3104 36.8699C34.4503 36.6792 34.5917 36.4884 34.7349 36.2993C34.7965 36.218 34.858 36.1367 34.9213 36.0571C34.9812 35.9791 35.0428 35.9012 35.1044 35.8232C35.359 35.503 35.622 35.1862 35.89 34.8743C35.9532 34.7997 36.0182 34.7267 36.0831 34.6537C36.1929 34.5276 36.3061 34.4015 36.4193 34.2755C36.5474 34.1345 36.6756 33.9951 36.8071 33.8574C36.9153 33.7413 37.0235 33.6269 37.135 33.5141C37.145 33.5024 37.1566 33.4908 37.1666 33.4809C37.2265 33.4195 37.2865 33.3581 37.3464 33.2984C37.4496 33.1939 37.5528 33.091 37.6576 32.9882C38.2385 32.4159 38.8444 31.8651 39.4735 31.3327C39.59 31.2348 39.7082 31.1369 39.8264 31.0424C39.888 30.9893 39.9512 30.9378 40.0161 30.8864C40.0345 30.8715 40.0528 30.8566 40.0711 30.8416C40.1793 30.7537 40.2874 30.6674 40.3973 30.5828C40.7352 30.3158 41.0797 30.057 41.4309 29.8032C41.5824 29.692 41.7355 29.5842 41.8886 29.4764C41.9003 29.4681 41.9136 29.4581 41.9269 29.4498C42.0984 29.3304 42.2698 29.2126 42.4446 29.0965C42.5844 29.002 42.7259 28.9091 42.869 28.8162C42.9056 28.7913 42.9439 28.7664 42.9838 28.7415C43.1237 28.6519 43.2635 28.5624 43.4049 28.4761C43.7928 28.2322 44.1872 27.9967 44.5867 27.7694C44.7432 27.6798 44.9013 27.5919 45.0594 27.5057C45.126 27.4675 45.1926 27.431 45.2608 27.3945C45.4073 27.3149 45.5554 27.2369 45.7035 27.159C45.8916 27.0594 46.0814 26.9632 46.2711 26.867C46.4625 26.7708 46.6539 26.6779 46.847 26.585C47.0268 26.4987 47.2065 26.4141 47.388 26.3312C47.4179 26.3163 47.4495 26.303 47.4812 26.2881C47.6459 26.2134 47.8124 26.1388 47.9788 26.0658C48.0021 26.0542 48.0271 26.0442 48.0504 26.0343C48.2135 25.9646 48.375 25.8949 48.5398 25.8252C48.5797 25.8086 48.6213 25.7904 48.6629 25.7738C48.841 25.7008 49.0208 25.6278 49.2022 25.5548C49.2338 25.5432 49.2654 25.53 49.2971 25.5183C49.4718 25.4503 49.6483 25.3823 49.8247 25.316C50.0294 25.2397 50.2342 25.165 50.4389 25.092C50.4439 25.0904 50.4472 25.0887 50.4505 25.087C51.0647 24.8697 51.6872 24.6657 52.318 24.4799C52.4578 24.4384 52.5977 24.397 52.7375 24.3571C52.879 24.3173 53.0188 24.2775 53.1602 24.2394C53.5863 24.1232 54.0158 24.0138 54.4485 23.9126C54.7215 23.8495 54.9961 23.7882 55.2724 23.7284C55.2841 23.7268 55.2957 23.7235 55.3074 23.7218C55.4522 23.6903 55.597 23.6621 55.7435 23.6322C55.8899 23.6024 56.0347 23.5758 56.1812 23.5476C56.3277 23.5194 56.4741 23.4929 56.6206 23.468C56.7688 23.4431 56.9152 23.4166 57.0634 23.3933L57.5078 23.3237C57.6559 23.3005 57.804 23.2805 57.9522 23.259C58.102 23.2374 58.2518 23.2175 58.4032 23.1993C58.5514 23.1794 58.7012 23.1611 58.851 23.1445C59.0008 23.1279 59.1506 23.1113 59.302 23.0948C59.5151 23.0715 59.7281 23.05 59.9428 23.0317C60.1775 23.0118 60.4122 22.9936 60.6486 22.977C60.7035 22.972 60.7584 22.9687 60.8133 22.9654C60.9582 22.9554 61.1046 22.9455 61.2511 22.9388C61.3143 22.9338 61.3776 22.9305 61.4425 22.9289C61.5906 22.9206 61.7388 22.9139 61.8852 22.909C62.0217 22.9023 62.1582 22.899 62.2947 22.894C62.3763 22.8924 62.4595 22.8891 62.5427 22.8874C62.6725 22.8857 62.8023 22.8824 62.9338 22.8808C63.0487 22.8791 63.1652 22.8791 63.2817 22.8791C63.3416 22.8774 63.4016 22.8774 63.4615 22.8774C67.3613 22.8774 71.1096 23.4415 74.6049 24.4799C77.4395 25.3209 80.1076 26.4755 82.5543 27.8955C84.242 32.4657 85.1641 37.4041 85.1641 42.5582Z" fill="#B97AB7"/>
<path d="M59.58 81.4964C58.9692 81.7651 58.35 82.0173 57.7225 82.2528C57.7458 82.2578 57.7691 82.2611 57.7924 82.2644C57.7691 82.2611 57.7458 82.2578 57.7208 82.2545C57.6859 82.2479 57.6509 82.2429 57.6143 82.2379C57.4961 82.2197 57.3763 82.2014 57.2581 82.1832C57.0517 82.15 56.8453 82.1168 56.6389 82.0803C56.4925 82.0554 56.346 82.0289 56.1995 82.0007C56.098 81.9824 55.9965 81.9625 55.8966 81.9426C55.8683 81.9376 55.8417 81.9327 55.8134 81.9277C55.7085 81.9061 55.6036 81.8846 55.4988 81.863C55.3823 81.8398 55.2674 81.8149 55.1509 81.79C55.0361 81.7651 54.9196 81.7402 54.8047 81.7137C54.6865 81.6872 54.5667 81.6606 54.4485 81.6324C54.3104 81.5992 54.1739 81.5677 54.0391 81.5329C53.9792 81.5196 53.9176 81.503 53.8576 81.4881C53.7977 81.4732 53.7378 81.4582 53.6779 81.4417C53.6629 81.4383 53.6463 81.435 53.6313 81.43C53.5497 81.4101 53.4665 81.3886 53.3849 81.3653C53.2867 81.3405 53.1902 81.3139 53.0937 81.2874C52.869 81.226 52.6443 81.163 52.4196 81.0966C52.2881 81.0568 52.1566 81.0186 52.0234 80.9772C51.9868 80.9672 51.9502 80.9556 51.9152 80.944C51.8953 80.9374 51.877 80.9324 51.857 80.9257C51.7288 80.8876 51.6007 80.8461 51.4742 80.8046C51.4425 80.7947 51.4126 80.7847 51.381 80.7748C51.1995 80.7167 51.0198 80.6553 50.84 80.594C50.6603 80.5326 50.4805 80.4696 50.3024 80.4049C50.2225 80.3767 50.1426 80.3468 50.0644 80.3186C50.0228 80.3037 49.9812 80.2887 49.9396 80.2722C49.9312 80.2688 49.9212 80.2655 49.9129 80.2622C49.7848 80.2158 49.6599 80.1676 49.5351 80.1179C49.4935 80.1029 49.4519 80.088 49.4119 80.0714C49.2854 80.0233 49.1623 79.9752 49.0374 79.9238C48.9675 79.8956 48.8993 79.8674 48.8294 79.8392C48.6263 79.7562 48.4232 79.6716 48.2235 79.5854C48.2035 79.5771 48.1836 79.5688 48.1636 79.5605C47.9922 79.4875 47.824 79.4129 47.6559 79.3366C47.4529 79.2453 47.2515 79.1524 47.0501 79.0579C46.9735 79.0214 46.8953 78.9832 46.8187 78.9467C46.6556 78.8688 46.4925 78.7891 46.3294 78.7078C46.1663 78.6266 46.0031 78.5436 45.8417 78.459C45.7535 78.4142 45.6653 78.3678 45.5787 78.3197C45.4888 78.2749 45.4006 78.2268 45.3124 78.1787C45.2242 78.1306 45.136 78.0825 45.0494 78.0344C44.9096 77.958 44.7681 77.8801 44.63 77.8004C44.4918 77.7225 44.3537 77.6429 44.2172 77.5616C44.2055 77.5549 44.1956 77.5483 44.1839 77.5417C44.0807 77.4819 43.9775 77.4206 43.876 77.3592C43.6929 77.2497 43.5115 77.1369 43.3317 77.0241C43.2385 76.966 43.1453 76.908 43.0554 76.8499C43.0421 76.8416 43.0305 76.8333 43.0171 76.825C42.9073 76.7554 42.7991 76.684 42.6909 76.6127C42.5644 76.5298 42.4379 76.4452 42.3131 76.3606C42.1866 76.2743 42.0617 76.188 41.9369 76.1018C41.6639 75.9127 41.396 75.7202 41.133 75.5228C41.0315 75.4498 40.9316 75.3752 40.8334 75.2989C40.7052 75.2027 40.5787 75.1048 40.4539 75.0069C40.3773 74.9472 40.3024 74.8875 40.2275 74.8278C40.156 74.773 40.0861 74.7166 40.0161 74.6586C39.8797 74.5491 39.7448 74.4396 39.6117 74.3268C39.5834 74.3036 39.5551 74.2804 39.5268 74.2571C39.392 74.1427 39.2572 74.0282 39.124 73.9121C38.9492 73.7595 38.7761 73.6069 38.6047 73.4526C38.4499 73.3116 38.2968 73.1689 38.1453 73.0263C38.1287 73.0113 38.112 72.9947 38.0954 72.9798C37.9389 72.8322 37.7858 72.6829 37.6327 72.5319C37.3264 72.23 37.0268 71.9231 36.7339 71.6112C36.6506 71.5217 36.5691 71.4321 36.4859 71.3425C36.3477 71.1899 36.2096 71.0373 36.0747 70.883C35.9699 70.7636 35.8667 70.6458 35.7668 70.5263C35.4339 70.1365 35.1144 69.7401 34.8048 69.3369C34.7232 69.2324 34.6433 69.1263 34.5651 69.0201C34.5301 68.9753 34.4985 68.9305 34.4652 68.8857C34.4153 68.8194 34.3654 68.7514 34.3171 68.6834C34.3121 68.6767 34.3071 68.6701 34.3021 68.6635C34.2172 68.5457 34.134 68.4295 34.0525 68.3118C33.8777 68.0629 33.7079 67.8125 33.5415 67.5603C33.4682 67.4492 33.395 67.3364 33.3251 67.2252C33.2469 67.1025 33.1703 66.9797 33.0937 66.8553C33.0172 66.7325 32.9423 66.6081 32.869 66.4837C32.7192 66.2365 32.5761 65.986 32.4363 65.7339C32.4363 65.7339 32.4346 65.7322 32.4346 65.7306C32.2948 65.4784 32.1583 65.223 32.0268 64.9658C31.8953 64.7104 31.7672 64.4516 31.6423 64.1895C31.5808 64.0601 31.5192 63.9291 31.4592 63.798C31.4027 63.6736 31.3477 63.5508 31.2928 63.4264C31.2379 63.302 31.1846 63.1793 31.1314 63.0532C31.1097 63.0001 31.0881 62.9487 31.0664 62.8973C31.0265 62.7994 30.9865 62.7032 30.9483 62.6053C30.8933 62.4709 30.8417 62.3366 30.7901 62.2022C30.6869 61.9335 30.5871 61.6614 30.4939 61.3893C30.4606 61.2948 30.429 61.2002 30.3973 61.1057C30.3657 61.0095 30.3341 60.9149 30.3041 60.8204C30.2725 60.7241 30.2425 60.6279 30.2142 60.5334C30.1244 60.2464 30.0411 59.9577 29.9629 59.6674C29.933 59.558 29.903 59.4485 29.8747 59.3373C29.8714 59.3224 29.8664 59.3058 29.863 59.2909C29.8397 59.203 29.8181 59.115 29.7965 59.0271C29.7515 58.8397 29.7066 58.6539 29.6666 58.4664C29.6367 58.3321 29.6084 58.1994 29.5801 58.065C29.5268 57.8079 29.4786 57.5474 29.432 57.2886C29.4137 57.1792 29.3953 57.0713 29.3787 56.9635C29.3421 56.7462 29.3105 56.5305 29.2822 56.3132C29.2672 56.2104 29.2539 56.1075 29.2422 56.0047C29.2123 55.7641 29.1856 55.5236 29.1623 55.2814C29.1523 55.1885 29.144 55.094 29.1374 55.0011C29.0741 54.2645 29.0425 53.523 29.0425 52.7732C29.0425 52.6438 29.0441 52.5161 29.0458 52.3867C29.0475 52.264 29.0491 52.1395 29.0541 52.0168C29.0625 51.7199 29.0758 51.4246 29.0941 51.131C29.0991 51.0414 29.1057 50.9518 29.1124 50.8622C29.1174 50.7776 29.124 50.693 29.1324 50.6084C29.139 50.5172 29.1473 50.4276 29.1557 50.3364C29.1623 50.2551 29.1706 50.1755 29.179 50.0942C29.1923 49.9681 29.2056 49.842 29.2206 49.7159C29.2356 49.5899 29.2505 49.4655 29.2672 49.3394C29.2822 49.2282 29.2971 49.1154 29.3138 49.0026C29.3171 48.9827 29.3188 48.9612 29.3221 48.9396C29.3404 48.8235 29.3571 48.7074 29.377 48.5912C29.3953 48.4784 29.4136 48.364 29.4336 48.2495C29.4786 47.9924 29.5268 47.7353 29.5801 47.4815C29.6001 47.3803 29.6217 47.2807 29.6433 47.1812C29.6933 46.9523 29.7465 46.7234 29.8031 46.4961C29.8231 46.4132 29.8431 46.3302 29.8647 46.2473C30.0694 45.446 30.3124 44.6581 30.5904 43.8817C30.632 43.7656 30.6736 43.6478 30.7186 43.5317C31.1097 42.485 31.5658 41.4631 32.0834 40.4695C32.1383 40.3616 32.1949 40.2538 32.2515 40.1476C32.5827 39.5339 32.9356 38.9334 33.3101 38.3428C33.3617 38.2615 33.4133 38.1819 33.4649 38.1023C33.5098 38.0326 33.5564 37.9613 33.6031 37.8916C33.6663 37.7954 33.7295 37.6992 33.7945 37.6046C33.9093 37.4371 34.0242 37.2712 34.1407 37.1053C34.1973 37.0273 34.2538 36.9477 34.3104 36.8697C34.4503 36.679 34.5917 36.4882 34.7349 36.2991C34.7965 36.2178 34.858 36.1365 34.9213 36.0569C34.9812 35.9789 35.0428 35.901 35.1044 35.823C35.359 35.5028 35.622 35.186 35.89 34.8741C35.9532 34.7995 36.0182 34.7265 36.0831 34.6535C36.1929 34.5274 36.3061 34.4013 36.4193 34.2753C36.5474 34.1343 36.6756 33.9949 36.8071 33.8572C36.9153 33.7411 37.0235 33.6267 37.135 33.5139C37.145 33.5022 37.1566 33.4906 37.1666 33.4807C37.2265 33.4193 37.2865 33.3579 37.3464 33.2982C37.4496 33.1937 37.5528 33.0908 37.6576 32.988C38.2385 32.4157 38.8444 31.865 39.4735 31.3325C39.5901 31.2346 39.7082 31.1367 39.8264 31.0422C39.888 30.9891 39.9512 30.9376 40.0161 30.8862C40.0345 30.8713 40.0528 30.8564 40.0711 30.8414C40.1793 30.7535 40.2875 30.6673 40.3973 30.5827C40.7352 30.3156 41.0797 30.0568 41.4309 29.803C41.5824 29.6918 41.7355 29.584 41.8886 29.4762C41.9003 29.4679 41.9136 29.4579 41.9269 29.4497C42.0984 29.3302 42.2698 29.2124 42.4446 29.0963C42.5844 29.0018 42.7259 28.9089 42.869 28.816C42.9056 28.7911 42.9439 28.7662 42.9838 28.7413C43.1237 28.6517 43.2635 28.5622 43.405 28.4759C43.7928 28.232 44.1872 27.9965 44.5867 27.7692C44.7432 27.6796 44.9013 27.5917 45.0594 27.5055C45.126 27.4673 45.1926 27.4308 45.2608 27.3943C45.4073 27.3147 45.5554 27.2367 45.7035 27.1588C45.8916 27.0592 46.0814 26.963 46.2711 26.8668C46.4625 26.7706 46.6539 26.6777 46.847 26.5848C47.0268 26.4985 47.2065 26.4139 47.388 26.331C47.4179 26.3161 47.4495 26.3028 47.4812 26.2879C47.6459 26.2132 47.8124 26.1386 47.9788 26.0656C48.0021 26.054 48.0271 26.044 48.0504 26.0341C48.2135 25.9644 48.375 25.8947 48.5398 25.825C48.5797 25.8085 48.6213 25.7902 48.6629 25.7736C48.841 25.7006 49.0208 25.6276 49.2022 25.5546C49.2338 25.543 49.2655 25.5298 49.2971 25.5182C49.4718 25.4501 49.6483 25.3821 49.8247 25.3158C50.0294 25.2395 50.2342 25.1648 50.4389 25.0918C50.4439 25.0902 50.4472 25.0885 50.4505 25.0868C51.0647 24.8695 51.6872 24.6655 52.318 24.4797C52.4579 24.4382 52.5977 24.3968 52.7375 24.357C52.879 24.3171 53.0188 24.2773 53.1602 24.2392C53.5863 24.1231 54.0158 24.0136 54.4485 23.9124C54.7215 23.8493 54.9961 23.788 55.2724 23.7282C55.2841 23.7266 55.2957 23.7233 55.3074 23.7216C55.4522 23.6901 55.597 23.6619 55.7435 23.632C55.8899 23.6022 56.0347 23.5756 56.1812 23.5474C56.3277 23.5192 56.4742 23.4927 56.6206 23.4678C56.7688 23.4429 56.9152 23.4164 57.0634 23.3932L57.5078 23.3235C57.6559 23.3003 57.804 23.2804 57.9522 23.2588C58.102 23.2372 58.2518 23.2173 58.4032 23.1991C58.5514 23.1792 58.7012 23.1609 58.851 23.1443C59.0008 23.1277 59.1506 23.1111 59.302 23.0946C59.5151 23.0713 59.7281 23.0498 59.9429 23.0315C60.1775 23.0116 60.4122 22.9934 60.6486 22.9768C60.7035 22.9718 60.7584 22.9685 60.8134 22.9652C60.9582 22.9552 61.1046 22.9453 61.2511 22.9386C61.3144 22.9336 61.3776 22.9303 61.4425 22.9287C61.5906 22.9204 61.7388 22.9137 61.8853 22.9088C62.0217 22.9021 62.1582 22.8988 62.2947 22.8938C62.3763 22.8922 62.4595 22.8889 62.5427 22.8872C62.6725 22.8855 62.8024 22.8822 62.9338 22.8806C63.0487 22.8789 63.1652 22.8789 63.2817 22.8789C61.8969 22.9171 60.5604 23.3865 59.302 24.2259C58.0154 25.0835 56.8087 26.3277 55.7135 27.897C55.7118 27.897 55.7118 27.897 55.7118 27.8986C53.5148 31.0405 51.7571 35.4829 50.6786 40.71C50.6303 40.9406 50.5854 41.1728 50.5404 41.4067C50.5021 41.5991 50.4655 41.7965 50.4306 41.9923C50.4056 42.1283 50.3823 42.2643 50.359 42.402C50.3457 42.4684 50.3357 42.5347 50.324 42.6011C50.3207 42.6144 50.319 42.6276 50.3174 42.6409C50.2907 42.7968 50.2641 42.9544 50.2408 43.1137C50.1892 43.4289 50.1409 43.7457 50.0977 44.0642C50.0777 44.1953 50.0594 44.328 50.0427 44.4607C50.0194 44.6166 49.9995 44.7725 49.9812 44.9301C49.9712 45.0031 49.9629 45.0761 49.9545 45.1491C49.8713 45.811 49.8014 46.4812 49.7415 47.158C49.7232 47.362 49.7065 47.5661 49.6899 47.7718C49.6849 47.8282 49.6799 47.8846 49.6766 47.941C49.6699 48.0339 49.6616 48.1268 49.6566 48.2197C49.6516 48.2711 49.6483 48.3242 49.6466 48.3756C49.6366 48.4884 49.63 48.6028 49.6233 48.7173C49.6033 49.0093 49.5867 49.3012 49.5734 49.5948C49.5634 49.7873 49.5534 49.9797 49.5484 50.1738C49.5467 50.1804 49.5467 50.1887 49.5467 50.197C49.5417 50.333 49.5368 50.4707 49.5318 50.6084C49.5151 51.0828 49.5051 51.5606 49.5001 52.04C49.4968 52.2822 49.4951 52.5261 49.4951 52.7716C49.4951 53.3124 49.5018 53.8482 49.5151 54.3807C49.5284 54.9082 49.5467 55.4307 49.5734 55.9499C49.5867 56.2104 49.6 56.4708 49.6167 56.7296C49.6333 56.9884 49.6499 57.2472 49.6699 57.5043C49.6716 57.5424 49.6749 57.5789 49.6782 57.6171C49.6932 57.8361 49.7132 58.055 49.7315 58.2707C49.7515 58.5013 49.7714 58.7318 49.7947 58.9608C49.8181 59.2013 49.843 59.4418 49.8696 59.6791C49.8963 59.9163 49.9246 60.1518 49.9529 60.3857C49.9895 60.691 50.0294 60.9945 50.071 61.2948C50.1027 61.5303 50.1376 61.7659 50.1742 61.9998C50.1992 62.1723 50.2258 62.3448 50.2541 62.5157C50.2575 62.5423 50.2625 62.5671 50.2674 62.592C50.2874 62.7164 50.3074 62.8392 50.329 62.9619C50.3623 63.161 50.3956 63.3584 50.4322 63.5542C50.5088 63.9871 50.592 64.4168 50.6802 64.8381C51.6173 69.3867 53.0704 73.3398 54.8813 76.3606C55.1193 76.7587 55.364 77.1402 55.6153 77.5052C55.6969 77.6263 55.7801 77.744 55.8633 77.8602C56.9985 79.4394 58.2484 80.6753 59.58 81.4964Z" fill="#845CAF"/>
<path d="M68.3477 76.3608C67.8301 76.754 67.3024 77.1372 66.7648 77.5055C64.5178 79.0565 62.1127 80.3969 59.5794 81.4967C58.9686 81.7654 58.3494 82.0176 57.7219 82.2531C57.6853 82.2481 57.6503 82.2432 57.6137 82.2382C57.4955 82.2199 57.3757 82.2017 57.2575 82.1835C57.0511 82.1503 56.8447 82.1171 56.6384 82.0806C56.4919 82.0557 56.3454 82.0292 56.1989 82.001C56.0974 81.9827 55.9959 81.9628 55.896 81.9429C55.8677 81.9379 55.8411 81.933 55.8128 81.928C55.7079 81.9064 55.6031 81.8849 55.4982 81.8633C55.3817 81.8401 55.2669 81.8152 55.1503 81.7903C55.0355 81.7654 54.919 81.7405 54.8041 81.714C54.686 81.6874 54.5661 81.6609 54.4479 81.6327C54.3098 81.5995 54.1733 81.568 54.0385 81.5332C53.9786 81.5199 53.917 81.5033 53.8571 81.4884C53.7971 81.4735 53.7372 81.4585 53.6773 81.4436C53.6607 81.4386 53.6457 81.4353 53.6307 81.4303C53.5491 81.4104 53.4659 81.3889 53.3844 81.3656C53.2862 81.3407 53.1896 81.3142 53.0931 81.2877C52.8684 81.2263 52.6437 81.1632 52.419 81.0969C52.2875 81.0571 52.156 81.0189 52.0229 80.9775C51.9862 80.9675 51.9496 80.9559 51.9147 80.9443C51.8947 80.9376 51.8764 80.9327 51.8564 80.926C51.7282 80.8879 51.6001 80.8464 51.4736 80.8049C51.442 80.795 51.412 80.785 51.3804 80.7751C51.199 80.717 51.0192 80.6556 50.8394 80.5943C50.6597 80.5329 50.4799 80.4698 50.3018 80.4051C50.2219 80.3769 50.142 80.3471 50.0638 80.3189C50.0222 80.304 49.9806 80.289 49.939 80.2724C49.9307 80.2691 49.9207 80.2658 49.9123 80.2625C49.7842 80.216 49.6593 80.1679 49.5345 80.1182C49.4929 80.1032 49.4513 80.0883 49.4113 80.0717C49.2848 80.0236 49.1617 79.9755 49.0368 79.9241C48.9669 79.8959 48.8987 79.8677 48.8288 79.8395C48.6257 79.7565 48.4227 79.6719 48.2229 79.5857C48.203 79.5774 48.183 79.5691 48.163 79.5608C47.9916 79.4878 47.8235 79.4131 47.6554 79.3368C47.4523 79.2456 47.2509 79.1527 47.0495 79.0581C46.9729 79.0217 46.8947 78.9835 46.8181 78.947C46.655 78.869 46.4919 78.7894 46.3288 78.7081C46.1657 78.6268 46.0026 78.5439 45.8411 78.4593C45.7529 78.4145 45.6647 78.3681 45.5781 78.32C45.4883 78.2752 45.4 78.2271 45.3118 78.179C45.2236 78.1308 45.1354 78.0827 45.0488 78.0346C44.909 77.9583 44.7676 77.8804 44.6294 77.8007C44.4913 77.7228 44.3531 77.6431 44.2166 77.5619C44.205 77.5552 44.195 77.5486 44.1833 77.5419C44.0801 77.4822 43.9769 77.4209 43.8754 77.3595C43.6923 77.25 43.5109 77.1372 43.3311 77.0244C43.2379 76.9663 43.1447 76.9083 43.0548 76.8502C43.0415 76.8419 43.0299 76.8336 43.0166 76.8253C42.9067 76.7556 42.7985 76.6843 42.6903 76.613C42.5638 76.53 42.4373 76.4454 42.3125 76.3608H68.3477Z" fill="#845CAF"/>
<path d="M59.5802 81.4966C58.9693 81.7653 58.3501 82.0175 57.7227 82.253C57.746 82.258 57.7693 82.2613 57.7926 82.2646C57.7693 82.2613 57.746 82.258 57.721 82.2547C56.6075 82.6777 55.4723 83.0559 54.3172 83.386C51.0349 84.3233 47.5879 84.879 44.0326 84.9985C44.031 85.0001 44.031 85.0001 44.0293 84.9985H44.0276C43.9844 84.9902 43.9411 84.9819 43.8978 84.9719C43.8512 84.9636 43.8063 84.952 43.7613 84.9404C43.6415 84.9105 43.5216 84.8724 43.4051 84.8309C43.3469 84.8093 43.2903 84.7861 43.2337 84.7629C43.1205 84.7148 43.009 84.6617 42.9025 84.6036C42.8625 84.5821 42.8226 84.5589 42.7826 84.5356C42.7444 84.5124 42.7061 84.4892 42.6678 84.4643C42.6328 84.4427 42.5995 84.4212 42.5663 84.3979C42.4364 84.31 42.3133 84.2138 42.1967 84.1093C42.1768 84.0911 42.1551 84.0728 42.1352 84.0546C42.0985 84.0214 42.0653 83.9882 42.0303 83.9534C41.987 83.9102 41.9454 83.8671 41.9055 83.8223C41.8672 83.7808 41.8306 83.7394 41.7956 83.6962C41.7906 83.6913 41.7856 83.6846 41.7806 83.678C41.7473 83.6398 41.7174 83.6 41.6874 83.5602C41.6725 83.542 41.6591 83.5254 41.6475 83.5071C41.6192 83.4706 41.5926 83.4325 41.5676 83.3943C41.3962 83.1438 41.2563 82.8701 41.1482 82.5815C41.1065 82.4654 41.0683 82.3476 41.0383 82.2265C41.025 82.1767 41.0133 82.127 41.0033 82.0772C40.9967 82.0507 40.9917 82.0241 40.9867 81.9976C40.9784 81.9594 40.9717 81.9213 40.9667 81.8815C40.9617 81.8599 40.9584 81.8367 40.9567 81.8151C40.9484 81.767 40.9434 81.7189 40.9384 81.6691C40.9334 81.621 40.9284 81.5729 40.9268 81.5248C40.9251 81.5016 40.9235 81.4783 40.9235 81.4551C40.9201 81.3987 40.9185 81.3407 40.9185 81.2826C40.9185 81.2179 40.9201 81.1532 40.9235 81.0885C40.9301 80.9707 40.9401 80.853 40.9584 80.7385C40.9634 80.6954 40.9701 80.6539 40.9784 80.6108C40.98 80.5975 40.9834 80.5842 40.9867 80.5726C40.9917 80.5378 40.9983 80.5029 41.0067 80.4681C41.015 80.4299 41.025 80.3918 41.035 80.3536C41.0366 80.342 41.04 80.3304 41.0433 80.3188C41.0533 80.2823 41.0633 80.2458 41.0749 80.2093C41.0832 80.1778 41.0916 80.1479 41.1015 80.1181C41.1099 80.0949 41.1182 80.0716 41.1265 80.0484C41.1382 80.0103 41.1515 79.9721 41.1681 79.9356C41.1848 79.8908 41.2014 79.846 41.2214 79.8029C41.243 79.7498 41.268 79.6967 41.293 79.6453C41.3196 79.5889 41.3462 79.5358 41.3762 79.4827C41.4045 79.428 41.4361 79.3766 41.4677 79.3235C41.4993 79.2721 41.5326 79.2206 41.5659 79.1709C41.6358 79.068 41.7091 78.9701 41.789 78.8756C41.8256 78.8308 41.8639 78.786 41.9038 78.7429C41.9438 78.6981 41.9854 78.655 42.0286 78.6118C42.0719 78.5687 42.1152 78.5272 42.1601 78.4874C42.2051 78.4459 42.2517 78.4061 42.2983 78.368C42.3449 78.3298 42.3932 78.2917 42.4414 78.2552C42.483 78.2237 42.5263 78.1938 42.5712 78.1639C42.6778 78.0909 42.7876 78.0229 42.9025 77.9616C43.009 77.9035 43.1189 77.8504 43.2304 77.804C43.277 77.7841 43.3236 77.7658 43.3702 77.7476C43.3985 77.7376 43.4251 77.7277 43.4517 77.7194C43.4867 77.7061 43.52 77.6945 43.5549 77.6829C43.5766 77.6762 43.5982 77.6696 43.6198 77.6646C43.6581 77.6513 43.6981 77.6414 43.7364 77.6314C43.7796 77.6198 43.8229 77.6082 43.8662 77.5999C43.9144 77.5883 43.9627 77.5784 44.0127 77.5701C44.0676 77.5601 44.1225 77.5502 44.1774 77.5435C44.1791 77.5419 44.1808 77.5419 44.1841 77.5419C44.229 77.5352 44.2756 77.5303 44.3206 77.5253C44.3855 77.5186 44.4487 77.5137 44.5137 77.5103C44.5786 77.507 44.6435 77.5054 44.7084 77.5054H66.7656C64.5186 79.0564 62.1134 80.3968 59.5802 81.4966Z" fill="#B97AB7"/>
<path d="M57.4647 77.5054C56.8921 77.5054 56.3495 77.6314 55.8635 77.8604C54.5702 78.4592 53.6747 79.7664 53.6747 81.2826C53.6747 81.3357 53.6764 81.3888 53.6781 81.4419C53.6781 81.4435 53.6781 81.4435 53.6781 81.4435C53.708 82.1618 53.9394 82.827 54.3172 83.386C51.0349 84.3233 47.5879 84.879 44.0326 84.9985C44.031 85.0001 44.031 85.0001 44.0293 84.9985H44.0276C43.9844 84.9902 43.9411 84.9819 43.8978 84.9719C43.8512 84.9636 43.8063 84.952 43.7613 84.9404C43.6398 84.9089 43.5216 84.8724 43.4051 84.8309C43.3469 84.8093 43.2903 84.7861 43.2337 84.7629C43.1205 84.7148 43.009 84.6617 42.9025 84.6036C42.8625 84.5821 42.8226 84.5589 42.7826 84.5356C42.7444 84.5124 42.7061 84.4892 42.6678 84.4643C42.6328 84.4427 42.5995 84.4212 42.5663 84.3979C42.4364 84.31 42.3133 84.2138 42.1967 84.1093C42.1768 84.0911 42.1551 84.0728 42.1352 84.0546C42.0985 84.0214 42.0653 83.9882 42.0303 83.9534C41.987 83.9102 41.9454 83.8671 41.9055 83.8223C41.8672 83.7808 41.8306 83.7394 41.7956 83.6962C41.7906 83.6913 41.7856 83.6846 41.7806 83.678C41.7474 83.6398 41.7174 83.6 41.6874 83.5602C41.6725 83.542 41.6591 83.5254 41.6475 83.5071C41.6192 83.4706 41.5926 83.4325 41.5676 83.3943C41.3962 83.1438 41.2563 82.8701 41.1482 82.5815C41.1065 82.4654 41.0699 82.3476 41.0383 82.2265C41.025 82.1767 41.0133 82.127 41.0033 82.0772C40.9967 82.0507 40.9917 82.0241 40.9867 81.9976C40.9784 81.9594 40.9717 81.9213 40.9667 81.8815C40.9617 81.8599 40.9584 81.8367 40.9567 81.8151C40.9484 81.767 40.9434 81.7189 40.9384 81.6691C40.9334 81.621 40.9284 81.5729 40.9268 81.5248C40.9251 81.5016 40.9235 81.4783 40.9235 81.4551C40.9201 81.3987 40.9185 81.3407 40.9185 81.2826C40.9185 81.2179 40.9201 81.1532 40.9235 81.0885C40.9301 80.9707 40.9401 80.853 40.9584 80.7385C40.9634 80.6954 40.9701 80.6539 40.9784 80.6108C40.98 80.5975 40.9834 80.5842 40.9867 80.5726C40.9917 80.5378 40.9984 80.5029 41.0067 80.4681C41.015 80.4299 41.025 80.3918 41.035 80.3536C41.0366 80.342 41.04 80.3304 41.0433 80.3188C41.0533 80.2823 41.0633 80.2458 41.0749 80.2093C41.0832 80.1778 41.0916 80.1479 41.1015 80.1181C41.1099 80.0949 41.1182 80.0716 41.1265 80.0484C41.1382 80.0103 41.1515 79.9721 41.1681 79.9356C41.1848 79.8908 41.2014 79.846 41.2214 79.8029C41.243 79.7498 41.268 79.6967 41.293 79.6453C41.3196 79.5889 41.3462 79.5358 41.3762 79.4827C41.4045 79.428 41.4361 79.3766 41.4677 79.3235C41.4993 79.2721 41.5326 79.2206 41.5659 79.1709C41.6358 79.068 41.7091 78.9701 41.789 78.8756C41.8256 78.8308 41.8639 78.786 41.9038 78.7429C41.9438 78.6981 41.9854 78.655 42.0286 78.6118C42.0719 78.5687 42.1152 78.5272 42.1601 78.4874C42.2051 78.4459 42.2517 78.4061 42.2983 78.368C42.3449 78.3298 42.3932 78.2917 42.4414 78.2552C42.483 78.2237 42.5263 78.1938 42.5712 78.1639C42.6778 78.0909 42.7876 78.0229 42.9025 77.9616C43.009 77.9035 43.1189 77.8504 43.2304 77.804C43.277 77.7841 43.3236 77.7658 43.3702 77.7476C43.3985 77.7376 43.4251 77.7277 43.4517 77.7194C43.4867 77.7061 43.52 77.6945 43.5549 77.6829C43.5766 77.6762 43.5982 77.6696 43.6198 77.6646C43.6581 77.6513 43.6981 77.6414 43.7364 77.6314C43.7796 77.6198 43.8229 77.6082 43.8662 77.5999C43.9145 77.5883 43.9627 77.5784 44.0127 77.5701C44.0676 77.5601 44.1225 77.5502 44.1774 77.5435C44.1791 77.5419 44.1808 77.5419 44.1841 77.5419C44.229 77.5352 44.2756 77.5303 44.3206 77.5253C44.3855 77.5186 44.4487 77.5137 44.5137 77.5103C44.5786 77.507 44.6435 77.5054 44.7084 77.5054H57.4647Z" fill="#845CAF"/>
<path d="M68.2433 17.5956C69.7012 17.5956 70.8831 15.8295 70.8831 13.6508C70.8831 11.4722 69.7012 9.70605 68.2433 9.70605C66.7854 9.70605 65.6035 11.4722 65.6035 13.6508C65.6035 15.8295 66.7854 17.5956 68.2433 17.5956Z" fill="#E7A52E"/>
<path d="M83.2417 10.6567C82.9154 10.6567 82.5909 10.529 82.3479 10.2769C81.8735 9.78418 81.8901 9.00285 82.3828 8.53008L85.1591 5.87258C85.6534 5.39981 86.4374 5.4164 86.9117 5.90742C87.3861 6.4001 87.3695 7.18143 86.8768 7.6542L84.1005 10.3117C83.8608 10.5423 83.5513 10.6567 83.2417 10.6567Z" fill="#B97AB7"/>
<path d="M84.7947 14.9965C84.1123 14.9965 83.558 14.4457 83.5547 13.7656C83.5514 13.0838 84.1056 12.5281 84.7897 12.5248L89.7531 12.5049C90.4372 12.5099 90.9947 13.054 90.9981 13.7358C91.0014 14.4175 90.4472 14.9733 89.7631 14.9766L84.7997 14.9965C84.798 14.9965 84.7964 14.9965 84.7947 14.9965Z" fill="#B97AB7"/>
<path d="M86.3793 21.7312C86.1263 21.7312 85.8716 21.6549 85.6503 21.494L82.6526 19.3192C82.0984 18.9177 81.9769 18.1447 82.3796 17.5923C82.7824 17.0399 83.5581 16.9188 84.1123 17.3203L87.11 19.495C87.6642 19.8965 87.7857 20.6695 87.3829 21.2219C87.1399 21.5553 86.7621 21.7312 86.3793 21.7312Z" fill="#B97AB7"/>
<path d="M80.1025 60.8339C79.8778 63.0336 78.0736 64.7405 75.8582 64.8782C67.5926 65.3875 59.3286 65.3875 51.063 64.8782C50.9332 64.8699 50.805 64.8567 50.6802 64.8384C48.6429 64.5398 47.0317 62.9058 46.8187 60.8339C46.2694 55.4609 46.2694 50.0862 46.8187 44.7131C47.0301 42.6396 48.6413 41.0089 50.6785 40.7103C50.805 40.6904 50.9332 40.6771 51.063 40.6688C59.3286 40.1579 67.5926 40.1579 75.8582 40.6688C78.0736 40.8049 79.8778 42.5118 80.1025 44.7131C80.6534 50.0862 80.6534 55.4609 80.1025 60.8339Z" fill="#F9F6F9"/>
<path d="M50.6802 64.8381C48.6429 64.5395 47.0317 62.9055 46.8187 60.8336C46.2694 55.4605 46.2694 50.0858 46.8187 44.7128C47.0301 42.6392 48.6413 41.0086 50.6785 40.71C49.9162 44.3993 49.4951 48.4801 49.4951 52.7732C49.4951 57.0663 49.9179 61.1488 50.6802 64.8381Z" fill="#DFEAEF"/>
<path d="M68.8327 48.606H58.0921C57.408 48.606 56.8521 48.0519 56.8521 47.3701C56.8521 46.6883 57.408 46.1343 58.0921 46.1343H68.8327C69.5168 46.1343 70.0727 46.6883 70.0727 47.3701C70.0727 48.0519 69.5168 48.606 68.8327 48.606Z" fill="#DFEAEF"/>
<path d="M68.8327 59.4116H58.0921C57.408 59.4116 56.8521 58.8576 56.8521 58.1758C56.8521 57.494 57.408 56.9399 58.0921 56.9399H68.8327C69.5168 56.9399 70.0727 57.494 70.0727 58.1758C70.0727 58.8576 69.5168 59.4116 68.8327 59.4116Z" fill="#DFEAEF"/>
<path d="M74.202 54.0088H52.7224C52.0383 54.0088 51.4824 53.4548 51.4824 52.773C51.4824 52.0912 52.0383 51.5371 52.7224 51.5371H74.202C74.8861 51.5371 75.4421 52.0912 75.4421 52.773C75.4421 53.4548 74.8861 54.0088 74.202 54.0088Z" fill="#DFEAEF"/>
</svg>
