<svg width="26" height="26" viewBox="0 0 26 26" fill="none" xmlns="http://www.w3.org/2000/svg">
<path fill-rule="evenodd" clip-rule="evenodd" d="M6.5 7.85421C6.5 7.2559 6.98502 6.77087 7.58333 6.77087H18.4167C19.015 6.77087 19.5 7.2559 19.5 7.85421V18.6875C19.5 19.2859 19.015 19.7709 18.4167 19.7709H7.58333C6.98502 19.7709 6.5 19.2859 6.5 18.6875V7.85421ZM18.4167 7.85421H7.58333V18.6875H18.4167V7.85421Z" fill="#7B5CE1"/>
<path fill-rule="evenodd" clip-rule="evenodd" d="M16.2499 5.6875C16.5491 5.6875 16.7916 5.93001 16.7916 6.22917V8.39583C16.7916 8.69499 16.5491 8.9375 16.2499 8.9375C15.9508 8.9375 15.7083 8.69499 15.7083 8.39583V6.22917C15.7083 5.93001 15.9508 5.6875 16.2499 5.6875Z" fill="#7B5CE1"/>
<path fill-rule="evenodd" clip-rule="evenodd" d="M9.74992 5.6875C10.0491 5.6875 10.2916 5.93001 10.2916 6.22917V8.39583C10.2916 8.69499 10.0491 8.9375 9.74992 8.9375C9.45076 8.9375 9.20825 8.69499 9.20825 8.39583V6.22917C9.20825 5.93001 9.45076 5.6875 9.74992 5.6875Z" fill="#7B5CE1"/>
<path fill-rule="evenodd" clip-rule="evenodd" d="M6.5 10.5625C6.5 10.2634 6.74251 10.0209 7.04167 10.0209H18.9583C19.2575 10.0209 19.5 10.2634 19.5 10.5625C19.5 10.8617 19.2575 11.1042 18.9583 11.1042H7.04167C6.74251 11.1042 6.5 10.8617 6.5 10.5625Z" fill="#7B5CE1"/>
</svg>
