<svg width="18" height="19" viewBox="0 0 18 19" fill="none" xmlns="http://www.w3.org/2000/svg">
<path fill-rule="evenodd" clip-rule="evenodd" d="M6.75048 19C6.41228 19 6.08358 18.8822 5.82518 18.658C5.50788 18.3882 5.32548 17.993 5.32548 17.575V12.3639L2.05459 13.6723C1.88169 13.7407 1.70119 13.7749 1.52449 13.7749C0.95829 13.7749 0.42439 13.4367 0.20209 12.8781C-0.0905101 12.1466 0.26479 11.3182 0.99629 11.0256L5.32548 9.29393V7.61394L2.05459 8.9223C1.88169 8.9926 1.70119 9.0249 1.52449 9.0249C0.95829 9.0249 0.42439 8.6867 0.20209 8.1281C-0.0905101 7.3985 0.26479 6.5682 0.99629 6.2756L5.32548 4.54393V1.425C5.32548 0.6384 5.96388 0 6.75048 0C7.53708 0 8.17548 0.6384 8.17548 1.425V3.40393L10.4963 2.4756C11.224 2.1849 12.0562 2.5383 12.3488 3.2698C12.6414 3.9994 12.2861 4.8297 11.5546 5.1223L8.17548 6.47394V8.15392L10.4963 7.2256C11.224 6.9349 12.0562 7.2883 12.3488 8.0198C12.6414 8.7494 12.2861 9.5797 11.5546 9.8723L8.17548 11.2239V15.7833C10.4707 15.1316 14.3505 13.5717 14.3505 10.45C14.3505 9.6634 14.9889 9.025 15.7755 9.025C16.5621 9.025 17.2005 9.6634 17.2005 10.45C17.2005 17.29 7.39078 18.9164 6.97278 18.9829C6.89868 18.9943 6.82458 19 6.75048 19Z" fill="#282141"/>
</svg>
