<svg width="30" height="30" viewBox="0 0 30 30" fill="none" xmlns="http://www.w3.org/2000/svg">
<path d="M14.9997 2.5C12.5753 2.50461 10.2045 3.21414 8.17623 4.54217C6.14791 5.87021 4.54956 7.75943 3.57587 9.97971C2.60218 12.2 2.29517 14.6555 2.69223 17.0472C3.08929 19.4389 4.17329 21.6635 5.81219 23.45C6.98272 24.7188 8.40337 25.7314 9.98462 26.424C11.5659 27.1166 13.2734 27.4742 14.9997 27.4742C16.726 27.4742 18.4335 27.1166 20.0148 26.424C21.596 25.7314 23.0167 24.7188 24.1872 23.45C25.8261 21.6635 26.9101 19.4389 27.3072 17.0472C27.7042 14.6555 27.3972 12.2 26.4235 9.97971C25.4498 7.75943 23.8515 5.87021 21.8232 4.54217C19.7948 3.21414 17.4241 2.50461 14.9997 2.5ZM14.9997 25C12.4103 24.9961 9.92334 23.9878 8.06219 22.1875C8.62725 20.8119 9.58849 19.6354 10.8238 18.8074C12.059 17.9793 13.5126 17.5373 14.9997 17.5373C16.4868 17.5373 17.9404 17.9793 19.1756 18.8074C20.4109 19.6354 21.3721 20.8119 21.9372 22.1875C20.076 23.9878 17.5891 24.9961 14.9997 25ZM12.4997 12.5C12.4997 12.0055 12.6463 11.5222 12.921 11.1111C13.1957 10.7 13.5862 10.3795 14.043 10.1903C14.4998 10.0011 15.0025 9.95157 15.4874 10.048C15.9724 10.1445 16.4178 10.3826 16.7675 10.7322C17.1171 11.0819 17.3552 11.5273 17.4517 12.0123C17.5481 12.4972 17.4986 12.9999 17.3094 13.4567C17.1202 13.9135 16.7997 14.304 16.3886 14.5787C15.9775 14.8534 15.4941 15 14.9997 15C14.3367 15 13.7008 14.7366 13.2319 14.2678C12.7631 13.7989 12.4997 13.163 12.4997 12.5ZM23.6372 20C22.5204 18.0897 20.8014 16.6038 18.7497 15.775C19.3862 15.0533 19.8009 14.1633 19.944 13.2118C20.0872 12.2603 19.9528 11.2876 19.5569 10.4106C19.161 9.5336 18.5204 8.78945 17.7121 8.26746C16.9037 7.74547 15.9619 7.46781 14.9997 7.46781C14.0375 7.46781 13.0957 7.74547 12.2873 8.26746C11.479 8.78945 10.8384 9.5336 10.4425 10.4106C10.0466 11.2876 9.91218 12.2603 10.0554 13.2118C10.1985 14.1633 10.6132 15.0533 11.2497 15.775C9.19794 16.6038 7.47903 18.0897 6.36219 20C5.47212 18.4839 5.00184 16.7581 4.99969 15C4.99969 12.3478 6.05326 9.8043 7.92863 7.92893C9.80399 6.05357 12.3475 5 14.9997 5C17.6519 5 20.1954 6.05357 22.0708 7.92893C23.9461 9.8043 24.9997 12.3478 24.9997 15C24.9975 16.7581 24.5273 18.4839 23.6372 20Z" fill="white"/>
</svg>
