<svg width="134" height="35" viewBox="0 0 134 35" fill="none" xmlns="http://www.w3.org/2000/svg">
<path d="M22.3584 27.0034L25.4557 9.58093H30.2953L27.2948 27.0034H22.3584Z" fill="#3C58BF"/>
<path d="M22.3584 27.0034L26.3269 9.58093H30.2953L27.2948 27.0034H22.3584Z" fill="#293688"/>
<path d="M44.814 9.77433C43.8461 9.38717 42.2974 9 40.3616 9C35.522 9 32.0375 11.4198 32.0375 14.9043C32.0375 17.5177 34.4573 18.8727 36.3931 19.7439C38.329 20.615 38.9097 21.1957 38.9097 21.9701C38.9097 23.1316 37.361 23.7123 36.006 23.7123C34.0701 23.7123 33.0054 23.4219 31.36 22.7444L30.6824 22.454L30.0049 26.4225C31.1664 26.9064 33.2958 27.3904 35.522 27.3904C40.652 27.3904 44.0397 24.9706 44.0397 21.2925C44.0397 19.2599 42.7814 17.7112 39.8776 16.4529C38.1354 15.5818 37.0707 15.0979 37.0707 14.2267C37.0707 13.4524 37.9418 12.6781 39.8776 12.6781C41.5231 12.6781 42.6846 12.9685 43.5557 13.3556L44.0397 13.5492L44.814 9.77433Z" fill="#3C58BF"/>
<path d="M44.814 9.77433C43.8461 9.38717 42.2974 9 40.3616 9C35.522 9 32.9086 11.4198 32.9086 14.9043C32.9086 17.5177 34.4573 18.8727 36.3931 19.7439C38.329 20.615 38.9097 21.1957 38.9097 21.9701C38.9097 23.1316 37.361 23.7123 36.006 23.7123C34.0701 23.7123 33.0054 23.4219 31.36 22.7444L30.6824 22.454L30.0049 26.4225C31.1664 26.9064 33.2958 27.3904 35.522 27.3904C40.652 27.3904 44.0397 24.9706 44.0397 21.2925C44.0397 19.2599 42.7814 17.7112 39.8776 16.4529C38.1354 15.5818 37.0707 15.0979 37.0707 14.2267C37.0707 13.4524 37.9418 12.6781 39.8776 12.6781C41.5231 12.6781 42.6846 12.9685 43.5557 13.3556L44.0397 13.5492L44.814 9.77433Z" fill="#293688"/>
<path d="M53.1382 9.58093C51.9767 9.58093 51.1056 9.67773 50.6217 10.8392L43.3623 27.0034H48.589L49.557 24.0997H55.7516L56.3324 27.0034H60.9783L56.9131 9.58093H53.1382ZM50.912 21.1959C51.2024 20.3248 52.8479 16.066 52.8479 16.066C52.8479 16.066 53.235 15.0013 53.5254 14.3237L53.8158 15.9692C53.8158 15.9692 54.7837 20.3248 54.9773 21.2927H50.912V21.1959Z" fill="#3C58BF"/>
<path d="M54.2997 9.58093C53.1382 9.58093 52.2671 9.67773 51.7832 10.8392L43.3623 27.0034H48.589L49.557 24.0997H55.7516L56.3324 27.0034H60.9783L56.9131 9.58093H54.2997ZM50.912 21.1959C51.2992 20.228 52.8479 16.066 52.8479 16.066C52.8479 16.066 53.235 15.0013 53.5254 14.3237L53.8158 15.9692C53.8158 15.9692 54.7837 20.3248 54.9773 21.2927H50.912V21.1959Z" fill="#293688"/>
<path d="M13.4537 21.7764L12.9697 19.2598C12.0986 16.3561 9.29167 13.162 6.19434 11.6133L10.55 27.1H15.7767L23.6168 9.67749H18.3901L13.4537 21.7764Z" fill="#3C58BF"/>
<path d="M13.4537 21.7764L12.9697 19.2598C12.0986 16.3561 9.29167 13.162 6.19434 11.6133L10.55 27.1H15.7767L23.6168 9.67749H19.358L13.4537 21.7764Z" fill="#293688"/>
<path d="M0 9.58093L0.871124 9.77452C7.06578 11.2264 11.3246 14.9045 12.9701 19.2601L11.2278 11.0328C10.9374 9.87131 10.0663 9.58093 9.00161 9.58093H0Z" fill="#FFBC00"/>
<path d="M0 9.58093C6.19466 11.0328 11.3246 14.8077 12.9701 19.1633L11.3246 12.2911C11.0342 11.1296 10.0663 10.4521 9.00161 10.4521L0 9.58093Z" fill="#F7981D"/>
<path d="M0 9.58093C6.19466 11.0328 11.3246 14.8077 12.9701 19.1633L11.8086 15.3884C11.5182 14.2269 11.131 13.0654 9.77595 12.5815L0 9.58093Z" fill="#ED7C00"/>
<path d="M18.2932 21.1962L15.0023 17.9053L13.4536 21.5834L13.0664 19.1636C12.1953 16.2599 9.38835 13.0658 6.29102 11.5171L10.6466 27.0037H15.8734L18.2932 21.1962Z" fill="#051244"/>
<path d="M27.2948 27.0043L23.1327 22.7455L22.3584 27.0043H27.2948Z" fill="#051244"/>
<path d="M38.4257 21.0028C38.8129 21.39 39.0065 21.6804 38.9097 22.0675C38.9097 23.229 37.361 23.8098 36.006 23.8098C34.0701 23.8098 33.0054 23.5194 31.36 22.8418L30.6824 22.5515L30.0049 26.5199C31.1664 27.0039 33.2958 27.4878 35.522 27.4878C38.6193 27.4878 41.1359 26.6167 42.5878 25.0681L38.4257 21.0028Z" fill="#051244"/>
<path d="M44.04 27.0037H48.5892L49.5572 24.0999H55.7518L56.3326 27.0037H60.9786L59.3331 19.9379L53.5256 14.324L53.816 15.8726C53.816 15.8726 54.7839 20.2283 54.9775 21.1962H50.9122C51.2994 20.2283 52.8481 16.0662 52.8481 16.0662C52.8481 16.0662 53.2352 15.0015 53.5256 14.324" fill="#051244"/>
<path d="M133.455 17.3221C133.455 26.8538 125.756 34.6442 116.133 34.6442C106.601 34.6442 98.8105 26.8538 98.8105 17.3221C98.8105 7.79035 106.509 0 116.041 0C125.756 0 133.455 7.79035 133.455 17.3221Z" fill="#FFB600"/>
<path d="M116.133 0C125.664 0 133.455 7.79035 133.455 17.3221C133.455 26.8538 125.756 34.6442 116.133 34.6442C106.601 34.6442 98.8105 26.8538 98.8105 17.3221" fill="#F7981D"/>
<path d="M116.133 0C125.665 0 133.455 7.79035 133.455 17.3221C133.455 26.8538 125.756 34.6442 116.133 34.6442" fill="#FF8500"/>
<path d="M92.8527 0C83.4126 0.0916512 75.7139 7.79035 75.7139 17.3221C75.7139 26.8538 83.4126 34.6442 93.036 34.6442C97.5269 34.6442 101.56 32.9028 104.676 30.1533C105.317 29.6033 105.867 28.9618 106.417 28.3202H102.843C102.384 27.7703 101.926 27.1288 101.56 26.5789H107.7C108.067 26.0289 108.433 25.3874 108.708 24.7458H100.551C100.276 24.1959 100.001 23.5544 99.8181 22.9128H109.35C109.9 21.1714 110.266 19.3384 110.266 17.4137C110.266 16.1306 110.083 14.9391 109.9 13.7477H99.2682C99.3599 13.1061 99.5432 12.5562 99.7265 11.9147H109.258C109.075 11.2731 108.8 10.6315 108.525 10.0816H100.46C100.735 9.44008 101.101 8.89017 101.468 8.24861H107.609C107.242 7.60705 106.784 6.96549 106.234 6.41559H102.843C103.393 5.77403 103.942 5.22412 104.584 4.67421C101.56 1.83302 97.4352 0.183302 92.9443 0.183302C92.9443 -1.77542e-07 92.9443 0 92.8527 0Z" fill="#FF5050"/>
<path d="M75.7139 17.3227C75.7139 26.8545 83.4126 34.6448 93.036 34.6448C97.5269 34.6448 101.56 32.9035 104.676 30.1539C105.317 29.604 105.867 28.9625 106.417 28.3209H102.843C102.384 27.771 101.926 27.1294 101.56 26.5795H107.7C108.067 26.0296 108.433 25.3881 108.708 24.7465H100.551C100.276 24.1966 100.001 23.555 99.8181 22.9135H109.35C109.9 21.1721 110.266 19.3391 110.266 17.4144C110.266 16.1313 110.083 14.9398 109.9 13.7483H99.2682C99.3599 13.1068 99.5432 12.5569 99.7265 11.9153H109.258C109.075 11.2738 108.8 10.6322 108.525 10.0823H100.46C100.735 9.44074 101.101 8.89083 101.468 8.24927H107.609C107.242 7.60771 106.784 6.96615 106.234 6.41624H102.843C103.393 5.77469 103.942 5.22478 104.584 4.67487C101.56 1.83368 97.4352 0.18396 92.9443 0.18396H92.8527" fill="#E52836"/>
<path d="M93.0358 34.6448C97.5268 34.6448 101.559 32.9035 104.676 30.1539C105.317 29.604 105.867 28.9625 106.417 28.3209H102.843C102.384 27.771 101.926 27.1294 101.559 26.5795H107.7C108.067 26.0296 108.433 25.3881 108.708 24.7465H100.551C100.276 24.1966 100.001 23.555 99.818 22.9135H109.35C109.9 21.1721 110.266 19.3391 110.266 17.4144C110.266 16.1313 110.083 14.9398 109.9 13.7483H99.2681C99.3598 13.1068 99.5431 12.5569 99.7264 11.9153H109.258C109.075 11.2738 108.8 10.6322 108.525 10.0823H100.46C100.735 9.44074 101.101 8.89083 101.468 8.24927H107.608C107.242 7.60771 106.784 6.96615 106.234 6.41624H102.843C103.392 5.77469 103.942 5.22478 104.584 4.67487C101.559 1.83368 97.4351 0.18396 92.9442 0.18396H92.8525" fill="#CB2026"/>
<path d="M99.1764 21.7217L99.4514 20.1636C99.3597 20.1636 99.1764 20.2553 98.9931 20.2553C98.3516 20.2553 98.2599 19.8887 98.3516 19.7053L98.9015 16.4976H99.9097L100.185 14.7562H99.2681L99.4514 13.6564H97.6184C97.6184 13.6564 96.5186 19.7054 96.5186 20.4386C96.5186 21.5384 97.1601 21.9966 97.985 21.9966C98.5349 21.9966 98.9931 21.8133 99.1764 21.7217Z" fill="white"/>
<path d="M99.8184 18.7889C99.8184 21.3551 101.56 21.9967 103.026 21.9967C104.401 21.9967 104.951 21.7217 104.951 21.7217L105.317 19.9803C105.317 19.9803 104.309 20.4386 103.393 20.4386C101.376 20.4386 101.743 18.9722 101.743 18.9722H105.501C105.501 18.9722 105.776 17.7807 105.776 17.3224C105.776 16.131 105.134 14.6646 103.118 14.6646C101.193 14.4813 99.8184 16.4976 99.8184 18.7889ZM103.026 16.131C104.034 16.131 103.851 17.3224 103.851 17.4141H101.835C101.835 17.3224 102.018 16.131 103.026 16.131Z" fill="white"/>
<path d="M114.665 21.7217L115.031 19.7054C115.031 19.7054 114.115 20.1636 113.473 20.1636C112.19 20.1636 111.64 19.1555 111.64 18.0557C111.64 15.856 112.74 14.6646 114.023 14.6646C114.94 14.6646 115.673 15.2145 115.673 15.2145L115.948 13.2898C115.948 13.2898 114.848 12.8315 113.84 12.8315C111.732 12.8315 109.624 14.6646 109.624 18.1473C109.624 20.4386 110.724 21.9967 112.923 21.9967C113.657 21.9967 114.665 21.7217 114.665 21.7217Z" fill="white"/>
<path d="M89.0951 14.4818C87.8119 14.4818 86.8954 14.8484 86.8954 14.8484L86.6205 16.4065C86.6205 16.4065 87.4453 16.0399 88.6368 16.0399C89.2784 16.0399 89.8283 16.1315 89.8283 16.6814C89.8283 17.048 89.7366 17.1397 89.7366 17.1397C89.7366 17.1397 89.1867 17.1397 88.9117 17.1397C87.3537 17.1397 85.6123 17.7813 85.6123 19.8892C85.6123 21.539 86.7121 21.9056 87.3537 21.9056C88.6368 21.9056 89.1867 21.0807 89.2784 21.0807L89.1867 21.8139H90.8364L91.5696 16.7731C91.5696 14.5735 89.7366 14.4818 89.0951 14.4818ZM89.4617 18.6061C89.4617 18.8811 89.2784 20.3475 88.1785 20.3475C87.6286 20.3475 87.4453 19.8892 87.4453 19.6143C87.4453 19.156 87.7203 18.5145 89.0951 18.5145C89.37 18.6061 89.4617 18.6061 89.4617 18.6061Z" fill="white"/>
<path d="M93.3111 21.9049C93.7694 21.9049 96.0606 21.9966 96.0606 19.522C96.0606 17.2307 93.861 17.689 93.861 16.7725C93.861 16.3142 94.2276 16.1309 94.8692 16.1309C95.1441 16.1309 96.1523 16.2226 96.1523 16.2226L96.4272 14.5728C96.4272 14.5728 95.7857 14.3895 94.6859 14.3895C93.3111 14.3895 91.9363 14.9394 91.9363 16.7725C91.9363 18.8804 94.2276 18.6971 94.2276 19.522C94.2276 20.0719 93.5861 20.1636 93.1278 20.1636C92.3029 20.1636 91.4781 19.8886 91.4781 19.8886L91.2031 21.5383C91.2948 21.7216 91.753 21.9049 93.3111 21.9049Z" fill="white"/>
<path d="M129.879 13.0143L129.513 15.4889C129.513 15.4889 128.78 14.5724 127.771 14.5724C126.122 14.5724 124.655 16.5887 124.655 18.9716C124.655 20.438 125.388 21.9961 126.947 21.9961C128.046 21.9961 128.688 21.2629 128.688 21.2629L128.596 21.9044H130.429L131.804 13.1059L129.879 13.0143ZM129.055 17.8718C129.055 18.88 128.596 20.1631 127.588 20.1631C126.947 20.1631 126.58 19.6132 126.58 18.6967C126.58 17.2302 127.222 16.3137 128.046 16.3137C128.688 16.3137 129.055 16.772 129.055 17.8718Z" fill="white"/>
<path d="M79.1047 21.8128L80.2045 15.2139L80.3878 21.8128H81.6709L84.0538 15.2139L83.0457 21.8128H84.9703L86.4368 13.0143H83.4123L81.5792 18.4217L81.4876 13.0143H78.8297L77.3633 21.8128H79.1047Z" fill="white"/>
<path d="M107.517 21.8134C108.067 18.7889 108.159 16.3143 109.442 16.7725C109.625 15.5811 109.9 15.1228 110.084 14.6646C110.084 14.6646 109.992 14.6646 109.717 14.6646C108.892 14.6646 108.251 15.7644 108.251 15.7644L108.434 14.7562H106.692L105.501 21.905H107.517V21.8134Z" fill="white"/>
<path d="M118.881 14.4818C117.598 14.4818 116.682 14.8484 116.682 14.8484L116.407 16.4065C116.407 16.4065 117.231 16.0399 118.423 16.0399C119.064 16.0399 119.614 16.1315 119.614 16.6814C119.614 17.048 119.523 17.1397 119.523 17.1397C119.523 17.1397 118.973 17.1397 118.698 17.1397C117.14 17.1397 115.398 17.7813 115.398 19.8892C115.398 21.539 116.498 21.9056 117.14 21.9056C118.423 21.9056 118.973 21.0807 119.064 21.0807L118.973 21.8139H120.623L121.356 16.7731C121.447 14.5735 119.523 14.4818 118.881 14.4818ZM119.339 18.6061C119.339 18.8811 119.156 20.3475 118.056 20.3475C117.506 20.3475 117.323 19.8892 117.323 19.6143C117.323 19.156 117.598 18.5145 118.973 18.5145C119.248 18.6061 119.248 18.6061 119.339 18.6061Z" fill="white"/>
<path d="M122.915 21.8134C123.465 18.7889 123.556 16.3143 124.839 16.7725C125.023 15.5811 125.298 15.1228 125.481 14.6646C125.481 14.6646 125.389 14.6646 125.114 14.6646C124.29 14.6646 123.648 15.7644 123.648 15.7644L123.831 14.7562H122.09L120.898 21.905H122.915V21.8134Z" fill="white"/>
<path d="M96.335 20.4386C96.335 21.5384 96.9765 21.9966 97.8014 21.9966C98.4429 21.9966 98.9928 21.8133 99.1761 21.7217L99.4511 20.1636C99.3594 20.1636 99.1761 20.2553 98.9928 20.2553C98.3513 20.2553 98.2596 19.8887 98.3513 19.7053L98.9012 16.4976H99.9094L100.184 14.7562H99.2678L99.4511 13.6564" fill="#DCE5E5"/>
<path d="M100.734 18.7889C100.734 21.3551 101.559 21.9967 103.026 21.9967C104.4 21.9967 104.95 21.7217 104.95 21.7217L105.317 19.9803C105.317 19.9803 104.309 20.4386 103.392 20.4386C101.376 20.4386 101.743 18.9722 101.743 18.9722H105.5C105.5 18.9722 105.775 17.7807 105.775 17.3224C105.775 16.131 105.134 14.6646 103.117 14.6646C101.193 14.4813 100.734 16.4976 100.734 18.7889ZM103.026 16.131C104.034 16.131 104.217 17.3224 104.217 17.4141H101.834C101.834 17.3224 102.017 16.131 103.026 16.131Z" fill="#DCE5E5"/>
<path d="M114.665 21.7217L115.032 19.7054C115.032 19.7054 114.115 20.1636 113.474 20.1636C112.191 20.1636 111.641 19.1555 111.641 18.0557C111.641 15.856 112.741 14.6646 114.024 14.6646C114.94 14.6646 115.673 15.2145 115.673 15.2145L115.948 13.2898C115.948 13.2898 114.849 12.8315 113.84 12.8315C111.732 12.8315 110.541 14.6646 110.541 18.1473C110.541 20.4386 110.724 21.9967 112.924 21.9967C113.657 21.9967 114.665 21.7217 114.665 21.7217Z" fill="#DCE5E5"/>
<path d="M86.6205 16.4976C86.6205 16.4976 87.4453 16.131 88.6368 16.131C89.2784 16.131 89.8283 16.2226 89.8283 16.7725C89.8283 17.1391 89.7366 17.2308 89.7366 17.2308C89.7366 17.2308 89.1867 17.2308 88.9117 17.2308C87.3537 17.2308 85.6123 17.8723 85.6123 19.9803C85.6123 21.63 86.7121 21.9966 87.3537 21.9966C88.6368 21.9966 89.1867 21.1718 89.2784 21.1718L89.1867 21.905H90.8364L91.5696 16.8642C91.5696 14.7562 89.7366 14.6646 89.0034 14.6646L86.6205 16.4976ZM90.3782 18.6056C90.3782 18.8805 89.2784 20.3469 88.1785 20.3469C87.6286 20.3469 87.4453 19.8887 87.4453 19.6137C87.4453 19.1555 87.7203 18.5139 89.0951 18.5139C89.37 18.6056 90.3782 18.6056 90.3782 18.6056Z" fill="#DCE5E5"/>
<path d="M91.2949 21.7216C91.2949 21.7216 91.8448 21.9049 93.4029 21.9049C93.8612 21.9049 96.1524 21.9966 96.1524 19.522C96.1524 17.2307 93.9528 17.689 93.9528 16.7725C93.9528 16.3142 94.3194 16.1309 94.961 16.1309C95.2359 16.1309 96.2441 16.2226 96.2441 16.2226L96.519 14.5728C96.519 14.5728 95.8775 14.3895 94.7777 14.3895C93.4029 14.3895 92.9446 14.9394 92.9446 16.7725C92.9446 18.8804 94.3194 18.6971 94.3194 19.522C94.3194 20.0719 93.6779 20.1636 93.2196 20.1636" fill="#DCE5E5"/>
<path d="M129.513 15.4896C129.513 15.4896 128.78 14.5731 127.772 14.5731C126.122 14.5731 125.572 16.5894 125.572 18.9724C125.572 20.4388 125.389 21.9969 126.947 21.9969C128.047 21.9969 128.688 21.2636 128.688 21.2636L128.597 21.9052H130.43L131.804 13.1067L129.513 15.4896ZM129.421 17.8726C129.421 18.8807 128.597 20.1638 127.588 20.1638C126.947 20.1638 126.58 19.6139 126.58 18.6974C126.58 17.231 127.222 16.3145 128.047 16.3145C128.688 16.3145 129.421 16.7727 129.421 17.8726Z" fill="#DCE5E5"/>
<path d="M79.1047 21.8128L80.2045 15.2139L80.3878 21.8128H81.6709L84.0538 15.2139L83.0457 21.8128H84.9703L86.4368 13.0143H84.1455L81.5792 18.4217L81.4876 13.0143H80.4794L77.3633 21.8128H79.1047Z" fill="#DCE5E5"/>
<path d="M105.592 21.8134H107.516C108.066 18.7889 108.158 16.3143 109.441 16.7725C109.624 15.5811 109.899 15.1228 110.083 14.6646C110.083 14.6646 109.991 14.6646 109.716 14.6646C108.891 14.6646 108.25 15.7644 108.25 15.7644L108.433 14.7562" fill="#DCE5E5"/>
<path d="M116.407 16.4976C116.407 16.4976 117.231 16.131 118.423 16.131C119.064 16.131 119.614 16.2226 119.614 16.7725C119.614 17.1391 119.523 17.2308 119.523 17.2308C119.523 17.2308 118.973 17.2308 118.698 17.2308C117.14 17.2308 115.398 17.8723 115.398 19.9803C115.398 21.63 116.498 21.9966 117.14 21.9966C118.423 21.9966 118.973 21.1718 119.064 21.1718L118.973 21.905H120.623L121.356 16.8642C121.356 14.7562 119.523 14.6646 118.79 14.6646L116.407 16.4976ZM120.164 18.6056C120.164 18.8805 119.064 20.3469 117.965 20.3469C117.415 20.3469 117.231 19.8887 117.231 19.6137C117.231 19.1555 117.506 18.5139 118.881 18.5139C119.248 18.6056 120.164 18.6056 120.164 18.6056Z" fill="#DCE5E5"/>
<path d="M120.99 21.8134H122.915C123.465 18.7889 123.556 16.3143 124.84 16.7725C125.023 15.5811 125.298 15.1228 125.481 14.6646C125.481 14.6646 125.389 14.6646 125.115 14.6646C124.29 14.6646 123.648 15.7644 123.648 15.7644L123.831 14.7562" fill="#DCE5E5"/>
</svg>
