<svg width="36" height="36" viewBox="0 0 36 36" fill="none" xmlns="http://www.w3.org/2000/svg">
<path d="M34.5 14.565C34.5742 12.418 34.1047 10.287 33.135 8.36998C32.4771 7.58337 31.5641 7.05254 30.555 6.86998C26.3813 6.49126 22.1903 6.33604 18 6.40498C13.825 6.33291 9.6491 6.48313 5.49004 6.85498C4.66777 7.00455 3.90682 7.39024 3.30004 7.96498C1.95004 9.20998 1.80004 11.34 1.65004 13.14C1.43241 16.3763 1.43241 19.6236 1.65004 22.86C1.69344 23.8731 1.84428 24.8787 2.10004 25.86C2.2809 26.6176 2.64682 27.3185 3.16504 27.9C3.77594 28.5052 4.55462 28.9128 5.40004 29.07C8.63391 29.4692 11.8924 29.6346 15.15 29.565C20.4 29.64 25.005 29.565 30.45 29.145C31.3162 28.9974 32.1168 28.5893 32.745 27.975C33.165 27.5548 33.4787 27.0406 33.66 26.475C34.1965 24.8289 34.46 23.1061 34.44 21.375C34.5 20.535 34.5 15.465 34.5 14.565ZM14.61 22.275V12.99L23.49 17.655C21 19.035 17.715 20.595 14.61 22.275Z" fill="#FF6D67"/>
</svg>
