<svg width="66" height="66" viewBox="0 0 66 66" fill="none" xmlns="http://www.w3.org/2000/svg">
<path d="M63.2501 26.7026C63.3861 22.7664 62.5253 18.8596 60.7476 15.3451C59.5414 13.903 57.8675 12.9298 56.0176 12.5951C48.3658 11.9008 40.6823 11.6162 33.0001 11.7426C25.3459 11.6105 17.69 11.8859 10.0651 12.5676C8.55758 12.8418 7.1625 13.5489 6.05007 14.6026C3.57507 16.8851 3.30007 20.7901 3.02507 24.0901C2.62608 30.0234 2.62608 35.9768 3.02507 41.9101C3.10463 43.7674 3.38118 45.6111 3.85007 47.4101C4.18166 48.799 4.85251 50.084 5.80257 51.1501C6.92256 52.2596 8.35013 53.0069 9.90007 53.2951C15.8288 54.0269 21.8027 54.3302 27.7751 54.2026C37.4001 54.3401 45.8426 54.2026 55.8251 53.4326C57.4131 53.1621 58.8808 52.4138 60.0326 51.2876C60.8025 50.5173 61.3775 49.5746 61.7101 48.5376C62.6936 45.5198 63.1766 42.3614 63.1401 39.1876C63.2501 37.6476 63.2501 28.3526 63.2501 26.7026ZM26.7851 40.8376V23.8151L43.0651 32.3676C38.5001 34.8976 32.4776 37.7576 26.7851 40.8376Z" fill="#FF0000"/>
</svg>
