<svg width="16" height="16" viewBox="0 0 16 16" fill="none" xmlns="http://www.w3.org/2000/svg">
<g opacity="0.3">
<path fill-rule="evenodd" clip-rule="evenodd" d="M0.666016 1.33317C0.666016 0.964981 0.964492 0.666504 1.33268 0.666504H7.99935C8.17616 0.666504 8.34573 0.736742 8.47075 0.861766L14.1988 6.58983C14.5713 6.96456 14.7804 7.47147 14.7804 7.99984C14.7804 8.52821 14.5713 9.03511 14.1988 9.40984L13.726 8.93984L14.1974 9.41124L9.41768 14.191C9.41759 14.1911 9.41777 14.1909 9.41768 14.191C9.23199 14.3768 9.01124 14.5245 8.76856 14.6251C8.52576 14.7257 8.26551 14.7775 8.00268 14.7775C7.73985 14.7775 7.4796 14.7257 7.2368 14.6251C6.99407 14.5245 6.77354 14.377 6.58782 14.1911C6.58778 14.1911 6.58787 14.1912 6.58782 14.1911L0.861552 8.47152C0.73636 8.34647 0.666016 8.17678 0.666016 7.99984V1.33317ZM13.2532 8.46984C13.2534 8.46963 13.2536 8.46943 13.2538 8.46922C13.3776 8.34437 13.4471 8.17567 13.4471 7.99984C13.4471 7.824 13.3776 7.6553 13.2538 7.53045C13.2536 7.53025 13.2534 7.53004 13.2532 7.52984L7.72321 1.99984H1.99935V7.72347L7.53048 13.2482L7.53102 13.2487C7.59293 13.3107 7.66646 13.3599 7.74739 13.3934C7.82832 13.4269 7.91507 13.4442 8.00268 13.4442C8.09029 13.4442 8.17705 13.4269 8.25798 13.3934C8.33891 13.3599 8.41243 13.3107 8.47435 13.2487L13.2532 8.46984Z" fill="#282141"/>
<path d="M9.41768 14.191L14.1974 9.41124L13.726 8.93984L14.1988 9.40984C14.5713 9.03511 14.7804 8.52821 14.7804 7.99984C14.7804 7.47147 14.5713 6.96456 14.1988 6.58983L8.47075 0.861766C8.34573 0.736742 8.17616 0.666504 7.99935 0.666504H1.33268C0.964492 0.666504 0.666016 0.964981 0.666016 1.33317V7.99984C0.666016 8.17678 0.73636 8.34647 0.861552 8.47152L6.58782 14.1911M9.41768 14.191C9.41777 14.1909 9.41759 14.1911 9.41768 14.191ZM9.41768 14.191C9.23199 14.3768 9.01125 14.5245 8.76856 14.6251C8.52576 14.7257 8.26551 14.7776 8.00268 14.7776C7.73985 14.7776 7.4796 14.7257 7.2368 14.6251C6.99407 14.5245 6.77354 14.377 6.58782 14.1911M6.58782 14.1911C6.58787 14.1912 6.58778 14.1911 6.58782 14.1911ZM13.2538 8.46922C13.2536 8.46943 13.2534 8.46963 13.2532 8.46984L8.47435 13.2487C8.41243 13.3107 8.33891 13.3599 8.25798 13.3934C8.17705 13.4269 8.09029 13.4442 8.00268 13.4442C7.91507 13.4442 7.82832 13.4269 7.74739 13.3934C7.66646 13.3599 7.59293 13.3107 7.53102 13.2487L7.53048 13.2482L1.99935 7.72347V1.99984H7.72321L13.2532 7.52984C13.2534 7.53004 13.2536 7.53025 13.2538 7.53045C13.3776 7.6553 13.4471 7.824 13.4471 7.99984C13.4471 8.17567 13.3776 8.34437 13.2538 8.46922Z" stroke="#282141" stroke-width="0.5" stroke-linecap="round" stroke-linejoin="round"/>
<path fill-rule="evenodd" clip-rule="evenodd" d="M4 4.66667C4 4.29848 4.29848 4 4.66667 4H4.67333C5.04152 4 5.34 4.29848 5.34 4.66667C5.34 5.03486 5.04152 5.33333 4.67333 5.33333H4.66667C4.29848 5.33333 4 5.03486 4 4.66667Z" fill="#282141" stroke="#282141" stroke-linecap="round" stroke-linejoin="round"/>
</g>
</svg>
