<svg width="16" height="16" viewBox="0 0 16 16" fill="none" xmlns="http://www.w3.org/2000/svg">
<g opacity="0.3">
<path d="M13.6667 9.3335C13.4899 9.3335 13.3203 9.40373 13.1953 9.52876C13.0702 9.65378 13 9.82335 13 10.0002V12.6668C13 12.8436 12.9298 13.0132 12.8047 13.1382C12.6797 13.2633 12.5101 13.3335 12.3333 13.3335H3C2.82319 13.3335 2.65362 13.2633 2.5286 13.1382C2.40357 13.0132 2.33333 12.8436 2.33333 12.6668V6.2735L6.25333 10.2002C6.62833 10.5747 7.13666 10.7851 7.66667 10.7851C8.19667 10.7851 8.705 10.5747 9.08 10.2002L10.1733 9.10683C10.2989 8.98129 10.3694 8.81103 10.3694 8.6335C10.3694 8.45596 10.2989 8.2857 10.1733 8.16016C10.0478 8.03463 9.87753 7.9641 9.7 7.9641C9.52246 7.9641 9.3522 8.03463 9.22667 8.16016L8.13333 9.2535C8.00871 9.37565 7.84117 9.44407 7.66667 9.44407C7.49216 9.44407 7.32462 9.37565 7.2 9.2535L3.27333 5.3335H7.66667C7.84348 5.3335 8.01305 5.26326 8.13807 5.13823C8.26309 5.01321 8.33333 4.84364 8.33333 4.66683C8.33333 4.49002 8.26309 4.32045 8.13807 4.19543C8.01305 4.0704 7.84348 4.00016 7.66667 4.00016H3C2.46957 4.00016 1.96086 4.21088 1.58579 4.58595C1.21071 4.96102 1 5.46973 1 6.00016V12.6668C1 13.1973 1.21071 13.706 1.58579 14.081C1.96086 14.4561 2.46957 14.6668 3 14.6668H12.3333C12.8638 14.6668 13.3725 14.4561 13.7475 14.081C14.1226 13.706 14.3333 13.1973 14.3333 12.6668V10.0002C14.3333 9.82335 14.2631 9.65378 14.1381 9.52876C14.013 9.40373 13.8435 9.3335 13.6667 9.3335ZM14.8067 4.86016C14.7447 4.79768 14.671 4.74808 14.5897 4.71424C14.5085 4.68039 14.4213 4.66296 14.3333 4.66296C14.2453 4.66296 14.1582 4.68039 14.0769 4.71424C13.9957 4.74808 13.922 4.79768 13.86 4.86016L13 5.72683V2.00016C13 1.82335 12.9298 1.65378 12.8047 1.52876C12.6797 1.40373 12.5101 1.3335 12.3333 1.3335C12.1565 1.3335 11.987 1.40373 11.8619 1.52876C11.7369 1.65378 11.6667 1.82335 11.6667 2.00016V5.72683L10.8067 4.86016C10.7445 4.798 10.6707 4.7487 10.5895 4.71506C10.5083 4.68142 10.4212 4.6641 10.3333 4.6641C10.1558 4.6641 9.98554 4.73463 9.86 4.86016C9.79784 4.92232 9.74853 4.99612 9.71489 5.07733C9.68125 5.15854 9.66394 5.24559 9.66394 5.3335C9.66394 5.51103 9.73446 5.68129 9.86 5.80683L11.86 7.80683C11.9234 7.86752 11.9982 7.9151 12.08 7.94683C12.1598 7.9821 12.2461 8.00032 12.3333 8.00032C12.4206 8.00032 12.5069 7.9821 12.5867 7.94683C12.6685 7.9151 12.7433 7.86752 12.8067 7.80683L14.8067 5.80683C14.8692 5.74485 14.9187 5.67112 14.9526 5.58988C14.9864 5.50864 15.0039 5.4215 15.0039 5.3335C15.0039 5.24549 14.9864 5.15835 14.9526 5.07711C14.9187 4.99587 14.8692 4.92214 14.8067 4.86016Z" fill="black"/>
</g>
</svg>
