<svg width="16" height="16" viewBox="0 0 16 16" fill="none" xmlns="http://www.w3.org/2000/svg">
<g opacity="0.3">
<path d="M4.66732 9.3335H6.00065C6.17746 9.3335 6.34703 9.26326 6.47206 9.13823C6.59708 9.01321 6.66732 8.84364 6.66732 8.66683C6.66732 8.49002 6.59708 8.32045 6.47206 8.19543C6.34703 8.0704 6.17746 8.00016 6.00065 8.00016H4.66732C4.49051 8.00016 4.32094 8.0704 4.19591 8.19543C4.07089 8.32045 4.00065 8.49002 4.00065 8.66683C4.00065 8.84364 4.07089 9.01321 4.19591 9.13823C4.32094 9.26326 4.49051 9.3335 4.66732 9.3335ZM8.66732 10.6668H4.66732C4.49051 10.6668 4.32094 10.7371 4.19591 10.8621C4.07089 10.9871 4.00065 11.1567 4.00065 11.3335C4.00065 11.5103 4.07089 11.6799 4.19591 11.8049C4.32094 11.9299 4.49051 12.0002 4.66732 12.0002H8.66732C8.84413 12.0002 9.0137 11.9299 9.13872 11.8049C9.26375 11.6799 9.33398 11.5103 9.33398 11.3335C9.33398 11.1567 9.26375 10.9871 9.13872 10.8621C9.0137 10.7371 8.84413 10.6668 8.66732 10.6668ZM12.6673 1.3335H3.33398C2.80355 1.3335 2.29484 1.54421 1.91977 1.91928C1.5447 2.29436 1.33398 2.80306 1.33398 3.3335V12.6668C1.33398 13.1973 1.5447 13.706 1.91977 14.081C2.29484 14.4561 2.80355 14.6668 3.33398 14.6668H12.6673C13.1978 14.6668 13.7065 14.4561 14.0815 14.081C14.4566 13.706 14.6673 13.1973 14.6673 12.6668V3.3335C14.6673 2.80306 14.4566 2.29436 14.0815 1.91928C13.7065 1.54421 13.1978 1.3335 12.6673 1.3335ZM9.33398 2.66683V4.86016L8.32732 4.30016C8.22597 4.24165 8.11101 4.21085 7.99398 4.21085C7.87696 4.21085 7.762 4.24165 7.66065 4.30016L6.66732 4.86016V2.66683H9.33398ZM13.334 12.6668C13.334 12.8436 13.2637 13.0132 13.1387 13.1382C13.0137 13.2633 12.8441 13.3335 12.6673 13.3335H3.33398C3.15717 13.3335 2.9876 13.2633 2.86258 13.1382C2.73756 13.0132 2.66732 12.8436 2.66732 12.6668V3.3335C2.66732 3.15669 2.73756 2.98712 2.86258 2.86209C2.9876 2.73707 3.15717 2.66683 3.33398 2.66683H5.33398V6.00016C5.33469 6.11651 5.36582 6.23064 5.4243 6.33122C5.48278 6.4318 5.56656 6.51533 5.66732 6.5735C5.76866 6.63201 5.88363 6.66281 6.00065 6.66281C6.11768 6.66281 6.23264 6.63201 6.33398 6.5735L8.00065 5.64683L9.67398 6.58016C9.77362 6.63663 9.88613 6.66648 10.0007 6.66683C10.1775 6.66683 10.347 6.59659 10.4721 6.47157C10.5971 6.34654 10.6673 6.17697 10.6673 6.00016V2.66683H12.6673C12.8441 2.66683 13.0137 2.73707 13.1387 2.86209C13.2637 2.98712 13.334 3.15669 13.334 3.3335V12.6668Z" fill="#282141"/>
</g>
</svg>
