<svg width="16" height="16" viewBox="0 0 16 16" fill="none" xmlns="http://www.w3.org/2000/svg">
<g opacity="0.3">
<path d="M13.2672 8.44009C13.1604 8.31843 13.1014 8.16203 13.1014 8.00009C13.1014 7.83815 13.1604 7.68175 13.2672 7.56009L14.1206 6.60009C14.2146 6.4952 14.273 6.36323 14.2874 6.2231C14.3017 6.08297 14.2714 5.94188 14.2006 5.82009L12.8672 3.51343C12.7972 3.39177 12.6905 3.29534 12.5624 3.23788C12.4343 3.18042 12.2914 3.16486 12.1539 3.19343L10.9006 3.44676C10.7411 3.47971 10.5751 3.45315 10.4338 3.37209C10.2926 3.29103 10.1859 3.16108 10.1339 3.00676L9.72725 1.78676C9.68252 1.65435 9.59732 1.53934 9.48367 1.45799C9.37002 1.37664 9.23368 1.33307 9.09391 1.33343H6.42725C6.28187 1.32584 6.138 1.36604 6.01762 1.4479C5.89724 1.52976 5.80697 1.64877 5.76058 1.78676L5.38725 3.00676C5.33525 3.16108 5.22856 3.29103 5.08732 3.37209C4.94608 3.45315 4.78006 3.47971 4.62058 3.44676L3.33391 3.19343C3.20362 3.17501 3.07078 3.19557 2.95215 3.25252C2.83351 3.30946 2.73438 3.40024 2.66725 3.51343L1.33392 5.82009C1.26136 5.94053 1.22873 6.08082 1.2407 6.22091C1.25268 6.361 1.30864 6.49372 1.40058 6.60009L2.24725 7.56009C2.35413 7.68175 2.41307 7.83815 2.41307 8.00009C2.41307 8.16203 2.35413 8.31843 2.24725 8.44009L1.40058 9.40009C1.30864 9.50646 1.25268 9.63918 1.2407 9.77928C1.22873 9.91937 1.26136 10.0597 1.33392 10.1801L2.66725 12.4868C2.73731 12.6084 2.84399 12.7048 2.97208 12.7623C3.10017 12.8198 3.24313 12.8353 3.38058 12.8068L4.63391 12.5534C4.79339 12.5205 4.95942 12.547 5.10066 12.6281C5.2419 12.7092 5.34858 12.8391 5.40058 12.9934L5.80725 14.2134C5.85363 14.3514 5.94391 14.4704 6.06429 14.5523C6.18467 14.6341 6.32854 14.6743 6.47391 14.6668H9.14058C9.28034 14.6671 9.41669 14.6235 9.53033 14.5422C9.64398 14.4608 9.72919 14.3458 9.77391 14.2134L10.1806 12.9934C10.2326 12.8391 10.3393 12.7092 10.4805 12.6281C10.6217 12.547 10.7878 12.5205 10.9472 12.5534L12.2006 12.8068C12.338 12.8353 12.481 12.8198 12.6091 12.7623C12.7372 12.7048 12.8439 12.6084 12.9139 12.4868L14.2472 10.1801C14.318 10.0583 14.3484 9.91722 14.334 9.77709C14.3197 9.63696 14.2613 9.50498 14.1672 9.40009L13.2672 8.44009ZM12.2739 9.33343L12.8072 9.93342L11.9539 11.4134L11.1672 11.2534C10.6871 11.1553 10.1876 11.2368 9.76364 11.4826C9.33966 11.7284 9.02068 12.1213 8.86725 12.5868L8.61391 13.3334H6.90725L6.66725 12.5734C6.51382 12.108 6.19484 11.7151 5.77085 11.4693C5.34687 11.2235 4.8474 11.1419 4.36725 11.2401L3.58058 11.4001L2.71392 9.92676L3.24725 9.32676C3.57522 8.96008 3.75654 8.48538 3.75654 7.99343C3.75654 7.50147 3.57522 7.02677 3.24725 6.66009L2.71392 6.06009L3.56725 4.59343L4.35391 4.75343C4.83406 4.85157 5.33353 4.77001 5.75752 4.52422C6.1815 4.27844 6.50048 3.88553 6.65391 3.42009L6.90725 2.66676H8.61391L8.86725 3.42676C9.02068 3.8922 9.33966 4.2851 9.76364 4.53089C10.1876 4.77668 10.6871 4.85824 11.1672 4.76009L11.9539 4.60009L12.8072 6.08009L12.2739 6.68009C11.9496 7.04593 11.7706 7.51788 11.7706 8.00676C11.7706 8.49564 11.9496 8.96759 12.2739 9.33343ZM7.76058 5.33343C7.23316 5.33343 6.71759 5.48982 6.27906 5.78284C5.84053 6.07586 5.49874 6.49233 5.2969 6.9796C5.09507 7.46687 5.04226 8.00305 5.14515 8.52033C5.24805 9.03762 5.50202 9.51277 5.87496 9.88571C6.2479 10.2587 6.72306 10.5126 7.24034 10.6155C7.75762 10.7184 8.2938 10.6656 8.78107 10.4638C9.26834 10.2619 9.68482 9.92014 9.97783 9.48161C10.2709 9.04308 10.4272 8.52751 10.4272 8.00009C10.4272 7.29285 10.1463 6.61457 9.6462 6.11447C9.1461 5.61438 8.46783 5.33343 7.76058 5.33343ZM7.76058 9.33343C7.49687 9.33343 7.23909 9.25523 7.01982 9.10872C6.80056 8.96221 6.62966 8.75397 6.52874 8.51034C6.42783 8.2667 6.40142 7.99861 6.45287 7.73997C6.50431 7.48133 6.6313 7.24375 6.81777 7.05728C7.00424 6.87081 7.24182 6.74383 7.50046 6.69238C7.7591 6.64093 8.02719 6.66734 8.27083 6.76825C8.51446 6.86917 8.7227 7.04007 8.86921 7.25933C9.01572 7.4786 9.09391 7.73638 9.09391 8.00009C9.09391 8.35371 8.95344 8.69285 8.70339 8.9429C8.45334 9.19295 8.1142 9.33343 7.76058 9.33343Z" fill="#282141"/>
</g>
</svg>
