<svg width="16" height="16" viewBox="0 0 16 16" fill="none" xmlns="http://www.w3.org/2000/svg">
<g opacity="0.3">
<path d="M13.6661 10.0668C13.5079 9.98824 13.3249 9.97569 13.1574 10.0319C12.9899 10.0882 12.8516 10.2087 12.7728 10.3668C12.3509 11.219 11.7087 11.9428 10.913 12.4634C10.1172 12.9839 9.1968 13.2822 8.24699 13.3275C7.29718 13.3727 6.35254 13.1632 5.51094 12.7206C4.66933 12.278 3.96136 11.6184 3.46035 10.8102C2.95934 10.002 2.68351 9.07459 2.66144 8.12396C2.63937 7.17333 2.87186 6.23408 3.33482 5.40351C3.79778 4.57293 4.47438 3.88124 5.29454 3.40006C6.1147 2.91889 7.04859 2.66574 7.99948 2.66684C8.99355 2.66253 9.96871 2.93859 10.813 3.46334C11.6573 3.98808 12.3366 4.74024 12.7728 5.6335C12.8524 5.79263 12.9919 5.91364 13.1607 5.9699C13.3295 6.02616 13.5137 6.01307 13.6728 5.9335C13.8319 5.85394 13.9529 5.71442 14.0092 5.54563C14.0655 5.37685 14.0524 5.19263 13.9728 5.0335C13.3039 3.68733 12.1996 2.60674 10.8393 1.96712C9.47895 1.3275 7.94237 1.1664 6.47894 1.50995C5.01552 1.85351 3.71116 2.68156 2.77756 3.85972C1.84396 5.03787 1.33594 6.49696 1.33594 8.00017C1.33594 9.50338 1.84396 10.9625 2.77756 12.1406C3.71116 13.3188 5.01552 14.1468 6.47894 14.4904C7.94237 14.8339 9.47895 14.6728 10.8393 14.0332C12.1996 13.3936 13.3039 12.313 13.9728 10.9668C14.0125 10.8877 14.0361 10.8015 14.0422 10.7132C14.0482 10.6249 14.0367 10.5363 14.0081 10.4526C13.9796 10.3688 13.9346 10.2915 13.8759 10.2253C13.8172 10.1591 13.7459 10.1052 13.6661 10.0668ZM13.9995 7.3335H7.60614L9.13947 5.80684C9.20163 5.74468 9.25094 5.67088 9.28458 5.58967C9.31822 5.50845 9.33554 5.42141 9.33554 5.3335C9.33554 5.2456 9.31822 5.15855 9.28458 5.07734C9.25094 4.99612 9.20163 4.92233 9.13947 4.86017C9.07732 4.79801 9.00352 4.7487 8.92231 4.71506C8.84109 4.68142 8.75405 4.66411 8.66614 4.66411C8.57824 4.66411 8.49119 4.68142 8.40998 4.71506C8.32876 4.7487 8.25497 4.79801 8.19281 4.86017L5.52614 7.52684C5.46545 7.59024 5.41787 7.665 5.38614 7.74684C5.31946 7.90914 5.31946 8.09119 5.38614 8.2535C5.41787 8.33534 5.46545 8.4101 5.52614 8.4735L8.19281 11.1402C8.25478 11.2027 8.32852 11.2523 8.40976 11.2861C8.491 11.3199 8.57813 11.3374 8.66614 11.3374C8.75415 11.3374 8.84129 11.3199 8.92253 11.2861C9.00377 11.2523 9.0775 11.2027 9.13947 11.1402C9.20196 11.0782 9.25156 11.0045 9.2854 10.9232C9.31925 10.842 9.33667 10.7548 9.33667 10.6668C9.33667 10.5788 9.31925 10.4917 9.2854 10.4105C9.25156 10.3292 9.20196 10.2555 9.13947 10.1935L7.60614 8.66684H13.9995C14.1763 8.66684 14.3459 8.5966 14.4709 8.47157C14.5959 8.34655 14.6661 8.17698 14.6661 8.00017C14.6661 7.82336 14.5959 7.65379 14.4709 7.52876C14.3459 7.40374 14.1763 7.3335 13.9995 7.3335Z" fill="black"/>
</g>
</svg>
