<svg width="18" height="18" viewBox="0 0 18 18" fill="none" xmlns="http://www.w3.org/2000/svg">
<g opacity="0.3">
<path d="M10.8678 8.14474C11.119 7.79896 11.2696 7.39046 11.3031 6.96439C11.3366 6.53832 11.2517 6.11129 11.0576 5.73049C10.8636 5.3497 10.568 5.02998 10.2036 4.80668C9.83922 4.58338 9.42016 4.46519 8.99278 4.46519C8.56539 4.46519 8.14633 4.58338 7.78192 4.80668C7.41751 5.02998 7.12195 5.3497 6.92791 5.73049C6.73387 6.11129 6.6489 6.53832 6.68241 6.96439C6.71592 7.39046 6.86659 7.79896 7.11778 8.14474C6.79916 8.3478 6.51549 8.60107 6.27778 8.89474C6.21573 8.97501 6.1701 9.06672 6.14349 9.16463C6.11688 9.26253 6.10982 9.36472 6.1227 9.46535C6.13558 9.56599 6.16816 9.6631 6.21858 9.75115C6.26899 9.83919 6.33626 9.91644 6.41653 9.97849C6.4968 10.0405 6.5885 10.0862 6.68641 10.1128C6.78431 10.1394 6.8865 10.1465 6.98714 10.1336C7.08777 10.1207 7.18489 10.0881 7.27293 10.0377C7.36097 9.98728 7.43823 9.92001 7.50028 9.83974C7.68344 9.60692 7.91688 9.41853 8.18313 9.28865C8.44938 9.15877 8.74154 9.09078 9.03778 9.08974C9.33401 9.09078 9.62618 9.15877 9.89242 9.28865C10.1587 9.41853 10.3921 9.60692 10.5753 9.83974C10.6459 9.92676 10.7351 9.99685 10.8363 10.0449C10.9375 10.0929 11.0482 10.1176 11.1603 10.1172C11.3009 10.1166 11.4385 10.0764 11.5573 10.0014C11.6762 9.92628 11.7716 9.81929 11.8326 9.69261C11.8936 9.56593 11.9177 9.42466 11.9023 9.28491C11.8869 9.14515 11.8324 9.01256 11.7453 8.90224C11.4969 8.60276 11.2003 8.34675 10.8678 8.14474ZM9.00028 7.59724C8.83989 7.59714 8.68308 7.54985 8.54937 7.46128C8.41566 7.37271 8.31096 7.24676 8.2483 7.09912C8.18564 6.95149 8.16779 6.78868 8.19698 6.63097C8.22617 6.47326 8.3011 6.32763 8.41245 6.21219C8.52379 6.09676 8.66664 6.01663 8.82319 5.98178C8.97974 5.94693 9.14309 5.9589 9.29289 6.0162C9.44269 6.0735 9.57233 6.17359 9.66566 6.30403C9.75899 6.43446 9.81189 6.58947 9.81778 6.74974C9.82181 6.8596 9.80365 6.96914 9.76437 7.07181C9.7251 7.17448 9.66552 7.26818 9.58921 7.3473C9.51289 7.42641 9.4214 7.48933 9.32021 7.53227C9.21902 7.57522 9.1102 7.59732 9.00028 7.59724ZM15.3453 7.22224C15.24 6.12643 14.8527 5.07656 14.2212 4.17486C13.5896 3.27316 12.7353 2.55037 11.7415 2.07686C10.7477 1.60336 9.64819 1.39528 8.55006 1.4729C7.45194 1.55051 6.39263 1.91116 5.47528 2.51974C4.68717 3.04673 4.02557 3.74172 3.53798 4.55479C3.0504 5.36786 2.74895 6.27882 2.65528 7.22224C2.56339 8.15949 2.68128 9.10543 3.0004 9.99145C3.31953 10.8775 3.83187 11.6813 4.50028 12.3447L8.47528 16.3272C8.545 16.3975 8.62795 16.4533 8.71934 16.4914C8.81074 16.5295 8.90877 16.5491 9.00778 16.5491C9.10678 16.5491 9.20481 16.5295 9.29621 16.4914C9.3876 16.4533 9.47055 16.3975 9.54028 16.3272L13.5003 12.3447C14.1687 11.6813 14.681 10.8775 15.0001 9.99145C15.3193 9.10543 15.4372 8.15949 15.3453 7.22224ZM12.4503 11.2872L9.00028 14.7372L5.55028 11.2872C5.04184 10.7788 4.65238 10.164 4.40988 9.48706C4.16738 8.81014 4.07787 8.08789 4.14778 7.37224C4.21814 6.64557 4.4491 5.94361 4.82395 5.31713C5.19881 4.69064 5.70819 4.15527 6.31528 3.74974C7.11099 3.22117 8.04501 2.93921 9.00028 2.93921C9.95555 2.93921 10.8896 3.22117 11.6853 3.74974C12.2905 4.15371 12.7988 4.6867 13.1735 5.31045C13.5483 5.93419 13.7803 6.63319 13.8528 7.35724C13.925 8.07531 13.8366 8.80045 13.594 9.48015C13.3514 10.1599 12.9608 10.7771 12.4503 11.2872Z" fill="#282141"/>
</g>
</svg>
