<svg width="16" height="16" viewBox="0 0 16 16" fill="none" xmlns="http://www.w3.org/2000/svg">
<g opacity="0.3">
<path d="M12.6673 4.66667H12.0007V4C12.0007 3.46957 11.7899 2.96086 11.4149 2.58579C11.0398 2.21071 10.5311 2 10.0007 2H3.33398C2.80355 2 2.29484 2.21071 1.91977 2.58579C1.5447 2.96086 1.33398 3.46957 1.33398 4V12C1.33398 12.5304 1.5447 13.0391 1.91977 13.4142C2.29484 13.7893 2.80355 14 3.33398 14H12.6673C13.1978 14 13.7065 13.7893 14.0815 13.4142C14.4566 13.0391 14.6673 12.5304 14.6673 12V6.66667C14.6673 6.13623 14.4566 5.62753 14.0815 5.25245C13.7065 4.87738 13.1978 4.66667 12.6673 4.66667ZM3.33398 3.33333H10.0007C10.1775 3.33333 10.347 3.40357 10.4721 3.5286C10.5971 3.65362 10.6673 3.82319 10.6673 4V4.66667H3.33398C3.15717 4.66667 2.9876 4.59643 2.86258 4.4714C2.73756 4.34638 2.66732 4.17681 2.66732 4C2.66732 3.82319 2.73756 3.65362 2.86258 3.5286C2.9876 3.40357 3.15717 3.33333 3.33398 3.33333ZM13.334 10H12.6673C12.4905 10 12.3209 9.92976 12.1959 9.80474C12.0709 9.67971 12.0007 9.51014 12.0007 9.33333C12.0007 9.15652 12.0709 8.98695 12.1959 8.86193C12.3209 8.73691 12.4905 8.66667 12.6673 8.66667H13.334V10ZM13.334 7.33333H12.6673C12.1369 7.33333 11.6282 7.54405 11.2531 7.91912C10.878 8.29419 10.6673 8.8029 10.6673 9.33333C10.6673 9.86377 10.878 10.3725 11.2531 10.7475C11.6282 11.1226 12.1369 11.3333 12.6673 11.3333H13.334V12C13.334 12.1768 13.2637 12.3464 13.1387 12.4714C13.0137 12.5964 12.8441 12.6667 12.6673 12.6667H3.33398C3.15717 12.6667 2.9876 12.5964 2.86258 12.4714C2.73756 12.3464 2.66732 12.1768 2.66732 12V5.88667C2.8815 5.96201 3.10694 6.00034 3.33398 6H12.6673C12.8441 6 13.0137 6.07024 13.1387 6.19526C13.2637 6.32029 13.334 6.48986 13.334 6.66667V7.33333Z" fill="#282141"/>
</g>
</svg>
