<svg width="114" height="57" viewBox="0 0 114 57" fill="none" xmlns="http://www.w3.org/2000/svg">
<path d="M114 57C114 57 94.339 38.7959 56.8694 38.7959C20.1875 38.7959 0 57 0 57V0H114V57Z" fill="#ED1C24"/>
<path d="M53.1012 7.32227L49.4992 15.0153L46.4512 7.36213H39.2471C39.4846 7.92017 39.6033 8.39849 39.5637 8.79709V31.7565C39.5242 32.0754 39.4846 32.3544 39.3658 32.5139L45.6992 31.6768C45.5804 31.5971 45.5012 31.2383 45.5012 30.6404V22.9076L49.3408 31.3181L53.4179 22.6684V30.0824C53.3783 30.3614 53.2992 30.6006 53.1012 30.7999H59.5137C59.2367 30.4411 59.0308 30.0386 59.0387 29.7237V8.55793C59.1179 8.15933 59.2367 7.72087 59.4742 7.32227H53.1012Z" fill="white"/>
<path d="M37.2676 12.2251C36.5551 9.03627 34.3385 7.402 30.5385 7.32228C26.5801 7.28242 24.1656 8.83697 23.2947 12.0656V36.4202C23.2947 36.6593 23.2156 36.9384 22.9385 37.2572L28.9551 35.8223C28.6781 35.344 28.5197 35.0769 28.4801 34.467V29.8831C29.1926 28.9663 29.9447 28.488 30.776 28.4482C31.5676 28.3684 32.0031 28.5279 32.0822 28.8866V34.1083C32.0822 34.2677 32.0426 34.467 32.0031 34.7859L37.7426 33.2314C37.4656 32.8328 37.3072 32.4342 37.2676 31.9957V12.2251ZM30.2218 12.823C30.7364 12.823 31.2114 13.0223 31.5676 13.3412C31.9635 13.7398 32.1614 14.2181 32.1614 14.6964V21.6719C32.1614 22.1901 31.9635 22.6286 31.5676 22.9873C31.2114 23.3859 30.6176 23.5852 29.8656 23.5852C29.1135 23.6649 28.6385 23.4258 28.5593 22.788V14.1782C28.8364 13.3013 29.3906 12.823 30.2218 12.823Z" fill="white"/>
<path d="M13.6764 12.7832C14.7649 12.7832 15.3903 13.3652 15.4972 14.0588V20.7951C15.5407 21.7518 16.2334 21.5325 17.8168 20.8549C19.4001 20.1374 20.3264 19.7587 20.5639 19.3601V11.8664C20.0889 8.83707 17.793 7.32239 13.7951 7.32239C9.75762 7.28253 7.30345 9.19581 6.43262 13.142L6.43658 37.1497C6.78491 41.1357 8.7522 42.7979 11.6814 42.8816C16.1939 42.8418 20.0928 39.9399 20.7222 34.79V26.6984C19.7801 26.7542 18.9132 26.9694 17.7653 27.4876C16.6174 28.0058 15.9841 28.4164 15.3389 29.0501V35.5474C14.943 36.5837 14.1949 36.8827 13.1657 36.8029C12.2553 36.6834 11.8793 36.3286 11.8951 35.4278V14.3019C11.9268 13.8315 12.5562 12.7832 13.6764 12.7832Z" fill="white"/>
<path d="M75.7429 19.5195V11.2684C75.4658 8.87681 74.1992 7.56143 71.8242 7.32227H61.2158C61.4533 7.48171 61.5721 7.80059 61.5721 8.23905V30.4411C61.5325 30.76 61.4533 30.9992 61.295 31.2384H67.3908C67.1533 30.8398 66.995 30.5209 66.9554 30.202C66.9554 30.1621 66.9554 30.1223 66.9554 30.0425V24.1432C66.9554 23.9041 67.0742 23.7446 67.3512 23.6649H71.2304C73.8825 23.5852 75.3867 22.23 75.7429 19.5195ZM68.1825 12.1055H69.2512C69.5679 12.1055 69.845 12.2251 70.0429 12.4244C70.32 12.7034 70.4387 12.9824 70.4387 13.3013V17.5544C70.4387 17.8732 70.32 18.1523 70.0429 18.3516C69.845 18.6306 69.5679 18.7502 69.2512 18.7502H68.1825C67.8658 18.7502 67.6679 18.6306 67.47 18.3516C67.2721 18.1523 67.1533 17.8732 67.1533 17.5544V13.3013C67.1533 12.9824 67.2721 12.7034 67.47 12.4244C67.6679 12.2251 67.8658 12.1055 68.1825 12.1055Z" fill="white"/>
<path d="M90.1119 11.3481L90.1515 7.72087C90.0327 7.44185 89.914 7.32227 89.6765 7.32227H77.5244C77.7619 7.52157 77.9202 7.80059 77.9598 8.07961V32.0754C77.9202 32.4342 77.8411 32.6335 77.6432 32.7132L89.9932 36.1013V30.5209C87.8161 30.0027 85.6786 29.3649 83.5015 28.5279V23.5852C83.5015 23.346 83.5094 23.0989 83.8696 23.0989C84.8988 23.1388 89.3598 24.1432 89.6369 24.1034C89.8348 24.0635 89.9932 23.9439 90.0327 23.6649V19.097C90.0327 19.097 90.0565 18.8379 89.7834 18.79C87.828 18.4313 85.9002 18.24 83.8459 17.7576C83.6836 17.7098 83.5411 17.662 83.5015 17.4467V12.5041C83.5015 12.1852 83.6202 11.9859 83.8973 11.9062H89.3994C89.7161 11.9062 89.9932 11.7069 90.1119 11.3481Z" fill="white"/>
<path d="M107.252 21.0342V12.1453C107.172 9.03625 105.352 7.44185 101.789 7.32227H92.21C92.487 7.56143 92.6058 7.84045 92.685 8.19919V36.1411C92.6058 36.5397 92.5266 36.7789 92.3683 36.8188L98.2266 38.9314C98.0287 38.7719 97.91 38.4929 97.91 38.0943V27.3719C98.1198 26.786 98.2662 26.5747 98.8995 26.5349C100.681 26.774 101.67 27.7705 101.789 29.4845V39.7286C101.789 40.1272 101.71 40.3663 101.591 40.4859L107.568 43.1964C107.41 42.9971 107.331 42.7579 107.331 42.4391V28.9265C107.331 27.2922 106.658 25.937 105.352 24.8209C106.222 24.1432 107.224 22.9993 107.252 21.0342ZM98.3058 12.7034C98.5037 12.4244 98.8204 12.3048 99.137 12.3446L100.325 12.4642C100.72 12.5041 101.037 12.6635 101.314 12.9824C101.552 13.3013 101.71 13.66 101.71 14.0985V19.5992C101.71 19.9978 101.552 20.3565 101.314 20.5957C101.037 20.8747 100.72 20.9943 100.325 20.9943L99.137 20.8747C98.8204 20.8747 98.5037 20.6754 98.3058 20.3565C98.0683 20.0377 97.9495 19.6789 97.9495 19.2803V13.7397C97.9495 13.3013 98.0683 12.9824 98.3058 12.7034Z" fill="white"/>
</svg>
