<svg width="136" height="51" viewBox="0 0 136 51" fill="none" xmlns="http://www.w3.org/2000/svg">
<path d="M14.6081 50.7506L4.85695 39.0682L2.29814 41.6625V50.7506H0V26.5159H2.29282V38.856L14.4432 26.5159H17.1988L6.37309 37.5244L17.4116 50.7506H14.6081Z" fill="#070808"/>
<path d="M39.6587 50.7507L36.371 42.5487H25.8432L22.545 50.7507H20.3213L30.2373 26.5107H32.3067L42.292 50.7507H39.6587ZM31.0672 29.3968L26.588 40.7767L35.6369 40.7714L31.0672 29.3968Z" fill="#070808"/>
<path d="M86.5473 50.7506L83.2597 42.5485L72.7319 42.5538L69.4336 50.7559H67.21L77.126 26.5159H79.1954L89.1753 50.7559H86.5473V50.7506ZM77.9506 29.3967L73.4713 40.7766L82.5203 40.7713L77.9506 29.3967Z" fill="#070808"/>
<path d="M61.2096 50.7507L54.1024 40.7714H53.8842C53.8151 40.7714 49.7082 40.7714 49.6497 40.7714V50.7507H47.3516V26.5054C49.9742 26.5054 52.549 26.516 54.0279 26.516C59.5817 26.516 62.7683 29.0254 62.7683 33.4606C62.7683 37.2327 60.5446 39.6679 56.6931 40.4796L64.0237 50.7507H61.2096ZM49.6497 38.9304C49.7029 38.9304 53.5917 38.9304 53.7353 38.9304C57.9592 38.9304 60.401 36.9356 60.401 33.6092C60.401 30.2085 58.1028 28.4365 53.7353 28.4365C52.9214 28.4365 50.7722 28.4312 49.6497 28.4312V38.9304Z" fill="#070808"/>
<path d="M111.289 48.8301C109.193 50.2732 106.73 50.9947 103.906 50.9947C96.958 50.9947 91.8936 45.9441 91.8936 38.7925C91.8936 31.5773 97.0325 26.3091 103.906 26.3091C106.512 26.3091 108.826 26.9616 111.071 28.2561L110.061 30.1342C107.672 28.8344 105.932 28.4047 103.693 28.4047C98.1922 28.4047 94.2821 32.5906 94.2821 38.506C94.2821 44.4957 98.4794 48.8991 104.273 48.8991C106.518 48.8991 108.544 48.2519 110.422 47.021L111.289 48.8301Z" fill="#070808"/>
<path d="M133.372 50.7507L130.084 42.5486L119.556 42.554L116.258 50.756H114.034L123.95 26.5054H126.02L136 50.7454H133.372V50.7507ZM124.775 29.3968L120.296 40.7767L129.344 40.7714L124.775 29.3968Z" fill="#070808"/>
<path d="M67.4442 9.44871C67.5346 8.87574 67.5187 8.27624 67.3963 7.67674C67.2527 6.99766 66.9867 6.29736 66.4069 5.86232C65.976 5.544 65.4759 5.55461 65.0078 5.68724C64.9439 5.70847 64.7098 5.77743 64.6088 5.83049C64.4492 5.91007 64.5449 5.96312 64.6194 5.9419C64.6194 5.9419 64.6567 5.9419 64.7364 5.92598C65.4014 5.81457 66.0345 6.05862 66.2366 6.87564C66.4654 7.78284 65.96 8.75902 65.2152 9.24711C64.114 9.97394 62.3638 9.61318 61.5286 8.61047C61.0818 8.08525 60.8051 7.3372 61.3158 6.76953C61.4488 6.62629 61.6457 6.52548 61.8425 6.51487C62.0659 6.49896 61.8159 6.89686 61.7733 6.97113C61.6403 7.19926 61.9968 7.45922 62.167 7.24701C62.5394 6.76953 62.6883 6.00556 61.8957 5.86763C61.119 5.73499 60.3796 6.39285 60.1668 7.08254C59.7944 8.26563 60.4593 9.30017 61.4382 9.9368C62.3585 10.5416 63.5023 10.6689 64.5503 10.4461C66.0026 10.1437 67.0133 8.74841 66.7952 7.28414C66.9601 8.14361 66.859 9.16753 66.6409 9.84661C65.8802 12.1863 62.6032 13.0988 60.5445 11.9687C59.0709 11.157 58.5708 9.34261 58.2038 7.83059C57.7516 5.98434 57.4643 4.18053 56.5546 2.48283C55.9375 1.33689 54.9853 0.530478 53.7298 0.164411C52.4212 -0.212267 50.3039 -0.0318859 50.2081 1.66582C50.2028 1.77723 50.3571 1.8515 50.4422 1.78253C50.8731 1.46952 51.3891 1.19364 51.9371 1.19364C52.3946 1.19364 52.9106 1.43769 53.2936 1.6552C53.8894 1.99474 54.2671 2.53589 54.6555 3.20966C54.8576 3.55451 54.9161 3.71367 55.0811 4.16992C55.2407 4.60496 55.3683 5.05591 55.4907 5.50686C55.7301 6.40346 56.0333 7.30006 56.3259 8.18074C56.9004 9.89966 57.6611 11.6982 59.2092 12.7698C61.2148 14.1651 64.013 13.8203 65.8164 12.3189C66.6037 11.661 67.125 10.8016 67.3591 9.85722L67.3644 9.86783C67.4549 10.722 67.1676 11.4753 66.6303 12.1491C66.1036 12.807 65.4333 13.3428 64.8801 13.9848C63.7151 15.3323 63.3693 16.4889 63.8853 17.5977C64.3428 18.5739 65.7259 18.6587 66.2845 17.7728C66.7526 17.03 66.2845 16.2873 65.4227 16.4093C65.2737 16.4305 65.2791 16.6639 65.4387 16.6533C66.5665 16.5684 66.1355 17.9478 65.2578 17.8046C64.1672 17.6348 64.7205 16.1971 65.0237 15.6188C65.4919 14.7328 66.3696 13.7832 66.9708 12.7592C67.54 11.8626 68.0294 10.9236 67.4549 9.45932C67.4442 9.45402 67.4442 9.44871 67.4442 9.44871Z" fill="#070808"/>
<path d="M82.2808 0.164411C81.0254 0.525172 80.0731 1.33689 79.4507 2.48283C78.5357 4.18053 78.2485 5.98434 77.8016 7.83059C77.4345 9.34261 76.9345 11.1517 75.4609 11.9687C73.4021 13.0988 70.1252 12.1863 69.3644 9.84661C69.1463 9.17284 69.0452 8.14361 69.2102 7.28414C68.9867 8.74841 69.9975 10.1437 71.4551 10.4461C72.5031 10.6689 73.6468 10.5363 74.5672 9.9368C75.546 9.30017 76.211 8.27093 75.8386 7.08254C75.6258 6.39285 74.8864 5.73499 74.1097 5.86763C73.317 6.00556 73.466 6.76953 73.8384 7.24701C74.0033 7.46453 74.365 7.20457 74.232 6.97113C74.1895 6.89686 73.9394 6.49896 74.1629 6.51487C74.3597 6.52548 74.5565 6.62629 74.6895 6.76953C75.2002 7.33189 74.9236 8.07994 74.4767 8.61047C73.6415 9.61318 71.8913 9.97925 70.7901 9.24711C70.0454 8.75902 69.54 7.78284 69.7687 6.87564C69.9709 6.05862 70.6039 5.81457 71.2689 5.92598C71.3487 5.9419 71.3859 5.9419 71.3859 5.9419C71.4604 5.96312 71.5615 5.91007 71.3966 5.83049C71.2955 5.77743 71.0614 5.70847 70.9976 5.68724C70.5295 5.55461 70.0294 5.544 69.5985 5.86232C69.0186 6.29736 68.7527 6.99766 68.609 7.67674C68.4813 8.27624 68.4707 8.87574 68.5611 9.44871C68.5611 9.45402 68.5558 9.45402 68.5558 9.45932C67.9813 10.9236 68.4707 11.8626 69.0399 12.7592C69.6357 13.7832 70.5135 14.7328 70.987 15.6188C71.2902 16.1971 71.8434 17.6348 70.7529 17.8046C69.8751 17.9425 69.4442 16.5684 70.572 16.6533C70.7316 16.6639 70.7369 16.4305 70.588 16.4093C69.7262 16.2873 69.258 17.03 69.7262 17.7728C70.2847 18.6587 71.6626 18.5739 72.1254 17.5977C72.6414 16.4889 72.2903 15.3323 71.1306 13.9848C70.5773 13.3428 69.907 12.807 69.3804 12.1491C68.8431 11.4753 68.5558 10.7273 68.6463 9.86783L68.6516 9.85722C68.8856 10.8016 69.407 11.661 70.1943 12.3189C71.9977 13.8203 74.8012 14.1704 76.8015 12.7698C78.3495 11.6982 79.1156 9.90497 79.6848 8.18074C79.9774 7.29476 80.2859 6.40346 80.52 5.50686C80.6424 5.05591 80.7753 4.60496 80.9349 4.16992C81.0999 3.71897 81.1637 3.55451 81.3605 3.20966C81.7489 2.53589 82.1319 1.99474 82.7224 1.6552C83.1107 1.43238 83.6267 1.18834 84.0789 1.19364C84.6269 1.19364 85.1376 1.46421 85.5685 1.78253C85.6536 1.8462 85.8079 1.77723 85.8025 1.66582C85.7068 -0.0318859 83.5895 -0.212267 82.2808 0.164411Z" fill="#070808"/>
</svg>
