<svg width="152" height="41" viewBox="0 0 152 41" fill="none" xmlns="http://www.w3.org/2000/svg">
<g clip-path="url(#clip0)">
<path d="M136.094 32.0539C135.092 31.2208 133.62 31.3684 132.798 32.3749L128.492 37.7028C126.207 31.4638 123.484 15.9229 151.751 12.8164C154.148 41.46 138.654 41.7897 132.131 40.6964L136.419 35.4033C137.241 34.388 137.096 32.8869 136.094 32.0539Z" fill="#97BF0D"/>
<path d="M126.892 11.1764C126.318 11.8359 126.378 12.8511 127.029 13.4325L130.453 16.5042C126.267 17.9273 115.9 19.4111 114.496 0.0521662C133.526 -0.911008 133.381 9.65788 132.507 14.0833L129.109 11.0289C128.467 10.4562 127.465 10.5169 126.892 11.1764Z" fill="#E2007A"/>
<path fill-rule="evenodd" clip-rule="evenodd" d="M20.2969 40.2106H18.4735V30.8478C18.4735 29.7111 18.1311 28.8 17.4548 28.1058C16.7786 27.4203 15.9396 27.0732 14.9466 27.0732C13.4571 27.0732 12.0874 27.4897 10.8376 28.3314C11.0944 28.9128 11.2228 29.7024 11.2228 30.709V40.2106H9.39941V30.761C9.39941 28.2793 8.14102 27.0472 5.62424 27.0472C4.26312 27.0472 3.11602 27.2034 2.17436 27.5244V40.2106H0.35954V27.8889C0.35954 27.3335 0.333859 26.9778 0.273936 26.8302C0.273936 26.8129 0.17977 26.6567 0 26.353C1.36112 25.6848 3.2273 25.3464 5.59856 25.3464C7.55035 25.3464 8.97139 25.8671 9.87024 26.9083C11.2998 25.8844 12.9863 25.3725 14.9124 25.3725C16.5474 25.3725 17.8572 25.8497 18.8245 26.7955C19.8004 27.724 20.2884 29.0169 20.2884 30.6569V40.2106H20.2969Z" fill="black"/>
<path fill-rule="evenodd" clip-rule="evenodd" d="M20.2969 40.2106H18.4735V30.8478C18.4735 29.7111 18.1311 28.8 17.4548 28.1058C16.7786 27.4203 15.9396 27.0732 14.9466 27.0732C13.4571 27.0732 12.0874 27.4897 10.8376 28.3314C11.0944 28.9128 11.2228 29.7024 11.2228 30.709V40.2106H9.39941V30.761C9.39941 28.2793 8.14102 27.0472 5.62424 27.0472C4.26312 27.0472 3.11602 27.2034 2.17436 27.5244V40.2106H0.35954V27.8889C0.35954 27.3335 0.333859 26.9778 0.273936 26.8302C0.273936 26.8129 0.17977 26.6567 0 26.353C1.36112 25.6848 3.2273 25.3464 5.59856 25.3464C7.55035 25.3464 8.97139 25.8671 9.87024 26.9083C11.2998 25.8844 12.9863 25.3725 14.9124 25.3725C16.5474 25.3725 17.8572 25.8497 18.8245 26.7955C19.8004 27.724 20.2884 29.0169 20.2884 30.6569V40.2106H20.2969Z" fill="black"/>
<path fill-rule="evenodd" clip-rule="evenodd" d="M25.6725 28.3313L24.8764 26.7087C26.2375 25.7975 27.787 25.3376 29.5333 25.3376C33.2485 25.3376 35.1062 27.1078 35.1062 30.6481V37.7721C35.1062 38.718 35.2346 39.4902 35.4914 40.0629L33.531 40.5055C33.4026 40.1671 33.3085 39.6551 33.2571 38.9696C33.0003 39.2646 32.6236 39.5683 32.1271 39.8634C31.2454 40.3493 30.2866 40.5922 29.2594 40.5922C27.5644 40.5922 26.1947 40.115 25.1503 39.1692C24.1059 38.1973 23.5752 36.9912 23.5752 35.5334C23.5752 34.0583 24.0888 32.8521 25.1161 31.8976C26.1605 30.9258 27.5986 30.4485 29.4134 30.4485C30.903 30.4485 32.1956 31.0039 33.2999 32.1233V30.813C33.2999 29.416 32.9661 28.4181 32.3069 27.8193C31.7162 27.2987 30.8088 27.0384 29.5761 27.0384C28.1893 27.0471 26.8881 27.4722 25.6725 28.3313ZM25.4756 35.6028C25.4756 36.4966 25.7838 37.2428 26.4087 37.8416C27.1107 38.5531 28.1037 38.9002 29.3878 38.9002C30.5606 38.9002 31.5193 38.5618 32.2555 37.8936C32.9318 37.2602 33.2742 36.4966 33.2742 35.6028C33.2742 34.5963 32.9147 33.7806 32.1956 33.1472C31.4936 32.4964 30.5691 32.1666 29.4134 32.1666C28.0695 32.1666 27.0593 32.5051 26.383 33.1732C25.7838 33.7806 25.4756 34.5963 25.4756 35.6028Z" fill="black"/>
<path fill-rule="evenodd" clip-rule="evenodd" d="M25.6725 28.3313L24.8764 26.7087C26.2375 25.7975 27.787 25.3376 29.5333 25.3376C33.2485 25.3376 35.1062 27.1078 35.1062 30.6481V37.7721C35.1062 38.718 35.2346 39.4902 35.4914 40.0629L33.531 40.5055C33.4026 40.1671 33.3085 39.6551 33.2571 38.9696C33.0003 39.2646 32.6236 39.5683 32.1271 39.8634C31.2454 40.3493 30.2866 40.5922 29.2594 40.5922C27.5644 40.5922 26.1947 40.115 25.1503 39.1692C24.1059 38.1973 23.5752 36.9912 23.5752 35.5334C23.5752 34.0583 24.0888 32.8521 25.1161 31.8976C26.1605 30.9258 27.5986 30.4485 29.4134 30.4485C30.903 30.4485 32.1956 31.0039 33.2999 32.1233V30.813C33.2999 29.416 32.9661 28.4181 32.3069 27.8193C31.7162 27.2987 30.8088 27.0384 29.5761 27.0384C28.1893 27.0471 26.8881 27.4722 25.6725 28.3313ZM25.4756 35.6028C25.4756 36.4966 25.7838 37.2428 26.4087 37.8416C27.1107 38.5531 28.1037 38.9002 29.3878 38.9002C30.5606 38.9002 31.5193 38.5618 32.2555 37.8936C32.9318 37.2602 33.2742 36.4966 33.2742 35.6028C33.2742 34.5963 32.9147 33.7806 32.1956 33.1472C31.4936 32.4964 30.5691 32.1666 29.4134 32.1666C28.0695 32.1666 27.0593 32.5051 26.383 33.1732C25.7838 33.7806 25.4756 34.5963 25.4756 35.6028Z" fill="black"/>
<path fill-rule="evenodd" clip-rule="evenodd" d="M39.0439 25.7369H40.756L40.7304 28.3054C41.5008 26.327 43.0503 25.3464 45.3616 25.3464C45.567 25.3464 45.8923 25.3898 46.3546 25.4853L45.9951 27.16C45.6612 27.0819 45.4044 27.0472 45.2246 27.0472C42.3397 27.0472 40.893 29.1991 40.893 33.5031V40.2106H39.0439V25.7369Z" fill="black"/>
<path fill-rule="evenodd" clip-rule="evenodd" d="M39.0439 25.7369H40.756L40.7304 28.3054C41.5008 26.327 43.0503 25.3464 45.3616 25.3464C45.567 25.3464 45.8923 25.3898 46.3546 25.4853L45.9951 27.16C45.6612 27.0819 45.4044 27.0472 45.2246 27.0472C42.3397 27.0472 40.893 29.1991 40.893 33.5031V40.2106H39.0439V25.7369Z" fill="black"/>
<path fill-rule="evenodd" clip-rule="evenodd" d="M57.6037 25.2335L58.9819 26.2921L52.279 32.3055L59.6411 39.4035L58.2115 40.5228L50.2416 32.6612V40.2104H48.3926V20.3916H50.2416V32.0191L57.6037 25.2335Z" fill="black"/>
<path fill-rule="evenodd" clip-rule="evenodd" d="M57.6037 25.2335L58.9819 26.2921L52.279 32.3055L59.6411 39.4035L58.2115 40.5228L50.2416 32.6612V40.2104H48.3926V20.3916H50.2416V32.0191L57.6037 25.2335Z" fill="black"/>
<path fill-rule="evenodd" clip-rule="evenodd" d="M63.2018 28.3313L62.4057 26.7087C63.7668 25.7975 65.3163 25.3376 67.0626 25.3376C70.7778 25.3376 72.6355 27.1078 72.6355 30.6481V37.7721C72.6355 38.718 72.7639 39.4902 73.0207 40.0629L71.0603 40.5055C70.9319 40.1671 70.8378 39.6551 70.7864 38.9696C70.5296 39.2646 70.1529 39.5683 69.6564 39.8634C68.7747 40.3493 67.8159 40.5922 66.7887 40.5922C65.0937 40.5922 63.724 40.115 62.6796 39.1692C61.6352 38.1973 61.1045 36.9912 61.1045 35.5334C61.1045 34.0583 61.6181 32.8521 62.6454 31.8976C63.6898 30.9258 65.1279 30.4485 66.9427 30.4485C68.4323 30.4485 69.7249 31.0039 70.8292 32.1233V30.813C70.8292 29.416 70.4954 28.4181 69.8362 27.8193C69.2455 27.2987 68.3381 27.0384 67.1054 27.0384C65.7186 27.0471 64.4088 27.4722 63.2018 28.3313ZM63.0049 35.6028C63.0049 36.4966 63.3131 37.2428 63.9466 37.8416C64.6485 38.5531 65.6416 38.9002 66.9256 38.9002C68.0984 38.9002 69.0572 38.5618 69.7934 37.8936C70.4782 37.2602 70.8121 36.4966 70.8121 35.6028C70.8121 34.5963 70.4526 33.7806 69.7335 33.1472C69.0315 32.4964 68.107 32.1666 66.9513 32.1666C65.6073 32.1666 64.5972 32.5051 63.9209 33.1732C63.3131 33.7806 63.0049 34.5963 63.0049 35.6028Z" fill="black"/>
<path fill-rule="evenodd" clip-rule="evenodd" d="M63.2018 28.3313L62.4057 26.7087C63.7668 25.7975 65.3163 25.3376 67.0626 25.3376C70.7778 25.3376 72.6355 27.1078 72.6355 30.6481V37.7721C72.6355 38.718 72.7639 39.4902 73.0207 40.0629L71.0603 40.5055C70.9319 40.1671 70.8378 39.6551 70.7864 38.9696C70.5296 39.2646 70.1529 39.5683 69.6564 39.8634C68.7747 40.3493 67.8159 40.5922 66.7887 40.5922C65.0937 40.5922 63.724 40.115 62.6796 39.1692C61.6352 38.1973 61.1045 36.9912 61.1045 35.5334C61.1045 34.0583 61.6181 32.8521 62.6454 31.8976C63.6898 30.9258 65.1279 30.4485 66.9427 30.4485C68.4323 30.4485 69.7249 31.0039 70.8292 32.1233V30.813C70.8292 29.416 70.4954 28.4181 69.8362 27.8193C69.2455 27.2987 68.3381 27.0384 67.1054 27.0384C65.7186 27.0471 64.4088 27.4722 63.2018 28.3313ZM63.0049 35.6028C63.0049 36.4966 63.3131 37.2428 63.9466 37.8416C64.6485 38.5531 65.6416 38.9002 66.9256 38.9002C68.0984 38.9002 69.0572 38.5618 69.7934 37.8936C70.4782 37.2602 70.8121 36.4966 70.8121 35.6028C70.8121 34.5963 70.4526 33.7806 69.7335 33.1472C69.0315 32.4964 68.107 32.1666 66.9513 32.1666C65.6073 32.1666 64.5972 32.5051 63.9209 33.1732C63.3131 33.7806 63.0049 34.5963 63.0049 35.6028Z" fill="black"/>
<path fill-rule="evenodd" clip-rule="evenodd" d="M78.9959 25.7368H82.7454V27.3855H78.9959V40.2104H77.1725V27.3855H74.9639V25.7368H77.1725L77.1982 24.1141C77.2153 22.8993 77.5577 21.9362 78.2169 21.2073C78.9531 20.3916 79.9889 19.9751 81.3329 19.9751C82.8224 19.9751 84.0037 20.4263 84.894 21.3201L83.901 22.665C83.0364 21.9362 82.1804 21.5717 81.3329 21.5717C79.7749 21.5717 78.9873 22.3874 78.9873 24.0274V25.7368H78.9959Z" fill="black"/>
<path fill-rule="evenodd" clip-rule="evenodd" d="M78.9959 25.7368H82.7454V27.3855H78.9959V40.2104H77.1725V27.3855H74.9639V25.7368H77.1725L77.1982 24.1141C77.2153 22.8993 77.5577 21.9362 78.2169 21.2073C78.9531 20.3916 79.9889 19.9751 81.3329 19.9751C82.8224 19.9751 84.0037 20.4263 84.894 21.3201L83.901 22.665C83.0364 21.9362 82.1804 21.5717 81.3329 21.5717C79.7749 21.5717 78.9873 22.3874 78.9873 24.0274V25.7368H78.9959Z" fill="black"/>
<path fill-rule="evenodd" clip-rule="evenodd" d="M92.0169 25.3376C94.0971 25.3376 95.8691 26.0752 97.3415 27.5417C98.8311 28.9908 99.5758 30.7956 99.5758 32.9389C99.5758 35.0648 98.8824 36.8524 97.5042 38.3015C96.0489 39.8286 94.2255 40.5922 92.0169 40.5922C89.8254 40.5922 88.0192 39.8634 86.581 38.4143C85.1685 36.9652 84.458 35.1343 84.458 32.9389C84.458 30.8737 85.1771 29.0862 86.6067 27.6024C88.0448 26.1012 89.8425 25.3376 92.0169 25.3376ZM86.3584 32.8869C86.3584 34.6223 86.8721 36.054 87.8993 37.1908C88.9266 38.3275 90.2963 38.8915 92.0084 38.8915C93.7204 38.8915 95.1072 38.3015 96.1687 37.13C97.1789 36.0107 97.6839 34.5963 97.6839 32.8782C97.6839 31.3163 97.1789 29.9626 96.1687 28.8259C95.0816 27.6284 93.6948 27.0384 92.0084 27.0384C90.262 27.0384 88.8667 27.6198 87.8137 28.7738C86.8464 29.8758 86.3584 31.2469 86.3584 32.8869Z" fill="black"/>
<path fill-rule="evenodd" clip-rule="evenodd" d="M92.0169 25.3376C94.0971 25.3376 95.8691 26.0752 97.3415 27.5417C98.8311 28.9908 99.5758 30.7956 99.5758 32.9389C99.5758 35.0648 98.8824 36.8524 97.5042 38.3015C96.0489 39.8286 94.2255 40.5922 92.0169 40.5922C89.8254 40.5922 88.0192 39.8634 86.581 38.4143C85.1685 36.9652 84.458 35.1343 84.458 32.9389C84.458 30.8737 85.1771 29.0862 86.6067 27.6024C88.0448 26.1012 89.8425 25.3376 92.0169 25.3376ZM86.3584 32.8869C86.3584 34.6223 86.8721 36.054 87.8993 37.1908C88.9266 38.3275 90.2963 38.8915 92.0084 38.8915C93.7204 38.8915 95.1072 38.3015 96.1687 37.13C97.1789 36.0107 97.6839 34.5963 97.6839 32.8782C97.6839 31.3163 97.1789 29.9626 96.1687 28.8259C95.0816 27.6284 93.6948 27.0384 92.0084 27.0384C90.262 27.0384 88.8667 27.6198 87.8137 28.7738C86.8464 29.8758 86.3584 31.2469 86.3584 32.8869Z" fill="black"/>
<path fill-rule="evenodd" clip-rule="evenodd" d="M114.488 31.0472V40.2104H112.665V30.8476C112.665 28.3138 111.115 27.047 108.008 27.047C106.664 27.047 105.551 27.1945 104.669 27.4982V40.219H102.846V28.0275C102.846 27.3767 102.82 26.9602 102.76 26.7693C102.76 26.7519 102.666 26.561 102.486 26.2139C103.916 25.6326 105.756 25.3462 107.999 25.3462C112.331 25.3375 114.488 27.2465 114.488 31.0472Z" fill="black"/>
<path fill-rule="evenodd" clip-rule="evenodd" d="M114.488 31.0472V40.2104H112.665V30.8476C112.665 28.3138 111.115 27.047 108.008 27.047C106.664 27.047 105.551 27.1945 104.669 27.4982V40.219H102.846V28.0275C102.846 27.3767 102.82 26.9602 102.76 26.7693C102.76 26.7519 102.666 26.561 102.486 26.2139C103.916 25.6326 105.756 25.3462 107.999 25.3462C112.331 25.3375 114.488 27.2465 114.488 31.0472Z" fill="black"/>
<path fill-rule="evenodd" clip-rule="evenodd" d="M118.486 25.7368H120.309V40.2104H118.486V25.7368ZM118.101 21.2854C118.101 20.9122 118.229 20.6085 118.486 20.3656C118.743 20.1053 119.051 19.9751 119.393 19.9751C119.744 19.9751 120.035 20.1053 120.275 20.3656C120.532 20.6085 120.66 20.9122 120.66 21.2854C120.66 21.6585 120.532 21.9622 120.275 22.2051C120.035 22.4481 119.744 22.5696 119.393 22.5696C119.042 22.5696 118.743 22.4481 118.486 22.2051C118.229 21.9622 118.101 21.6585 118.101 21.2854Z" fill="black"/>
<path fill-rule="evenodd" clip-rule="evenodd" d="M118.486 25.7368H120.309V40.2104H118.486V25.7368ZM118.101 21.2854C118.101 20.9122 118.229 20.6085 118.486 20.3656C118.743 20.1053 119.051 19.9751 119.393 19.9751C119.744 19.9751 120.035 20.1053 120.275 20.3656C120.532 20.6085 120.66 20.9122 120.66 21.2854C120.66 21.6585 120.532 21.9622 120.275 22.2051C120.035 22.4481 119.744 22.5696 119.393 22.5696C119.042 22.5696 118.743 22.4481 118.486 22.2051C118.229 21.9622 118.101 21.6585 118.101 21.2854Z" fill="black"/>
</g>
<defs>
<clipPath id="clip0">
<rect width="152" height="41" fill="white"/>
</clipPath>
</defs>
</svg>
