<svg width="124" height="35" viewBox="0 0 124 35" fill="none" xmlns="http://www.w3.org/2000/svg">
<g clip-path="url(#clip0)">
<path d="M21.2954 18.8992C21.2954 18.8992 19.4585 6.25467 0.551758 4.58594C0.551758 4.58594 2.69758 8.30709 3.06834 11.3591C3.06834 11.3591 2.6565 16.9276 7.27271 17.0409C7.26744 17.0357 20.9093 17.857 21.2954 18.8992Z" fill="#EE2A7B"/>
<path d="M10.2269 27.5733C10.2269 27.5733 0.495839 18.8776 6.24882 18.4023C8.28691 18.4945 10.3194 18.6296 12.3468 18.8022C14.5546 18.9857 16.7984 18.9208 18.965 19.4932C19.3868 19.6014 19.9322 19.72 20.2822 20.0118C20.9152 20.5408 20.4932 20.7792 20.0302 21.3621C18.6921 23.0421 17.5396 24.884 16.0625 26.4336C15.2238 27.3201 14.2256 28.3731 13.0727 28.7887C11.8683 29.2207 11.1581 28.2806 10.2269 27.5733Z" fill="#EE2A7B"/>
<path d="M15.043 0.108154C15.6554 0.345761 16.072 2.14411 16.1955 2.67904C16.4426 3.77022 16.4735 4.89901 16.355 6.01165C16.1596 7.88038 15.7171 8.94475 17.4205 10.1651C17.4205 10.1651 21.995 14.216 21.8716 16.9707C21.8716 16.9599 24.1255 3.59185 15.043 0.108154Z" fill="#EE2A7B"/>
<path d="M27.5682 34.9999C27.1874 34.7082 26.6833 34.5353 26.0553 34.4814C25.4273 34.4277 24.8974 34.4002 24.4653 34.4002C24.033 34.4002 23.6417 34.1633 23.3023 33.6818C22.9627 33.2017 22.793 32.4179 22.793 31.3275V11.6342C22.8136 11.6126 22.9162 11.4828 23.0965 11.2507C23.2766 11.0184 23.4412 10.8347 23.5904 10.6997C23.7397 10.5648 24.0124 10.3756 24.4189 10.1324C24.8204 9.88943 25.2682 9.70057 25.757 9.56546C26.2459 9.43052 26.9047 9.31171 27.7279 9.19824C28.5563 9.08461 29.4877 9.03101 30.5272 9.03101C33.7897 9.03101 36.1363 9.77079 37.5567 11.2508C38.9768 12.7307 39.6869 15.1936 39.6869 18.6448C39.6869 20.3137 39.4348 21.7618 38.9252 22.9816C38.4157 24.2085 37.7314 25.1483 36.8721 25.8014C36.0128 26.4608 35.102 26.936 34.1394 27.2383C33.1772 27.541 32.1533 27.6919 31.0724 27.6919C29.6111 27.6919 28.4429 27.5358 27.5733 27.2225V34.9999H27.5682ZM27.5682 18.3104V23.047C27.9078 23.1605 28.2731 23.247 28.6644 23.3172C29.0554 23.3821 29.5493 23.4418 30.1412 23.4849C30.733 23.5289 31.2887 23.4626 31.7983 23.2844C32.3078 23.1066 32.7965 22.853 33.2596 22.5174C33.7281 22.1831 34.0985 21.6486 34.3713 20.914C34.6491 20.1788 34.7828 19.3047 34.7828 18.2778C34.7828 17.4353 34.6492 16.7006 34.3867 16.0741C34.119 15.453 33.8155 14.9724 33.4656 14.6373C33.1158 14.3024 32.6578 14.054 32.0813 13.8864C31.5102 13.719 31.0315 13.622 30.6508 13.5839C30.2699 13.5463 29.7915 13.568 29.2202 13.6328C28.649 13.6974 28.2989 13.7463 28.1704 13.7679C28.0416 13.7896 27.8515 13.8324 27.5992 13.9029H27.5684C27.5426 13.9029 27.5426 15.3719 27.5682 18.3104Z" fill="black"/>
<path d="M44.9311 13.7732C44.9311 13.7083 44.9209 13.6164 44.9002 13.5083C44.8796 13.4004 44.8745 13.179 44.8847 12.8603C44.8951 12.5362 44.926 12.2336 44.9826 11.942C45.034 11.6559 45.142 11.3262 45.3015 10.9592C45.4612 10.5916 45.6721 10.2786 45.9398 10.0247C46.2074 9.77083 46.5674 9.5547 47.0205 9.37649C47.4784 9.19844 48.0136 9.11192 48.6258 9.11192H49.5161C50.067 9.0903 50.6332 9.0903 51.2196 9.11192C51.801 9.13355 52.3827 9.16051 52.9692 9.19296C53.5508 9.2254 54.122 9.32242 54.6725 9.47382C55.2234 9.63055 55.7481 9.81973 56.2472 10.0409C56.7466 10.2623 57.1993 10.581 57.6161 10.9915C58.0278 11.4019 58.388 11.8773 58.6968 12.4119C59.0054 12.9465 59.2424 13.6056 59.412 14.3833C59.5818 15.161 59.6693 16.0417 59.6693 17.0191V17.2515V17.4837V17.7484V17.9806V18.2449V18.515V18.8178V19.1527V19.4876V19.8875V20.4222V20.6865C59.6693 21.5996 59.5713 22.4309 59.3813 23.1713C59.1908 23.9167 58.9543 24.5217 58.6661 24.9911C58.3778 25.4617 58.0229 25.8718 57.6006 26.2287C57.1787 26.5851 56.7774 26.8448 56.4068 27.0113C56.0365 27.1791 55.6041 27.3142 55.1203 27.4111C54.6313 27.5136 54.2556 27.573 53.9933 27.5946C53.7308 27.6164 53.417 27.6274 53.0568 27.6274H48.6672C48.6054 27.6274 48.5077 27.6224 48.3789 27.6117C48.2503 27.6012 48.0136 27.5685 47.6639 27.5092C47.3139 27.455 46.9794 27.3686 46.6603 27.2614C46.3411 27.153 45.9862 26.9635 45.5951 26.7097C45.2039 26.4555 44.8692 26.1532 44.5913 25.8073C44.3136 25.4617 44.0818 25.0134 43.8917 24.4568C43.7012 23.9009 43.6035 23.279 43.6035 22.588C43.6035 21.3617 43.7528 20.3357 44.0513 19.4981C44.3494 18.6668 44.7973 18.018 45.4045 17.5647C46.0065 17.1109 46.6807 16.7921 47.4218 16.6139C48.1628 16.4359 49.0632 16.3494 50.1234 16.3494C51.9658 16.3494 53.2264 16.2199 53.8901 15.9658C54.5592 15.7118 54.8937 15.3176 54.8937 14.783C54.8937 14.0269 54.199 13.5136 52.8097 13.2492C51.4202 12.9791 49.9486 12.9251 48.3891 13.0818C46.8198 13.2277 45.6721 13.4598 44.9311 13.7732ZM55.0121 18.8126C54.9247 18.9259 54.8063 19.0551 54.6468 19.2123C54.4873 19.3685 54.1322 19.5742 53.5813 19.8277C53.0309 20.0868 52.4598 20.2111 51.8627 20.2111C50.8231 20.2111 49.9844 20.3462 49.3362 20.6111C48.6875 20.8758 48.3685 21.2535 48.3685 21.7451C48.3685 22.3231 48.6003 22.7552 49.0687 23.0469C49.5316 23.3387 50.4682 23.4848 51.868 23.4848C52.4391 23.4848 52.8817 23.4795 53.1904 23.4688C53.4992 23.4583 53.7822 23.3707 54.0497 23.2202C54.3173 23.0638 54.5027 22.9169 54.6054 22.7873C54.7135 22.6524 54.8009 22.3717 54.8785 21.9339C54.9503 21.5024 54.9968 21.0869 55.007 20.6818C55.0018 20.2815 55.0121 19.6607 55.0121 18.8126Z" fill="black"/>
<path d="M74.0266 23.2846C74.3241 24.2624 74.3655 25.1638 74.1551 25.9851C73.9442 26.812 73.5833 27.3524 73.0737 27.6225C71.9726 27.978 70.8977 28.0812 69.8471 27.941C68.7976 27.7943 67.8656 27.4927 67.0484 27.0222C66.2297 26.5578 65.5709 25.8774 65.0613 24.9856C64.5527 24.0946 64.3006 23.0846 64.3006 21.9511V7.59956C64.2793 6.90837 64.3827 6.33582 64.6192 5.88208C64.8513 5.42818 65.2011 5.09873 65.6694 4.89905C66.1376 4.69937 66.6363 4.56944 67.167 4.51553C67.6966 4.4613 68.3349 4.45612 69.0756 4.49938V9.33898H74.5462V9.58724C74.5462 9.6899 74.525 9.89491 74.4837 10.2082C74.4425 10.5217 74.3763 10.8188 74.2939 11.1102C74.2064 11.4019 74.0677 11.7152 73.8667 12.0608C73.6656 12.4064 73.4243 12.6979 73.151 12.9463C72.8738 13.1951 72.5027 13.3946 72.0395 13.5623C71.5721 13.7298 71.0514 13.8106 70.4806 13.8106C69.9709 13.8106 69.5031 13.8214 69.0804 13.843L69.1116 21.5563C69.0916 22.1553 69.2091 22.62 69.4619 22.9392C69.7138 23.263 70.059 23.4518 70.4961 23.5056C70.9338 23.5606 71.3661 23.5763 71.7987 23.539C72.2308 23.5056 72.6783 23.4581 73.1369 23.3876C73.5734 23.3174 73.8768 23.2846 74.0266 23.2846Z" fill="black"/>
<path d="M83.5307 12.4338C83.5307 11.3428 83.3608 10.5596 83.0216 10.079C82.6819 9.59817 82.2958 9.36056 81.8582 9.36056C81.4261 9.36056 80.8963 9.33376 80.268 9.27953C79.6406 9.22545 79.1418 9.05242 78.7559 8.76074V27.6224C80.3048 27.7079 81.4933 27.5511 82.3314 27.1359C83.1706 26.7255 83.5663 25.8501 83.5255 24.5165V12.4336H83.5307V12.4338Z" fill="black"/>
<path d="M99.8798 9.10107C99.86 9.14449 99.8648 9.3821 99.8955 9.80308C99.9261 10.2245 99.9209 10.6349 99.8798 11.0239C99.8384 11.4127 99.7511 11.8285 99.6287 12.277C99.5049 12.7252 99.2427 13.0763 98.8506 13.3463C98.4595 13.6112 97.9561 13.7463 97.3381 13.7463C96.4484 13.7463 95.759 13.7785 95.2695 13.8488C94.78 13.9136 94.3479 14.0809 93.9679 14.3512C93.5871 14.6159 93.3297 14.9994 93.2061 15.4854C93.0773 15.9771 93.0161 16.6413 93.0161 17.4893V28.1731C92.6353 27.8814 92.1304 27.6545 91.5075 27.4876C90.8853 27.3192 90.3495 27.1893 89.9175 27.1034C89.4804 27.0169 89.0941 26.752 88.7596 26.3207C88.4199 25.8881 88.25 25.2558 88.25 24.4357V15.4909C88.25 15.3561 88.2562 15.1721 88.2661 14.94C88.2762 14.7077 88.3125 14.3834 88.3787 13.9733C88.4411 13.5626 88.5488 13.1521 88.6984 12.7363C88.8472 12.3257 89.0695 11.8992 89.3668 11.451C89.6655 11.0079 90.0263 10.6192 90.4485 10.2841C90.8707 9.94916 91.4207 9.67393 92.0853 9.45231C92.7537 9.23085 93.5006 9.11737 94.3283 9.11737H97.4778H98.5897H98.9544H99.8813V9.10123H99.8798V9.10107Z" fill="black"/>
<path d="M114.094 23.2846C114.392 24.2624 114.433 25.1638 114.222 25.9851C114.011 26.812 113.652 27.3524 113.141 27.6225C112.039 27.978 110.965 28.0812 109.915 27.941C108.864 27.7943 107.932 27.4927 107.115 27.0222C106.297 26.5578 105.639 25.8774 105.129 24.9856C104.62 24.0938 104.368 23.0846 104.368 21.9511V7.59956C104.347 6.90837 104.45 6.33582 104.686 5.88208C104.918 5.42818 105.268 5.09873 105.736 4.89905C106.205 4.69937 106.698 4.56944 107.229 4.51553C107.758 4.4613 108.397 4.45612 109.137 4.49938V9.33898H114.608V9.58724C114.608 9.6899 114.587 9.89491 114.546 10.2082C114.505 10.5217 114.439 10.8188 114.356 11.1102C114.274 11.4019 114.13 11.7152 113.929 12.0608C113.728 12.4064 113.486 12.6979 113.213 12.9463C112.94 13.1951 112.564 13.3946 112.101 13.5623C111.633 13.7298 111.113 13.8106 110.543 13.8106C110.033 13.8106 109.565 13.8214 109.143 13.843L109.174 21.5563C109.154 22.1553 109.271 22.62 109.524 22.9392C109.776 23.263 110.121 23.4518 110.559 23.5056C110.996 23.5606 111.428 23.5763 111.86 23.539C112.293 23.5056 112.741 23.4581 113.198 23.3876C113.645 23.3174 113.944 23.2846 114.094 23.2846Z" fill="black"/>
<path d="M123.603 12.4338C123.603 11.3428 123.434 10.5596 123.093 10.079C122.754 9.59817 122.368 9.36056 121.931 9.36056C121.492 9.36056 120.968 9.33376 120.341 9.27953C119.712 9.22545 119.213 9.05242 118.832 8.76074V27.6224C120.381 27.7079 121.569 27.5511 122.409 27.1359C123.248 26.7255 123.644 25.8501 123.603 24.5165V12.4336H123.603V12.4338Z" fill="black"/>
</g>
<defs>
<clipPath id="clip0">
<rect width="124" height="35" fill="white"/>
</clipPath>
</defs>
</svg>
