<svg width="24" height="24" viewBox="0 0 24 24" fill="none" xmlns="http://www.w3.org/2000/svg">
<path fill-rule="evenodd" clip-rule="evenodd" d="M10.0281 8.11833C10.3533 7.94431 10.7478 7.96338 11.0547 8.16795L15.5547 11.168C15.8329 11.3534 16 11.6656 16 12C16 12.3344 15.8329 12.6466 15.5547 12.8321L11.0547 15.8321C10.7478 16.0366 10.3533 16.0557 10.0281 15.8817C9.70298 15.7077 9.5 15.3688 9.5 15V9C9.5 8.63121 9.70298 8.29235 10.0281 8.11833ZM11.5 10.8685V13.1315L13.1972 12L11.5 10.8685Z" fill="black"/>
<path fill-rule="evenodd" clip-rule="evenodd" d="M11.9993 3.53815L11.9876 3.53811L11.9395 3.53809C11.8979 3.53814 11.8377 3.53839 11.7606 3.53914C11.6064 3.54065 11.3844 3.54418 11.109 3.55226C10.5586 3.5684 9.79169 3.60278 8.92325 3.67589C7.21193 3.81994 5.00933 4.12144 3.30169 4.77765L3.29659 4.77963C2.92775 4.92369 2.59854 5.15356 2.33625 5.4502C2.07458 5.74613 1.88702 6.10001 1.78901 6.48265C1.54451 7.42234 1.25 9.14551 1.25 12C1.25 14.8544 1.54449 16.5775 1.78898 17.5172C1.88698 17.8999 2.07455 18.2538 2.33621 18.5497C2.59851 18.8463 2.92771 19.0762 3.29655 19.2203L3.30165 19.2223C5.00928 19.8785 7.2119 20.18 8.92323 20.324C9.79168 20.3971 10.5586 20.4315 11.109 20.4477C11.3844 20.4557 11.6064 20.4593 11.7606 20.4608C11.8377 20.4615 11.8979 20.4618 11.9395 20.4618L11.9876 20.4618L11.9993 20.4618H12.0007L12.0124 20.4618L12.0605 20.4618C12.1021 20.4618 12.1623 20.4615 12.2394 20.4608C12.3936 20.4593 12.6156 20.4557 12.891 20.4477C13.4414 20.4315 14.2083 20.3971 15.0767 20.324C16.7881 20.18 18.9907 19.8785 20.6983 19.2223L20.7034 19.2203C21.0723 19.0762 21.4015 18.8464 21.6638 18.5497C21.9254 18.2538 22.113 17.8999 22.211 17.5172C22.4555 16.5775 22.75 14.8544 22.75 12C22.75 9.14531 22.4555 7.42211 22.211 6.48248C22.1129 6.09992 21.9254 5.74611 21.6638 5.45022C21.4015 5.15358 21.0723 4.9237 20.7034 4.77964L20.6983 4.77767C18.9907 4.12145 16.7881 3.81994 15.0768 3.67589C14.2083 3.60278 13.4414 3.5684 12.891 3.55226C12.6156 3.54418 12.3936 3.54065 12.2394 3.53914C12.1623 3.53839 12.1021 3.53814 12.0605 3.53809L12.0124 3.53811L12.0007 3.53815H11.9993ZM11.9939 18.4618L12.0064 18.4617L12.0083 18.4618L12.0176 18.4618L12.0578 18.4618C12.094 18.4618 12.1486 18.4616 12.2198 18.4609C12.3623 18.4595 12.5712 18.4562 12.8324 18.4485C13.3553 18.4332 14.0848 18.4005 14.909 18.3311C16.5816 18.1903 18.5472 17.9056 19.9778 17.3566C20.0498 17.3281 20.1141 17.283 20.1655 17.2249C20.2173 17.1663 20.2544 17.0962 20.2737 17.0205L20.275 17.0154C20.4686 16.2722 20.75 14.7224 20.75 12C20.75 9.27753 20.4686 7.72773 20.275 6.9845L20.2737 6.97948C20.2544 6.90369 20.2173 6.83361 20.1655 6.77502C20.1141 6.71696 20.0498 6.67184 19.9777 6.64334C18.5472 6.09429 16.5816 5.80964 14.909 5.66884C14.0849 5.59946 13.3553 5.56674 12.8324 5.5514C12.5712 5.54374 12.3623 5.54044 12.2198 5.53905C12.1486 5.53835 12.094 5.53813 12.0578 5.53808L12.0176 5.5381L12.0083 5.53813L12.0064 5.53814L11.9936 5.53822L11.9917 5.53813L11.9824 5.5381L11.9422 5.53808C11.906 5.53813 11.8514 5.53835 11.7802 5.53905C11.6377 5.54044 11.4288 5.54374 11.1676 5.5514C10.6447 5.56674 9.91516 5.59946 9.09101 5.66884C7.41838 5.80964 5.45285 6.09429 4.02226 6.64334C3.9502 6.67184 3.88588 6.71695 3.83454 6.77501C3.78273 6.8336 3.74564 6.90369 3.72632 6.97947L3.72504 6.9845C3.53146 7.72772 3.25 9.27753 3.25 12C3.25 14.7224 3.53144 16.2722 3.72501 17.0154L3.72631 17.0204C3.74563 17.0962 3.78271 17.1663 3.83452 17.2249C3.88587 17.283 3.95021 17.3281 4.02229 17.3566C5.45286 17.9056 7.41837 18.1903 9.09099 18.3311C9.91514 18.4005 10.6447 18.4332 11.1676 18.4485C11.4288 18.4562 11.6377 18.4595 11.7802 18.4609C11.8514 18.4616 11.906 18.4618 11.9422 18.4618L11.9824 18.4618L11.9917 18.4618L11.9939 18.4618Z" fill="black"/>
</svg>
